<?xml version="1.0" encoding="UTF-8" standalone="no"?>
<!-- Generator: Adobe Illustrator 16.0.0, SVG Export Plug-In . SVG Version: 6.00 Build 0)  -->

<svg
   xmlns:dc="http://purl.org/dc/elements/1.1/"
   xmlns:cc="http://creativecommons.org/ns#"
   xmlns:rdf="http://www.w3.org/1999/02/22-rdf-syntax-ns#"
   xmlns:svg="http://www.w3.org/2000/svg"
   xmlns="http://www.w3.org/2000/svg"
   xmlns:sodipodi="http://sodipodi.sourceforge.net/DTD/sodipodi-0.dtd"
   xmlns:inkscape="http://www.inkscape.org/namespaces/inkscape"
   version="1.1"
   id="Capa_1"
   x="0px"
   y="0px"
   width="32"
   height="32"
   viewBox="0 0 32 32"
   xml:space="preserve"
   sodipodi:docname="ambulance.svg"
   inkscape:version="0.92.3 (2405546, 2018-03-11)"><metadata
   id="metadata61"><rdf:RDF><cc:Work
       rdf:about=""><dc:format>image/svg+xml</dc:format><dc:type
         rdf:resource="http://purl.org/dc/dcmitype/StillImage" /><dc:title></dc:title></cc:Work></rdf:RDF></metadata><defs
   id="defs59">
	
	
	
	
	
	
	
	
	
	
	
	
	
	
	
	
	
	
	
	
	
	
	
	
	
</defs><sodipodi:namedview
   pagecolor="#ffffff"
   bordercolor="#666666"
   borderopacity="1"
   objecttolerance="10"
   gridtolerance="10"
   guidetolerance="10"
   inkscape:pageopacity="0"
   inkscape:pageshadow="2"
   inkscape:window-width="1366"
   inkscape:window-height="705"
   id="namedview57"
   showgrid="false"
   inkscape:zoom="11.534679"
   inkscape:cx="16.697926"
   inkscape:cy="10.673991"
   inkscape:window-x="0"
   inkscape:window-y="30"
   inkscape:window-maximized="1"
   inkscape:current-layer="Capa_1" />
<style
   type="text/css"
   id="style2">
<![CDATA[
	.st0{fill-rule:evenodd;clip-rule:evenodd;fill:#DFD9F4;}
	.st1{fill-rule:evenodd;clip-rule:evenodd;fill:#7DC9EC;}
	.st2{fill-rule:evenodd;clip-rule:evenodd;fill:#7DCAEC;}
	.st3{fill-rule:evenodd;clip-rule:evenodd;fill:#7E77C9;}
	.st4{fill-rule:evenodd;clip-rule:evenodd;fill:#7E77CA;}
	.st5{fill-rule:evenodd;clip-rule:evenodd;fill:#7E77CB;}
	.st6{fill-rule:evenodd;clip-rule:evenodd;fill:#7E78CA;}
	.st7{fill-rule:evenodd;clip-rule:evenodd;fill:#7F78CB;}
	.st8{fill-rule:evenodd;clip-rule:evenodd;fill:#E0DAF4;}
	.st9{fill-rule:evenodd;clip-rule:evenodd;fill:#E0DAF5;}
	.st10{fill-rule:evenodd;clip-rule:evenodd;fill:#80D3F3;}
	.st11{fill-rule:evenodd;clip-rule:evenodd;fill:#80D3F4;}
	.st12{fill-rule:evenodd;clip-rule:evenodd;fill:#80D4F4;}
	.st13{fill-rule:evenodd;clip-rule:evenodd;fill:#211C55;}
	.st14{fill-rule:evenodd;clip-rule:evenodd;fill:#211D55;}
	.st15{fill-rule:evenodd;clip-rule:evenodd;fill:#221D55;}
	.st16{fill-rule:evenodd;clip-rule:evenodd;fill:#231E56;}
	.st17{fill-rule:evenodd;clip-rule:evenodd;fill:#242155;}
	.st18{fill-rule:evenodd;clip-rule:evenodd;fill:#F9F9FA;}
	.st19{fill-rule:evenodd;clip-rule:evenodd;fill:#FAFAFB;}
	.st20{fill-rule:evenodd;clip-rule:evenodd;fill:#FBFBFB;}
	.st21{fill-rule:evenodd;clip-rule:evenodd;fill:#FBFBFC;}
	.st22{fill-rule:evenodd;clip-rule:evenodd;fill:#9997AF;}
	.st23{fill-rule:evenodd;clip-rule:evenodd;fill:#FCFBFC;}
	.st24{fill-rule:evenodd;clip-rule:evenodd;fill:#FCFCFC;}
	.st25{fill-rule:evenodd;clip-rule:evenodd;fill:#FCFCFD;}
	.st26{fill-rule:evenodd;clip-rule:evenodd;fill:#FDFDFD;}
	.st27{fill-rule:evenodd;clip-rule:evenodd;fill:#FDFDFE;}
	.st28{fill-rule:evenodd;clip-rule:evenodd;fill:#FEFDFE;}
	.st29{fill-rule:evenodd;clip-rule:evenodd;fill:#FEFEFE;}
	.st30{fill-rule:evenodd;clip-rule:evenodd;fill:#CFD3E3;}
]]>
</style>
<g
   id="g57"
   transform="matrix(2.2466364,0,0,2.2466364,-1.1184422,-36.771453)"><path
     class="st13"
     d="m 12.097781,27.2839 c 0.590385,0 1.148567,0 1.706749,0 0.09661,0 0.139545,0.01092 0.128811,0.131064 -0.01073,0.207518 0,0.207518 -0.203951,0.207518 -1.288112,0 -2.586958,0 -3.8750699,0 -0.096608,0 -0.1395454,-0.02184 -0.1395454,-0.131064 0.010734,-0.207518 0,-0.207518 0.2146853,-0.207518 0.193217,0 0.375699,0 0.568916,0 0.02147,-0.04369 -0.01073,-0.05461 -0.0322,-0.06553 -0.128811,-0.152908 -0.214685,-0.316738 -0.257622,-0.502411 -0.01073,-0.08738 -0.05367,-0.10922 -0.139546,-0.10922 -1.352517,0 -2.7050344,0 -4.0575518,0 -0.053671,0 -0.1395454,0.03277 -0.1502797,-0.02184 -0.021468,-0.08738 -0.010734,-0.196596 0,-0.283972 0,-0.04369 0.064406,-0.02184 0.096608,-0.02184 0.6440559,0 1.2773775,0 1.9214334,0 0.7299301,0 1.4598601,0 2.2005251,0 0.09661,0 0.171748,-0.08738 0.161014,-0.185674 -0.01074,-0.05461 -0.05367,-0.03277 -0.07514,-0.03277 -0.2468887,0 -0.5045111,0 -0.7513992,0 -1.3417831,0 -2.6835662,0 -4.0253493,0 -0.032203,0 -0.053671,0 -0.096608,0 0.1288112,0.458724 0.053671,0.851915 -0.2576224,1.212341 0.042937,0.02184 0.085874,0.01092 0.1288112,0.01092 0.7621328,0 1.5242656,0 2.2971327,0 0.096608,0 0.1180769,0.03277 0.1180769,0.120142 0,0.21844 0,0.21844 -0.2146853,0.21844 -1.8570278,0 -3.7033214,0 -5.5603492,0 -0.118077,0 -0.1502798,-0.03277 -0.1395455,-0.141986 0.010734,-0.196596 0,-0.196596 0.1824825,-0.196596 0.4723077,0 0.9446153,0 1.416923,0 0.042937,0 0.07514,0 0.1395454,0 C 3.2742157,27.130992 3.166873,26.967162 3.123936,26.79241 3.0702646,26.606737 3.0702646,26.606737 2.8770479,26.606737 c -0.3112937,0 -0.6225874,0 -0.9338811,0 -0.085874,0 -0.1180769,-0.01092 -0.1180769,-0.10922 0.010734,-0.21844 0,-0.447802 0,-0.677164 0,-0.06553 0,-0.120142 0.096608,-0.10922 0.085874,0.01092 0.064406,-0.05461 0.064406,-0.10922 0,-0.535177 0,-1.070355 0,-1.616455 0,-0.0983 0.032203,-0.152907 0.1180769,-0.185673 0.3005594,-0.141986 0.6118531,-0.294894 0.9124125,-0.425958 0.064406,-0.03277 0.096608,-0.07645 0.1180769,-0.141986 0.2254196,-0.764539 0.4508391,-1.518157 0.6655244,-2.271774 0.021469,-0.08738 0.053671,-0.141986 0.161014,-0.120142 0.1288112,0.02184 0.1932168,-0.02184 0.2039511,-0.16383 0.010734,-0.141986 0.042937,-0.27305 0.053671,-0.415036 0.010734,-0.06553 0.021469,-0.0983 0.1073426,-0.0983 0.3434965,0 0.686993,0 1.0304895,0 0.07514,0 0.096608,0.02184 0.1073426,0.08738 0.021469,0.152908 0.053671,0.316738 0.07514,0.469646 0.010734,0.0983 0.053671,0.10922 0.1395454,0.10922 0.890944,0 1.781888,0 2.6620977,0 1.6101398,0 3.2310145,0 4.8411535,0 0.107343,0 0.118077,0.04369 0.118077,0.131064 0,1.059433 0,2.129788 0,3.189221 0,0.08738 0.02147,0.131064 0.09661,0.174752 0.150279,0.08738 0.289825,0.196596 0.42937,0.283972 0.05367,0.03277 0.06441,0.06553 0.06441,0.131064 0,0.404114 0,0.819149 0,1.223263 0,0.06553 -0.02147,0.0983 -0.08587,0.08738 0,0 -0.01074,0 -0.01074,0 -0.09661,0.01092 -0.214685,-0.04369 -0.268356,0.02184 -0.04294,0.05461 -0.01074,0.174752 -0.01074,0.27305 0,0.251206 0,0.251206 -0.246888,0.251206 -0.225419,0 -0.461573,0 -0.686993,0 -0.04294,0 -0.07514,-0.01092 -0.08587,0.05461 -0.107342,0.240283 -0.214685,0.436879 -0.397168,0.633475 z"
     id="path4"
     inkscape:connector-curvature="0"
     style="clip-rule:evenodd;fill:#211c55;fill-rule:evenodd;stroke-width:0.10827722" /><path
     class="st16"
     d="m 8.6628167,27.2839 c 0.161014,0 0.3327622,0 0.4937762,0 0.064406,0 0.085874,0.02184 0.085874,0.08738 0.010734,0.251206 0.010734,0.251206 -0.2361538,0.251206 -0.2683567,0 -0.5474475,0 -0.8158042,0 -0.07514,0 -0.096608,-0.02184 -0.096608,-0.0983 0,-0.240284 0,-0.240284 0.2254196,-0.240284 0.085874,0 0.1717482,0 0.2468881,0 0.032203,0 0.064406,0 0.096608,0 z"
     id="path6"
     inkscape:connector-curvature="0"
     style="clip-rule:evenodd;fill:#231e56;fill-rule:evenodd;stroke-width:0.10827722" /><path
     class="st7"
     d="m 4.6374673,19.256236 c 0,-0.141986 0,-0.294894 0,-0.43688 0,-0.05461 0.010734,-0.08738 0.07514,-0.07645 0.010734,0 0.010734,0 0.021469,0 0.2361538,0 0.2361538,0 0.2361538,0.240284 0,0.240284 0,0.49149 0,0.731774 0,0.06553 -0.021469,0.08738 -0.085874,0.0983 -0.2468881,0.01092 -0.2468881,0.01092 -0.2468881,-0.240284 0,-0.10922 0,-0.21844 0,-0.316738 0,0 0,0 -7e-7,0 z"
     id="path8"
     inkscape:connector-curvature="0"
     style="clip-rule:evenodd;fill:#7f78cb;fill-rule:evenodd;stroke-width:0.10827722" /><path
     class="st7"
     d="m 4.2295652,19.835102 c 0,0.02184 -0.021469,0.03277 -0.032203,0.04369 -0.2039508,0.174751 -0.2254193,0.163829 -0.3649648,-0.05461 -0.1288111,-0.207518 -0.2468881,-0.404114 -0.3756992,-0.611632 -0.042937,-0.05461 -0.042937,-0.08738 0.032203,-0.131064 0.203951,-0.131064 0.203951,-0.141986 0.3327622,0.07645 0.1180769,0.196596 0.2468881,0.404114 0.3756992,0.60071 0.010734,0.02184 0.021469,0.05461 0.032203,0.07645 z"
     id="path10"
     inkscape:connector-curvature="0"
     style="clip-rule:evenodd;fill:#7f78cb;fill-rule:evenodd;stroke-width:0.10827722" /><path
     class="st6"
     d="m 5.3888659,19.82418 c 0.010734,-0.02184 0.021469,-0.04369 0.032203,-0.06553 0.1502795,-0.251206 0.3112934,-0.49149 0.4615732,-0.742696 0.032203,-0.05461 0.053671,-0.06553 0.1180769,-0.03277 0.2146853,0.131064 0.2254195,0.131064 0.085874,0.349504 -0.1180769,0.185674 -0.2361538,0.371348 -0.3542308,0.567944 -0.053671,0.0983 -0.1073426,0.131063 -0.1932167,0.04369 -0.032203,-0.03277 -0.07514,-0.04369 -0.1073427,-0.07645 -0.021469,0 -0.053671,-0.01092 -0.042937,-0.04369 z"
     id="path12"
     inkscape:connector-curvature="0"
     style="clip-rule:evenodd;fill:#7e78ca;fill-rule:evenodd;stroke-width:0.10827722" /><path
     class="st26"
     d="m 5.8182365,24.149288 c 0,-0.961135 0,-1.92227 0,-2.883406 0,-0.109219 0.053671,-0.0983 0.1180769,-0.0983 1.620874,0 3.2310137,0 4.8518876,0 0.676259,0 1.352518,0 2.028776,0 0.08587,0 0.107343,0.02184 0.107343,0.10922 0,0.961136 0,1.911349 0,2.872484 -0.06441,0.06553 -0.139546,0.04369 -0.214685,0.04369 -1.127098,0 -2.254196,0 -3.3705596,0 -1.094895,0 -2.1897901,0 -3.2846851,0 -0.096608,0 -0.1717482,0.02184 -0.2361538,-0.04369 z"
     id="path14"
     inkscape:connector-curvature="0"
     style="clip-rule:evenodd;fill:#fdfdfd;fill-rule:evenodd;stroke-width:0.10827722" /><path
     class="st26"
     d="m 5.4854742,23.439359 c 0,0.720851 0,1.441703 0,2.162554 0,0.08738 -0.021468,0.120142 -0.1180769,0.120142 -0.1824825,0.01092 -0.3220279,-0.03277 -0.4723076,-0.16383 -0.4401049,-0.404113 -1.1270978,-0.349503 -1.5349999,0.08738 -0.042937,0.04369 -0.07514,0.07645 -0.1395455,0.06553 -0.2790909,0 -0.5581817,0 -0.8372726,0 -0.085874,0 -0.096608,-0.03277 -0.096608,-0.10922 0,-0.07645 0.010734,-0.120142 0.096608,-0.120142 0.1502797,0.01092 0.3005594,0 0.4401048,0 0.053671,0 0.07514,-0.02184 0.07514,-0.07645 0,-0.382269 0,-0.775461 0,-1.157731 0,-0.07645 -0.032203,-0.07645 -0.085874,-0.07645 -0.1395455,0 -0.2898252,0 -0.4293706,0 -0.032203,0 -0.085874,0.02184 -0.096608,-0.04369 -0.010734,-0.05461 0.021469,-0.07645 0.064406,-0.0983 0.3005584,-0.141985 0.5903835,-0.283971 0.890943,-0.425957 0.07514,-0.03277 0.1180769,-0.08738 0.1395454,-0.16383 0.2146853,-0.720852 0.4186363,-1.452625 0.6333216,-2.173477 0.021469,-0.08738 0.064406,-0.120141 0.1502798,-0.120141 0.407902,0.01092 0.8050698,0 1.2129719,0 0.085874,0 0.1073426,0.02184 0.1073426,0.109219 0,0.742696 0,1.463547 0,2.184399 0,0 0,0 0,0 z"
     id="path16"
     inkscape:connector-curvature="0"
     style="clip-rule:evenodd;fill:#fdfdfd;fill-rule:evenodd;stroke-width:0.10827722" /><path
     class="st26"
     d="m 12.913586,24.87014 c 0,0.251206 0,0.502411 0,0.753617 0,0.07645 -0.01074,0.10922 -0.09661,0.0983 -0.07514,-0.01092 -0.150279,0 -0.225419,0 -0.22542,0.01092 -0.407902,-0.02184 -0.601119,-0.196596 -0.440105,-0.393191 -1.116364,-0.316737 -1.524266,0.120142 -0.04294,0.04369 -0.08587,0.06553 -0.150279,0.06553 -1.4705948,0 -2.9411891,0 -4.4010492,0 -0.085874,0 -0.1073426,-0.03277 -0.1073426,-0.10922 0,-0.21844 0,-0.425957 0,-0.644397 0.021469,-0.152908 0.021469,-0.16383 0.203951,-0.16383 1.0626923,0 2.1253845,0 3.1880767,0 1.1593011,0 2.3293351,0 3.4886361,0 0.08587,0.01092 0.182483,-0.02184 0.225421,0.07645 z"
     id="path18"
     inkscape:connector-curvature="0"
     style="clip-rule:evenodd;fill:#fdfdfd;fill-rule:evenodd;stroke-width:0.10827722" /><path
     class="st5"
     d="m 12.913586,24.87014 c -0.04294,-0.03277 -0.08587,-0.02184 -0.128812,-0.02184 -2.275664,0 -4.5405936,0 -6.8162578,0 -0.085874,0 -0.1502797,0.01092 -0.161014,0.120142 0,-0.27305 0,-0.535178 0,-0.808228 0.2683566,0 0.5367132,0.01092 0.8050699,0.01092 2.0717131,0 4.1434259,0 6.2151399,0 0.0322,0 0.05367,0 0.08587,-0.01092 0,0.229362 0,0.469646 0,0.70993 z"
     id="path20"
     inkscape:connector-curvature="0"
     style="clip-rule:evenodd;fill:#7e77cb;fill-rule:evenodd;stroke-width:0.10827722" /><path
     class="st3"
     d="m 3.3815583,26.453829 c 0,-0.469646 0.364965,-0.830072 0.8158041,-0.830072 0.4401049,0 0.8050699,0.38227 0.7943357,0.840994 0,0.447801 -0.3756993,0.819149 -0.8158042,0.819149 -0.4401048,0 -0.7943356,-0.371348 -0.7943356,-0.830071 z"
     id="path22"
     inkscape:connector-curvature="0"
     style="clip-rule:evenodd;fill:#7e77c9;fill-rule:evenodd;stroke-width:0.10827722" /><path
     class="st4"
     d="m 11.31418,25.612835 c 0.450839,0 0.80507,0.360426 0.815804,0.81915 0,0.447801 -0.364965,0.819149 -0.815804,0.819149 -0.461573,0 -0.815804,-0.360426 -0.815804,-0.830071 0,-0.43688 0.364965,-0.808228 0.815804,-0.808228 z"
     id="path24"
     inkscape:connector-curvature="0"
     style="clip-rule:evenodd;fill:#7e77ca;fill-rule:evenodd;stroke-width:0.10827722" /><path
     class="st26"
     d="m 13.246348,24.684466 c 0.171748,0.07645 0.289825,0.152908 0.268356,0.371348 -0.02147,0.185674 -0.01073,0.382269 0,0.567943 0,0.10922 -0.06441,0.08738 -0.128811,0.08738 -0.05367,0 -0.139545,0.04369 -0.139545,-0.08738 0.01073,-0.305815 0,-0.611631 0,-0.939291 z"
     id="path26"
     inkscape:connector-curvature="0"
     style="clip-rule:evenodd;fill:#fdfdfd;fill-rule:evenodd;stroke-width:0.10827722" /><path
     class="st1"
     d="m 4.8092156,20.839925 c -0.096608,0 -0.1932168,0 -0.2898252,0 -0.064406,0 -0.07514,-0.02184 -0.07514,-0.08738 0.021469,-0.251206 0.021469,-0.251206 0.2683567,-0.251206 0.1073426,0 0.2146853,0 0.3220279,0 0.064406,0 0.096608,0.01092 0.1073427,0.08738 0.032203,0.240284 0.032203,0.240284 -0.2039511,0.240284 -0.042937,0.01092 -0.085874,0.01092 -0.1288111,0.01092 0,0 0,0 1e-7,0 z"
     id="path28"
     inkscape:connector-curvature="0"
     style="clip-rule:evenodd;fill:#7dc9ec;fill-rule:evenodd;stroke-width:0.10827722" /><path
     class="st24"
     d="m 2.6086912,26.060637 c 0.1288112,0 0.2576224,0 0.3864336,0 0.032203,0 0.1073426,-0.03277 0.096608,0.04369 -0.010734,0.05461 0.021468,0.174752 -0.1073427,0.174752 -0.1824825,0 -0.3756993,0 -0.5581818,0 -0.064406,0 -0.1180769,0 -0.1824825,0 -0.1180769,0 -0.161014,-0.05461 -0.1288112,-0.174752 0.010734,-0.04369 0.042937,-0.04369 0.07514,-0.04369 0.1395454,0 0.2790909,0 0.4186363,0 0,0 0,0 3e-7,0 z"
     id="path30"
     inkscape:connector-curvature="0"
     style="clip-rule:evenodd;fill:#fcfcfc;fill-rule:evenodd;stroke-width:0.10827722" /><path
     class="st19"
     d="m 2.5657542,24.848296 c 0,0.04369 0,0.08738 0,0.131064 0,0.185674 0,0.174752 -0.1824825,0.185674 -0.07514,0 -0.1073427,-0.02184 -0.096608,-0.0983 0.010734,-0.152908 0,-0.294894 0,-0.447802 0,-0.06553 0.021469,-0.08738 0.085874,-0.08738 0.1932168,0 0.1932168,-0.01092 0.1932168,0.196596 0,0.03277 0,0.07645 -3e-7,0.120142 z"
     id="path32"
     inkscape:connector-curvature="0"
     style="clip-rule:evenodd;fill:#fafafb;fill-rule:evenodd;stroke-width:0.10827722" /><path
     class="st24"
     d="m 12.398341,26.060637 c 0.225419,0 0.440105,0 0.665524,0 0.09661,0 0.05367,0.07645 0.05367,0.10922 0,0.04369 0.02147,0.0983 -0.06441,0.0983 -0.182482,0 -0.364965,0 -0.547447,0 -0.04294,0 -0.06441,-0.02184 -0.07514,-0.05461 -0.01073,-0.05461 -0.02147,-0.0983 -0.0322,-0.152908 z"
     id="path34"
     inkscape:connector-curvature="0"
     style="clip-rule:evenodd;fill:#fcfcfc;fill-rule:evenodd;stroke-width:0.10827722" /><path
     class="st13"
     d="m 10.444705,22.685741 c 0,0.10922 -0.01074,0.21844 0,0.32766 0.01073,0.0983 -0.01074,0.152908 -0.128811,0.131064 -0.107343,-0.01092 -0.203952,0 -0.311294,0 -0.064406,0 -0.085874,0.02184 -0.085874,0.08738 0,0.120142 0,0.240284 0,0.349504 0,0.07645 -0.021468,0.08738 -0.085874,0.08738 -0.2468881,0 -0.483042,0 -0.72993,0 -0.064406,0 -0.085874,-0.01092 -0.085874,-0.07645 0,-0.120142 0,-0.240284 0,-0.349504 0,-0.07645 -0.021468,-0.08738 -0.085874,-0.08738 -0.1180769,0 -0.2361538,0 -0.3434965,0 -0.053671,0 -0.085874,-0.01092 -0.085874,-0.07645 0,-0.251206 0,-0.502412 0,-0.753617 0,-0.07645 0.021468,-0.08738 0.085874,-0.08738 0.118077,0 0.2361539,0 0.3434965,0 0.064406,0 0.085874,-0.01092 0.085874,-0.07645 0,-0.120142 0,-0.240284 0,-0.349504 0,-0.05461 0,-0.08738 0.07514,-0.08738 0.2468881,0 0.5045104,0 0.7513985,0 0.053671,0 0.07514,0.01092 0.064406,0.06553 0,0.120142 0,0.240284 0,0.349504 0,0.08738 0.032203,0.0983 0.1073425,0.0983 0.107343,-0.01092 0.22542,0 0.332762,0 0.06441,0 0.08587,0.02184 0.08587,0.08738 0.01074,0.10922 0.01074,0.240283 0.01074,0.360425 z"
     id="path36"
     inkscape:connector-curvature="0"
     style="clip-rule:evenodd;fill:#211c55;fill-rule:evenodd;stroke-width:0.10827722" /><path
     class="st13"
     d="m 5.2815232,22.29255 c 0,0.27305 0,0.546099 0,0.819149 0,0.06553 -0.021468,0.08738 -0.085874,0.08738 -0.4508391,0 -0.9016783,0 -1.3525174,0 -0.064406,0 -0.085874,-0.02184 -0.064406,-0.08738 0.1288115,-0.546099 0.2576227,-1.092199 0.3864339,-1.649221 0.010734,-0.06553 0.042937,-0.07645 0.1073426,-0.07645 0.3112937,0 0.6118531,0 0.9231468,0 0.07514,0 0.096608,0.02184 0.096608,0.0983 -0.010734,0.27305 -0.010734,0.5461 -0.010734,0.808228 0,0 0,0 10e-8,0 z"
     id="path38"
     inkscape:connector-curvature="0"
     style="clip-rule:evenodd;fill:#211c55;fill-rule:evenodd;stroke-width:0.10827722" /><path
     class="st15"
     d="m 4.9272925,23.712409 c -0.032203,0 -0.053671,0 -0.085874,0 -0.246888,0 -0.2361538,0 -0.2361538,-0.251206 0,-0.06553 0.021469,-0.08738 0.085874,-0.08738 0.161014,0 0.322028,0 0.483042,0 0.07514,0 0.096608,0.01092 0.096608,0.08738 0,0.251206 0,0.251206 -0.2361538,0.251206 -0.042937,0 -0.07514,0 -0.1073426,0 0,0 0,0 2e-7,0 z"
     id="path40"
     inkscape:connector-curvature="0"
     style="clip-rule:evenodd;fill:#221d55;fill-rule:evenodd;stroke-width:0.10827722" /><path
     class="st13"
     d="m 4.1758939,27.06546 c -0.3327622,0 -0.6011188,-0.27305 -0.6011188,-0.622553 0,-0.338582 0.2790909,-0.622554 0.6118531,-0.622554 0.3327622,0.01092 0.6118531,0.294894 0.6118531,0.622554 0,0.360425 -0.2790909,0.622553 -0.6225874,0.622553 z"
     id="path42"
     inkscape:connector-curvature="0"
     style="clip-rule:evenodd;fill:#211c55;fill-rule:evenodd;stroke-width:0.10827722" /><path
     class="st13"
     d="m 11.324914,25.820353 c 0.332763,0 0.601119,0.283972 0.590385,0.633476 0,0.338581 -0.289825,0.622553 -0.611853,0.611631 -0.332762,-0.01092 -0.611853,-0.294894 -0.611853,-0.633475 0,-0.338582 0.289825,-0.622554 0.633321,-0.611632 z"
     id="path44"
     inkscape:connector-curvature="0"
     style="clip-rule:evenodd;fill:#211c55;fill-rule:evenodd;stroke-width:0.10827722" /><path
     class="st1"
     d="m 9.1136558,22.5656 c 0.2468881,0 0.2468881,0 0.2576224,-0.262128 0,-0.04369 0.010734,-0.08738 0,-0.120142 -0.021469,-0.120142 0.032203,-0.141986 0.1395454,-0.141986 0.07514,0 0.1073427,0.02184 0.1073427,0.10922 -0.010734,0.10922 0,0.21844 0,0.32766 0,0.06553 0.021468,0.0983 0.085874,0.08738 0.1180769,0 0.2361538,0 0.3434967,0 0.09661,-0.01092 0.08587,0.05461 0.07514,0.109219 -0.01073,0.05461 0.04294,0.141986 -0.07514,0.141986 -0.1073429,0 -0.2254198,0 -0.3327624,0 -0.07514,0 -0.1073427,0.02184 -0.1073427,0.0983 0.010734,0.10922 0,0.229362 0,0.338582 0,0.10922 -0.064406,0.07645 -0.1180769,0.07645 -0.053671,0 -0.1288112,0.02184 -0.1180769,-0.08738 0.010734,-0.10922 0,-0.229362 0,-0.338582 0,-0.07645 -0.021469,-0.0983 -0.096608,-0.0983 -0.1180769,0.01092 -0.2361538,0 -0.3434965,0 -0.1073426,0.01092 -0.07514,-0.06553 -0.07514,-0.120142 0,-0.05461 -0.032203,-0.131063 0.07514,-0.120141 0.053671,0.01092 0.1180769,0 0.1824822,0 z"
     id="path46"
     inkscape:connector-curvature="0"
     style="clip-rule:evenodd;fill:#7dc9ec;fill-rule:evenodd;stroke-width:0.10827722" /><path
     class="st5"
     d="m 4.948761,22.303472 c 0,0.152908 0,0.305815 0,0.458723 0,0.07645 -0.021469,0.0983 -0.096608,0.0983 -0.1932168,0 -0.3971678,0 -0.5903846,0 -0.064406,0 -0.085874,-0.01092 -0.064406,-0.07645 0.07514,-0.327659 0.1502798,-0.644397 0.2254196,-0.972057 0.010734,-0.05461 0.042937,-0.07645 0.096608,-0.07645 0.1073427,0 0.2254196,0 0.3327622,0 0.064406,0 0.085874,0.02184 0.085874,0.08738 0.010734,0.16383 0.010734,0.316738 0.010735,0.480568 z"
     id="path48"
     inkscape:connector-curvature="0"
     style="clip-rule:evenodd;fill:#7e77cb;fill-rule:evenodd;stroke-width:0.10827722" /><path
     class="st26"
     d="m 3.9075373,26.442907 c 0,-0.152908 0.1395454,-0.283972 0.2898251,-0.283972 0.1502798,0 0.2790909,0.141986 0.2683567,0.294894 -0.010734,0.152908 -0.1288112,0.27305 -0.2790909,0.27305 -0.161014,0.01092 -0.2790909,-0.120142 -0.2790909,-0.283972 z"
     id="path50"
     inkscape:connector-curvature="0"
     style="clip-rule:evenodd;fill:#fdfdfd;fill-rule:evenodd;stroke-width:0.10827722" /><path
     class="st24"
     d="m 11.31418,26.726879 c -0.15028,0 -0.279091,-0.131064 -0.279091,-0.283972 0,-0.16383 0.128811,-0.283972 0.289825,-0.283972 0.15028,0 0.268357,0.120142 0.279091,0.283972 -0.01073,0.152908 -0.139545,0.283972 -0.289825,0.283972 z"
     id="path52"
     inkscape:connector-curvature="0"
     style="clip-rule:evenodd;fill:#fcfcfc;fill-rule:evenodd;stroke-width:0.10827722" /></g>
</svg>