<?xml version="1.0" encoding="utf-8"?>
<!-- Generator: Adobe Illustrator 22.0.0, SVG Export Plug-In . SVG Version: 6.00 Build 0)  -->
<svg version="1.1"
	 id="Capa_1" inkscape:version="0.92.3 (2405546, 2018-03-11)" sodipodi:docname="iconos-05.svg" xmlns:cc="http://creativecommons.org/ns#" xmlns:dc="http://purl.org/dc/elements/1.1/" xmlns:inkscape="http://www.inkscape.org/namespaces/inkscape" xmlns:rdf="http://www.w3.org/1999/02/22-rdf-syntax-ns#" xmlns:sodipodi="http://sodipodi.sourceforge.net/DTD/sodipodi-0.dtd" xmlns:svg="http://www.w3.org/2000/svg"
	 xmlns="http://www.w3.org/2000/svg" xmlns:xlink="http://www.w3.org/1999/xlink" x="0px" y="0px" viewBox="0 0 64 64"
	 style="enable-background:new 0 0 64 64;" xml:space="preserve">
<style type="text/css">
	.st0{fill:#77787B;stroke:#373939;stroke-miterlimit:10;}
	.st1{fill:#211C55;}
	.st2{fill:#231E56;}
	.st3{fill:#7F78CB;}
	.st4{fill:#7E78CA;}
	.st5{fill:#FDFDFD;}
	.st6{fill:#7E77CB;}
	.st7{fill:#7E77C9;}
	.st8{fill:#7E77CA;}
	.st9{fill:#7DC9EC;}
	.st10{fill:#FCFCFC;}
	.st11{fill:#FAFAFB;}
	.st12{fill:#221D55;}
	.st13{fill:#FFFFFF;}
</style>
<g>
	<path class="st13" d="M58.5,50.7c-2.6,0-5.1,0-7.9,0c0.8-0.9,1.3-1.8,1.8-2.9c0-0.3,0.2-0.3,0.4-0.3c1,0,2.1,0,3.2,0
		c1.1,0,1.1,0,1.1-1.2c0-0.5-0.1-1,0-1.3c0.2-0.3,0.8-0.1,1.2-0.1h0c0.3,0.1,0.4-0.1,0.4-0.4c0-1.9,0-3.8,0-5.6c0-0.3,0-0.5-0.3-0.6
		c-0.6-0.4-1.3-0.9-2-1.3c-0.3-0.2-0.4-0.4-0.4-0.8c0-4.9,0-9.8,0-14.7c0-0.4,0-0.6-0.5-0.6c-7.4,0-14.9,0-22.3,0c-4,0-8.1,0-12.2,0
		c-0.4,0-0.6-0.1-0.6-0.5c-0.1-0.7-0.2-1.5-0.3-2.2c0-0.3-0.1-0.4-0.5-0.4c-1.6,0-3.2,0-4.7,0c-0.4,0-0.4,0.2-0.5,0.5
		c0,0.7-0.2,1.3-0.2,1.9c0,0.7-0.3,0.9-0.9,0.8c-0.5-0.1-0.6,0.2-0.7,0.6c-1,3.5-2,6.9-3.1,10.4c-0.1,0.3-0.2,0.5-0.5,0.7
		c-1.4,0.6-2.8,1.3-4.2,2c-0.4,0.2-0.5,0.4-0.5,0.9c0,2.5,0,5,0,7.4c0,0.3,0.1,0.6-0.3,0.5c-0.4-0.1-0.4,0.2-0.4,0.5
		c0,1.1,0,2.1,0,3.1c0,0.5,0.1,0.5,0.5,0.5c1.4,0,2.9,0,4.3,0c0.9,0,0.9,0,1.1,0.9c0.2,0.8,0.7,1.6,1.3,2.3c-0.3,0-0.4,0-0.6,0
		c-2.2,0-4.3,0-6.5,0c-0.8,0-0.8,0-0.8,0.9c0,0.5,0.1,0.7,0.6,0.7c8.5,0,17,0,25.6,0c1,0,1,0,1-1c0-0.4-0.1-0.6-0.5-0.6
		c-3.6,0-7.1,0-10.6,0c-0.2,0-0.4,0.1-0.6-0.1c1.4-1.7,1.8-3.5,1.2-5.6c0.2,0,0.3,0,0.4,0c6.2,0,12.3,0,18.5,0c1.1,0,2.3,0,3.5,0
		c0.1,0,0.3-0.1,0.3,0.2c0,0.5-0.3,0.9-0.7,0.9c-3.4,0-6.8,0-10.1,0c-3,0-5.9,0-8.8,0c-0.1,0-0.4-0.1-0.4,0.1c0,0.4-0.1,0.9,0,1.3
		c0,0.3,0.4,0.1,0.7,0.1c6.2,0,12.4,0,18.7,0c0.4,0,0.6,0.1,0.6,0.5c0.2,0.9,0.6,1.6,1.2,2.3c0.1,0.1,0.2,0.1,0.1,0.3
		c-0.9,0-1.7,0-2.6,0c-1,0-0.9,0-1,1c0,0.5,0.2,0.6,0.6,0.6c5.9,0,11.9,0,17.8,0c0.9,0,0.9,0,0.9-1C59.1,50.7,58.9,50.7,58.5,50.7z
		 M55.9,38.7c0.8,0.4,1.3,0.7,1.2,1.7c-0.1,0.9,0,1.8,0,2.6c0,0.5-0.3,0.4-0.6,0.4c-0.2,0-0.6,0.2-0.6-0.4
		C56,41.6,55.9,40.2,55.9,38.7z M16.7,19.5c0.5,0,1,0,1.5,0c0.3,0,0.4,0.1,0.5,0.4c0.1,1.1,0.1,1.1-0.9,1.1C17.5,21,17.3,21,17.1,21
		c-0.4,0-0.9,0-1.3,0c-0.3,0-0.3-0.1-0.3-0.4C15.5,19.5,15.5,19.5,16.7,19.5z M8.7,46c-0.8,0-1.7,0-2.6,0c-0.3,0-0.5,0-0.8,0
		c-0.5,0-0.7-0.3-0.6-0.8C4.8,45,4.9,45,5.1,45c0.6,0,1.3,0,1.9,0c0.6,0,1.2,0,1.8,0c0.1,0,0.5-0.2,0.4,0.2C9.2,45.5,9.3,46,8.7,46z
		 M14.2,50.7c-2,0-3.7-1.7-3.7-3.8c0-2.2,1.7-3.8,3.8-3.8c2,0,3.7,1.8,3.7,3.9C18,48.9,16.2,50.7,14.2,50.7z M20.2,33
		c0,3.3,0,6.6,0,9.9c0,0.4-0.1,0.6-0.5,0.6c-0.8,0.1-1.5-0.2-2.2-0.8c-2-1.9-5.2-1.6-7.1,0.4c-0.2,0.2-0.3,0.4-0.6,0.3
		c-1.3,0-2.6,0-3.9,0c-0.4,0-0.4-0.2-0.4-0.5s0-0.6,0.4-0.6c0.7,0.1,1.4,0,2,0c0.2,0,0.3-0.1,0.3-0.4c0-1.8,0-3.6,0-5.3
		c0-0.4-0.1-0.4-0.4-0.4c-0.6,0-1.3,0-2,0c-0.1,0-0.4,0.1-0.4-0.2c0-0.3,0.1-0.4,0.3-0.5c1.4-0.7,2.7-1.3,4.1-2
		c0.3-0.2,0.5-0.4,0.6-0.8c1-3.3,1.9-6.7,2.9-10c0.1-0.4,0.3-0.6,0.7-0.6c1.9,0.1,3.7,0,5.6,0c0.4,0,0.5,0.1,0.5,0.5
		C20.2,26.3,20.2,29.7,20.2,33z M5.5,38.4c0-0.3,0.1-0.4,0.4-0.4c0.9,0,0.9-0.1,0.9,0.9c0,0.2,0,0.4,0,0.6c0,0.2,0,0.4,0,0.6
		c0,0.9,0,0.8-0.8,0.9c-0.3,0-0.5-0.1-0.4-0.5C5.6,39.7,5.5,39.1,5.5,38.4z M55.3,45.5c0,0.2,0.1,0.5-0.3,0.5c-0.8,0-1.7,0-2.5,0
		c-0.2,0-0.3-0.1-0.3-0.3c0-0.3-0.1-0.5-0.1-0.7c1,0,2,0,3.1,0C55.5,45,55.3,45.4,55.3,45.5z M43.1,43.1c-0.2,0.2-0.4,0.3-0.7,0.3
		c-6.8,0-13.5,0-20.2,0c-0.4,0-0.5-0.2-0.5-0.5c0-1,0-1.9,0-2.9c0,0,0,0,0-0.1c0-1.2,0-2.4,0-3.7c0,0,0.1,0,0.1,0c0,0-0.1,0-0.1-0.1
		c0-4.4,0-8.8,0-13.3c0-0.5,0.2-0.5,0.5-0.5c7.5,0,14.9,0,22.3,0c3.1,0,6.2,0,9.3,0c0.4,0,0.5,0.1,0.5,0.5c0,4.4,0,8.8,0,13.2
		c0,0-0.1,0-0.1,0.1c0,0,0,0,0,0c0,1.1,0,2.2,0,3.3c0,1.2,0,2.3,0,3.5c0,0.4,0,0.5-0.4,0.5c-0.3-0.1-0.7,0-1,0
		c-1,0.1-1.9-0.1-2.8-0.9C48.1,40.8,45,41.1,43.1,43.1z M47,50.5c-2.1,0-3.8-1.7-3.8-3.8c0-2,1.7-3.7,3.8-3.7s3.7,1.7,3.8,3.8
		C50.8,48.8,49.1,50.5,47,50.5z"/>
	<path class="st13" d="M37.1,50.7c-0.7,0-1.5,0-2.3,0c-0.1,0-0.3,0-0.4,0c-0.3,0-0.7,0-1.1,0c-1,0-1,0-1,1.1c0,0.4,0.1,0.5,0.4,0.5
		c1.2,0,2.5,0,3.8,0c1.1,0,1.1,0,1.1-1.2C37.5,50.8,37.4,50.7,37.1,50.7z"/>
	<path class="st13" d="M17.5,16.3c0.3-0.1,0.4-0.2,0.4-0.5c0-1.1,0-2.3,0-3.4c0-1.1,0-1.1-1.1-1.1c0,0,0,0-0.1,0
		c-0.3-0.1-0.3,0.1-0.3,0.4c0,0.7,0,1.4,0,2c0,0.5,0,1,0,1.5C16.3,16.3,16.3,16.3,17.5,16.3z"/>
	<path class="st13" d="M12.6,16.3c0.6,1,0.7,1.1,1.7,0.3c0-0.1,0.1-0.1,0.1-0.2c0-0.1-0.1-0.3-0.1-0.4c-0.6-0.9-1.2-1.9-1.7-2.8
		c-0.6-1-0.6-1-1.5-0.4c-0.3,0.2-0.3,0.4-0.1,0.6C11.5,14.5,12,15.4,12.6,16.3z"/>
	<path class="st13" d="M20,16.5c0.1,0.2,0.3,0.2,0.5,0.4c0.4,0.4,0.6,0.3,0.9-0.2c0.5-0.9,1.1-1.8,1.6-2.6c0.6-1,0.6-1-0.4-1.6
		c-0.3-0.2-0.4-0.1-0.5,0.2c-0.7,1.2-1.4,2.3-2.1,3.4c0,0.1-0.1,0.2-0.1,0.3C19.7,16.5,19.9,16.5,20,16.5z"/>
	<path class="st13" d="M22.6,39.2c4.9,0,9.8,0,14.7,0c5.3,0,10.7,0,16,0c0.4,0.1,0.8-0.1,1,0.4c0-1.1,0-2.2,0-3.3c0,0,0,0,0,0
		c-0.3,0.2-0.6,0.1-0.9,0.1c-5.2,0-10.4,0-15.5,0c-5,0-10.1,0-15.1,0c-0.4,0-0.7,0.1-1-0.1c0,0-0.1,0-0.1,0c0,1.2,0,2.4,0,3.7
		C21.8,39.3,21.8,39.2,22.6,39.2z"/>
	<path class="st13" d="M22.8,36.4c5,0,10.1,0,15.1,0c5.1,0,10.3,0,15.5,0c0.3,0,0.6,0.1,0.9-0.1c-0.1,0-0.2,0-0.4,0
		c-9.5,0-19.1,0-28.6,0c-1.2,0-2.4,0-3.6,0C22.1,36.5,22.4,36.4,22.8,36.4z"/>
	<path class="st13" d="M22.5,39.4c10.5,0,20.9,0,31.4,0c0.2,0,0.4-0.1,0.6,0.1c-0.2-0.5-0.6-0.3-1-0.4c-5.3,0-10.7,0-16,0
		c-4.9,0-9.8,0-14.7,0c-0.8,0-0.8,0.1-0.9,0.8c0,0,0,0,0,0.1C21.8,39.5,22.1,39.4,22.5,39.4z"/>
	<path class="st13" d="M18.9,23.5c-1.4,0-2.8,0-4.2,0c-0.3,0-0.4,0.1-0.5,0.4c-0.6,2.6-1.2,5.1-1.8,7.6c-0.1,0.3,0,0.4,0.3,0.4
		c2.1,0,4.1,0,6.2,0c0.3,0,0.4-0.1,0.4-0.4c0-1.3,0-2.5,0-3.8c0-1.2,0-2.5,0-3.7C19.3,23.6,19.2,23.5,18.9,23.5z M17.8,29.9
		c0,0.4-0.1,0.5-0.4,0.5c-0.9,0-1.8,0-2.7,0c-0.3,0-0.4-0.1-0.3-0.4c0.3-1.5,0.7-3,1-4.5c0-0.3,0.2-0.4,0.4-0.4c0.5,0,1,0,1.5,0
		c0.3,0,0.4,0.1,0.4,0.4c0,0.8,0,1.5,0,2.2C17.8,28.4,17.8,29.1,17.8,29.9z"/>
	<path class="st13" d="M18.8,32.7c-0.7,0-1.5,0-2.2,0c-0.3,0-0.4,0.1-0.4,0.4c0,1.2,0,1.2,1.1,1.2c0.1,0,0.2,0,0.4,0s0.3,0,0.5,0
		c1.1,0,1.1,0,1.1-1.2C19.2,32.7,19.1,32.7,18.8,32.7z"/>
	<path class="st13" d="M14.3,43.9c-1.5,0-2.8,1.3-2.8,2.9c0,1.6,1.2,2.9,2.8,2.9c1.6,0,2.9-1.2,2.9-2.9C17.1,45.3,15.8,44,14.3,43.9
		z M14.3,48.1c-0.7,0.1-1.3-0.6-1.3-1.3c0-0.7,0.6-1.3,1.3-1.3c0.7,0,1.3,0.7,1.2,1.4C15.5,47.5,14.9,48.1,14.3,48.1z"/>
	<path class="st13" d="M47,43.9c-1.5,0-2.8,1.3-2.8,2.9c0,1.6,1.2,2.9,2.8,2.9c1.6,0,2.9-1.2,2.9-2.9C49.9,45.3,48.6,44,47,43.9z
		 M47,48.1c-0.7,0.1-1.3-0.6-1.3-1.3c0-0.7,0.6-1.3,1.3-1.3c0.7,0,1.3,0.7,1.2,1.4C48.3,47.5,47.7,48.1,47,48.1z"/>
	<path class="st13" d="M36.1,30.1c0.5,0,1,0.1,1.6,0c0.3,0,0.4,0.1,0.4,0.5c0,0.5,0,1.1,0,1.6c0,0.5,0.3,0.4,0.5,0.4
		c0.2,0,0.5,0.2,0.5-0.4c0-0.5,0-1.1,0-1.6c0-0.4,0.1-0.5,0.5-0.5c0.5,0,1,0,1.5,0c0.5,0,0.3-0.4,0.3-0.7s0.1-0.6-0.3-0.5
		c-0.5,0-1,0-1.6,0c-0.3,0.1-0.4-0.1-0.4-0.4c0-0.5,0-1,0-1.5c0-0.4-0.1-0.5-0.5-0.5c-0.5,0-0.7,0.1-0.6,0.7c0,0.2,0,0.4,0,0.6
		c0,1.2,0,1.2-1.2,1.2c-0.3,0-0.6,0.1-0.8,0c-0.5-0.1-0.3,0.3-0.3,0.6S35.6,30.1,36.1,30.1z"/>
</g>
</svg>
