<?xml version="1.0" encoding="utf-8"?>
<!-- Generator: Adobe Illustrator 22.0.0, SVG Export Plug-In . SVG Version: 6.00 Build 0)  -->
<svg version="1.1"
	 id="Capa_1" inkscape:version="0.92.3 (2405546, 2018-03-11)" sodipodi:docname="iconos-03.svg" xmlns:cc="http://creativecommons.org/ns#" xmlns:dc="http://purl.org/dc/elements/1.1/" xmlns:inkscape="http://www.inkscape.org/namespaces/inkscape" xmlns:rdf="http://www.w3.org/1999/02/22-rdf-syntax-ns#" xmlns:sodipodi="http://sodipodi.sourceforge.net/DTD/sodipodi-0.dtd" xmlns:svg="http://www.w3.org/2000/svg"
	 xmlns="http://www.w3.org/2000/svg" xmlns:xlink="http://www.w3.org/1999/xlink" x="0px" y="0px" viewBox="0 0 64 64"
	 style="enable-background:new 0 0 64 64;" xml:space="preserve">
<style type="text/css">
	.st0{fill:#FFFFFF;}
</style>
<sodipodi:namedview  bordercolor="#666666" borderopacity="1" gridtolerance="10" guidetolerance="10" id="namedview77" inkscape:current-layer="Capa_1" inkscape:cx="32" inkscape:cy="32" inkscape:pageopacity="0" inkscape:pageshadow="2" inkscape:window-height="705" inkscape:window-maximized="1" inkscape:window-width="1366" inkscape:window-x="0" inkscape:window-y="30" inkscape:zoom="8.15625" objecttolerance="10" pagecolor="#ffffff" showgrid="false">
	</sodipodi:namedview>
<g>
	<path class="st0" d="M29.8,58.5C29.8,58.5,29.8,58.5,29.8,58.5c0.4,0.1,0.8,0.1,1.3,0.1c0,0,0,0,0-0.1c0,0,0,0,0,0c0,0,0,0,0,0
		C30.6,58.5,30.2,58.5,29.8,58.5z"/>
	<path class="st0" d="M44.7,30c-5.1-7.4-10.2-14.9-15.4-22.3c-1.6-2.2-4.3-2.8-6.5-1.3c-5.7,3.9-11.4,7.8-17,11.8
		c-2.2,1.5-2.6,4.2-1.2,6.4c0.7,1.1,1.4,2.1,2.2,3.2c0.8,1.1,0.7,1.1,1.8,0.3c0.3-0.2,0.2-0.3,0.1-0.5c-0.8-1.2-1.6-2.4-2.4-3.5
		c-1.3-1.8-1-3.4,0.8-4.7c5.5-3.8,11-7.6,16.5-11.4c1.8-1.2,3.4-0.9,4.6,0.8c7.2,10.4,14.4,20.8,21.6,31.3c1.2,1.7,0.9,3.4-0.8,4.5
		c-5.5,3.8-11.1,7.7-16.6,11.5c-1.7,1.2-3.3,0.9-4.5-0.8C22.4,47.5,17,39.7,11.5,31.9c-0.7-1-0.6-1-1.6-0.3
		c-0.4,0.2-0.3,0.4-0.1,0.8c2.2,3.2,4.5,6.4,6.7,9.7c3.3,4.8,6.6,9.5,9.9,14.3c0.8,1.2,1.9,2,3.4,2.2c0,0,0,0,0,0
		c0.4-0.3,0.8-0.3,1.2,0c0.9-0.1,1.6-0.5,2.2-1c5.5-3.8,11-7.6,16.5-11.4c2.6-1.8,3.1-4.4,1.3-7C48.9,36,46.8,33.1,44.7,30z"/>
	<path class="st0" d="M29.8,58.5c0.4,0,0.8,0,1.2,0c0,0,0,0,0,0C30.6,58.2,30.2,58.2,29.8,58.5z"/>
	<path class="st0" d="M45.5,14.3c2.4,0,4.3-2,4.3-4.3s-2-4.3-4.3-4.3c-2.4,0-4.3,2-4.3,4.3C41.1,12.4,43.1,14.3,45.5,14.3z
		 M45.1,7.4c0.1,0,0.2,0,0.4,0c1.7,0,3,1.5,2.6,3.1c0,0.1,0,0.4-0.2,0.4c-0.1,0-0.2-0.1-0.4-0.3c-0.9-0.9-1.8-1.7-2.6-2.6
		c-0.1-0.1-0.4-0.2-0.3-0.4C44.6,7.4,44.9,7.4,45.1,7.4z M43,9.2c0.1-0.4,0.2-0.4,0.5-0.1c1,1,1.9,2,2.9,2.9
		c0.4,0.3,0.2,0.5-0.2,0.6c-0.2,0-0.5,0.1-0.8,0.1C43.7,12.7,42.4,10.8,43,9.2z"/>
	<path class="st0" d="M31.8,53.4c2.4,0,4.3-1.9,4.3-4.3c0-2.4-1.9-4.3-4.2-4.3c-2.4,0-4.3,1.9-4.4,4.3
		C27.5,51.5,29.4,53.4,31.8,53.4z M33.5,51.2c-1,0.7-2.1,0.7-3.2,0c1.4-1,2.7-1.9,4.1-2.8C34.7,49.5,34.3,50.6,33.5,51.2z
		 M32.9,46.7c0.4,0.2,0.5,0.3,0,0.6c-1.1,0.7-2.1,1.4-3.2,2.2c-0.1,0.1-0.3,0.4-0.5,0.2c-0.1-0.1-0.1-0.4-0.1-0.4
		C29.2,47.2,31.2,46,32.9,46.7z"/>
	<path class="st0" d="M42.6,46c2.4,0,4.3-1.9,4.3-4.2c0-2.4-1.9-4.4-4.3-4.4c-2.4,0-4.3,1.9-4.3,4.2C38.2,44.1,40.2,46,42.6,46z
		 M45.3,41.4c0.1,1-0.3,2.1-1.3,2.6c-1,0.6-2.1,0.5-3-0.1c1.3-0.9,2.6-1.7,3.8-2.6C45.1,41,45.2,41,45.3,41.4z M40.9,39.6
		c1-0.7,2.1-0.8,3.2,0c-1.4,1-2.7,1.9-4.1,2.8C39.7,41.4,40.1,40.3,40.9,39.6z"/>
	<path class="st0" d="M30.3,19.6c-2.4,0-4.3,2-4.3,4.4c0,2.4,2,4.2,4.3,4.2c2.4,0,4.3-1.9,4.3-4.3C34.6,21.6,32.7,19.6,30.3,19.6z
		 M28.7,21.9c0.9-0.7,2.1-0.8,3-0.2c0.2,0.1,0.3,0.2,0,0.4c-1.3,0.9-2.6,1.7-3.8,2.6C27.5,23.7,27.8,22.6,28.7,21.9z M30.3,26.6
		c0,0-0.2,0-0.4,0c-0.4,0-0.9-0.1-1-0.5c0-0.2,0.4-0.3,0.7-0.5c1-0.7,1.9-1.3,2.9-2c0.3-0.2,0.4-0.2,0.5,0.2
		C33.1,25.3,31.9,26.6,30.3,26.6z"/>
	<path class="st0" d="M13.5,18.2c-2.3,0-4.3,2-4.3,4.3c0,2.4,1.9,4.3,4.3,4.3c2.4,0,4.3-1.9,4.3-4.2C17.8,20.1,15.9,18.2,13.5,18.2z
		 M11.9,20.4c0.9-0.7,2.1-0.7,3.2,0c-1.4,0.9-2.7,1.9-4.1,2.8C10.6,22.4,11.1,21,11.9,20.4z M14.9,24.8c-0.9,0.5-2.1,0.5-2.9-0.2
		c1.3-0.9,2.6-1.8,3.8-2.6c0.2-0.2,0.3,0,0.3,0.2C16.3,23.1,15.8,24.2,14.9,24.8z"/>
	<path class="st0" d="M48.4,16.8c-2.4,0-4.3,1.9-4.3,4.3c0,2.4,1.9,4.3,4.3,4.3c2.4,0,4.3-1.9,4.3-4.3
		C52.7,18.7,50.8,16.8,48.4,16.8z M47,23.3c-1.1-0.6-1.5-1.8-1.2-3c0.3-1.1,1.4-1.9,2.6-1.8C48,20.1,47.5,21.7,47,23.3z M50.9,21.8
		c-0.3,1.1-1.1,1.7-2.3,1.9c0.5-1.6,0.9-3.1,1.4-4.8C50.9,19.9,51.3,20.8,50.9,21.8z"/>
	<path class="st0" d="M15.3,31.3c0,2.4,1.9,4.3,4.2,4.3c2.4,0,4.3-1.9,4.4-4.3c0-2.4-1.9-4.3-4.3-4.3C17.3,27,15.3,29,15.3,31.3z
		 M21.2,33.5c-0.9,0.7-2.1,0.7-3.1,0c1.3-1,2.7-1.9,4.1-2.8C22.5,31.7,22,32.8,21.2,33.5z M21.2,29.3c-1.3,0.9-2.6,1.7-3.8,2.6
		C17.1,32.1,17,32,17,31.7c-0.1-1.1,0.4-2.1,1.3-2.6C19.2,28.5,20.3,28.6,21.2,29.3z"/>
	<path class="st0" d="M55.4,10.7c-2.4,0-4.3,1.9-4.3,4.3c0,2.4,1.9,4.3,4.3,4.2c2.4,0,4.3-1.9,4.3-4.3
		C59.7,12.6,57.7,10.7,55.4,10.7z M54,12.8c1-0.6,2.2-0.5,3.2,0.3c-1.4,0.9-2.9,1.7-4.3,2.6C52.6,14.6,53,13.4,54,12.8z M56.7,17.3
		c-1,0.6-2.1,0.5-2.9-0.2c0,0,0.1-0.1,0.2-0.1c1.3-0.8,2.6-1.5,3.9-2.4C58.2,15.7,57.7,16.8,56.7,17.3z"/>
	<path class="st0" d="M36.3,28.5c-2.4,0-4.2,2-4.2,4.3c0,2.4,1.9,4.3,4.3,4.3c2.4,0,4.3-1.9,4.3-4.3C40.7,30.4,38.8,28.5,36.3,28.5z
		 M33.8,33.2c-0.1-1.1,0.3-2,1.3-2.6c1-0.5,1.9-0.4,2.9,0.1c-0.9,0.6-1.6,1.2-2.4,1.7c-0.5,0.3-0.9,0.6-1.4,1
		C33.9,33.5,33.8,33.5,33.8,33.2z M38,34.9c-0.8,0.6-2.1,0.8-2.9,0.2c-0.2-0.1-0.4-0.2,0-0.4c1.3-0.9,2.6-1.7,3.8-2.6
		C39.3,33.2,38.9,34.3,38,34.9z"/>
	<path class="st0" d="M22,41.7c2.1-1.5,4.2-2.9,6.4-4.4c0.1,0,0.2-0.1,0.2-0.1c-0.8-0.7-1.7-1.2-2.8-1.3c-3.3-0.2-5.6,3.1-4.1,6.2
		C21.7,41.9,21.9,41.8,22,41.7z"/>
	<path class="st0" d="M21.3,18.1C21.2,18.1,21.2,18.1,21.3,18.1c0,0.2,0.1,0.2,0.2,0.3c1.6,1.3,3.7,1.4,5.3,0.2
		c1.7-1.3,2.2-3.4,1.4-5.3c0,0-0.1,0-0.1,0c-1.4,1.1-3,2.1-4.5,3.2C22.9,17,22.1,17.6,21.3,18.1z"/>
	<path class="st0" d="M29.6,38.5c-2.1,1.5-4.3,2.9-6.4,4.4c-0.2,0.1-0.4,0.2-0.6,0.3c0.1,0.1,0.2,0.2,0.3,0.3
		c1.5,1.3,3.8,1.3,5.3,0.1C29.9,42.4,30.4,40.3,29.6,38.5z"/>
	<path class="st0" d="M20.8,16.4c2.1-1.5,4.2-3,6.4-4.4c-1-1.1-2.3-1.4-3.7-1.2c-2.6,0.4-4.4,3.1-3.2,6.1
		C20.4,16.6,20.6,16.5,20.8,16.4z"/>
	<path class="st0" d="M29.6,38.5c-0.2,0-0.4,0.1-0.6,0.2c-1.6,1.1-3.2,2.2-4.8,3.3c-0.5,0.4-1.2,0.7-1.6,1.3
		c0.2-0.1,0.4-0.2,0.6-0.3C25.3,41.5,27.5,40,29.6,38.5z"/>
</g>
</svg>
