<?xml version="1.0" encoding="UTF-8" standalone="no"?>
<!-- Generator: Adobe Illustrator 16.0.0, SVG Export Plug-In . SVG Version: 6.00 Build 0)  -->

<svg
   xmlns:dc="http://purl.org/dc/elements/1.1/"
   xmlns:cc="http://creativecommons.org/ns#"
   xmlns:rdf="http://www.w3.org/1999/02/22-rdf-syntax-ns#"
   xmlns:svg="http://www.w3.org/2000/svg"
   xmlns="http://www.w3.org/2000/svg"
   xmlns:sodipodi="http://sodipodi.sourceforge.net/DTD/sodipodi-0.dtd"
   xmlns:inkscape="http://www.inkscape.org/namespaces/inkscape"
   version="1.1"
   id="Capa_1"
   x="0px"
   y="0px"
   width="64"
   height="64"
   viewBox="0 0 64 64"
   xml:space="preserve"
   sodipodi:docname="iconos-07.svg"
   inkscape:version="0.92.3 (2405546, 2018-03-11)"><metadata
   id="metadata45"><rdf:RDF><cc:Work
       rdf:about=""><dc:format>image/svg+xml</dc:format><dc:type
         rdf:resource="http://purl.org/dc/dcmitype/StillImage" /><dc:title></dc:title></cc:Work></rdf:RDF></metadata><defs
   id="defs43" /><sodipodi:namedview
   pagecolor="#ffffff"
   bordercolor="#666666"
   borderopacity="1"
   objecttolerance="10"
   gridtolerance="10"
   guidetolerance="10"
   inkscape:pageopacity="0"
   inkscape:pageshadow="2"
   inkscape:window-width="1366"
   inkscape:window-height="705"
   id="namedview41"
   showgrid="false"
   inkscape:zoom="1.84375"
   inkscape:cx="64"
   inkscape:cy="64"
   inkscape:window-x="0"
   inkscape:window-y="30"
   inkscape:window-maximized="1"
   inkscape:current-layer="Capa_1" />
<style
   type="text/css"
   id="style2">
<![CDATA[
	.st0{fill-rule:evenodd;clip-rule:evenodd;fill:#DFD9F4;}
	.st1{fill-rule:evenodd;clip-rule:evenodd;fill:#7DC9EC;}
	.st2{fill-rule:evenodd;clip-rule:evenodd;fill:#7DCAEC;}
	.st3{fill-rule:evenodd;clip-rule:evenodd;fill:#7E77C9;}
	.st4{fill-rule:evenodd;clip-rule:evenodd;fill:#7E77CA;}
	.st5{fill-rule:evenodd;clip-rule:evenodd;fill:#7E77CB;}
	.st6{fill-rule:evenodd;clip-rule:evenodd;fill:#7E78CA;}
	.st7{fill-rule:evenodd;clip-rule:evenodd;fill:#7F78CB;}
	.st8{fill-rule:evenodd;clip-rule:evenodd;fill:#E0DAF4;}
	.st9{fill-rule:evenodd;clip-rule:evenodd;fill:#E0DAF5;}
	.st10{fill-rule:evenodd;clip-rule:evenodd;fill:#80D3F3;}
	.st11{fill-rule:evenodd;clip-rule:evenodd;fill:#80D3F4;}
	.st12{fill-rule:evenodd;clip-rule:evenodd;fill:#80D4F4;}
	.st13{fill-rule:evenodd;clip-rule:evenodd;fill:#211C55;}
	.st14{fill-rule:evenodd;clip-rule:evenodd;fill:#211D55;}
	.st15{fill-rule:evenodd;clip-rule:evenodd;fill:#221D55;}
	.st16{fill-rule:evenodd;clip-rule:evenodd;fill:#231E56;}
	.st17{fill-rule:evenodd;clip-rule:evenodd;fill:#242155;}
	.st18{fill-rule:evenodd;clip-rule:evenodd;fill:#F9F9FA;}
	.st19{fill-rule:evenodd;clip-rule:evenodd;fill:#FAFAFB;}
	.st20{fill-rule:evenodd;clip-rule:evenodd;fill:#FBFBFB;}
	.st21{fill-rule:evenodd;clip-rule:evenodd;fill:#FBFBFC;}
	.st22{fill-rule:evenodd;clip-rule:evenodd;fill:#9997AF;}
	.st23{fill-rule:evenodd;clip-rule:evenodd;fill:#FCFBFC;}
	.st24{fill-rule:evenodd;clip-rule:evenodd;fill:#FCFCFC;}
	.st25{fill-rule:evenodd;clip-rule:evenodd;fill:#FCFCFD;}
	.st26{fill-rule:evenodd;clip-rule:evenodd;fill:#FDFDFD;}
	.st27{fill-rule:evenodd;clip-rule:evenodd;fill:#FDFDFE;}
	.st28{fill-rule:evenodd;clip-rule:evenodd;fill:#FEFDFE;}
	.st29{fill-rule:evenodd;clip-rule:evenodd;fill:#FEFEFE;}
	.st30{fill-rule:evenodd;clip-rule:evenodd;fill:#CFD3E3;}
]]>
</style>
<g
   id="g38"
   transform="matrix(0.53967802,0,0,0.53967802,-1.723069,-1.2893881)">
	<path
   class="st13"
   d="m 64.2,8.8 c 13,0 25.9,0 38.9,0 3.1,0 4.3,0.3 3.9,1.4 -0.1,0.3 -0.1,0.6 0,0.9 0.3,0.8 -0.5,1.2 -3,1.2 -26.7,0 -53.3,0 -80,0 -2.3,0 -3,-0.2 -3,-1.1 0.2,-2.9 -0.9,-2.4 6.7,-2.4 12.1,-0.1 24.3,0 36.5,0 z"
   id="path4"
   inkscape:connector-curvature="0"
   style="clip-rule:evenodd;fill:#211c55;fill-rule:evenodd" />
	<g
   id="g36">
		<path
   class="st1"
   d="m 22.2,99.4 c 0,-20.6 0,-41.2 0,-61.8 0,-7.4 0,-14.7 0,-22.1 0,-1.1 0.4,-1.4 1.7,-1.4 26.9,0 53.9,0 80.8,0 1.3,0 1.5,0.4 1.5,1.4 0,32.7 0,65.3 0,98 0,1.3 -0.3,1.6 -1.9,1.6 -26.7,0 -53.4,0 -80.2,0 -1.6,0 -2,-0.4 -2,-1.7 0.1,-3.5 0,-6.9 0,-10.4 -0.5,-1.2 -0.5,-2.4 0.1,-3.6 z"
   id="path6"
   inkscape:connector-curvature="0"
   style="clip-rule:evenodd;fill:#7dc9ec;fill-rule:evenodd" />
		<path
   class="st13"
   d="m 32.7,57.6 c 0,-1.9 0,-3.7 0,-5.6 0,-0.8 0.2,-1.1 1,-1.1 3.7,0 7.4,0 11.2,0 0.8,0 1,0.2 1,1 0,3.8 0,7.6 0,11.4 0,0.6 -0.2,0.8 -0.8,0.8 -3.8,0 -7.6,0 -11.4,0 -0.7,0 -0.9,-0.2 -0.9,-0.9 -0.1,-1.8 -0.1,-3.7 -0.1,-5.6 z"
   id="path8"
   inkscape:connector-curvature="0"
   style="clip-rule:evenodd;fill:#211c55;fill-rule:evenodd" />
		<path
   class="st13"
   d="m 32.7,75 c 0,-1.9 0,-3.7 0,-5.6 0,-0.7 0.1,-1 0.9,-1 3.8,0 7.5,0 11.3,0 0.7,0 0.9,0.2 0.9,0.9 0,3.8 0,7.5 0,11.3 0,0.8 -0.3,1 -1,0.9 -3.7,0 -7.5,0 -11.2,0 -0.7,0 -1,-0.2 -1,-1 0.1,-1.8 0.1,-3.7 0.1,-5.5 z"
   id="path10"
   inkscape:connector-curvature="0"
   style="clip-rule:evenodd;fill:#211c55;fill-rule:evenodd" />
		<path
   class="st13"
   d="m 32.7,92.2 c 0,-1.8 0,-3.6 0,-5.5 0,-0.7 0.2,-1 1,-1 3.8,0 7.5,0 11.3,0 0.7,0 0.9,0.3 0.9,0.9 0,3.8 0,7.5 0,11.3 0,0.8 -0.3,0.9 -1,0.9 -3.7,0 -7.5,0 -11.2,0 -0.8,0 -1,-0.2 -1,-1 0,-1.8 0,-3.7 0,-5.6 z"
   id="path12"
   inkscape:connector-curvature="0"
   style="clip-rule:evenodd;fill:#211c55;fill-rule:evenodd" />
		<path
   class="st14"
   d="m 74.1,51 c 6.9,0 13.9,0 20.8,0 1.9,0 2.5,0.3 2.5,1.2 -0.1,2.5 0,2.5 -5.2,2.5 -12.8,0 -25.6,0 -38.4,0 -2.4,0 -3.1,-0.3 -3,-1.5 0.3,-2.6 -0.7,-2.2 4.7,-2.3 6.2,0 12.4,0.1 18.6,0.1 0,0 0,0 0,0 z"
   id="path14"
   inkscape:connector-curvature="0"
   style="clip-rule:evenodd;fill:#211d55;fill-rule:evenodd" />
		<path
   class="st15"
   d="m 73.9,72 c -6.9,0 -13.7,0 -20.6,0 -1.9,0 -2.5,-0.2 -2.5,-1.2 0.1,-2.5 0,-2.5 5.2,-2.5 12.8,0 25.7,0 38.5,0 2.3,0 3,0.3 2.9,1.4 -0.1,2.3 0,2.3 -4.8,2.3 -6.3,0 -12.5,0 -18.7,0 0,0 0,0 0,0 z"
   id="path16"
   inkscape:connector-curvature="0"
   style="clip-rule:evenodd;fill:#221d55;fill-rule:evenodd" />
		<path
   class="st13"
   d="m 73.8,89.3 c -6.8,0 -13.6,0 -20.3,0 -1.9,0 -2.8,-0.2 -2.7,-1.2 0.1,-2.4 0,-2.4 4.9,-2.4 12.9,0 25.8,0 38.7,0 2.2,0 3.1,0.2 3,1.4 -0.2,2.3 0,2.3 -4.6,2.3 -6.3,-0.1 -12.7,-0.1 -19,-0.1 z"
   id="path18"
   inkscape:connector-curvature="0"
   style="clip-rule:evenodd;fill:#211c55;fill-rule:evenodd" />
		<path
   class="st14"
   d="m 61.6,58.7 c 3.2,0 6.5,0 9.7,0 0.9,0 1.2,0.3 1.1,1.2 0,2.5 0,2.5 -2.4,2.5 -6,0 -11.9,0 -17.9,0 -1.1,0 -1.5,-0.3 -1.4,-1.5 0.1,-2.6 -0.3,-2.2 2.2,-2.3 2.9,0 5.8,0.1 8.7,0.1 0,0 0,0 0,0 z"
   id="path20"
   inkscape:connector-curvature="0"
   style="clip-rule:evenodd;fill:#211d55;fill-rule:evenodd" />
		<path
   class="st15"
   d="m 61.5,79.7 c -3.2,0 -6.4,0 -9.6,0 -0.9,0 -1.2,-0.2 -1.2,-1.2 0,-2.5 0,-2.5 2.4,-2.5 6,0 11.9,0 17.9,0 1.1,0 1.4,0.3 1.4,1.4 -0.1,2.3 0,2.3 -2.2,2.3 -2.9,0 -5.8,0 -8.7,0 0,0 0,0 0,0 z"
   id="path22"
   inkscape:connector-curvature="0"
   style="clip-rule:evenodd;fill:#221d55;fill-rule:evenodd" />
		<path
   class="st13"
   d="m 61.5,97 c -3.2,0 -6.3,0 -9.5,0 -0.9,0 -1.3,-0.2 -1.3,-1.2 0.1,-2.4 0,-2.4 2.3,-2.4 6,0 12,0 18,0 1,0 1.4,0.2 1.4,1.4 -0.1,2.3 0,2.3 -2.1,2.3 C 67.4,97 64.4,97 61.5,97 Z"
   id="path24"
   inkscape:connector-curvature="0"
   style="clip-rule:evenodd;fill:#211c55;fill-rule:evenodd" />
		<path
   class="st24"
   d="m 39.2,60.5 c -2.9,0 -2.9,0 -2.8,-2.9 0,-3 0,-3 3,-3 2.8,0 2.8,0 2.8,2.8 0,3.1 0,3.1 -3,3.1 z"
   id="path26"
   inkscape:connector-curvature="0"
   style="clip-rule:evenodd;fill:#fcfcfc;fill-rule:evenodd" />
		<path
   class="st13"
   d="m 32.8,34.4 c 0,-2.9 0.2,-5.7 -0.1,-8.6 -0.1,-1.2 0.9,-1.7 5,-1.7 17.9,0.1 35.9,0.1 53.8,0 3.6,0 4.8,0.4 4.8,1.5 -0.1,5.9 -0.1,11.8 0,17.6 0,1 -1,1.3 -4.1,1.3 -18.4,0 -36.7,0 -55.1,0 -3.3,0 -4.5,-0.3 -4.4,-1.4 0.2,-2.8 0.1,-5.8 0.1,-8.7 z"
   id="path28"
   inkscape:connector-curvature="0"
   style="clip-rule:evenodd;fill:#211c55;fill-rule:evenodd" />
		<path
   class="st24"
   d="m 63.3,40.3 c -27.1,0 -27.1,0 -26.9,-6 0.2,-6.2 0.2,-6.2 28.7,-6.2 26.3,0 26.3,0 26.5,5.9 0.2,6.3 0.2,6.3 -28.3,6.3 z"
   id="path30"
   inkscape:connector-curvature="0"
   style="clip-rule:evenodd;fill:#fcfcfc;fill-rule:evenodd" />
		<path
   class="st24"
   d="m 39.4,77.8 c -3,0 -3,0 -3,-3 0,-2.8 0,-2.8 2.8,-2.8 3,0 3,0 3,3.1 0,2.7 0,2.7 -2.8,2.7 z"
   id="path32"
   inkscape:connector-curvature="0"
   style="clip-rule:evenodd;fill:#fcfcfc;fill-rule:evenodd" />
		<path
   class="st21"
   d="m 36.4,92.2 c 0,-2.9 0,-2.9 2.9,-2.9 3,0 3,0 3,2.9 0,2.9 0,2.9 -2.9,2.9 -3,0.1 -3,0.1 -3,-2.9 z"
   id="path34"
   inkscape:connector-curvature="0"
   style="clip-rule:evenodd;fill:#fbfbfc;fill-rule:evenodd" />
	</g>
</g>
</svg>