<?xml version="1.0" encoding="utf-8"?>
<!-- Generator: Adobe Illustrator 22.0.0, SVG Export Plug-In . SVG Version: 6.00 Build 0)  -->
<svg version="1.1"
	 id="Capa_1" inkscape:version="0.92.3 (2405546, 2018-03-11)" sodipodi:docname="iconos-02.svg" xmlns:cc="http://creativecommons.org/ns#" xmlns:dc="http://purl.org/dc/elements/1.1/" xmlns:inkscape="http://www.inkscape.org/namespaces/inkscape" xmlns:rdf="http://www.w3.org/1999/02/22-rdf-syntax-ns#" xmlns:sodipodi="http://sodipodi.sourceforge.net/DTD/sodipodi-0.dtd" xmlns:svg="http://www.w3.org/2000/svg"
	 xmlns="http://www.w3.org/2000/svg" xmlns:xlink="http://www.w3.org/1999/xlink" x="0px" y="0px" viewBox="0 0 64 64"
	 style="enable-background:new 0 0 64 64;" xml:space="preserve">
<style type="text/css">
	.st0{fill:#FFFFFF;}
</style>
<sodipodi:namedview  bordercolor="#666666" borderopacity="1" gridtolerance="10" guidetolerance="10" id="namedview37" inkscape:current-layer="Capa_1" inkscape:cx="64" inkscape:cy="64" inkscape:pageopacity="0" inkscape:pageshadow="2" inkscape:window-height="705" inkscape:window-maximized="1" inkscape:window-width="1366" inkscape:window-x="0" inkscape:window-y="30" inkscape:zoom="1.84375" objecttolerance="10" pagecolor="#ffffff" showgrid="false">
	</sodipodi:namedview>
<g>
	<path class="st0" d="M16.4,50.4c0,2.1,0,4.2,0,6.3c0,2.4,1.5,4,3.9,4c3.9,0,7.8,0,11.6,0s7.8,0.1,11.6,0c2,0,3.6-1.5,3.6-3.3
		c0.1-2.3,0-4.6,0-6.9c-9.9,0-19.8,0-29.7,0C17.1,50.6,16.8,50.7,16.4,50.4z M31.9,51.6c1.9,0,3.5,1.6,3.4,3.4
		c0,1.9-1.7,3.5-3.6,3.5c-1.9-0.1-3.4-1.6-3.4-3.6C28.3,53.1,29.9,51.6,31.9,51.6z"/>
	<path class="st0" d="M16.5,9.7C16.4,9.7,16.4,9.7,16.5,9.7c0,13.6,0,27.2,0,40.7c0.2-0.1,0.5-0.1,0.7-0.1c9.7,0,19.3,0,28.9,0
		c0.4,0.1,0.8-0.1,1.2,0.3c0-0.2,0-0.4,0.1-0.6c0-10.4,0-20.7,0-31.1c0-1.2,0-1.1-1.1-1.2c-0.6,0-0.8,0.2-0.8,0.8
		c0.1,9.8,0.1,19.7,0.1,29.5c0,0.6-0.2,0.7-0.7,0.7c-8.5,0-17.1,0-25.6,0c-0.6,0-0.7-0.2-0.7-0.8c0-11.9,0-23.8,0-35.7
		c0-0.6,0.2-0.7,0.8-0.7c8.2,0,16.3,0,24.5,0c0.6,0,1.3-0.2,1.6,0.1c0.4,0.3,0.1,1.1,0.1,1.7c0.1,1.5,0,1.5,1.5,1.4
		c0.3-0.1,0.4-0.1,0.4-0.4c-0.1-1.6-0.1-3.1-0.1-4.7c-9.9,0-19.8,0-29.7,0C17.2,9.6,16.8,9.5,16.5,9.7z"/>
	<path class="st0" d="M20.9,30.2c-0.1,6.4,5,11.3,10.9,11.5c6.5,0.3,11.8-5.1,11.7-11.3c0.1-6.2-4.9-11.4-11.3-11.4
		C26,19,21,24,20.9,30.2z M35.5,23.6c0,1,0.1,1.9,0,2.9c-0.1,0.6,0.2,0.7,0.7,0.7c0.9-0.1,1.9,0,2.8,0c0.5,0,0.6,0.2,0.6,0.6
		c-0.1,0.9-0.1,1.9-0.1,2.7c0,0.8-0.1,1.7,0,2.5c0,0.5-0.1,0.7-0.6,0.7c-1-0.1-2,0-3,0c-0.4,0-0.6,0.1-0.5,0.6c0.1,1,0,2.1,0,3.1
		c0,0.4-0.2,0.5-0.5,0.5c-1.8,0-3.6,0-5.3,0c-0.5,0-0.6-0.2-0.6-0.6c0-1,0-2,0-3c0-0.4-0.1-0.6-0.6-0.6c-1,0.1-2.1,0-3.1,0
		c-0.4,0-0.5-0.1-0.5-0.5c0-1.9,0-3.6,0-5.5c0-0.4,0.2-0.5,0.5-0.5c1,0,2.1,0,3.1,0c0.4,0,0.5-0.1,0.5-0.5c0-1,0-2.1,0-3.1
		c0-0.4,0.1-0.5,0.5-0.5c1.8,0,3.6,0,5.4,0C35.4,23.1,35.5,23.2,35.5,23.6z"/>
	<path class="st0" d="M43.6,3.2c-7.9,0-15.7,0-23.5,0c-1.7,0-3.2,1.3-3.5,3c-0.3,1.2-0.1,2.3-0.1,3.5c0,0,0,0,0,0
		c0.1-0.2,0.3-0.2,0.6-0.3c0.3,0,0.5,0,0.8,0c9.4,0,18.8,0,28.2,0c0.4,0,0.9-0.1,1.2,0.2c0-0.9,0-1.8,0.1-2.7
		C47.2,4.8,45.6,3.2,43.6,3.2z M31.9,7.8c-1.5,0-3,0-4.5,0c-0.5,0-0.7-0.1-0.7-0.6C26.7,5.8,26.5,6,27.9,6c0.7-0.1,1.4,0,2.1,0
		c0.8,0,1.7,0,2.5,0c0.4,0,0.6,0.1,0.6,0.6C33.1,8.1,33.3,7.8,31.9,7.8z M36.2,7.8c-0.3-0.1-0.8,0.2-0.9-0.2c-0.2-0.5-0.1-1-0.1-1.5
		c0-0.2,0.2-0.2,0.4-0.2c0.3,0,0.7,0.1,1,0c0.6-0.1,0.8,0.2,0.8,0.8C37.3,7.8,37.3,7.8,36.2,7.8z"/>
	<path class="st0" d="M46,9.4c-9.4,0-18.8,0-28.2,0c-0.3,0-0.5,0-0.8,0c-0.2,0-0.5,0.1-0.6,0.3c0.3-0.2,0.7-0.1,1.1-0.1
		c9.9,0,19.8,0,29.7,0C46.8,9.3,46.4,9.4,46,9.4z"/>
	<path class="st0" d="M57,20.8c-0.3,0.3-0.5,0.7-0.8,0.9c-0.5,0.4-0.4,0.6-0.1,1c3.3,3.6,3.4,9.2,0.5,13.1c-0.3,0.4-1,0.7-0.9,1.2
		c0.2,0.5,0.8,0.8,1.2,1.2C61.9,33.5,61.9,25.6,57,20.8z"/>
	<path class="st0" d="M7,21.2c-2.2,2.4-3.3,5.2-3.3,8.4c0,0.9,0.1,1.7,0.2,2.5c0.3,1.2,0.3,1.2,1.5,0.9c0.6-0.2,0.7-0.3,0.5-0.9
		c-0.8-3.3-0.2-6.3,2-9c0.8-1,0.8-1-0.1-1.9C7.5,20.8,7.3,20.9,7,21.2z"/>
	<path class="st0" d="M11.7,26.4c0.2-0.3,0.7-0.6,0.6-1c-0.1-0.3-0.6-0.6-0.8-0.9c-0.3-0.4-0.6-0.3-0.8,0.1
		c-1.2,1.4-1.7,3.1-1.8,4.9c0,1.6,0.5,3.1,1.4,4.4c0.8,1.2,0.8,1.2,1.9,0.2c0.3-0.3,0.4-0.5,0.1-0.8C10.5,31.2,10.3,28.5,11.7,26.4z
		"/>
	<path class="st0" d="M52.3,25.2c-0.3,0.3-0.3,0.5,0,0.8c1.6,2,1.8,4.7,0.4,6.8c-0.2,0.3-0.7,0.6-0.6,0.9c0.1,0.3,0.5,0.6,0.8,0.9
		l0.1,0.1c0.3,0.4,0.5,0.3,0.7-0.1c1.2-1.4,1.8-3.1,1.9-5.1c-0.1-1.4-0.5-2.9-1.3-4.1C53.4,24.1,53.4,24.1,52.3,25.2z"/>
	<path class="st0" d="M7.6,35.8c0-0.1,0-0.1-0.1-0.1c-0.8-1.1-0.8-1.1-2-0.4c-0.3,0.2-0.3,0.3-0.2,0.6c0.6,0.9,1.1,1.7,2,2.5
		c0.4-0.4,1-0.8,1.1-1.3C8.6,36.6,7.8,36.3,7.6,35.8z"/>
	<path class="st0" d="M31.8,56.7c0.8,0,1.6-0.7,1.6-1.6c0-0.9-0.8-1.6-1.6-1.6c-0.9,0-1.5,0.7-1.5,1.6C30.3,56,31,56.7,31.8,56.7z"
		/>
	<path class="st0" d="M26.7,29.6c0.1,0.6,0.1,1.1,0,1.6c0,0.4,0.2,0.5,0.5,0.5c1,0,2.1,0,3.1,0c0.4,0,0.5,0.1,0.5,0.5
		c0,1,0,2.1,0,3.1c0,0.4,0.1,0.5,0.5,0.5c0.6-0.1,1.1-0.1,1.7,0c0.4,0,0.5-0.2,0.5-0.5c0-1,0.1-2.1,0-3.1c0-0.4,0.2-0.6,0.6-0.5
		c0.5,0,1,0,1.4,0c0.5,0,1.1,0,1.6,0c0.4,0,0.5-0.1,0.5-0.5c-0.1-0.6-0.1-1.1,0-1.6c0.1-0.5-0.1-0.6-0.6-0.6c-1,0-2,0-3,0
		c-0.4,0-0.5-0.1-0.5-0.5c0-1,0-2.1,0-3.1c0-0.4-0.1-0.5-0.5-0.5c-0.6,0.1-1.1,0.1-1.7,0c-0.4,0-0.5,0.2-0.5,0.5c0,1-0.1,2.1,0,3.1
		c0.1,0.4-0.1,0.5-0.5,0.5c-1,0-2,0-3,0C26.9,29.1,26.7,29.1,26.7,29.6z"/>
</g>
</svg>
