<svg id="Layer_1" data-name="Layer 1" xmlns="http://www.w3.org/2000/svg" viewBox="0 0 443.94 443.94"><defs><style>.cls-1{fill:#242056;}.cls-2{fill:#fff;}.cls-3{fill:#d0d5e4;}.cls-4{fill:#fefefe;}.cls-5{fill:#7cc9ed;}.cls-6{fill:#232155;}</style></defs><title>Artboard 10 copy</title><path class="cls-1" d="M396.65,236.35C393.08,232.81,235.8,75.13,232.76,72.09c-1.22-2.5-2.9-4.22-6-3.51-4.45,0-7.56,2.39-10.54,5.38Q135.08,155.19,53.9,236.35c-6,6-7.17,10.81-3.66,13.87,2.44,2.12,10.42-8.22,16.92-14.54q11.49-11.18,23-22.29c1.76,8.2.65,29.82.47,38-.38,16.7.76,113.62.76,113.62,2.12,7.19,7.87,7.86,14,7.8l245.45,0c6,1.17,9-2.58,8.88-7.49-.25-9.9,1.53-128,.89-148.37l22.69,23.73c2.53,1.53,14.15,13.22,17.61,7.46C404.29,242.59,400.45,240.13,396.65,236.35ZM339.18,362.72c-38.54-.51-77.09-.38-115.64-.47h0c-38.28.09-76.57.1-114.85.38-5.28,0-6.23-2.05-6.22-6.72q.19-72.92,0-145.82c0-3.14.62-5.66,3-8q58.86-58.65,117.61-117.42a7.71,7.71,0,0,1,2.1-1.08c2.37.42,3.51,2.44,5,3.93Q286.09,143.34,342,199.13a18.18,18.18,0,0,1,5.91,14.24q-.35,70,0,140.09C348,360.25,346.75,362.82,339.18,362.72Z"/><rect class="cls-2" x="102.51" y="339.33" width="245.45" height="68.88"/><g id="GIjQvQ.tif"><path class="cls-1" d="M331.35,265.16c-.37,15.14-5.41,28.35-15.94,39.45-17.69,18.63-36.12,36.51-54.31,54.62-11.29,11.24-22.76,22.27-34.07,33.48-2.17,2.15-3.46,2.63-6,.06q-21.57-21.7-43.61-42.95-18.19-17.47-35.74-35.59c-6.29-6.48-13-12.64-17.55-20.69-18.93-33.4-1-75.86,36.21-85.26,23.26-5.87,46.55,2.52,61.42,22.37,1.95,2.59,2.51,2.17,4.27-.14,10.87-14.27,25.07-22.43,43.23-23.81,30.22-2.31,56.8,20.05,61.36,49.07A92.08,92.08,0,0,1,331.35,265.16Z"/><path class="cls-3" d="M224.2,387.29c-.43.48-.81.21-1.13-.11-10.3-10.4-21.35-20-31.25-30.82-2.76-4.59-5.72-9.06-8.68-13.53-9.23-13.9-18.45-27.81-26.94-42.18-5.58-9.44-9.62-19.47-10.8-30.49a38.05,38.05,0,0,1,2.79-18.44c4.28-10.54,11.1-19.14,21.39-24.56,10.89-5.75,22.25-6.22,33.91-2.85,2.68.77,5.32,1.7,7.92,2.72,5.57,4.6,8.85,10.86,12.4,17.23,2.87-4.27,4.94-8.84,8.16-12.69,9.64-11.56,21.76-18.23,36.89-19.36,17.48-1.3,32.06,4.71,43.7,17.57a47.26,47.26,0,0,1,12.54,27.57c-.66,5.26-3.46,9.67-5.87,14.18-5.94,11.15-14.68,20-24,28.3-9.51,8.51-19.73,16.21-28.82,25.18-14.51,14.31-25.36,31.23-34.88,49.09C229.18,378.54,227.15,383.18,224.2,387.29Z"/><path class="cls-4" d="M211.41,227c-1.23,1.22-2.33,0-3.33-.34-6.46-2.32-13.08-4-19.94-3.61-15.63.89-27.31,8.33-35.5,21.7a42.37,42.37,0,0,0-6.47,23.52,55.2,55.2,0,0,0,5.47,21.59c5.83,12.72,13.79,24.22,21.43,35.89q9.44,14.43,18.84,28.89c.42.64.66,1.16-.09,1.69-13.22-13.09-26.52-26.09-39.62-39.29-7.16-7.23-15-13.89-20.86-22.31-21.46-30.77-4.59-74,32.19-81.58C181.61,209.43,197.93,213.86,211.41,227Z"/><path class="cls-5" d="M224.2,387.29c3.35-8.43,8-16.22,12.42-24.07a202.65,202.65,0,0,1,22.55-32,152.36,152.36,0,0,1,16.7-16C290,303.12,305.19,292,315.53,276.08a74.24,74.24,0,0,0,8.29-16.42,4.57,4.57,0,0,1,1.28-2.31c1.45,4.8,1.06,9.74.4,14.51-1.79,13.1-8.34,23.58-17.61,33-9,9.17-18,18.37-27.13,27.47-15.37,15.35-30.89,30.54-46.41,45.74C231.09,381.26,227.59,384.22,224.2,387.29Z"/><path class="cls-3" d="M180.27,259.32h-2c-6.47,0-6.71.14-5.7,6.56a34,34,0,0,1,0,5.62c0,2.35-1,2.78-3.06,2.74s-2.42-.48-2.14-2.56a32.4,32.4,0,0,0-.17-10.35c-.3-1.55-.94-2.06-2.43-2-3.36.07-6.72-.05-10.08.07-1.93.06-2.53-.69-2.51-2.55s.19-3,2.49-2.92c3.24.15,6.5-.09,9.74.08,2.58.13,3.68-1,3.14-3.35-.73-3.15.23-6.22,0-9.31-.16-2.34.89-2.85,3-2.79,2.24.07,2.75,1.36,2.41,3.1-.63,3.22-.4,6.46-.49,9.7-.06,1.85.76,2.63,2.6,2.61,3.25-.06,6.5.05,9.75,0,1.89,0,3.12.07,3.14,2.59s-1.16,3-3.26,2.83C183.19,259.24,181.73,259.32,180.27,259.32Z"/><path class="cls-3" d="M163.85,265.62c.06.65-4,5-4.49,4.84a7.23,7.23,0,0,1-3.48-3.38c-.22-.35,4.3-4.78,4.67-4.57A11.16,11.16,0,0,1,163.85,265.62Z"/><path class="cls-3" d="M160.54,250.33c-.52,0-4.82-4.27-4.61-4.7a8.55,8.55,0,0,1,3.21-3.3c.37-.24,4.71,3.9,4.77,4.47S161.1,250.33,160.54,250.33Z"/><path class="cls-3" d="M180.84,270.72c-1.71-1.45-3.74-2.63-4.3-4.64-.45-1.63,1.5-2.54,2.68-3.5.36-.3,4.91,3.67,4.8,4.31C183.71,268.69,182,269.34,180.84,270.72Z"/><path class="cls-3" d="M184.06,245.32c-.05,1-4.25,5.21-4.69,5a8.16,8.16,0,0,1-3.23-3.28c-.32-.62,3.89-4.6,4.65-4.39C182.39,243.05,183.13,244.5,184.06,245.32Z"/><path class="cls-3" d="M304,264.79c2.53-.37,2.24,1.39,2.32,3s-.38,2.4-2.21,2.46c-2.27.08-2.5-1.07-2.49-2.88S301.92,264.45,304,264.79Z"/><path class="cls-3" d="M294.89,260.7c-1.59.13-2.68,0-2.71-2,0-2.27,1.4-2.06,2.86-2.08s2.57.06,2.58,2C297.64,260.91,296.26,260.8,294.89,260.7Z"/><path class="cls-3" d="M284.09,267.57c0-1.5-.2-2.8,1.89-2.85s2.26,1.19,2.22,2.77c0,1.35.14,2.64-1.93,2.69S284,269,284.09,267.57Z"/><path class="cls-3" d="M294.79,278.28c-1.47.13-2.65-.09-2.6-2.21s1.38-1.84,2.71-1.9c1.6-.07,2.8.08,2.73,2.22S296.28,278.31,294.79,278.28Z"/></g><path class="cls-2" d="M226.84,352.08a9.12,9.12,0,0,1-9.05-8.13l-3.07-28.58-4.51,12.91a9.1,9.1,0,0,1-17.38-.66l-1.54-5.82-.33.52a9.08,9.08,0,0,1-7.71,4.27H134.44a9.1,9.1,0,0,1,0-18.19H178.2L187,294.34a9.1,9.1,0,0,1,15.67.4l8.21-23.5a9.09,9.09,0,0,1,17.63,2l3,28.27,3.78-10.94a9.09,9.09,0,0,1,17.58,1.57L256.6,316l6.64-5.55a9.07,9.07,0,0,1,5.83-2.12h39.06a9.1,9.1,0,0,1,0,18.2H272.37L255.91,340.3a9.1,9.1,0,0,1-14.82-5.58l-.55-3.55L235.43,346A9.09,9.09,0,0,1,226.84,352.08Z"/><path class="cls-6" d="M226.84,345.4h-.28a2.42,2.42,0,0,1-2.13-2.15l-6.25-58-14.27,40.88a2.38,2.38,0,0,1-2.38,1.62,2.41,2.41,0,0,1-2.25-1.8l-5.49-20.72-8.48,13.59a2.43,2.43,0,0,1-2.06,1.14H134.44a2.43,2.43,0,0,1,0-4.85H181.9l10.74-17.2a2.43,2.43,0,0,1,4.4.66l4.9,18.49,15.21-43.58a2.42,2.42,0,0,1,4.7.54l6.24,57.95,13.52-39.16a2.43,2.43,0,0,1,4.69.42l5.52,35.52,15.7-13.12a2.37,2.37,0,0,1,1.55-.57h39.06a2.43,2.43,0,0,1,0,4.85H270l-18.31,15.31a2.43,2.43,0,0,1-4-1.49L243,303.59l-13.88,40.18A2.42,2.42,0,0,1,226.84,345.4Z"/></svg>