<?xml version="1.0" encoding="UTF-8" standalone="no"?>
<!-- Generator: Adobe Illustrator 16.0.0, SVG Export Plug-In . SVG Version: 6.00 Build 0)  -->

<svg
   xmlns:dc="http://purl.org/dc/elements/1.1/"
   xmlns:cc="http://creativecommons.org/ns#"
   xmlns:rdf="http://www.w3.org/1999/02/22-rdf-syntax-ns#"
   xmlns:svg="http://www.w3.org/2000/svg"
   xmlns="http://www.w3.org/2000/svg"
   xmlns:sodipodi="http://sodipodi.sourceforge.net/DTD/sodipodi-0.dtd"
   xmlns:inkscape="http://www.inkscape.org/namespaces/inkscape"
   version="1.1"
   id="Capa_1"
   x="0px"
   y="0px"
   width="64"
   height="64"
   viewBox="0 0 64 64"
   xml:space="preserve"
   sodipodi:docname="iconos-05.svg"
   inkscape:version="0.92.3 (2405546, 2018-03-11)"><metadata
   id="metadata61"><rdf:RDF><cc:Work
       rdf:about=""><dc:format>image/svg+xml</dc:format><dc:type
         rdf:resource="http://purl.org/dc/dcmitype/StillImage" /><dc:title /></cc:Work></rdf:RDF></metadata><defs
   id="defs59" /><sodipodi:namedview
   pagecolor="#ffffff"
   bordercolor="#666666"
   borderopacity="1"
   objecttolerance="10"
   gridtolerance="10"
   guidetolerance="10"
   inkscape:pageopacity="0"
   inkscape:pageshadow="2"
   inkscape:window-width="1366"
   inkscape:window-height="705"
   id="namedview57"
   showgrid="false"
   inkscape:zoom="4.078125"
   inkscape:cx="-9.9099107"
   inkscape:cy="33.566173"
   inkscape:window-x="0"
   inkscape:window-y="30"
   inkscape:window-maximized="1"
   inkscape:current-layer="Capa_1" />
<style
   type="text/css"
   id="style2">
<![CDATA[
	.st0{fill-rule:evenodd;clip-rule:evenodd;fill:#DFD9F4;}
	.st1{fill-rule:evenodd;clip-rule:evenodd;fill:#7DC9EC;}
	.st2{fill-rule:evenodd;clip-rule:evenodd;fill:#7DCAEC;}
	.st3{fill-rule:evenodd;clip-rule:evenodd;fill:#7E77C9;}
	.st4{fill-rule:evenodd;clip-rule:evenodd;fill:#7E77CA;}
	.st5{fill-rule:evenodd;clip-rule:evenodd;fill:#7E77CB;}
	.st6{fill-rule:evenodd;clip-rule:evenodd;fill:#7E78CA;}
	.st7{fill-rule:evenodd;clip-rule:evenodd;fill:#7F78CB;}
	.st8{fill-rule:evenodd;clip-rule:evenodd;fill:#E0DAF4;}
	.st9{fill-rule:evenodd;clip-rule:evenodd;fill:#E0DAF5;}
	.st10{fill-rule:evenodd;clip-rule:evenodd;fill:#80D3F3;}
	.st11{fill-rule:evenodd;clip-rule:evenodd;fill:#80D3F4;}
	.st12{fill-rule:evenodd;clip-rule:evenodd;fill:#80D4F4;}
	.st13{fill-rule:evenodd;clip-rule:evenodd;fill:#211C55;}
	.st14{fill-rule:evenodd;clip-rule:evenodd;fill:#211D55;}
	.st15{fill-rule:evenodd;clip-rule:evenodd;fill:#221D55;}
	.st16{fill-rule:evenodd;clip-rule:evenodd;fill:#231E56;}
	.st17{fill-rule:evenodd;clip-rule:evenodd;fill:#242155;}
	.st18{fill-rule:evenodd;clip-rule:evenodd;fill:#F9F9FA;}
	.st19{fill-rule:evenodd;clip-rule:evenodd;fill:#FAFAFB;}
	.st20{fill-rule:evenodd;clip-rule:evenodd;fill:#FBFBFB;}
	.st21{fill-rule:evenodd;clip-rule:evenodd;fill:#FBFBFC;}
	.st22{fill-rule:evenodd;clip-rule:evenodd;fill:#9997AF;}
	.st23{fill-rule:evenodd;clip-rule:evenodd;fill:#FCFBFC;}
	.st24{fill-rule:evenodd;clip-rule:evenodd;fill:#FCFCFC;}
	.st25{fill-rule:evenodd;clip-rule:evenodd;fill:#FCFCFD;}
	.st26{fill-rule:evenodd;clip-rule:evenodd;fill:#FDFDFD;}
	.st27{fill-rule:evenodd;clip-rule:evenodd;fill:#FDFDFE;}
	.st28{fill-rule:evenodd;clip-rule:evenodd;fill:#FEFDFE;}
	.st29{fill-rule:evenodd;clip-rule:evenodd;fill:#FEFEFE;}
	.st30{fill-rule:evenodd;clip-rule:evenodd;fill:#CFD3E3;}
]]>
</style>
<g
   id="g54"
   transform="matrix(0.49375931,0,0,0.50239447,-0.80442773,-0.33454086)">
	<path
   class="st13"
   d="m 104.2,101.6 c 5.5,0 10.7,0 15.9,0 0.9,0 1.3,0.1 1.2,1.2 -0.1,1.9 0,1.9 -1.9,1.9 -12,0 -24.1,0 -36.1,0 -0.9,0 -1.3,-0.2 -1.3,-1.2 0.1,-1.9 0,-1.9 2,-1.9 1.8,0 3.5,0 5.3,0 0.2,-0.4 -0.1,-0.5 -0.3,-0.6 -1.2,-1.4 -2,-2.9 -2.4,-4.6 -0.1,-0.8 -0.5,-1 -1.3,-1 -12.6,0 -25.2,0 -37.8,0 -0.5,0 -1.3,0.3 -1.4,-0.2 -0.2,-0.8 -0.1,-1.8 0,-2.6 0,-0.4 0.6,-0.2 0.9,-0.2 6,0 11.9,0 17.9,0 6.8,0 13.6,0 20.5,0 0.9,0 1.6,-0.8 1.5,-1.7 -0.1,-0.5 -0.5,-0.3 -0.7,-0.3 -2.3,0 -4.7,0 -7,0 -12.5,0 -25,0 -37.5,0 -0.3,0 -0.5,0 -0.9,0 1.2,4.2 0.5,7.8 -2.4,11.1 0.4,0.2 0.8,0.1 1.2,0.1 7.1,0 14.2,0 21.4,0 0.9,0 1.1,0.3 1.1,1.1 0,2 0,2 -2,2 -17.3,0 -34.5,0 -51.8,0 -1.1,0 -1.4,-0.3 -1.3,-1.3 0.1,-1.8 0,-1.8 1.7,-1.8 4.4,0 8.8,0 13.2,0 0.4,0 0.7,0 1.3,0 -1.2,-1.4 -2.2,-2.9 -2.6,-4.5 -0.5,-1.7 -0.5,-1.7 -2.3,-1.7 -2.9,0 -5.8,0 -8.7,0 -0.8,0 -1.1,-0.1 -1.1,-1 0.1,-2 0,-4.1 0,-6.2 0,-0.6 0,-1.1 0.9,-1 0.8,0.1 0.6,-0.5 0.6,-1 0,-4.9 0,-9.8 0,-14.8 0,-0.9 0.3,-1.4 1.1,-1.7 2.8,-1.3 5.7,-2.7 8.5,-3.9 0.6,-0.3 0.9,-0.7 1.1,-1.3 2.1,-7 4.2,-13.9 6.2,-20.8 0.2,-0.8 0.5,-1.3 1.5,-1.1 1.2,0.2 1.8,-0.2 1.9,-1.5 0.1,-1.3 0.4,-2.5 0.5,-3.8 0.1,-0.6 0.2,-0.9 1,-0.9 3.2,0 6.4,0 9.6,0 0.7,0 0.9,0.2 1,0.8 0.2,1.4 0.5,2.9 0.7,4.3 0.1,0.9 0.5,1 1.3,1 8.3,0 16.6,0 24.8,0 15,0 30.1,0 45.1,0 1,0 1.1,0.4 1.1,1.2 0,9.7 0,19.5 0,29.2 0,0.8 0.2,1.2 0.9,1.6 1.4,0.8 2.7,1.8 4,2.6 0.5,0.3 0.6,0.6 0.6,1.2 0,3.7 0,7.5 0,11.2 0,0.6 -0.2,0.9 -0.8,0.8 0,0 -0.1,0 -0.1,0 -0.9,0.1 -2,-0.4 -2.5,0.2 -0.4,0.5 -0.1,1.6 -0.1,2.5 0,2.3 0,2.3 -2.3,2.3 -2.1,0 -4.3,0 -6.4,0 -0.4,0 -0.7,-0.1 -0.8,0.5 -1,2.2 -2,4 -3.7,5.8 z"
   id="path4"
   inkscape:connector-curvature="0"
   style="clip-rule:evenodd;fill:#211c55;fill-rule:evenodd" />
	<path
   class="st16"
   d="m 72.2,101.6 c 1.5,0 3.1,0 4.6,0 0.6,0 0.8,0.2 0.8,0.8 0.1,2.3 0.1,2.3 -2.2,2.3 -2.5,0 -5.1,0 -7.6,0 -0.7,0 -0.9,-0.2 -0.9,-0.9 0,-2.2 0,-2.2 2.1,-2.2 0.8,0 1.6,0 2.3,0 0.3,0 0.6,0 0.9,0 z"
   id="path6"
   inkscape:connector-curvature="0"
   style="clip-rule:evenodd;fill:#231e56;fill-rule:evenodd" />
	<path
   class="st7"
   d="m 34.7,28.1 c 0,-1.3 0,-2.7 0,-4 0,-0.5 0.1,-0.8 0.7,-0.7 0.1,0 0.1,0 0.2,0 2.2,0 2.2,0 2.2,2.2 0,2.2 0,4.5 0,6.7 0,0.6 -0.2,0.8 -0.8,0.9 -2.3,0.1 -2.3,0.1 -2.3,-2.2 0,-1 0,-2 0,-2.9 0,0 0,0 0,0 z"
   id="path8"
   inkscape:connector-curvature="0"
   style="clip-rule:evenodd;fill:#7f78cb;fill-rule:evenodd" />
	<path
   class="st7"
   d="m 30.9,33.4 c 0,0.2 -0.2,0.3 -0.3,0.4 -1.9,1.6 -2.1,1.5 -3.4,-0.5 -1.2,-1.9 -2.3,-3.7 -3.5,-5.6 -0.4,-0.5 -0.4,-0.8 0.3,-1.2 1.9,-1.2 1.9,-1.3 3.1,0.7 1.1,1.8 2.3,3.7 3.5,5.5 0.1,0.2 0.2,0.5 0.3,0.7 z"
   id="path10"
   inkscape:connector-curvature="0"
   style="clip-rule:evenodd;fill:#7f78cb;fill-rule:evenodd" />
	<path
   class="st6"
   d="m 41.7,33.3 c 0.1,-0.2 0.2,-0.4 0.3,-0.6 1.4,-2.3 2.9,-4.5 4.3,-6.8 0.3,-0.5 0.5,-0.6 1.1,-0.3 2,1.2 2.1,1.2 0.8,3.2 -1.1,1.7 -2.2,3.4 -3.3,5.2 -0.5,0.9 -1,1.2 -1.8,0.4 -0.3,-0.3 -0.7,-0.4 -1,-0.7 -0.2,0 -0.5,-0.1 -0.4,-0.4 z"
   id="path12"
   inkscape:connector-curvature="0"
   style="clip-rule:evenodd;fill:#7e78ca;fill-rule:evenodd" />
	<path
   class="st26"
   d="m 45.7,72.9 c 0,-8.8 0,-17.6 0,-26.4 0,-1 0.5,-0.9 1.1,-0.9 15.1,0 30.1,0 45.2,0 6.3,0 12.6,0 18.9,0 0.8,0 1,0.2 1,1 0,8.8 0,17.5 0,26.3 -0.6,0.6 -1.3,0.4 -2,0.4 -10.5,0 -21,0 -31.4,0 -10.2,0 -20.4,0 -30.6,0 -0.9,0 -1.6,0.2 -2.2,-0.4 z"
   id="path14"
   inkscape:connector-curvature="0"
   style="clip-rule:evenodd;fill:#fdfdfd;fill-rule:evenodd" />
	<path
   class="st26"
   d="m 42.6,66.4 c 0,6.6 0,13.2 0,19.8 0,0.8 -0.2,1.1 -1.1,1.1 -1.7,0.1 -3,-0.3 -4.4,-1.5 -4.1,-3.7 -10.5,-3.2 -14.3,0.8 -0.4,0.4 -0.7,0.7 -1.3,0.6 -2.6,0 -5.2,0 -7.8,0 -0.8,0 -0.9,-0.3 -0.9,-1 0,-0.7 0.1,-1.1 0.9,-1.1 1.4,0.1 2.8,0 4.1,0 0.5,0 0.7,-0.2 0.7,-0.7 0,-3.5 0,-7.1 0,-10.6 0,-0.7 -0.3,-0.7 -0.8,-0.7 -1.3,0 -2.7,0 -4,0 -0.3,0 -0.8,0.2 -0.9,-0.4 -0.1,-0.5 0.2,-0.7 0.6,-0.9 2.8,-1.3 5.5,-2.6 8.3,-3.9 0.7,-0.3 1.1,-0.8 1.3,-1.5 2,-6.6 3.9,-13.3 5.9,-19.9 0.2,-0.8 0.6,-1.1 1.4,-1.1 3.8,0.1 7.5,0 11.3,0 0.8,0 1,0.2 1,1 0,6.8 0,13.4 0,20 0,0 0,0 0,0 z"
   id="path16"
   inkscape:connector-curvature="0"
   style="clip-rule:evenodd;fill:#fdfdfd;fill-rule:evenodd" />
	<path
   class="st26"
   d="m 111.8,79.5 c 0,2.3 0,4.6 0,6.9 0,0.7 -0.1,1 -0.9,0.9 -0.7,-0.1 -1.4,0 -2.1,0 -2.1,0.1 -3.8,-0.2 -5.6,-1.8 -4.1,-3.6 -10.4,-2.9 -14.2,1.1 -0.4,0.4 -0.8,0.6 -1.4,0.6 -13.7,0 -27.4,0 -41,0 -0.8,0 -1,-0.3 -1,-1 0,-2 0,-3.9 0,-5.9 0.2,-1.4 0.2,-1.5 1.9,-1.5 9.9,0 19.8,0 29.7,0 10.8,0 21.7,0 32.5,0 0.8,0.1 1.7,-0.2 2.1,0.7 z"
   id="path18"
   inkscape:connector-curvature="0"
   style="clip-rule:evenodd;fill:#fdfdfd;fill-rule:evenodd" />
	<path
   class="st5"
   d="m 111.8,79.5 c -0.4,-0.3 -0.8,-0.2 -1.2,-0.2 -21.2,0 -42.3,0 -63.5,0 -0.8,0 -1.4,0.1 -1.5,1.1 0,-2.5 0,-4.9 0,-7.4 2.5,0 5,0.1 7.5,0.1 19.3,0 38.6,0 57.9,0 0.3,0 0.5,0 0.8,-0.1 0,2.1 0,4.3 0,6.5 z"
   id="path20"
   inkscape:connector-curvature="0"
   style="clip-rule:evenodd;fill:#7e77cb;fill-rule:evenodd" />
	<path
   class="st3"
   d="m 23,94 c 0,-4.3 3.4,-7.6 7.6,-7.6 4.1,0 7.5,3.5 7.4,7.7 0,4.1 -3.5,7.5 -7.6,7.5 -4.1,0 -7.4,-3.4 -7.4,-7.6 z"
   id="path22"
   inkscape:connector-curvature="0"
   style="clip-rule:evenodd;fill:#7e77c9;fill-rule:evenodd" />
	<path
   class="st4"
   d="m 96.9,86.3 c 4.2,0 7.5,3.3 7.6,7.5 0,4.1 -3.4,7.5 -7.6,7.5 -4.3,0 -7.6,-3.3 -7.6,-7.6 0,-4 3.4,-7.4 7.6,-7.4 z"
   id="path24"
   inkscape:connector-curvature="0"
   style="clip-rule:evenodd;fill:#7e77ca;fill-rule:evenodd" />
	<path
   class="st26"
   d="m 114.9,77.8 c 1.6,0.7 2.7,1.4 2.5,3.4 -0.2,1.7 -0.1,3.5 0,5.2 0,1 -0.6,0.8 -1.2,0.8 -0.5,0 -1.3,0.4 -1.3,-0.8 0.1,-2.8 0,-5.6 0,-8.6 z"
   id="path26"
   inkscape:connector-curvature="0"
   style="clip-rule:evenodd;fill:#fdfdfd;fill-rule:evenodd" />
	<path
   class="st1"
   d="m 36.3,42.6 c -0.9,0 -1.8,0 -2.7,0 -0.6,0 -0.7,-0.2 -0.7,-0.8 0.2,-2.3 0.2,-2.3 2.5,-2.3 1,0 2,0 3,0 0.6,0 0.9,0.1 1,0.8 0.3,2.2 0.3,2.2 -1.9,2.2 -0.4,0.1 -0.8,0.1 -1.2,0.1 0,0 0,0 0,0 z"
   id="path28"
   inkscape:connector-curvature="0"
   style="clip-rule:evenodd;fill:#7dc9ec;fill-rule:evenodd" />
	<path
   class="st24"
   d="m 15.8,90.4 c 1.2,0 2.4,0 3.6,0 0.3,0 1,-0.3 0.9,0.4 -0.1,0.5 0.2,1.6 -1,1.6 -1.7,0 -3.5,0 -5.2,0 -0.6,0 -1.1,0 -1.7,0 -1.1,0 -1.5,-0.5 -1.2,-1.6 0.1,-0.4 0.4,-0.4 0.7,-0.4 1.3,0 2.6,0 3.9,0 0,0 0,0 0,0 z"
   id="path30"
   inkscape:connector-curvature="0"
   style="clip-rule:evenodd;fill:#fcfcfc;fill-rule:evenodd" />
	<path
   class="st19"
   d="m 15.4,79.3 c 0,0.4 0,0.8 0,1.2 0,1.7 0,1.6 -1.7,1.7 -0.7,0 -1,-0.2 -0.9,-0.9 0.1,-1.4 0,-2.7 0,-4.1 0,-0.6 0.2,-0.8 0.8,-0.8 1.8,0 1.8,-0.1 1.8,1.8 0,0.3 0,0.7 0,1.1 z"
   id="path32"
   inkscape:connector-curvature="0"
   style="clip-rule:evenodd;fill:#fafafb;fill-rule:evenodd" />
	<path
   class="st24"
   d="m 107,90.4 c 2.1,0 4.1,0 6.2,0 0.9,0 0.5,0.7 0.5,1 0,0.4 0.2,0.9 -0.6,0.9 -1.7,0 -3.4,0 -5.1,0 -0.4,0 -0.6,-0.2 -0.7,-0.5 -0.1,-0.5 -0.2,-0.9 -0.3,-1.4 z"
   id="path34"
   inkscape:connector-curvature="0"
   style="clip-rule:evenodd;fill:#fcfcfc;fill-rule:evenodd" />
	<path
   class="st13"
   d="m 88.8,59.5 c 0,1 -0.1,2 0,3 0.1,0.9 -0.1,1.4 -1.2,1.2 -1,-0.1 -1.9,0 -2.9,0 -0.6,0 -0.8,0.2 -0.8,0.8 0,1.1 0,2.2 0,3.2 0,0.7 -0.2,0.8 -0.8,0.8 -2.3,0 -4.5,0 -6.8,0 -0.6,0 -0.8,-0.1 -0.8,-0.7 0,-1.1 0,-2.2 0,-3.2 0,-0.7 -0.2,-0.8 -0.8,-0.8 -1.1,0 -2.2,0 -3.2,0 -0.5,0 -0.8,-0.1 -0.8,-0.7 0,-2.3 0,-4.6 0,-6.9 0,-0.7 0.2,-0.8 0.8,-0.8 1.1,0 2.2,0 3.2,0 0.6,0 0.8,-0.1 0.8,-0.7 0,-1.1 0,-2.2 0,-3.2 0,-0.5 0,-0.8 0.7,-0.8 2.3,0 4.7,0 7,0 0.5,0 0.7,0.1 0.6,0.6 0,1.1 0,2.2 0,3.2 0,0.8 0.3,0.9 1,0.9 1,-0.1 2.1,0 3.1,0 0.6,0 0.8,0.2 0.8,0.8 0.1,1 0.1,2.2 0.1,3.3 z"
   id="path36"
   inkscape:connector-curvature="0"
   style="clip-rule:evenodd;fill:#211c55;fill-rule:evenodd" />
	<path
   class="st13"
   d="m 40.7,55.9 c 0,2.5 0,5 0,7.5 0,0.6 -0.2,0.8 -0.8,0.8 -4.2,0 -8.4,0 -12.6,0 -0.6,0 -0.8,-0.2 -0.6,-0.8 1.2,-5 2.4,-10 3.6,-15.1 0.1,-0.6 0.4,-0.7 1,-0.7 2.9,0 5.7,0 8.6,0 0.7,0 0.9,0.2 0.9,0.9 -0.1,2.5 -0.1,5 -0.1,7.4 0,0 0,0 0,0 z"
   id="path38"
   inkscape:connector-curvature="0"
   style="clip-rule:evenodd;fill:#211c55;fill-rule:evenodd" />
	<path
   class="st15"
   d="m 37.4,68.9 c -0.3,0 -0.5,0 -0.8,0 -2.3,0 -2.2,0 -2.2,-2.3 0,-0.6 0.2,-0.8 0.8,-0.8 1.5,0 3,0 4.5,0 0.7,0 0.9,0.1 0.9,0.8 0,2.3 0,2.3 -2.2,2.3 -0.4,0 -0.7,0 -1,0 0,0 0,0 0,0 z"
   id="path40"
   inkscape:connector-curvature="0"
   style="clip-rule:evenodd;fill:#221d55;fill-rule:evenodd" />
	<path
   class="st13"
   d="m 30.4,99.6 c -3.1,0 -5.6,-2.5 -5.6,-5.7 0,-3.1 2.6,-5.7 5.7,-5.7 3.1,0.1 5.7,2.7 5.7,5.7 0,3.3 -2.6,5.7 -5.8,5.7 z"
   id="path42"
   inkscape:connector-curvature="0"
   style="clip-rule:evenodd;fill:#211c55;fill-rule:evenodd" />
	<path
   class="st13"
   d="m 97,88.2 c 3.1,0 5.6,2.6 5.5,5.8 0,3.1 -2.7,5.7 -5.7,5.6 -3.1,-0.1 -5.7,-2.7 -5.7,-5.8 0,-3.1 2.7,-5.7 5.9,-5.6 z"
   id="path44"
   inkscape:connector-curvature="0"
   style="clip-rule:evenodd;fill:#211c55;fill-rule:evenodd" />
	<path
   class="st1"
   d="m 76.4,58.4 c 2.3,0 2.3,0 2.4,-2.4 0,-0.4 0.1,-0.8 0,-1.1 -0.2,-1.1 0.3,-1.3 1.3,-1.3 0.7,0 1,0.2 1,1 -0.1,1 0,2 0,3 0,0.6 0.2,0.9 0.8,0.8 1.1,0 2.2,0 3.2,0 0.9,-0.1 0.8,0.5 0.7,1 -0.1,0.5 0.4,1.3 -0.7,1.3 -1,0 -2.1,0 -3.1,0 -0.7,0 -1,0.2 -1,0.9 0.1,1 0,2.1 0,3.1 0,1 -0.6,0.7 -1.1,0.7 -0.5,0 -1.2,0.2 -1.1,-0.8 0.1,-1 0,-2.1 0,-3.1 0,-0.7 -0.2,-0.9 -0.9,-0.9 -1.1,0.1 -2.2,0 -3.2,0 -1,0.1 -0.7,-0.6 -0.7,-1.1 0,-0.5 -0.3,-1.2 0.7,-1.1 0.5,0.1 1.1,0 1.7,0 z"
   id="path46"
   inkscape:connector-curvature="0"
   style="clip-rule:evenodd;fill:#7dc9ec;fill-rule:evenodd" />
	<path
   class="st5"
   d="m 37.6,56 c 0,1.4 0,2.8 0,4.2 0,0.7 -0.2,0.9 -0.9,0.9 -1.8,0 -3.7,0 -5.5,0 -0.6,0 -0.8,-0.1 -0.6,-0.7 0.7,-3 1.4,-5.9 2.1,-8.9 0.1,-0.5 0.4,-0.7 0.9,-0.7 1,0 2.1,0 3.1,0 0.6,0 0.8,0.2 0.8,0.8 0.1,1.5 0.1,2.9 0.1,4.4 z"
   id="path48"
   inkscape:connector-curvature="0"
   style="clip-rule:evenodd;fill:#7e77cb;fill-rule:evenodd" />
	<path
   class="st26"
   d="m 27.9,93.9 c 0,-1.4 1.3,-2.6 2.7,-2.6 1.4,0 2.6,1.3 2.5,2.7 -0.1,1.4 -1.2,2.5 -2.6,2.5 -1.5,0.1 -2.6,-1.1 -2.6,-2.6 z"
   id="path50"
   inkscape:connector-curvature="0"
   style="clip-rule:evenodd;fill:#fdfdfd;fill-rule:evenodd" />
	<path
   class="st24"
   d="m 96.9,96.5 c -1.4,0 -2.6,-1.2 -2.6,-2.6 0,-1.5 1.2,-2.6 2.7,-2.6 1.4,0 2.5,1.1 2.6,2.6 -0.1,1.4 -1.3,2.6 -2.7,2.6 z"
   id="path52"
   inkscape:connector-curvature="0"
   style="clip-rule:evenodd;fill:#fcfcfc;fill-rule:evenodd" />
</g>
</svg>