<?xml version="1.0" encoding="UTF-8" standalone="no"?>
<!-- Generator: Adobe Illustrator 16.0.0, SVG Export Plug-In . SVG Version: 6.00 Build 0)  -->

<svg
   xmlns:dc="http://purl.org/dc/elements/1.1/"
   xmlns:cc="http://creativecommons.org/ns#"
   xmlns:rdf="http://www.w3.org/1999/02/22-rdf-syntax-ns#"
   xmlns:svg="http://www.w3.org/2000/svg"
   xmlns="http://www.w3.org/2000/svg"
   xmlns:sodipodi="http://sodipodi.sourceforge.net/DTD/sodipodi-0.dtd"
   xmlns:inkscape="http://www.inkscape.org/namespaces/inkscape"
   version="1.1"
   id="Capa_1"
   x="0px"
   y="0px"
   width="64"
   height="64"
   viewBox="0 0 64 64"
   xml:space="preserve"
   sodipodi:docname="iconos-03.svg"
   inkscape:version="0.92.3 (2405546, 2018-03-11)"><metadata
   id="metadata81"><rdf:RDF><cc:Work
       rdf:about=""><dc:format>image/svg+xml</dc:format><dc:type
         rdf:resource="http://purl.org/dc/dcmitype/StillImage" /><dc:title /></cc:Work></rdf:RDF></metadata><defs
   id="defs79" /><sodipodi:namedview
   pagecolor="#ffffff"
   bordercolor="#666666"
   borderopacity="1"
   objecttolerance="10"
   gridtolerance="10"
   guidetolerance="10"
   inkscape:pageopacity="0"
   inkscape:pageshadow="2"
   inkscape:window-width="1366"
   inkscape:window-height="705"
   id="namedview77"
   showgrid="false"
   inkscape:zoom="8.15625"
   inkscape:cx="32"
   inkscape:cy="32"
   inkscape:window-x="0"
   inkscape:window-y="30"
   inkscape:window-maximized="1"
   inkscape:current-layer="Capa_1" />
<style
   type="text/css"
   id="style2">
<![CDATA[
	.st0{fill-rule:evenodd;clip-rule:evenodd;fill:#DFD9F4;}
	.st1{fill-rule:evenodd;clip-rule:evenodd;fill:#7DC9EC;}
	.st2{fill-rule:evenodd;clip-rule:evenodd;fill:#7DCAEC;}
	.st3{fill-rule:evenodd;clip-rule:evenodd;fill:#7E77C9;}
	.st4{fill-rule:evenodd;clip-rule:evenodd;fill:#7E77CA;}
	.st5{fill-rule:evenodd;clip-rule:evenodd;fill:#7E77CB;}
	.st6{fill-rule:evenodd;clip-rule:evenodd;fill:#7E78CA;}
	.st7{fill-rule:evenodd;clip-rule:evenodd;fill:#7F78CB;}
	.st8{fill-rule:evenodd;clip-rule:evenodd;fill:#E0DAF4;}
	.st9{fill-rule:evenodd;clip-rule:evenodd;fill:#E0DAF5;}
	.st10{fill-rule:evenodd;clip-rule:evenodd;fill:#80D3F3;}
	.st11{fill-rule:evenodd;clip-rule:evenodd;fill:#80D3F4;}
	.st12{fill-rule:evenodd;clip-rule:evenodd;fill:#80D4F4;}
	.st13{fill-rule:evenodd;clip-rule:evenodd;fill:#211C55;}
	.st14{fill-rule:evenodd;clip-rule:evenodd;fill:#211D55;}
	.st15{fill-rule:evenodd;clip-rule:evenodd;fill:#221D55;}
	.st16{fill-rule:evenodd;clip-rule:evenodd;fill:#231E56;}
	.st17{fill-rule:evenodd;clip-rule:evenodd;fill:#242155;}
	.st18{fill-rule:evenodd;clip-rule:evenodd;fill:#F9F9FA;}
	.st19{fill-rule:evenodd;clip-rule:evenodd;fill:#FAFAFB;}
	.st20{fill-rule:evenodd;clip-rule:evenodd;fill:#FBFBFB;}
	.st21{fill-rule:evenodd;clip-rule:evenodd;fill:#FBFBFC;}
	.st22{fill-rule:evenodd;clip-rule:evenodd;fill:#9997AF;}
	.st23{fill-rule:evenodd;clip-rule:evenodd;fill:#FCFBFC;}
	.st24{fill-rule:evenodd;clip-rule:evenodd;fill:#FCFCFC;}
	.st25{fill-rule:evenodd;clip-rule:evenodd;fill:#FCFCFD;}
	.st26{fill-rule:evenodd;clip-rule:evenodd;fill:#FDFDFD;}
	.st27{fill-rule:evenodd;clip-rule:evenodd;fill:#FDFDFE;}
	.st28{fill-rule:evenodd;clip-rule:evenodd;fill:#FEFDFE;}
	.st29{fill-rule:evenodd;clip-rule:evenodd;fill:#FEFEFE;}
	.st30{fill-rule:evenodd;clip-rule:evenodd;fill:#CFD3E3;}
]]>
</style>
<g
   id="g74"
   transform="matrix(0.48120902,0,0,0.48120902,0.94759604,1.2948877)">
	<path
   class="st22"
   d="m 60,119 c 0,-0.1 0,-0.1 0,-0.2 0.8,-0.6 1.7,-0.6 2.6,0 0,0.1 0,0.1 0,0.2 -0.9,0 -1.7,0 -2.6,0 z"
   id="path4"
   inkscape:connector-curvature="0"
   style="clip-rule:evenodd;fill:#9997af;fill-rule:evenodd" />
	<path
   class="st13"
   d="m 62.5,118.8 c -0.9,0 -1.7,0 -2.6,0 -3.1,-0.4 -5.3,-2 -7,-4.5 C 46.1,104.4 39.2,94.5 32.4,84.6 27.8,77.9 23.1,71.2 18.5,64.5 18,63.8 17.9,63.4 18.7,62.9 c 2,-1.3 1.9,-1.3 3.3,0.7 11.4,16.2 22.6,32.4 33.9,48.7 2.4,3.5 5.8,4.1 9.3,1.7 11.5,-7.9 23,-15.9 34.5,-23.9 3.5,-2.4 4.1,-5.8 1.7,-9.4 C 86.4,59 71.4,37.4 56.5,15.7 54,12.1 50.7,11.5 47,14 35.6,21.9 24.2,29.8 12.8,37.7 9,40.4 8.4,43.6 11.1,47.4 c 1.7,2.4 3.3,4.9 5,7.3 0.3,0.5 0.4,0.7 -0.2,1.1 -2.2,1.6 -2.1,1.6 -3.7,-0.6 C 10.7,53 9.1,50.8 7.7,48.6 4.6,44.1 5.6,38.4 10.1,35.3 21.9,27.1 33.7,18.9 45.5,10.8 c 4.6,-3.2 10.2,-2 13.5,2.6 10.7,15.4 21.4,30.9 32,46.3 4.3,6.3 8.7,12.5 13,18.8 3.8,5.4 2.8,10.8 -2.6,14.6 -11.4,7.9 -22.8,15.8 -34.2,23.7 -1.4,1 -2.9,1.7 -4.7,2 z"
   id="path6"
   inkscape:connector-curvature="0"
   style="clip-rule:evenodd;fill:#211c55;fill-rule:evenodd" />
	<path
   class="st13"
   d="m 92.5,9.2 c 4.9,0 9,4 9,8.9 0,4.9 -4.1,9 -9,9 -4.9,0 -9,-4 -9,-9 0,-4.8 4.1,-8.9 9,-8.9 z"
   id="path8"
   inkscape:connector-curvature="0"
   style="clip-rule:evenodd;fill:#211c55;fill-rule:evenodd" />
	<path
   class="st13"
   d="m 55.2,99.3 c 0.1,-5 4.1,-8.9 9.1,-8.9 4.8,0 8.8,4.1 8.8,9 -0.1,5 -4.1,9 -9,8.9 -5,0 -8.9,-4 -8.9,-9 z"
   id="path10"
   inkscape:connector-curvature="0"
   style="clip-rule:evenodd;fill:#211c55;fill-rule:evenodd" />
	<path
   class="st13"
   d="m 86.5,93 c -5,-0.1 -9,-4.1 -9,-9.1 0.1,-4.9 4.1,-8.8 9,-8.8 5,0 9,4.1 8.9,9.1 0,4.9 -4,8.9 -8.9,8.8 z"
   id="path12"
   inkscape:connector-curvature="0"
   style="clip-rule:evenodd;fill:#211c55;fill-rule:evenodd" />
	<path
   class="st13"
   d="m 70,47.1 c 0,5 -4,8.9 -9,8.9 -4.9,0 -8.9,-3.9 -9,-8.8 0,-5 4,-9.1 9,-9.1 5,-0.1 9,4 9,9 z"
   id="path14"
   inkscape:connector-curvature="0"
   style="clip-rule:evenodd;fill:#211c55;fill-rule:evenodd" />
	<path
   class="st13"
   d="m 26.1,53 c -5,0 -9,-4 -9,-9 0,-4.8 4.1,-8.9 8.9,-8.9 5,0 9,4 9,9.1 0,4.8 -4,8.8 -8.9,8.8 z"
   id="path16"
   inkscape:connector-curvature="0"
   style="clip-rule:evenodd;fill:#211c55;fill-rule:evenodd" />
	<path
   class="st13"
   d="m 107.6,41.3 c 0,4.9 -4,8.9 -8.9,8.9 -5,0 -9,-4 -9,-9 0,-4.9 4,-8.9 8.9,-8.9 5,-0.1 9,3.9 9,9 z"
   id="path18"
   inkscape:connector-curvature="0"
   style="clip-rule:evenodd;fill:#211c55;fill-rule:evenodd" />
	<path
   class="st13"
   d="m 29.8,62.4 c 0,-4.9 4.1,-8.9 9,-8.9 4.9,0 9,4.1 8.9,9 -0.1,4.9 -4.2,9 -9.1,8.9 -4.8,0 -8.9,-4.1 -8.8,-9 z"
   id="path20"
   inkscape:connector-curvature="0"
   style="clip-rule:evenodd;fill:#211c55;fill-rule:evenodd" />
	<path
   class="st13"
   d="m 104.2,28.6 c 0,-5 3.9,-9 8.9,-9 4.9,0 8.9,3.9 8.9,8.8 0,5 -3.9,9 -8.9,9 -4.9,0.1 -8.9,-3.8 -8.9,-8.8 z"
   id="path22"
   inkscape:connector-curvature="0"
   style="clip-rule:evenodd;fill:#211c55;fill-rule:evenodd" />
	<path
   class="st13"
   d="m 73.7,74.5 c -5,0 -8.9,-3.9 -9,-8.9 0,-4.9 3.9,-8.9 8.8,-9 5.1,0 9.1,3.9 9.1,8.9 0,5.1 -3.9,9 -8.9,9 z"
   id="path24"
   inkscape:connector-curvature="0"
   style="clip-rule:evenodd;fill:#211c55;fill-rule:evenodd" />
	<path
   class="st2"
   d="m 43.2,84.9 c -3,-6.4 1.8,-13.3 8.6,-12.9 2.3,0.1 4.2,1.1 5.9,2.7 -1.7,1.4 -3.6,2.5 -5.4,3.8 -2.9,2.2 -6.1,4.2 -9.1,6.4 z"
   id="path26"
   inkscape:connector-curvature="0"
   style="clip-rule:evenodd;fill:#7dcaec;fill-rule:evenodd" />
	<path
   class="st2"
   d="m 56.6,25 c 1.7,4 0.6,8.4 -2.9,11 -3.3,2.4 -7.7,2.2 -11,-0.5 -0.2,-0.2 -0.4,-0.3 -0.6,-0.5 0.6,-0.9 1.5,-1.3 2.3,-1.8 3.7,-2.6 7.4,-5.1 11.1,-7.7 0.3,-0.2 0.6,-0.5 1.1,-0.5 z"
   id="path28"
   inkscape:connector-curvature="0"
   style="clip-rule:evenodd;fill:#7dcaec;fill-rule:evenodd" />
	<path
   class="st2"
   d="m 59.5,77.4 c 1.8,3.6 0.6,8.1 -2.9,10.8 -3.1,2.4 -7.9,2.3 -11,-0.3 -0.2,-0.2 -0.4,-0.4 -0.6,-0.6 0.9,-1.2 2.3,-1.8 3.4,-2.6 3.3,-2.3 6.6,-4.6 9.9,-6.9 0.4,-0.2 0.7,-0.5 1.2,-0.4 z"
   id="path30"
   inkscape:connector-curvature="0"
   style="clip-rule:evenodd;fill:#7dcaec;fill-rule:evenodd" />
	<path
   class="st2"
   d="m 40.2,32.4 c -2.5,-6.2 1.2,-11.7 6.6,-12.6 2.9,-0.5 5.6,0.2 7.7,2.4 0,0.6 -0.5,0.8 -0.8,1 -4.4,3 -8.7,6.1 -13.1,9.1 -0.1,0.1 -0.3,0.1 -0.4,0.1 z"
   id="path32"
   inkscape:connector-curvature="0"
   style="clip-rule:evenodd;fill:#7dcaec;fill-rule:evenodd" />
	<path
   class="st13"
   d="m 40.2,32.4 c 0.2,-0.5 0.7,-0.7 1.1,-1 4.4,-3.1 8.8,-6.2 13.2,-9.2 1,0.7 1.6,1.7 2,2.8 -3,2.3 -6.2,4.4 -9.4,6.6 C 45.5,32.7 43.9,34 42,35 41.3,34.3 40.7,33.4 40.2,32.4 Z"
   id="path34"
   inkscape:connector-curvature="0"
   style="clip-rule:evenodd;fill:#211c55;fill-rule:evenodd" />
	<path
   class="st13"
   d="m 59.5,77.4 c -4.4,3.1 -8.9,6.1 -13.3,9.2 -0.4,0.3 -0.8,0.5 -1.2,0.7 -0.8,-0.7 -1.3,-1.5 -1.8,-2.4 -0.1,-0.5 0.3,-0.7 0.6,-0.9 4.4,-3.1 8.8,-6.1 13.3,-9.2 0.2,-0.1 0.5,-0.2 0.7,-0.2 0.7,0.9 1.4,1.7 1.7,2.8 z"
   id="path36"
   inkscape:connector-curvature="0"
   style="clip-rule:evenodd;fill:#211c55;fill-rule:evenodd" />
	<path
   class="st4"
   d="m 92.5,23.7 c -3.7,-0.1 -6.4,-3.9 -5.2,-7.2 0.3,-0.8 0.5,-0.9 1.1,-0.3 2,2 4,4.1 6.1,6.1 0.8,0.7 0.4,1 -0.4,1.2 -0.5,0.1 -1.1,0.3 -1.6,0.2 z"
   id="path38"
   inkscape:connector-curvature="0"
   style="clip-rule:evenodd;fill:#7e77ca;fill-rule:evenodd" />
	<path
   class="st4"
   d="m 92.5,12.7 c 3.5,0 6.2,3.1 5.5,6.5 -0.1,0.3 0,0.8 -0.5,0.9 C 97.2,20.2 97,19.8 96.7,19.5 94.9,17.7 93,15.9 91.2,14 c -0.3,-0.3 -0.8,-0.5 -0.7,-0.9 0.2,-0.4 0.8,-0.4 1.2,-0.4 0.3,0 0.5,0 0.8,0 z"
   id="path40"
   inkscape:connector-curvature="0"
   style="clip-rule:evenodd;fill:#7e77ca;fill-rule:evenodd" />
	<path
   class="st9"
   d="m 60.9,103.8 c 2.9,-2 5.7,-3.9 8.5,-5.9 0.7,2.2 0,4.5 -1.8,5.9 -2,1.5 -4.4,1.5 -6.7,0 z"
   id="path42"
   inkscape:connector-curvature="0"
   style="clip-rule:evenodd;fill:#e0daf5;fill-rule:evenodd" />
	<path
   class="st9"
   d="m 58.7,99.7 c 0,-4.3 4.2,-6.9 7.8,-5.3 0.8,0.4 1.1,0.6 0.1,1.2 -2.2,1.5 -4.4,3 -6.6,4.5 -0.3,0.2 -0.7,0.8 -1.1,0.5 -0.2,-0.2 -0.2,-0.8 -0.2,-0.9 z"
   id="path44"
   inkscape:connector-curvature="0"
   style="clip-rule:evenodd;fill:#e0daf5;fill-rule:evenodd" />
	<path
   class="st0"
   d="m 83.3,88.4 c 2.7,-1.8 5.3,-3.6 7.9,-5.4 0.5,-0.4 0.8,-0.4 0.9,0.3 0.3,2 -0.7,4.3 -2.6,5.4 -2,1.2 -4.3,1.1 -6.2,-0.3 z"
   id="path46"
   inkscape:connector-curvature="0"
   style="clip-rule:evenodd;fill:#dfd9f4;fill-rule:evenodd" />
	<path
   class="st8"
   d="m 89.8,79.6 c -2.9,2 -5.7,3.9 -8.5,5.9 -0.8,-2.1 0,-4.4 1.8,-5.8 2,-1.5 4.4,-1.6 6.7,-0.1 z"
   id="path48"
   inkscape:connector-curvature="0"
   style="clip-rule:evenodd;fill:#e0daf4;fill-rule:evenodd" />
	<path
   class="st9"
   d="m 55.9,48.6 c -0.8,-2.1 -0.1,-4.4 1.7,-5.8 1.8,-1.4 4.4,-1.6 6.2,-0.5 0.4,0.3 0.6,0.4 0.1,0.8 -2.6,1.8 -5.3,3.6 -8,5.5 z"
   id="path50"
   inkscape:connector-curvature="0"
   style="clip-rule:evenodd;fill:#e0daf5;fill-rule:evenodd" />
	<path
   class="st9"
   d="m 60.9,52.5 c -0.1,0 -0.5,0 -0.8,-0.1 -0.8,-0.1 -1.8,-0.2 -2,-1 -0.1,-0.4 0.9,-0.7 1.5,-1.1 2,-1.4 4,-2.8 6,-4.2 0.7,-0.5 0.9,-0.5 1,0.4 0.2,3.3 -2.2,6 -5.7,6 z"
   id="path52"
   inkscape:connector-curvature="0"
   style="clip-rule:evenodd;fill:#e0daf5;fill-rule:evenodd" />
	<path
   class="st0"
   d="m 22.8,48.4 c 2.7,-1.8 5.3,-3.7 8,-5.5 0.5,-0.4 0.6,-0.1 0.7,0.4 0.4,2 -0.7,4.4 -2.6,5.5 -1.9,1.1 -4.4,1 -6.1,-0.4 z"
   id="path54"
   inkscape:connector-curvature="0"
   style="clip-rule:evenodd;fill:#dfd9f4;fill-rule:evenodd" />
	<path
   class="st0"
   d="m 20.9,45.5 c -0.9,-1.7 0.1,-4.6 1.8,-5.8 1.9,-1.5 4.3,-1.5 6.7,0 -2.9,1.9 -5.7,3.9 -8.5,5.8 z"
   id="path56"
   inkscape:connector-curvature="0"
   style="clip-rule:evenodd;fill:#dfd9f4;fill-rule:evenodd" />
	<path
   class="st24"
   d="m 98.7,35.8 c -1,3.3 -1.9,6.7 -2.9,10 -2.2,-1.3 -3.1,-3.8 -2.4,-6.2 0.7,-2.3 2.9,-3.9 5.3,-3.8 z"
   id="path58"
   inkscape:connector-curvature="0"
   style="clip-rule:evenodd;fill:#fcfcfc;fill-rule:evenodd" />
	<path
   class="st24"
   d="m 102,36.8 c 1.9,1.8 2.6,3.7 1.9,5.9 -0.7,2.2 -2.3,3.5 -4.8,4 1,-3.3 1.9,-6.5 2.9,-9.9 z"
   id="path60"
   inkscape:connector-curvature="0"
   style="clip-rule:evenodd;fill:#fcfcfc;fill-rule:evenodd" />
	<path
   class="st9"
   d="M 42.1,58.1 C 39.4,60 36.8,61.7 34.2,63.6 33.6,64 33.4,63.9 33.3,63.2 33,61 34.1,58.8 36,57.7 c 1.9,-1.1 4.2,-1 6.1,0.4 z"
   id="path62"
   inkscape:connector-curvature="0"
   style="clip-rule:evenodd;fill:#e0daf5;fill-rule:evenodd" />
	<path
   class="st0"
   d="m 44,61 c 0.7,2.2 -0.2,4.5 -2,5.9 -1.9,1.4 -4.3,1.4 -6.5,0 2.8,-2 5.6,-3.9 8.5,-5.9 z"
   id="path64"
   inkscape:connector-curvature="0"
   style="clip-rule:evenodd;fill:#dfd9f4;fill-rule:evenodd" />
	<path
   class="st26"
   d="m 116.9,24.6 c -3,1.8 -6,3.6 -8.9,5.3 -0.7,-2.3 0.2,-4.7 2.2,-6 2.1,-1.3 4.6,-1.1 6.7,0.7 z"
   id="path66"
   inkscape:connector-curvature="0"
   style="clip-rule:evenodd;fill:#fdfdfd;fill-rule:evenodd" />
	<path
   class="st26"
   d="m 118.5,27.7 c 0.4,2.3 -0.6,4.5 -2.6,5.6 -2,1.2 -4.4,1 -6,-0.4 0.1,-0.1 0.2,-0.2 0.4,-0.3 2.7,-1.6 5.4,-3.2 8.2,-4.9 z"
   id="path68"
   inkscape:connector-curvature="0"
   style="clip-rule:evenodd;fill:#fdfdfd;fill-rule:evenodd" />
	<path
   class="st9"
   d="m 78.9,64 c 0.7,2.2 0,4.5 -1.8,5.9 -1.7,1.3 -4.4,1.6 -6.1,0.5 -0.4,-0.2 -0.8,-0.4 -0.1,-0.9 2.6,-1.8 5.3,-3.6 8,-5.5 z"
   id="path70"
   inkscape:connector-curvature="0"
   style="clip-rule:evenodd;fill:#e0daf5;fill-rule:evenodd" />
	<path
   class="st0"
   d="m 77,61.1 c -1.8,1.2 -3.4,2.4 -5,3.5 -1,0.7 -1.9,1.3 -2.9,2 -0.6,0.4 -0.8,0.4 -0.9,-0.4 -0.2,-2.3 0.7,-4.2 2.7,-5.4 2,-1.1 4,-0.9 6.1,0.3 z"
   id="path72"
   inkscape:connector-curvature="0"
   style="clip-rule:evenodd;fill:#dfd9f4;fill-rule:evenodd" />
</g>
</svg>