<?xml version="1.0" encoding="utf-8"?>
<!-- Generator: Adobe Illustrator 22.0.0, SVG Export Plug-In . SVG Version: 6.00 Build 0)  -->
<svg version="1.1"
	 id="Capa_1" inkscape:version="0.92.3 (2405546, 2018-03-11)" sodipodi:docname="iconos-06.svg" xmlns:cc="http://creativecommons.org/ns#" xmlns:dc="http://purl.org/dc/elements/1.1/" xmlns:inkscape="http://www.inkscape.org/namespaces/inkscape" xmlns:rdf="http://www.w3.org/1999/02/22-rdf-syntax-ns#" xmlns:sodipodi="http://sodipodi.sourceforge.net/DTD/sodipodi-0.dtd" xmlns:svg="http://www.w3.org/2000/svg"
	 xmlns="http://www.w3.org/2000/svg" xmlns:xlink="http://www.w3.org/1999/xlink" x="0px" y="0px" viewBox="0 0 64 64"
	 style="enable-background:new 0 0 64 64;" xml:space="preserve">
<style type="text/css">
	.st0{fill:#FDFDFD;}
</style>
<sodipodi:namedview  bordercolor="#666666" borderopacity="1" gridtolerance="10" guidetolerance="10" id="namedview57" inkscape:current-layer="Capa_1" inkscape:cx="64" inkscape:cy="64" inkscape:pageopacity="0" inkscape:pageshadow="2" inkscape:window-height="705" inkscape:window-maximized="1" inkscape:window-width="1366" inkscape:window-x="0" inkscape:window-y="30" inkscape:zoom="1.84375" objecttolerance="10" pagecolor="#ffffff" showgrid="false">
	</sodipodi:namedview>
<g>
	<path class="st0" d="M26.6,22.9c-0.1,0-0.3,0-0.4,0c0.1,0.1,0.2,0.2,0.4,0.2c2.1,0,4.3,0.1,6.4-0.1c1.1-0.1,2.1-0.1,3.2-0.1
		c-0.5,0-1,0-1.5,0C32,22.9,29.3,22.9,26.6,22.9z"/>
	<path class="st0" d="M47.6,22.9c-1.3,0-2.6,0-3.9,0C45,22.9,46.3,22.9,47.6,22.9z"/>
	<path class="st0" d="M47.2,46.9c0-6.7,0-13.5,0-20.3c0-0.9,0-0.9-0.9-0.9c-7.7,0-15.3,0-23,0c-0.4,0-0.6-0.1-0.6-0.5
		c0-0.4,0.1-0.5,0.5-0.5c8.2,0,16.4,0,24.5,0c0.4,0,0.5,0.2,0.5,0.5c0,0.7,0,1.3,0,1.9c0,0.3,0.1,0.4,0.4,0.4c0.4,0,0.7,0,1,0
		c0.2,0,0.3-0.1,0.3-0.3c-0.1-1.4-0.1-2.8-0.1-4.2c-0.8,0-1.5,0-2.3,0c-1.3,0-2.6,0-3.9,0c-2.5,0-5,0-7.5,0c-1.1,0-2.1,0-3.2,0.1
		c-2.1,0.2-4.3,0.1-6.4,0.1c-0.2,0-0.4-0.1-0.4-0.2c-0.1,0-0.2-0.2-0.2-0.4c0.1-3.5,0.1-7,0.1-10.5c0,0.1,0,0.2,0.1,0.3
		c0-0.1,0-0.1,0-0.2c-0.2-1.9-1.2-3.2-3-3.9c-0.3-0.1-0.4-0.3-0.4-0.6c0-0.8-0.1-1.5,0-2.2c0-0.5-0.2-0.6-0.6-0.6
		c-2.2,0-4.3,0-6.5,0c-0.4,0-0.7-0.1-0.6-0.6c0.1-0.4-0.1-0.5-0.4-0.5c-1.9,0-3.7-0.1-5.6,0c-1.7,0.1-2.9,1.4-2.9,3
		c-0.1,1.7,1.2,3,2.9,3.1c1.9,0.1,3.7,0,5.6,0c0.2,0,0.4,0.1,0.4-0.2c-0.1-0.7,0.4-0.5,0.7-0.5c0.6,0,1.2,0.1,1.8,0
		c0.6-0.1,0.7,0.2,0.7,0.7c0,5.1,0,10.2,0,15.3c0,0.4-0.1,0.6-0.5,0.7C8.7,27.5,2.8,35.9,4.3,45C6,56.2,18.6,62.4,28.6,56.9
		c5.2-2.9,8.1-7.4,8.7-13.2c0.1-0.5,0.2-0.6,0.6-0.6c2.3,0,4.6,0,6.9,0c0.5,0,0.6,0.1,0.6,0.6c-0.1,1.2,0,2.4,0,3.6
		C46,47.1,46.6,47,47.2,46.9C47.1,46.9,47.1,46.9,47.2,46.9z M13.3,7.8c0,0.3-0.1,0.5-0.4,0.4c-1.2,0-2.5,0-3.7,0
		c-0.8,0-1.4-0.6-1.4-1.4c0-0.8,0.6-1.3,1.4-1.3c0.7,0,1.3,0,1.9,0s1.2,0,1.8,0c0.4,0,0.5,0.1,0.5,0.5C13.2,6.5,13.3,7.1,13.3,7.8z
		 M22.6,10.5c0.1-0.2,0.1-0.4,0.1-0.8c1,0.5,1.6,1.1,1.6,2.1c0.1,1.4,0.1,2.8,0.1,4.2c0,2.1,0,4.1,0,6.2c0,0.6-0.2,0.7-0.7,0.7
		c-1-0.1-1,0-1-1C22.6,18.1,22.6,14.3,22.6,10.5z M15.6,7.6c-0.6,0-0.5-0.3-0.5-0.7c-0.1-0.4,0.2-0.5,0.5-0.5c1.6,0,3.2,0,4.8,0
		C20.8,6.4,21,6.5,21,7c-0.1,3,0,6,0,9c0,3,0,6,0,9c0,0.5-0.1,0.6-0.6,0.6c-0.5,0-0.6-0.1-0.6-0.6c0-5.6,0-11.2,0-16.8
		c0-0.5-0.1-0.7-0.6-0.7C18.1,7.6,16.8,7.5,15.6,7.6z M20.6,57.2c-8.2,0-14.9-6.7-14.9-14.9c-0.1-8,6.4-15,15-15
		c8.5,0,15,6.9,14.9,15C35.6,50.5,28.9,57.2,20.6,57.2z M45.3,41c0,0.4-0.1,0.4-0.4,0.4c-2.4,0-4.8,0-7.3,0c-0.4,0-0.4-0.2-0.5-0.5
		c-0.3-3.2-1.4-6-3.2-8.6c-0.2-0.2-0.3-0.4-0.5-0.6c-0.1-0.3-0.3-0.4-0.5-0.7c2.9,0,5.8,0,8.6,0c1.1,0,2.2,0,3.3,0
		c0.3,0,0.4,0.1,0.4,0.4C45.3,34.7,45.3,37.8,45.3,41z M43.8,29.4c-4,0-8.1,0-12.1,0c-0.4,0-0.7-0.1-1-0.4c-0.8-0.6-1.6-1.1-2.4-1.7
		c5.5,0,11.1,0,16.6,0c0.4,0,0.5,0.1,0.5,0.5C45.4,29.4,45.4,29.4,43.8,29.4z"/>
	<path class="st0" d="M51.6,48.4c-0.6-0.4-1.1-0.8-1.7-1c0,0-0.1-0.1-0.1-0.1c-0.5-0.2-0.9-0.3-1.4-0.3c-0.1,0-0.1,0-0.2,0
		c-0.3-0.1-0.7-0.1-1.1-0.1c0,0,0,0,0,0c-0.5,0.4-1.1,0.5-1.7,0.5c0,0,0,0,0,0c0,0,0,0-0.1,0c-2.3,1.2-3.7,3-3.7,5.8
		c0.1,2.4,1.2,4.1,3.3,5.1c2.1,1.1,4.2,0.8,6.1-0.5c2.2-1.4,3.4-4.8,1.8-7.7c0-0.1,0-0.2-0.1-0.3c-0.3-0.5-0.7-0.9-1-1.3
		C51.8,48.5,51.7,48.4,51.6,48.4z M47.8,55.5c-1.4,0-2.5-1.1-2.5-2.5c0-1.4,1.1-2.5,2.5-2.5c1.4-0.1,2.5,1.1,2.5,2.5
		C50.3,54.4,49.2,55.5,47.8,55.5z"/>
	<path class="st0" d="M47.2,46.9C47.2,46.9,47.2,46.9,47.2,46.9C47.1,46.9,47.1,46.9,47.2,46.9c-0.6,0.1-1.2,0.3-1.7,0.4
		c0,0,0,0,0,0C46,47.4,46.7,47.3,47.2,46.9z"/>
	<path class="st0" d="M26.2,22.9c0.1,0,0.3,0,0.4,0c2.7,0,5.4,0,8.1,0c0.5,0,1,0,1.5,0c2.5,0,5,0,7.5,0c1.3,0,2.6,0,3.9,0
		c0.7-0.2,1.5-0.1,2.3,0c-0.4-0.2-0.8-0.1-1.2-0.1c-0.4,0-0.5-0.1-0.5-0.5c0.1-1.5-1.4-2.9-3.1-2.9c-2.9,0.1-5.8,0.1-8.7,0
		c-1.4-0.1-3,0.9-3.1,2.7c-0.1,0.5-0.2,0.6-0.7,0.6c-2-0.1-3.9-0.1-5.9,0c-0.5,0.1-0.6-0.2-0.6-0.6c0,0.1,0,0.2,0,0.3
		C26.2,22.7,26.2,22.8,26.2,22.9z"/>
	<path class="st0" d="M26.2,13.8c0-0.5,0-1,0-1.5c0,1.1,0,2.2,0,3.2C26.2,15,26.2,14.4,26.2,13.8z"/>
	<path class="st0" d="M26,22.5c0,0.3,0.1,0.4,0.2,0.4c0-0.1-0.1-0.2-0.1-0.4c0-0.1,0-0.2,0-0.3c0-2.2,0-4.5,0-6.7c0-1.1,0-2.2,0-3.2
		c0-0.1,0-0.2-0.1-0.3C26.1,15.5,26.1,19,26,22.5z"/>
	<path class="st0" d="M47.6,22.9c0.8,0,1.5,0,2.3,0C49.1,22.8,48.3,22.8,47.6,22.9z"/>
	<path class="st0" d="M36.2,22.9c2.5,0,5,0,7.5,0C41.2,22.9,38.7,22.9,36.2,22.9z"/>
	<path class="st0" d="M49.8,47.3c0.1,0,0.1,0,0.2,0.1c0-5.5,0-11,0.1-16.5c0-1.3,0-1.3-1.3-1.2c-0.3,0-0.4,0.1-0.4,0.4
		c0,5.6,0,11.3,0,16.9c0,0,0.1,0,0.1,0C48.9,46.8,49.4,46.9,49.8,47.3z"/>
	<path class="st0" d="M48.4,46.9c0.5,0.1,0.9,0.2,1.4,0.3C49.4,46.9,48.9,46.8,48.4,46.9z"/>
	<path class="st0" d="M57.6,48.3c-2,0-3.9,0-5.9,0c0,0.1,0.1,0.1,0.2,0.2c0.5,0.3,0.8,0.7,1,1.3c0,0.1,0.1,0.1,0.1,0.2
		c1.5,0,3-0.1,4.6,0c0.7,0,1.2,0.6,1.2,1.2c0,0.7-0.5,1.3-1.2,1.3c-0.5,0-0.9,0-1.4,0c-1.3,0-1.3,0-1.3,1.3c0,0.4,0.2,0.4,0.5,0.4
		c0.8,0,1.5,0,2.2,0c1.6-0.1,2.9-1.4,2.9-3C60.4,49.7,59.2,48.3,57.6,48.3z"/>
	<path class="st0" d="M51.8,48.5c0.3,0.4,0.7,0.8,1,1.3C52.7,49.3,52.3,48.9,51.8,48.5z"/>
	<path class="st0" d="M17.8,28.6c-7.4,1.6-12.1,8.6-10.9,16c1.3,7.3,8.4,12.4,15.8,11.3c8-1.3,13.3-9.1,11.4-16.9
		c-0.3-1.2-0.3-1.2-1.4-0.9c-0.5,0.1-0.6,0.3-0.4,0.8c0.3,0.7,0.4,1.4,0.4,2c0,0.3,0,0.4-0.4,0.4c-2.1,0-4.3,0-6.4,0
		c-0.3,0-0.4-0.1-0.4-0.3c-0.1-0.5-0.2-0.9-0.5-1.3c-0.4-0.5-0.2-0.7,0.2-1c1.5-1.5,3-3,4.5-4.5c0.4,0.5,0.8,0.9,1.1,1.4
		c0.3,0.5,0.5,0.6,1,0.3c0,0,0,0.1,0,0.1c0,0,0,0,0,0c0.1-0.1,0.2-0.2,0.3-0.2c0.7-0.4,0.7-0.4,0.3-1.1C29.4,30,23.3,27.4,17.8,28.6
		z M13.1,32.8c1.9-1.4,3.9-2.3,6.3-2.5c0.4-0.1,0.5,0.1,0.5,0.4c0,1,0,2,0,3c0,1,0,2,0,3c0,0.4-0.1,0.5-0.5,0.6
		c-0.5,0.1-0.9,0.3-1.3,0.6c-0.3,0.3-0.5,0.1-0.7-0.1c-1.4-1.4-2.8-2.9-4.3-4.3C12.7,33.2,12.7,33.1,13.1,32.8z M11.3,34.5
		c0.2-0.3,0.3-0.2,0.5,0c1.5,1.5,3,3,4.5,4.5c0.2,0.2,0.2,0.4,0.1,0.6C16,40,15.8,40.5,15.7,41c-0.1,0.3-0.2,0.4-0.5,0.4
		c-1,0-2,0-3.1,0c-1,0-2,0-3,0c-0.4,0-0.5-0.1-0.5-0.5C8.9,38.5,9.7,36.4,11.3,34.5z M11.2,49.9c-1.5-1.8-2.4-4-2.6-6.3
		C8.5,43.2,8.6,43,9.1,43c1,0.1,2,0.1,3,0.1s2,0,3,0c0.4,0,0.5,0.1,0.6,0.4c0.1,0.5,0.3,1,0.6,1.4c0.2,0.3,0.1,0.4-0.1,0.6
		c-1.5,1.5-3,2.9-4.5,4.5C11.5,50.1,11.4,50.1,11.2,49.9z M19.8,50.8c0,1.1,0,2.1,0,3.1c0,0.3-0.1,0.4-0.4,0.4
		c-2.4-0.3-4.5-1.1-6.3-2.6c-0.4-0.3-0.3-0.4,0-0.7c1.5-1.4,2.9-2.9,4.3-4.3c0.2-0.2,0.4-0.3,0.7-0.1c0.4,0.2,0.7,0.4,1.1,0.5
		c0.6,0.1,0.7,0.4,0.7,0.9C19.8,49,19.8,49.9,19.8,50.8z M17.2,42.3c0-1.9,1.5-3.4,3.4-3.4c1.9,0,3.4,1.5,3.4,3.3
		c0,1.9-1.6,3.4-3.4,3.4C18.8,45.6,17.2,44.1,17.2,42.3z M25,44.9c0.3-0.5,0.5-1,0.6-1.5c0.1-0.3,0.2-0.3,0.4-0.3c2.1,0,4.3,0,6.3,0
		c0.4,0,0.4,0.1,0.4,0.4c-0.3,2.5-1.3,4.7-2.9,6.7c-1.6-1.6-3.1-3.2-4.7-4.8C24.9,45.2,24.9,45.1,25,44.9z M28.3,51.2
		c0.2,0.2,0.2,0.4-0.1,0.5c-1.9,1.5-4.1,2.4-6.4,2.7c-0.4,0.1-0.4-0.2-0.4-0.4c0-1.1,0-2.1,0-3.1c0,0,0,0,0,0c0-1,0-2.1,0-3.1
		c0-0.3,0.1-0.5,0.4-0.5c0.6-0.1,1-0.3,1.5-0.6c0.2-0.2,0.4-0.1,0.5,0.1C25.3,48.2,26.8,49.6,28.3,51.2z M28.2,33.5
		c-1.4,1.4-2.8,2.8-4.3,4.2c-0.3,0.3-0.4,0.4-0.8,0.1c-0.3-0.3-0.7-0.4-1.1-0.5c-0.5-0.1-0.6-0.3-0.6-0.8c0.1-0.9,0-1.9,0-2.8
		c0-1,0-1.9,0-2.9c0-0.5,0.1-0.7,0.6-0.6c2.3,0.3,4.3,1.2,6.1,2.5C28.6,33,28.5,33.2,28.2,33.5z"/>
	<path class="st0" d="M48,52.1c-0.4-0.1-0.9,0.3-0.9,0.8c-0.1,0.4,0.3,0.9,0.7,0.9c0.5,0,0.8-0.3,0.9-0.7
		C48.6,52.6,48.4,52.3,48,52.1z"/>
	<path class="st0" d="M20.6,39.8c-1.4,0-2.5,1.1-2.5,2.5c0,1.4,1.1,2.5,2.5,2.5c1.4,0,2.5-1.1,2.5-2.5
		C23.2,40.9,22.1,39.8,20.6,39.8z M20.7,43c-0.5-0.1-0.8-0.3-0.8-0.8c0-0.5,0.3-0.8,0.8-0.8c0.5-0.1,0.9,0.3,0.9,0.8
		C21.4,42.7,21.1,42.9,20.7,43z"/>
</g>
</svg>
