<?xml version="1.0" encoding="UTF-8" standalone="no"?>
<!-- Generator: Adobe Illustrator 16.0.0, SVG Export Plug-In . SVG Version: 6.00 Build 0)  -->

<svg
   xmlns:dc="http://purl.org/dc/elements/1.1/"
   xmlns:cc="http://creativecommons.org/ns#"
   xmlns:rdf="http://www.w3.org/1999/02/22-rdf-syntax-ns#"
   xmlns:svg="http://www.w3.org/2000/svg"
   xmlns="http://www.w3.org/2000/svg"
   xmlns:sodipodi="http://sodipodi.sourceforge.net/DTD/sodipodi-0.dtd"
   xmlns:inkscape="http://www.inkscape.org/namespaces/inkscape"
   version="1.1"
   id="Capa_1"
   x="0px"
   y="0px"
   width="64"
   height="64"
   viewBox="0 0 64 64"
   xml:space="preserve"
   sodipodi:docname="iconos-04.svg"
   inkscape:version="0.92.3 (2405546, 2018-03-11)"><metadata
   id="metadata33"><rdf:RDF><cc:Work
       rdf:about=""><dc:format>image/svg+xml</dc:format><dc:type
         rdf:resource="http://purl.org/dc/dcmitype/StillImage" /><dc:title /></cc:Work></rdf:RDF></metadata><defs
   id="defs31" /><sodipodi:namedview
   pagecolor="#ffffff"
   bordercolor="#666666"
   borderopacity="1"
   objecttolerance="10"
   gridtolerance="10"
   guidetolerance="10"
   inkscape:pageopacity="0"
   inkscape:pageshadow="2"
   inkscape:window-width="1366"
   inkscape:window-height="705"
   id="namedview29"
   showgrid="false"
   inkscape:zoom="8.15625"
   inkscape:cx="32"
   inkscape:cy="32"
   inkscape:window-x="0"
   inkscape:window-y="30"
   inkscape:window-maximized="1"
   inkscape:current-layer="Capa_1" />
<style
   type="text/css"
   id="style2">
<![CDATA[
	.st0{fill-rule:evenodd;clip-rule:evenodd;fill:#DFD9F4;}
	.st1{fill-rule:evenodd;clip-rule:evenodd;fill:#7DC9EC;}
	.st2{fill-rule:evenodd;clip-rule:evenodd;fill:#7DCAEC;}
	.st3{fill-rule:evenodd;clip-rule:evenodd;fill:#7E77C9;}
	.st4{fill-rule:evenodd;clip-rule:evenodd;fill:#7E77CA;}
	.st5{fill-rule:evenodd;clip-rule:evenodd;fill:#7E77CB;}
	.st6{fill-rule:evenodd;clip-rule:evenodd;fill:#7E78CA;}
	.st7{fill-rule:evenodd;clip-rule:evenodd;fill:#7F78CB;}
	.st8{fill-rule:evenodd;clip-rule:evenodd;fill:#E0DAF4;}
	.st9{fill-rule:evenodd;clip-rule:evenodd;fill:#E0DAF5;}
	.st10{fill-rule:evenodd;clip-rule:evenodd;fill:#80D3F3;}
	.st11{fill-rule:evenodd;clip-rule:evenodd;fill:#80D3F4;}
	.st12{fill-rule:evenodd;clip-rule:evenodd;fill:#80D4F4;}
	.st13{fill-rule:evenodd;clip-rule:evenodd;fill:#211C55;}
	.st14{fill-rule:evenodd;clip-rule:evenodd;fill:#211D55;}
	.st15{fill-rule:evenodd;clip-rule:evenodd;fill:#221D55;}
	.st16{fill-rule:evenodd;clip-rule:evenodd;fill:#231E56;}
	.st17{fill-rule:evenodd;clip-rule:evenodd;fill:#242155;}
	.st18{fill-rule:evenodd;clip-rule:evenodd;fill:#F9F9FA;}
	.st19{fill-rule:evenodd;clip-rule:evenodd;fill:#FAFAFB;}
	.st20{fill-rule:evenodd;clip-rule:evenodd;fill:#FBFBFB;}
	.st21{fill-rule:evenodd;clip-rule:evenodd;fill:#FBFBFC;}
	.st22{fill-rule:evenodd;clip-rule:evenodd;fill:#9997AF;}
	.st23{fill-rule:evenodd;clip-rule:evenodd;fill:#FCFBFC;}
	.st24{fill-rule:evenodd;clip-rule:evenodd;fill:#FCFCFC;}
	.st25{fill-rule:evenodd;clip-rule:evenodd;fill:#FCFCFD;}
	.st26{fill-rule:evenodd;clip-rule:evenodd;fill:#FDFDFD;}
	.st27{fill-rule:evenodd;clip-rule:evenodd;fill:#FDFDFE;}
	.st28{fill-rule:evenodd;clip-rule:evenodd;fill:#FEFDFE;}
	.st29{fill-rule:evenodd;clip-rule:evenodd;fill:#FEFEFE;}
	.st30{fill-rule:evenodd;clip-rule:evenodd;fill:#CFD3E3;}
]]>
</style>
<g
   id="g26"
   transform="matrix(0.5097999,0,0,0.51264987,-0.79924357,-1.1542494)">
	<path
   class="st13"
   d="M 76.5,60.1 C 73.2,54.3 69.9,48.5 66.5,42.8 66,42 66,41.6 66.9,41.2 c 1.7,-0.9 1.7,-0.9 2.7,0.8 8.3,14.4 16.6,28.7 24.9,43.1 0.5,0.8 0.4,1.1 -0.4,1.6 -0.9,0.5 -2.3,0.8 -2.6,1.7 -0.3,0.9 0.3,2.1 0.4,3.1 0.2,1.4 0.5,2.8 0.7,4.1 0.1,0.6 0,0.9 -0.6,1.1 -0.7,0.4 -1.4,0.9 -2.1,1.2 -0.7,0.3 -0.7,0.7 -0.3,1.3 3.4,5.8 6.7,11.6 10.1,17.3 0.4,0.7 0.4,1 -0.4,1.4 -1.8,1 -1.8,1 -2.8,-0.7 -3.2,-5.5 -6.4,-11 -9.6,-16.6 -0.3,-0.6 -0.6,-0.7 -1.1,-0.3 -0.9,0.6 -1.9,1 -2.8,1.6 -0.6,0.4 -1,0.4 -1.5,-0.1 -1.6,-1.5 -3.2,-2.9 -4.8,-4.3 -0.5,-0.4 -0.8,-0.5 -1.3,-0.1 -0.6,0.4 -1.4,0.7 -2,1.2 -0.8,0.6 -1.2,0.3 -1.6,-0.5 C 62.1,81.2 52.3,64.4 42.6,47.5 42.1,46.7 41.8,46.6 41,47.1 c -1.2,0.8 -2.6,1.5 -3.8,2.2 -0.5,0.3 -0.7,0.3 -1,-0.2 -1.2,-2 -1.2,-2 0.8,-3.2 2.9,-1.7 5.9,-3.4 8.8,-5.1 0.7,-0.4 0.9,-0.6 0.4,-1.4 C 43.9,35.5 41.7,31.6 39.5,27.7 39.1,27 38.8,27 38.2,27.4 c -1.7,1.1 -3.5,2 -5.2,3.1 -0.5,0.3 -0.8,0.2 -1.1,-0.3 -1.2,-2.2 -2.4,-4.3 -3.7,-6.4 -0.3,-0.5 -0.2,-0.7 0.3,-1 7.5,-4.3 15,-8.6 22.4,-12.9 0.6,-0.3 0.7,-0.1 1,0.3 1.2,2.1 2.5,4.3 3.7,6.4 0.3,0.5 0.2,0.7 -0.3,1 -1.8,1 -3.6,2.1 -5.5,3.1 -0.6,0.3 -0.6,0.5 -0.3,1.1 2.3,4 4.6,8 6.9,12 0.4,0.7 0.7,0.5 1.2,0.2 3.3,-1.9 6.7,-3.8 9.9,-5.8 0.8,-0.5 1.1,-0.3 1.5,0.4 1,1.7 1,1.7 -0.8,2.7 -1,0.6 -1.9,1.2 -2.9,1.6 -0.8,0.4 -0.8,0.8 -0.3,1.4 0.5,0.7 0.8,1.5 1.3,2.2 0.3,0.4 0.2,0.6 -0.2,0.9 C 64,38.7 64,38.8 62.8,36.6 61.9,35 61.9,35 60.2,35.9 c -1.9,1.1 -1.9,1.1 -0.8,3 4.3,7.4 8.6,14.9 12.9,22.3 -1.4,0.6 -2.6,0 -3.9,-0.4 -1.2,-1.5 -2,-3.2 -3,-4.9 -3.1,-5.4 -6.2,-10.7 -9.3,-16.1 -0.4,-0.7 -0.8,-0.9 -1.5,-0.4 -0.8,0.5 -1.7,1 -2.6,1.5 -0.6,0.3 -0.7,0.7 -0.3,1.3 1.8,3.1 3.6,6.1 5.3,9.2 0.6,1 1.2,2 1.8,3.1 0.3,0.5 0.6,0.9 0.5,1.5 -0.1,0.1 -0.2,0.2 -0.3,0.2 C 57.6,55.9 56.1,55.8 54.9,55 52.8,51.5 50.8,47.8 48.6,44.3 48,43.2 48,43.2 46.8,43.9 c -2,1.2 -2,1.2 -0.8,3.2 1.5,2.7 3.1,5.3 4.6,8 3.1,5.3 6.2,10.7 9.3,16 2.4,4.2 4.9,8.4 7.3,12.6 0.1,0.2 0.2,0.4 0.3,0.6 0.7,1.1 0.7,1.1 1.9,0.5 4.9,-2.8 9.7,-5.6 14.6,-8.4 1,-0.6 1,-0.6 0.4,-1.7 -2.5,-4.3 -5,-8.6 -7.5,-12.9 -0.1,-0.7 -0.4,-1.2 -0.4,-1.7 z"
   id="path4"
   inkscape:connector-curvature="0"
   style="clip-rule:evenodd;fill:#211c55;fill-rule:evenodd" />
	<path
   class="st11"
   d="m 76.5,60.1 c 2.9,5 5.8,10 8.7,15 0.3,0.6 0.1,0.7 -0.3,1 C 79.6,79.2 74.3,82.2 69,85.3 68.4,85.7 68.2,85.5 67.8,85 64.6,79.3 61.3,73.7 58,68 55.7,64 53.4,60 51.1,56 c -0.2,-0.3 -0.3,-0.7 -0.5,-1 1.5,-0.7 3,-0.3 4.5,-0.2 1.3,0.7 2.8,0.8 4.2,1.2 1.1,0.2 2.2,0.7 3.1,1.3 1.9,1.2 3.9,2.2 5.9,3.3 1.3,0.5 2.6,0.7 3.9,0.6 1.7,-0.1 3.1,-0.3 4.3,-1.1 z"
   id="path6"
   inkscape:connector-curvature="0"
   style="clip-rule:evenodd;fill:#80d3f4;fill-rule:evenodd" />
	<path
   class="st26"
   d="m 88.1,79.8 c 0.1,0.6 -0.2,0.6 -0.4,0.8 -0.9,0.5 -1.8,1.1 -2.8,1.6 -0.5,0.3 -0.5,0.5 -0.2,0.9 1.1,2.1 1.1,2.1 3.2,0.9 0.3,-0.1 0.5,-0.3 0.8,-0.4 1.2,-0.7 1.6,-0.5 2.1,0.9 0.2,0.6 -0.3,0.6 -0.6,0.7 -3.1,1.8 -6.3,3.7 -9.5,5.5 -2.1,1.2 -4.2,2.4 -6.3,3.7 -0.8,0.5 -1,0.1 -1.3,-0.5 -0.3,-0.5 -0.8,-1 0.2,-1.5 1,-0.4 1.9,-1.1 2.8,-1.6 0.4,-0.2 0.4,-0.4 0.2,-0.9 -1.1,-2.2 -1.1,-2.2 -3.2,-1 -0.4,0.2 -0.9,0.4 -1.2,0.7 -0.7,0.6 -1,0.3 -1.5,-0.4 C 69.9,88.4 70,88 70.8,87.6 75.9,84.7 81,81.8 86,78.8 c 1,-0.4 2,0.2 2.1,1 z"
   id="path8"
   inkscape:connector-curvature="0"
   style="clip-rule:evenodd;fill:#fdfdfd;fill-rule:evenodd" />
	<path
   class="st26"
   d="M 68.5,60.5 C 67.2,60.2 65.9,59.5 64.8,58.8 63.1,57.7 61.2,57 59.5,55.9 56.8,51.2 54.1,46.6 51.4,42 c -0.3,-0.6 -0.3,-0.8 0.3,-1.2 1.1,-0.6 2.1,-1.2 3.2,-1.8 0.7,-0.5 1,-0.4 1.5,0.4 2.5,4.4 5,8.7 7.5,13 1.5,2.7 3,5.4 4.6,8.1 z"
   id="path10"
   inkscape:connector-curvature="0"
   style="clip-rule:evenodd;fill:#fdfdfd;fill-rule:evenodd" />
	<path
   class="st26"
   d="m 54.1,35.7 c 0,0.3 -0.3,0.3 -0.5,0.4 -1.2,0.7 -2.5,1.4 -3.7,2.2 -0.4,0.2 -0.6,0.2 -0.8,-0.2 C 46.8,34 44.4,29.9 42,25.8 41.8,25.4 41.8,25.2 42.2,25 c 1.3,-0.7 2.5,-1.4 3.7,-2.2 0.3,-0.2 0.5,-0.3 0.8,0.1 2.4,4.2 4.8,8.3 7.2,12.4 0.2,0.2 0.2,0.3 0.2,0.4 z"
   id="path12"
   inkscape:connector-curvature="0"
   style="clip-rule:evenodd;fill:#fdfdfd;fill-rule:evenodd" />
	<path
   class="st4"
   d="m 51.7,15.8 c -0.1,0.4 -0.5,0.4 -0.8,0.6 -5.2,3 -10.3,6 -15.5,9 -0.3,0.1 -0.5,0.3 -0.8,0.4 -1.2,0.7 -1.2,0.7 -2,-0.5 C 32,24.5 32,24 33,23.5 38.5,20.4 43.9,17.2 49.4,14 c 0.8,-0.4 1.1,-0.4 1.5,0.4 0.3,0.5 0.6,1 0.8,1.4 z"
   id="path14"
   inkscape:connector-curvature="0"
   style="clip-rule:evenodd;fill:#7e77ca;fill-rule:evenodd" />
	<path
   class="st26"
   d="m 55.2,54.8 c -1.1,0.5 -2.2,0 -3.2,0.2 -0.4,0.1 -0.9,0 -1.3,0.1 -1.9,-3.2 -3.8,-6.5 -5.7,-9.7 -0.2,-0.4 -0.1,-0.6 0.2,-0.8 0.8,-0.5 1.7,-0.9 2.5,-1.4 0.5,-0.3 0.7,-0.2 1,0.3 2.2,3.7 4.4,7.5 6.5,11.3 z"
   id="path16"
   inkscape:connector-curvature="0"
   style="clip-rule:evenodd;fill:#fdfdfd;fill-rule:evenodd" />
	<path
   class="st5"
   d="m 89.4,94.4 c 0,0.2 -0.3,0.4 -0.6,0.6 -1.9,1.1 -3.7,2.1 -5.5,3.2 -0.4,0.2 -0.7,0.3 -1.1,-0.1 -0.8,-0.8 -1.7,-1.5 -2.5,-2.3 -0.4,-0.3 -0.6,-0.6 0,-0.9 2.7,-1.5 5.4,-3.1 8.1,-4.7 0.5,-0.3 0.8,-0.3 0.9,0.4 0.1,1.1 0.4,2.3 0.7,3.8 z"
   id="path18"
   inkscape:connector-curvature="0"
   style="clip-rule:evenodd;fill:#7e77cb;fill-rule:evenodd" />
	<path
   class="st17"
   d="m 63.6,71.4 c -0.2,0 -1.5,-1.9 -1.5,-2.2 0,-0.2 2.1,-1.6 2.2,-1.5 0.7,0.6 1,1.4 1.4,2.2 0.1,0.2 -1.8,1.5 -2.1,1.5 z"
   id="path20"
   inkscape:connector-curvature="0"
   style="clip-rule:evenodd;fill:#242155;fill-rule:evenodd" />
	<path
   class="st17"
   d="m 75,71 c 0,0.2 -1.9,1.6 -2.2,1.5 -0.8,-0.4 -1,-1.4 -1.5,-2.1 -0.1,-0.2 1.6,-1.5 2.1,-1.5 0.3,0 1.5,1.7 1.6,2.1 z"
   id="path22"
   inkscape:connector-curvature="0"
   style="clip-rule:evenodd;fill:#242155;fill-rule:evenodd" />
	<path
   class="st17"
   d="m 73.4,78.6 c 0,0.2 -1.9,1.5 -2.2,1.5 -0.2,0 -1.4,-1.8 -1.4,-2.1 0,-0.2 1.8,-1.5 2.2,-1.5 0.1,-0.1 1.4,1.8 1.4,2.1 z"
   id="path24"
   inkscape:connector-curvature="0"
   style="clip-rule:evenodd;fill:#242155;fill-rule:evenodd" />
</g>
</svg>