<?xml version="1.0" encoding="UTF-8" standalone="no"?>
<!-- Generator: Adobe Illustrator 16.0.0, SVG Export Plug-In . SVG Version: 6.00 Build 0)  -->

<svg
   xmlns:dc="http://purl.org/dc/elements/1.1/"
   xmlns:cc="http://creativecommons.org/ns#"
   xmlns:rdf="http://www.w3.org/1999/02/22-rdf-syntax-ns#"
   xmlns:svg="http://www.w3.org/2000/svg"
   xmlns="http://www.w3.org/2000/svg"
   xmlns:sodipodi="http://sodipodi.sourceforge.net/DTD/sodipodi-0.dtd"
   xmlns:inkscape="http://www.inkscape.org/namespaces/inkscape"
   version="1.1"
   id="Capa_1"
   x="0px"
   y="0px"
   width="64"
   height="64"
   viewBox="0 0 64 64"
   xml:space="preserve"
   sodipodi:docname="iconos-08.svg"
   inkscape:version="0.92.3 (2405546, 2018-03-11)"><metadata
   id="metadata41"><rdf:RDF><cc:Work
       rdf:about=""><dc:format>image/svg+xml</dc:format><dc:type
         rdf:resource="http://purl.org/dc/dcmitype/StillImage" /><dc:title></dc:title></cc:Work></rdf:RDF></metadata><defs
   id="defs39" /><sodipodi:namedview
   pagecolor="#ffffff"
   bordercolor="#666666"
   borderopacity="1"
   objecttolerance="10"
   gridtolerance="10"
   guidetolerance="10"
   inkscape:pageopacity="0"
   inkscape:pageshadow="2"
   inkscape:window-width="1366"
   inkscape:window-height="705"
   id="namedview37"
   showgrid="false"
   inkscape:zoom="1.84375"
   inkscape:cx="64"
   inkscape:cy="64"
   inkscape:window-x="0"
   inkscape:window-y="30"
   inkscape:window-maximized="1"
   inkscape:current-layer="Capa_1" />
<style
   type="text/css"
   id="style2">
<![CDATA[
	.st0{fill-rule:evenodd;clip-rule:evenodd;fill:#DFD9F4;}
	.st1{fill-rule:evenodd;clip-rule:evenodd;fill:#7DC9EC;}
	.st2{fill-rule:evenodd;clip-rule:evenodd;fill:#7DCAEC;}
	.st3{fill-rule:evenodd;clip-rule:evenodd;fill:#7E77C9;}
	.st4{fill-rule:evenodd;clip-rule:evenodd;fill:#7E77CA;}
	.st5{fill-rule:evenodd;clip-rule:evenodd;fill:#7E77CB;}
	.st6{fill-rule:evenodd;clip-rule:evenodd;fill:#7E78CA;}
	.st7{fill-rule:evenodd;clip-rule:evenodd;fill:#7F78CB;}
	.st8{fill-rule:evenodd;clip-rule:evenodd;fill:#E0DAF4;}
	.st9{fill-rule:evenodd;clip-rule:evenodd;fill:#E0DAF5;}
	.st10{fill-rule:evenodd;clip-rule:evenodd;fill:#80D3F3;}
	.st11{fill-rule:evenodd;clip-rule:evenodd;fill:#80D3F4;}
	.st12{fill-rule:evenodd;clip-rule:evenodd;fill:#80D4F4;}
	.st13{fill-rule:evenodd;clip-rule:evenodd;fill:#211C55;}
	.st14{fill-rule:evenodd;clip-rule:evenodd;fill:#211D55;}
	.st15{fill-rule:evenodd;clip-rule:evenodd;fill:#221D55;}
	.st16{fill-rule:evenodd;clip-rule:evenodd;fill:#231E56;}
	.st17{fill-rule:evenodd;clip-rule:evenodd;fill:#242155;}
	.st18{fill-rule:evenodd;clip-rule:evenodd;fill:#F9F9FA;}
	.st19{fill-rule:evenodd;clip-rule:evenodd;fill:#FAFAFB;}
	.st20{fill-rule:evenodd;clip-rule:evenodd;fill:#FBFBFB;}
	.st21{fill-rule:evenodd;clip-rule:evenodd;fill:#FBFBFC;}
	.st22{fill-rule:evenodd;clip-rule:evenodd;fill:#9997AF;}
	.st23{fill-rule:evenodd;clip-rule:evenodd;fill:#FCFBFC;}
	.st24{fill-rule:evenodd;clip-rule:evenodd;fill:#FCFCFC;}
	.st25{fill-rule:evenodd;clip-rule:evenodd;fill:#FCFCFD;}
	.st26{fill-rule:evenodd;clip-rule:evenodd;fill:#FDFDFD;}
	.st27{fill-rule:evenodd;clip-rule:evenodd;fill:#FDFDFE;}
	.st28{fill-rule:evenodd;clip-rule:evenodd;fill:#FEFDFE;}
	.st29{fill-rule:evenodd;clip-rule:evenodd;fill:#FEFEFE;}
	.st30{fill-rule:evenodd;clip-rule:evenodd;fill:#CFD3E3;}
]]>
</style>
<g
   id="g34"
   transform="matrix(0.50420771,0,0,0.50420771,0.45360809,-1.1539166)">
	<path
   class="st1"
   d="m 37,107.3 c 0,-19.3 0,-38.5 0,-57.8 0,-6.9 0,-13.8 0,-20.7 0,-1.1 0.3,-1.3 1.3,-1.3 21.1,0 42.2,0 63.3,0 1,0 1.2,0.4 1.2,1.3 0,30.6 0,61.1 0,91.7 0,1.2 -0.3,1.5 -1.5,1.5 -20.9,0 -41.9,0 -62.8,0 -1.3,0 -1.6,-0.3 -1.6,-1.6 0.1,-3.2 0,-6.5 0,-9.7 -0.4,-1.1 -0.4,-2.3 0.1,-3.4 z"
   id="path4"
   inkscape:connector-curvature="0"
   style="clip-rule:evenodd;fill:#7dc9ec;fill-rule:evenodd" />
	<path
   class="st13"
   d="m 21.7,50.7 c 0,-11.6 0,-23.3 0,-34.9 0,-1 0.2,-1.2 1.2,-1.2 4.4,0.1 8.9,0 13.3,0 0.9,0 1.2,-0.1 1.2,-1.1 -0.1,-2.7 0,-2.7 2.7,-2.7 10.5,0 21,0 31.5,0 1,0 1.3,0.2 1.3,1.3 -0.1,2.5 0,2.5 2.6,2.5 4.3,0 8.6,0 13,0 0.9,0 1.3,0.1 1.2,1.1 -0.1,1.8 -0.1,3.6 0,5.4 0,0.7 -0.1,1 -0.9,1 -2.6,0 -2.6,0 -2.5,-2.5 0.1,-1.3 -0.3,-1.6 -1.5,-1.5 -3.5,0.1 -7.1,0.1 -10.6,0 -1,0 -1.2,0.3 -1.2,1.2 0.1,1.6 0,1.6 -1.6,1.6 -10.8,0 -21.7,0 -32.5,0 -1.1,0 -1.6,-0.3 -1.3,-1.4 0.2,-1.3 -0.3,-1.6 -1.5,-1.5 -3.2,0.1 -6.4,0.1 -9.6,0 -0.9,0 -1.2,0.2 -1.2,1.1 0,22 0,43.9 0,65.9 0,1.9 0,1.8 -1.9,1.9 C 22.2,87 21.8,86.7 21.8,85.4 21.7,73.9 21.7,62.3 21.7,50.7 Z"
   id="path6"
   inkscape:connector-curvature="0"
   style="clip-rule:evenodd;fill:#211c55;fill-rule:evenodd" />
	<path
   class="st15"
   d="m 37,107.3 c 0,1.1 0,2.3 0,3.4 -4.8,0 -9.6,0 -14.4,0 -0.7,0 -0.9,-0.2 -0.9,-0.9 0,-5 0,-10 0,-15.1 0,-0.7 0.2,-0.8 0.9,-0.8 2.6,-0.1 2.6,-0.1 2.6,2.4 0,3.3 0,6.6 0,10 0,0.8 0.2,1 1,1 3.5,0 7.2,0 10.8,0 z"
   id="path8"
   inkscape:connector-curvature="0"
   style="clip-rule:evenodd;fill:#221d55;fill-rule:evenodd" />
	<path
   class="st13"
   d="m 96.9,44.8 c 0,1.1 -0.1,2.2 0,3.4 0.1,0.9 -0.2,1.4 -1.2,1.3 -1,-0.1 -2.1,0 -3.1,0 -0.8,-0.1 -1.2,0.2 -1.1,1.1 0.1,1.1 0,2.2 0,3.4 0,0.6 -0.1,0.9 -0.8,0.9 -2.6,0 -5.2,0 -7.7,0 -0.7,0 -0.8,-0.3 -0.8,-0.9 0,-1.1 -0.1,-2.2 0,-3.2 0.1,-1 -0.3,-1.3 -1.3,-1.2 -1.1,0.1 -2.2,0 -3.2,0 -0.7,0 -1,-0.1 -0.9,-0.9 0,-2.6 0,-5.2 0,-7.7 0,-0.7 0.2,-0.9 0.9,-0.8 1.2,0 2.4,0 3.6,0 0.8,0 1,-0.2 1,-1 -0.1,-1.2 0,-2.3 0,-3.5 0,-0.6 0.2,-0.9 0.9,-0.9 2.6,0 5.1,0 7.7,0 0.6,0 0.8,0.2 0.8,0.8 0,1.2 0,2.5 0,3.7 0,0.6 0.2,0.9 0.8,0.9 1.2,0 2.5,0 3.7,0 0.6,0 0.9,0.2 0.9,0.9 -0.3,1 -0.2,2.4 -0.2,3.7 0,0 0,0 0,0 z"
   id="path10"
   inkscape:connector-curvature="0"
   style="clip-rule:evenodd;fill:#211c55;fill-rule:evenodd" />
	<path
   class="st13"
   d="m 49.5,68.2 c 0,-1.7 0,-3.5 0,-5.2 0,-0.7 0.2,-1 1,-1 3.5,0 7,0 10.4,0 0.7,0 0.9,0.2 0.9,0.9 0,3.6 0,7.1 0,10.7 0,0.6 -0.2,0.8 -0.8,0.8 -3.6,0 -7.1,0 -10.7,0 -0.6,0 -0.9,-0.2 -0.9,-0.8 0.1,-1.8 0.1,-3.6 0.1,-5.4 z"
   id="path12"
   inkscape:connector-curvature="0"
   style="clip-rule:evenodd;fill:#211c55;fill-rule:evenodd" />
	<path
   class="st13"
   d="m 49.5,84.5 c 0,-1.7 0,-3.5 0,-5.2 0,-0.6 0.1,-1 0.9,-1 3.5,0 7.1,0 10.6,0 0.6,0 0.9,0.2 0.9,0.9 0,3.5 0,7.1 0,10.6 0,0.7 -0.3,0.9 -1,0.9 -3.5,0 -7,0 -10.5,0 -0.7,0 -0.9,-0.2 -0.9,-0.9 0,-1.8 0,-3.6 0,-5.3 z"
   id="path14"
   inkscape:connector-curvature="0"
   style="clip-rule:evenodd;fill:#211c55;fill-rule:evenodd" />
	<path
   class="st13"
   d="m 49.5,100.6 c 0,-1.7 0,-3.4 0,-5.1 0,-0.7 0.2,-1 0.9,-0.9 3.5,0 7.1,0 10.6,0 0.7,0 0.9,0.2 0.9,0.9 0,3.5 0,7.1 0,10.6 0,0.8 -0.3,0.9 -1,0.9 -3.5,0 -7,0 -10.5,0 -0.7,0 -0.9,-0.2 -0.9,-0.9 0,-2 0,-3.8 0,-5.5 z"
   id="path16"
   inkscape:connector-curvature="0"
   style="clip-rule:evenodd;fill:#211c55;fill-rule:evenodd" />
	<path
   class="st14"
   d="m 78.3,66.4 c 3.1,0 6.3,0 9.4,0 0.9,0 1.1,0.3 1.1,1.1 0,2.3 0,2.3 -2.4,2.3 -5.8,0 -11.6,0 -17.4,0 -1.1,0 -1.4,-0.3 -1.4,-1.4 0.1,-2.5 -0.3,-2.1 2.1,-2.1 3,0.1 5.8,0.1 8.6,0.1 0,0 0,0 0,0 z"
   id="path18"
   inkscape:connector-curvature="0"
   style="clip-rule:evenodd;fill:#211d55;fill-rule:evenodd" />
	<path
   class="st15"
   d="m 78.2,86.1 c -3.1,0 -6.2,0 -9.3,0 -0.9,0 -1.1,-0.2 -1.1,-1.1 0,-2.4 0,-2.4 2.4,-2.4 5.8,0 11.6,0 17.4,0 1,0 1.3,0.3 1.3,1.3 -0.1,2.1 0,2.2 -2.2,2.2 -2.8,0 -5.7,0 -8.5,0 0,0 0,0 0,0 z"
   id="path20"
   inkscape:connector-curvature="0"
   style="clip-rule:evenodd;fill:#221d55;fill-rule:evenodd" />
	<path
   class="st13"
   d="m 78.2,102.4 c -3.1,0 -6.1,0 -9.2,0 -0.9,0 -1.2,-0.1 -1.2,-1.1 0.1,-2.3 0,-2.3 2.2,-2.3 5.9,0 11.7,0 17.6,0 1,0 1.4,0.2 1.4,1.3 -0.1,2.1 0,2.1 -2.1,2.1 -3,0 -5.8,0 -8.7,0 z"
   id="path22"
   inkscape:connector-curvature="0"
   style="clip-rule:evenodd;fill:#211c55;fill-rule:evenodd" />
	<path
   class="st4"
   d="m 55.2,14.3 c 4.3,0 8.6,0 13,0 1,0 1.4,0.3 1.3,1.3 0,0.3 0,0.6 0,0.9 0.1,0.8 -0.2,1.1 -1,1.1 -8.9,0 -17.8,0 -26.7,0 -0.8,0 -1,-0.2 -1,-1 0.1,-2.8 -0.3,-2.2 2.2,-2.2 4.1,-0.2 8.2,-0.1 12.2,-0.1 z"
   id="path24"
   inkscape:connector-curvature="0"
   style="clip-rule:evenodd;fill:#7e77ca;fill-rule:evenodd" />
	<path
   class="st23"
   d="M 90.7,46 C 88,46 88,46 88,48.7 c 0,0.4 0,0.7 0,1.1 0,1.7 0,1.7 -1.7,1.6 -0.6,0 -0.8,-0.2 -0.8,-0.8 0,-1.2 -0.1,-2.4 0,-3.6 0.1,-0.9 -0.3,-1 -1.1,-1 -1.2,0.1 -2.4,0 -3.6,0 -1.3,0 -0.6,-0.9 -0.7,-1.5 -0.1,-0.4 -0.3,-1.1 0.7,-1.1 1.2,0.1 2.5,0 3.7,0 0.7,0 1,-0.2 0.9,-0.9 -0.1,-1.2 0,-2.5 0,-3.7 0,-1 0.6,-0.8 1.2,-0.8 0.6,0.1 1.4,-0.4 1.4,0.8 0,1.2 0,2.4 0,3.6 0,0.7 0.2,1 1,1 1.2,-0.1 2.5,0 3.7,0 1,0 0.8,0.6 0.7,1.1 -0.2,0.5 0.6,1.5 -0.7,1.5 -0.6,0 -1.3,0 -2,0 z"
   id="path26"
   inkscape:connector-curvature="0"
   style="clip-rule:evenodd;fill:#fcfbfc;fill-rule:evenodd" />
	<path
   class="st24"
   d="m 55.6,70.9 c -2.7,0 -2.7,0 -2.7,-2.7 0,-2.8 0,-2.8 2.8,-2.8 2.6,0 2.6,0 2.6,2.6 0.1,2.9 0.1,2.9 -2.7,2.9 z"
   id="path28"
   inkscape:connector-curvature="0"
   style="clip-rule:evenodd;fill:#fcfcfc;fill-rule:evenodd" />
	<path
   class="st24"
   d="m 55.7,87.1 c -2.8,0 -2.8,0 -2.8,-2.8 0,-2.6 0,-2.6 2.7,-2.6 2.8,0 2.8,0 2.8,2.9 0,2.5 0,2.5 -2.7,2.5 z"
   id="path30"
   inkscape:connector-curvature="0"
   style="clip-rule:evenodd;fill:#fcfcfc;fill-rule:evenodd" />
	<path
   class="st21"
   d="m 52.9,100.6 c 0,-2.7 0,-2.7 2.7,-2.7 2.8,0 2.8,0 2.8,2.8 0,2.7 0,2.7 -2.7,2.7 -2.7,0 -2.7,0 -2.8,-2.8 z"
   id="path32"
   inkscape:connector-curvature="0"
   style="clip-rule:evenodd;fill:#fbfbfc;fill-rule:evenodd" />
</g>
</svg>