<?xml version="1.0" encoding="UTF-8" standalone="no"?>
<!-- Generator: Adobe Illustrator 16.0.0, SVG Export Plug-In . SVG Version: 6.00 Build 0)  -->

<svg
   xmlns:dc="http://purl.org/dc/elements/1.1/"
   xmlns:cc="http://creativecommons.org/ns#"
   xmlns:rdf="http://www.w3.org/1999/02/22-rdf-syntax-ns#"
   xmlns:svg="http://www.w3.org/2000/svg"
   xmlns="http://www.w3.org/2000/svg"
   xmlns:sodipodi="http://sodipodi.sourceforge.net/DTD/sodipodi-0.dtd"
   xmlns:inkscape="http://www.inkscape.org/namespaces/inkscape"
   version="1.1"
   id="Capa_1"
   x="0px"
   y="0px"
   width="64"
   height="64"
   viewBox="0 0 64 64"
   xml:space="preserve"
   sodipodi:docname="iconos-06.svg"
   inkscape:version="0.92.3 (2405546, 2018-03-11)"><metadata
   id="metadata61"><rdf:RDF><cc:Work
       rdf:about=""><dc:format>image/svg+xml</dc:format><dc:type
         rdf:resource="http://purl.org/dc/dcmitype/StillImage" /><dc:title></dc:title></cc:Work></rdf:RDF></metadata><defs
   id="defs59" /><sodipodi:namedview
   pagecolor="#ffffff"
   bordercolor="#666666"
   borderopacity="1"
   objecttolerance="10"
   gridtolerance="10"
   guidetolerance="10"
   inkscape:pageopacity="0"
   inkscape:pageshadow="2"
   inkscape:window-width="1366"
   inkscape:window-height="705"
   id="namedview57"
   showgrid="false"
   inkscape:zoom="1.84375"
   inkscape:cx="64"
   inkscape:cy="64"
   inkscape:window-x="0"
   inkscape:window-y="30"
   inkscape:window-maximized="1"
   inkscape:current-layer="Capa_1" />
<style
   type="text/css"
   id="style2">
<![CDATA[
	.st0{fill-rule:evenodd;clip-rule:evenodd;fill:#DFD9F4;}
	.st1{fill-rule:evenodd;clip-rule:evenodd;fill:#7DC9EC;}
	.st2{fill-rule:evenodd;clip-rule:evenodd;fill:#7DCAEC;}
	.st3{fill-rule:evenodd;clip-rule:evenodd;fill:#7E77C9;}
	.st4{fill-rule:evenodd;clip-rule:evenodd;fill:#7E77CA;}
	.st5{fill-rule:evenodd;clip-rule:evenodd;fill:#7E77CB;}
	.st6{fill-rule:evenodd;clip-rule:evenodd;fill:#7E78CA;}
	.st7{fill-rule:evenodd;clip-rule:evenodd;fill:#7F78CB;}
	.st8{fill-rule:evenodd;clip-rule:evenodd;fill:#E0DAF4;}
	.st9{fill-rule:evenodd;clip-rule:evenodd;fill:#E0DAF5;}
	.st10{fill-rule:evenodd;clip-rule:evenodd;fill:#80D3F3;}
	.st11{fill-rule:evenodd;clip-rule:evenodd;fill:#80D3F4;}
	.st12{fill-rule:evenodd;clip-rule:evenodd;fill:#80D4F4;}
	.st13{fill-rule:evenodd;clip-rule:evenodd;fill:#211C55;}
	.st14{fill-rule:evenodd;clip-rule:evenodd;fill:#211D55;}
	.st15{fill-rule:evenodd;clip-rule:evenodd;fill:#221D55;}
	.st16{fill-rule:evenodd;clip-rule:evenodd;fill:#231E56;}
	.st17{fill-rule:evenodd;clip-rule:evenodd;fill:#242155;}
	.st18{fill-rule:evenodd;clip-rule:evenodd;fill:#F9F9FA;}
	.st19{fill-rule:evenodd;clip-rule:evenodd;fill:#FAFAFB;}
	.st20{fill-rule:evenodd;clip-rule:evenodd;fill:#FBFBFB;}
	.st21{fill-rule:evenodd;clip-rule:evenodd;fill:#FBFBFC;}
	.st22{fill-rule:evenodd;clip-rule:evenodd;fill:#9997AF;}
	.st23{fill-rule:evenodd;clip-rule:evenodd;fill:#FCFBFC;}
	.st24{fill-rule:evenodd;clip-rule:evenodd;fill:#FCFCFC;}
	.st25{fill-rule:evenodd;clip-rule:evenodd;fill:#FCFCFD;}
	.st26{fill-rule:evenodd;clip-rule:evenodd;fill:#FDFDFD;}
	.st27{fill-rule:evenodd;clip-rule:evenodd;fill:#FDFDFE;}
	.st28{fill-rule:evenodd;clip-rule:evenodd;fill:#FEFDFE;}
	.st29{fill-rule:evenodd;clip-rule:evenodd;fill:#FEFEFE;}
	.st30{fill-rule:evenodd;clip-rule:evenodd;fill:#CFD3E3;}
]]>
</style>
<g
   id="g54"
   transform="matrix(0.50714399,0,0,0.50714399,-0.20707581,-1.1225508)">
	<path
   class="st13"
   d="m 98.8,47.4 c 0,2.7 0,5.4 0.1,8.2 0,0.5 -0.2,0.6 -0.6,0.6 -0.6,0 -1.3,0 -2,0 -0.7,0 -0.8,-0.2 -0.8,-0.8 0,-1.2 0,-2.4 0,-3.7 0,-0.7 -0.1,-1 -0.9,-1 -16.1,0 -32.3,0 -48.4,0 -0.8,0 -1,0.2 -1,1 0,0.9 0.3,1 1.1,1 15.1,0 30.2,0 45.3,0 1.8,0 1.8,0 1.8,1.8 0,13.4 0,26.8 0,40.1 -1,0.8 -2.2,1 -3.4,0.9 0,-2.4 -0.1,-4.8 0,-7.2 0,-1 -0.3,-1.1 -1.2,-1.1 -4.6,0 -9.1,0 -13.7,0 -0.9,0 -1.1,0.2 -1.2,1.1 C 72.7,99.9 67,108.7 56.8,114.4 37.1,125.3 12.3,113 8.8,90.9 6,73.1 17.6,56.5 35.2,53.3 c 0.8,-0.1 1,-0.5 1,-1.3 0,-10 0,-20.1 0,-30.1 0,-1 -0.2,-1.4 -1.3,-1.3 -1.2,0.1 -2.4,0 -3.5,0 -0.6,0 -1.5,-0.4 -1.4,0.9 0,0.4 -0.4,0.3 -0.7,0.3 -3.7,0 -7.3,0.1 -11,0 -3.4,-0.1 -5.9,-2.8 -5.8,-6.1 0,-3.1 2.5,-5.8 5.8,-5.9 3.7,-0.1 7.3,0 11,0 0.7,0 0.9,0.2 0.8,0.9 -0.2,1.1 0.4,1.2 1.2,1.2 4.3,0 8.5,0 12.8,0 0.8,0 1.1,0.2 1.1,1.1 -0.1,1.5 0,2.9 0,4.4 0,0.6 0.2,0.9 0.8,1.1 3.5,1.3 5.6,3.8 5.9,7.6 0.1,2.2 0,4.5 0.1,6.7 0,4.6 0,9.2 0,13.8 0,0.6 0,1.1 0.9,1.1 4.2,0 8.4,0.2 12.6,-0.1 9.6,-0.5 19.2,-0.1 28.8,-0.2 1.4,-0.3 2.9,-0.2 4.5,0 z"
   id="path4"
   inkscape:connector-curvature="0"
   style="clip-rule:evenodd;fill:#211c55;fill-rule:evenodd" />
	<path
   class="st12"
   d="m 89.9,95.5 c 1.1,-0.3 2.3,-0.6 3.4,-0.9 0.7,0 1.5,-0.1 2.2,0.2 1.3,-0.4 2.4,-0.2 3.3,0.8 1.2,0.5 2.3,1.3 3.4,2 1.3,0.8 2.3,1.8 2.5,3.4 3.1,5.7 0.7,12.3 -3.6,15.1 -3.8,2.5 -7.9,3 -12,0.9 -4.1,-2.1 -6.3,-5.4 -6.5,-10.1 0,-5.5 2.7,-9.1 7.3,-11.4 z"
   id="path6"
   inkscape:connector-curvature="0"
   style="clip-rule:evenodd;fill:#80d4f4;fill-rule:evenodd" />
	<path
   class="st11"
   d="m 98.8,47.4 c -10,0 -19.9,0 -29.9,0 -5.3,0 -10.7,0 -16,0 -0.6,0 -1.2,0.1 -1.2,-0.9 0.1,-6.9 0.1,-13.8 0.1,-20.7 0.3,1.2 0.1,2.5 0.2,3.7 0,5.5 0,11 0,16.5 0,0.9 0.2,1.3 1.2,1.2 3.9,-0.1 7.7,-0.1 11.6,0 1,0 1.3,-0.3 1.4,-1.2 0.2,-3.7 3.4,-5.5 6.2,-5.4 5.7,0.1 11.4,0.1 17.1,0 3.3,0 6.3,2.7 6.1,5.7 0,0.7 0.2,0.9 0.9,0.9 0.7,0 1.6,-0.2 2.3,0.2 z"
   id="path8"
   inkscape:connector-curvature="0"
   style="clip-rule:evenodd;fill:#80d3f4;fill-rule:evenodd" />
	<path
   class="st15"
   d="m 98.9,95.5 c -1.1,-0.4 -2.2,-0.7 -3.3,-0.8 0,-11.1 0,-22.2 0,-33.3 0,-0.6 0.2,-0.8 0.8,-0.8 C 99,60.5 99,60.5 99,63 98.9,73.8 98.9,84.7 98.9,95.5 Z"
   id="path10"
   inkscape:connector-curvature="0"
   style="clip-rule:evenodd;fill:#221d55;fill-rule:evenodd" />
	<path
   class="st13"
   d="m 104.8,100.9 c -0.6,-1.3 -1.7,-2.3 -2.5,-3.4 3.9,0 7.7,0 11.6,0 3.2,0 5.7,2.7 5.8,5.8 0,3.2 -2.5,5.9 -5.7,6 -1.5,0 -2.9,0 -4.4,0 -0.6,0 -0.9,-0.1 -0.9,-0.8 -0.1,-2.6 -0.1,-2.6 2.5,-2.6 0.9,0 1.8,0 2.7,0 1.5,-0.1 2.4,-1.2 2.4,-2.6 0,-1.3 -1,-2.4 -2.4,-2.4 -3.1,-0.1 -6.1,0 -9.1,0 z"
   id="path12"
   inkscape:connector-curvature="0"
   style="clip-rule:evenodd;fill:#211c55;fill-rule:evenodd" />
	<path
   class="st4"
   d="M 70.6,85.5 C 70.6,101.8 57.4,115 41.1,115 24.9,115 11.8,101.8 11.7,85.6 11.6,69.8 24.4,56 41.2,56 57.9,56 70.7,69.7 70.6,85.5 Z"
   id="path14"
   inkscape:connector-curvature="0"
   style="clip-rule:evenodd;fill:#7e77ca;fill-rule:evenodd" />
	<path
   class="st26"
   d="m 65.5,63.5 c 5.8,0 11.4,0 16.9,0 2.2,0 4.4,0 6.6,0 0.6,0 0.8,0.1 0.8,0.8 0,6.3 0,12.5 0,18.8 0,0.7 -0.2,0.8 -0.8,0.8 -4.8,0 -9.5,0 -14.3,0 C 74,83.9 73.9,83.6 73.8,83 73.3,76.7 71.1,71.1 67.4,66 67.1,65.6 66.8,65.2 66.5,64.9 66.3,64.4 66,64.1 65.5,63.5 Z"
   id="path16"
   inkscape:connector-curvature="0"
   style="clip-rule:evenodd;fill:#fdfdfd;fill-rule:evenodd" />
	<path
   class="st26"
   d="m 56.2,56 c 10.9,0 21.8,0 32.7,0 0.8,0 1,0.2 1,1 0,3.1 0,3.1 -3.1,3.1 -7.9,0 -15.9,0 -23.8,0 -0.8,0 -1.4,-0.2 -2,-0.7 -1.5,-1.2 -3.2,-2.2 -4.8,-3.4 z"
   id="path18"
   inkscape:connector-curvature="0"
   style="clip-rule:evenodd;fill:#fdfdfd;fill-rule:evenodd" />
	<path
   class="st20"
   d="m 41.8,33.8 c 0,5.9 0,11.8 0,17.7 0,0.9 -0.2,1.2 -1.1,1.2 -0.9,0 -1.2,-0.2 -1.1,-1.2 0,-11 0,-22 0,-33.1 0,-1 -0.2,-1.3 -1.2,-1.3 -2.4,0.1 -4.9,0 -7.3,0.1 -1.1,0 -0.9,-0.6 -1,-1.3 -0.1,-0.8 0.3,-1 1,-1 3.2,0 6.3,0 9.5,0 0.9,0 1.2,0.2 1.2,1.2 -0.1,5.9 0,11.8 0,17.7 z"
   id="path20"
   inkscape:connector-curvature="0"
   style="clip-rule:evenodd;fill:#fbfbfb;fill-rule:evenodd" />
	<path
   class="st10"
   d="m 45.1,21.4 c 1.9,0.9 3.1,2.2 3.2,4.1 0.2,2.8 0.1,5.5 0.1,8.3 0,4.1 0,8.1 0,12.2 0,1.1 -0.3,1.4 -1.4,1.4 -2,-0.1 -2,0 -2,-2 0,-7.5 0,-15 0,-22.5 0.1,-0.4 0.1,-0.8 0.1,-1.5 z"
   id="path22"
   inkscape:connector-curvature="0"
   style="clip-rule:evenodd;fill:#80d3f3;fill-rule:evenodd" />
	<path
   class="st11"
   d="m 22.2,13 c 1.2,0 2.4,0 3.5,0 0.7,0 1,0.1 0.9,0.9 -0.1,1.2 0,2.4 0,3.6 0,0.6 -0.1,0.9 -0.8,0.8 -2.4,0 -4.9,0 -7.3,0 -1.6,0 -2.7,-1.1 -2.7,-2.7 0,-1.5 1.1,-2.6 2.7,-2.6 1.3,0 2.5,0 3.7,0 0,0 0,0 0,0 z"
   id="path24"
   inkscape:connector-curvature="0"
   style="clip-rule:evenodd;fill:#80d3f4;fill-rule:evenodd" />
	<path
   class="st13"
   d="m 99.6,106.7 c 0,2.7 -2.2,5 -5,5 -2.7,0 -4.9,-2.2 -4.9,-4.9 0,-2.7 2.2,-5 4.9,-5 2.8,-0.1 5,2.1 5,4.9 z"
   id="path26"
   inkscape:connector-curvature="0"
   style="clip-rule:evenodd;fill:#211c55;fill-rule:evenodd" />
	<path
   class="st13"
   d="m 65,77.4 c 2.2,-0.6 2.2,-0.6 2.7,1.7 C 71.5,94.6 61.1,110 45.3,112.5 30.8,114.8 16.7,104.7 14.2,90.3 11.7,75.7 21,61.9 35.6,58.7 c 10.8,-2.4 22.8,2.7 28.6,12.1 0.8,1.3 0.8,1.3 -0.5,2.1 -0.2,0.1 -0.3,0.2 -0.5,0.4 -0.9,0.9 -1.2,0.8 -1.9,-0.1 -0.5,-0.7 -1,-1.4 -1.5,-2.1 -0.4,-0.5 -0.7,-0.7 -1.3,-0.1 -2.7,2.7 -5.4,5.4 -8.1,8.1 -0.1,0.1 -0.2,0.2 -0.2,0.3 -0.6,0.9 1,4.1 2.1,4.1 3.8,0 7.6,0 11.4,0 0.9,0 1,-0.5 0.9,-1.2 C 64.4,81.1 64.2,80 63.9,78.8 63.6,77.7 63.8,77.5 65,77.4 Z"
   id="path28"
   inkscape:connector-curvature="0"
   style="clip-rule:evenodd;fill:#211c55;fill-rule:evenodd" />
	<path
   class="st29"
   d="m 65,77.4 c -0.9,0.2 -1.1,0.6 -0.8,1.5 0.5,1.3 0.7,2.7 0.8,4 0,0.5 0,0.8 -0.7,0.8 -4.2,0 -8.4,0 -12.6,0 -0.5,0 -0.7,-0.1 -0.8,-0.6 -0.2,-0.9 -0.4,-1.8 -1,-2.5 -0.7,-0.9 -0.3,-1.4 0.3,-2 3,-2.9 5.9,-5.9 8.9,-8.9 0.8,0.9 1.6,1.8 2.1,2.8 0.5,0.9 1,1.2 1.9,0.6 0.7,1.6 1.6,2.8 1.9,4.3 z"
   id="path30"
   inkscape:connector-curvature="0"
   style="clip-rule:evenodd;fill:#fefefe;fill-rule:evenodd" />
	<path
   class="st18"
   d="m 96.3,106.9 c -0.2,0.8 -0.7,1.3 -1.7,1.3 -0.8,0 -1.5,-0.9 -1.4,-1.7 0.1,-0.9 1,-1.6 1.8,-1.5 0.8,0.3 1.3,0.9 1.3,1.9 z"
   id="path32"
   inkscape:connector-curvature="0"
   style="clip-rule:evenodd;fill:#f9f9fa;fill-rule:evenodd" />
	<path
   class="st27"
   d="m 39.5,102.4 c 0,2.1 0,4.1 0,6.2 0,0.6 -0.1,0.8 -0.7,0.7 -4.7,-0.5 -8.8,-2.2 -12.5,-5.1 -0.7,-0.5 -0.6,-0.8 0,-1.4 2.9,-2.8 5.7,-5.7 8.5,-8.5 0.4,-0.4 0.7,-0.6 1.3,-0.2 0.7,0.4 1.4,0.8 2.2,1 1.2,0.2 1.3,0.8 1.3,1.8 -0.2,1.9 -0.1,3.7 -0.1,5.5 z"
   id="path34"
   inkscape:connector-curvature="0"
   style="clip-rule:evenodd;fill:#fdfdfe;fill-rule:evenodd" />
	<path
   class="st26"
   d="m 42.8,102.4 c 0,-2 0,-4.1 0,-6.1 0,-0.6 0.1,-0.9 0.7,-1 1.1,-0.2 2,-0.6 2.9,-1.2 0.4,-0.3 0.7,-0.2 1,0.1 2.9,3 5.9,5.9 8.9,8.9 0.4,0.4 0.4,0.7 -0.1,1 -3.7,3 -8,4.7 -12.7,5.3 -0.7,0.1 -0.7,-0.3 -0.7,-0.8 0,-2.1 0,-4.1 0,-6.2 0,0 0,0 0,0 z"
   id="path36"
   inkscape:connector-curvature="0"
   style="clip-rule:evenodd;fill:#fdfdfd;fill-rule:evenodd" />
	<path
   class="st26"
   d="m 39.5,68.6 c 0,2 0,4 0,6 0,0.7 -0.1,1 -0.9,1.2 -0.9,0.2 -1.8,0.5 -2.6,1.1 -0.6,0.5 -1,0.2 -1.4,-0.2 -2.8,-2.8 -5.6,-5.7 -8.5,-8.4 -0.7,-0.6 -0.6,-0.9 0.1,-1.5 3.7,-2.8 7.7,-4.5 12.4,-5 0.8,-0.1 0.9,0.2 0.9,0.8 0,2 0,4 0,6 z"
   id="path38"
   inkscape:connector-curvature="0"
   style="clip-rule:evenodd;fill:#fdfdfd;fill-rule:evenodd" />
	<path
   class="st28"
   d="m 42.8,68.6 c 0,-1.9 0,-3.8 0,-5.7 0,-1 0.1,-1.3 1.2,-1.2 4.5,0.6 8.4,2.3 12,5 0.8,0.6 0.7,0.9 0.1,1.5 -2.8,2.7 -5.6,5.5 -8.4,8.3 -0.5,0.5 -0.8,0.7 -1.5,0.2 -0.6,-0.5 -1.4,-0.8 -2.2,-1 -1,-0.2 -1.2,-0.6 -1.2,-1.5 0.1,-1.8 0,-3.7 0,-5.6 0,0 0,0 0,0 z"
   id="path40"
   inkscape:connector-curvature="0"
   style="clip-rule:evenodd;fill:#fefdfe;fill-rule:evenodd" />
	<path
   class="st29"
   d="M 59.2,101.2 C 56.1,98 53,94.9 49.9,91.8 c -0.4,-0.4 -0.4,-0.7 -0.1,-1.1 0.6,-0.9 1,-1.9 1.2,-2.9 0.1,-0.5 0.3,-0.6 0.8,-0.6 4.2,0 8.4,0 12.5,0 0.7,0 0.7,0.2 0.7,0.8 -0.6,5 -2.5,9.3 -5.8,13.2 z"
   id="path42"
   inkscape:connector-curvature="0"
   style="clip-rule:evenodd;fill:#fefefe;fill-rule:evenodd" />
	<path
   class="st29"
   d="m 24.2,83.8 c -2,0 -4,0 -6,0 -0.7,0 -1,-0.2 -0.9,-0.9 0.6,-4.7 2.3,-8.9 5.3,-12.6 0.4,-0.5 0.6,-0.3 0.9,0 2.9,3 5.9,5.9 8.9,8.9 0.4,0.4 0.4,0.7 0.1,1.1 -0.6,0.8 -1,1.8 -1.2,2.8 -0.1,0.6 -0.4,0.8 -1,0.7 -2,0 -4,0 -6.1,0 z"
   id="path44"
   inkscape:connector-curvature="0"
   style="clip-rule:evenodd;fill:#fefefe;fill-rule:evenodd" />
	<path
   class="st29"
   d="m 24.3,87.2 c 2,0 4,0 6,0 0.7,0 1,0.1 1.1,0.8 0.1,1 0.6,1.9 1.1,2.7 0.4,0.5 0.2,0.8 -0.2,1.2 -2.9,2.9 -5.9,5.8 -8.8,8.8 -0.4,0.4 -0.6,0.4 -1,-0.1 -2.9,-3.6 -4.7,-7.8 -5.2,-12.4 -0.1,-0.9 0.1,-1.1 1,-1.1 2,0.2 4,0.1 6,0.1 0,0 0,0 0,0 z"
   id="path46"
   inkscape:connector-curvature="0"
   style="clip-rule:evenodd;fill:#fefefe;fill-rule:evenodd" />
	<path
   class="st4"
   d="m 41.2,78.9 c 3.7,0 6.7,3 6.7,6.6 0,3.7 -3.1,6.8 -6.8,6.8 -3.7,-0.1 -6.7,-3.1 -6.7,-6.7 0,-3.8 3,-6.8 6.8,-6.7 z"
   id="path48"
   inkscape:connector-curvature="0"
   style="clip-rule:evenodd;fill:#7e77ca;fill-rule:evenodd" />
	<path
   class="st13"
   d="m 41.1,80.6 c 2.8,0 5,2.2 5,4.9 0,2.8 -2.2,4.9 -5,4.9 -2.7,0 -4.9,-2.2 -4.9,-4.9 -0.1,-2.7 2.2,-4.9 4.9,-4.9 z"
   id="path50"
   inkscape:connector-curvature="0"
   style="clip-rule:evenodd;fill:#211c55;fill-rule:evenodd" />
	<path
   class="st19"
   d="m 41.2,87.1 c -0.9,-0.1 -1.6,-0.6 -1.6,-1.5 0,-0.9 0.5,-1.5 1.5,-1.6 0.9,-0.1 1.7,0.6 1.7,1.5 -0.1,1 -0.7,1.4 -1.6,1.6 z"
   id="path52"
   inkscape:connector-curvature="0"
   style="clip-rule:evenodd;fill:#fafafb;fill-rule:evenodd" />
</g>
</svg>