<?xml version="1.0" encoding="UTF-8" standalone="no"?>
<!-- Generator: Adobe Illustrator 16.0.0, SVG Export Plug-In . SVG Version: 6.00 Build 0)  -->

<svg
   xmlns:dc="http://purl.org/dc/elements/1.1/"
   xmlns:cc="http://creativecommons.org/ns#"
   xmlns:rdf="http://www.w3.org/1999/02/22-rdf-syntax-ns#"
   xmlns:svg="http://www.w3.org/2000/svg"
   xmlns="http://www.w3.org/2000/svg"
   xmlns:sodipodi="http://sodipodi.sourceforge.net/DTD/sodipodi-0.dtd"
   xmlns:inkscape="http://www.inkscape.org/namespaces/inkscape"
   version="1.1"
   id="Capa_1"
   x="0px"
   y="0px"
   width="64"
   height="64"
   viewBox="0 0 64 64"
   xml:space="preserve"
   sodipodi:docname="iconos-02.svg"
   inkscape:version="0.92.3 (2405546, 2018-03-11)"><metadata
   id="metadata41"><rdf:RDF><cc:Work
       rdf:about=""><dc:format>image/svg+xml</dc:format><dc:type
         rdf:resource="http://purl.org/dc/dcmitype/StillImage" /><dc:title></dc:title></cc:Work></rdf:RDF></metadata><defs
   id="defs39" /><sodipodi:namedview
   pagecolor="#ffffff"
   bordercolor="#666666"
   borderopacity="1"
   objecttolerance="10"
   gridtolerance="10"
   guidetolerance="10"
   inkscape:pageopacity="0"
   inkscape:pageshadow="2"
   inkscape:window-width="1366"
   inkscape:window-height="705"
   id="namedview37"
   showgrid="false"
   inkscape:zoom="1.84375"
   inkscape:cx="64"
   inkscape:cy="64"
   inkscape:window-x="0"
   inkscape:window-y="30"
   inkscape:window-maximized="1"
   inkscape:current-layer="Capa_1" />
<style
   type="text/css"
   id="style2">
<![CDATA[
	.st0{fill-rule:evenodd;clip-rule:evenodd;fill:#DFD9F4;}
	.st1{fill-rule:evenodd;clip-rule:evenodd;fill:#7DC9EC;}
	.st2{fill-rule:evenodd;clip-rule:evenodd;fill:#7DCAEC;}
	.st3{fill-rule:evenodd;clip-rule:evenodd;fill:#7E77C9;}
	.st4{fill-rule:evenodd;clip-rule:evenodd;fill:#7E77CA;}
	.st5{fill-rule:evenodd;clip-rule:evenodd;fill:#7E77CB;}
	.st6{fill-rule:evenodd;clip-rule:evenodd;fill:#7E78CA;}
	.st7{fill-rule:evenodd;clip-rule:evenodd;fill:#7F78CB;}
	.st8{fill-rule:evenodd;clip-rule:evenodd;fill:#E0DAF4;}
	.st9{fill-rule:evenodd;clip-rule:evenodd;fill:#E0DAF5;}
	.st10{fill-rule:evenodd;clip-rule:evenodd;fill:#80D3F3;}
	.st11{fill-rule:evenodd;clip-rule:evenodd;fill:#80D3F4;}
	.st12{fill-rule:evenodd;clip-rule:evenodd;fill:#80D4F4;}
	.st13{fill-rule:evenodd;clip-rule:evenodd;fill:#211C55;}
	.st14{fill-rule:evenodd;clip-rule:evenodd;fill:#211D55;}
	.st15{fill-rule:evenodd;clip-rule:evenodd;fill:#221D55;}
	.st16{fill-rule:evenodd;clip-rule:evenodd;fill:#231E56;}
	.st17{fill-rule:evenodd;clip-rule:evenodd;fill:#242155;}
	.st18{fill-rule:evenodd;clip-rule:evenodd;fill:#F9F9FA;}
	.st19{fill-rule:evenodd;clip-rule:evenodd;fill:#FAFAFB;}
	.st20{fill-rule:evenodd;clip-rule:evenodd;fill:#FBFBFB;}
	.st21{fill-rule:evenodd;clip-rule:evenodd;fill:#FBFBFC;}
	.st22{fill-rule:evenodd;clip-rule:evenodd;fill:#9997AF;}
	.st23{fill-rule:evenodd;clip-rule:evenodd;fill:#FCFBFC;}
	.st24{fill-rule:evenodd;clip-rule:evenodd;fill:#FCFCFC;}
	.st25{fill-rule:evenodd;clip-rule:evenodd;fill:#FCFCFD;}
	.st26{fill-rule:evenodd;clip-rule:evenodd;fill:#FDFDFD;}
	.st27{fill-rule:evenodd;clip-rule:evenodd;fill:#FDFDFE;}
	.st28{fill-rule:evenodd;clip-rule:evenodd;fill:#FEFDFE;}
	.st29{fill-rule:evenodd;clip-rule:evenodd;fill:#FEFEFE;}
	.st30{fill-rule:evenodd;clip-rule:evenodd;fill:#CFD3E3;}
]]>
</style>
<g
   id="g34"
   transform="matrix(0.51403928,0,0,0.51403928,-0.70209375,-0.90398389)">
	<path
   class="st5"
   d="m 93.2,100.1 c 0,4.5 0.1,8.9 0,13.4 -0.1,3.5 -3.3,6.4 -7.1,6.4 -7.5,0.1 -15.1,0 -22.6,0 -7.5,0 -15.1,0 -22.6,0 -4.6,0 -7.6,-3.2 -7.6,-7.8 0,-4.1 0,-8.2 0,-12.3 0.4,-0.2 0.9,-0.2 1.3,-0.2 18.8,0 37.5,0 56.3,0 0.7,0.1 1.6,-0.1 2.3,0.5 z"
   id="path4"
   inkscape:connector-curvature="0"
   style="clip-rule:evenodd;fill:#7e77cb;fill-rule:evenodd" />
	<path
   class="st13"
   d="m 93.2,100.1 c -19.3,0 -38.5,0 -57.8,0 -0.7,0 -1.4,0.2 -2.1,-0.2 0,-26.4 0,-52.8 0,-79.2 0.2,-0.5 0.7,-0.6 1.2,-0.7 0.5,0 1,0 1.5,0 18.3,0 36.5,0 54.8,0 0.8,0 1.7,-0.2 2.4,0.4 0,3.1 0,6.1 0.1,9.2 0,0.6 -0.2,0.7 -0.7,0.8 -3,0.2 -2.9,0.2 -3,-2.8 0,-1.1 0.5,-2.7 -0.2,-3.3 -0.6,-0.6 -2.1,-0.2 -3.2,-0.2 -15.9,0 -31.7,0 -47.6,0 -1.1,0 -1.5,0.2 -1.5,1.4 0,23.1 0,46.3 0,69.4 0,1.1 0.2,1.5 1.4,1.5 16.6,0 33.2,0 49.8,0 1.1,0 1.4,-0.2 1.4,-1.4 0,-19.1 0,-38.3 -0.1,-57.4 0,-1.2 0.3,-1.5 1.5,-1.5 2.2,0.1 2.2,0 2.2,2.3 0,20.2 0,40.3 0,60.5 -0.1,0.4 -0.1,0.8 -0.1,1.2 z"
   id="path6"
   inkscape:connector-curvature="0"
   style="clip-rule:evenodd;fill:#211c55;fill-rule:evenodd" />
	<path
   class="st30"
   d="M 86,61.1 C 86.2,73.1 75.9,83.5 63.2,83 51.7,82.5 41.9,73.1 42,60.6 42.2,48.4 52,38.8 64.1,38.9 76.5,39 86.2,49 86,61.1 Z"
   id="path8"
   inkscape:connector-curvature="0"
   style="clip-rule:evenodd;fill:#cfd3e3;fill-rule:evenodd" />
	<path
   class="st5"
   d="m 93.2,20.4 c -19.2,0 -38.5,0 -57.7,0 -0.7,0 -1.5,-0.2 -2.2,0.2 C 33.4,18.3 33,16.1 33.5,13.8 34.2,10.5 37,8 40.4,8 c 15.3,0 30.5,0 45.8,0 3.9,0 7,3.1 7.1,7.1 -0.1,1.8 -0.1,3.6 -0.1,5.3 z"
   id="path10"
   inkscape:connector-curvature="0"
   style="clip-rule:evenodd;fill:#7e77cb;fill-rule:evenodd" />
	<path
   class="st13"
   d="m 112.3,76.3 c -0.8,-0.8 -2,-1.5 -2.3,-2.4 -0.3,-1 1.1,-1.6 1.7,-2.4 5.7,-7.6 5.4,-18.4 -1,-25.5 -0.7,-0.8 -0.8,-1.2 0.1,-1.9 0.6,-0.5 1,-1.2 1.5,-1.8 9.5,9.2 9.4,24.6 0,34 z"
   id="path12"
   inkscape:connector-curvature="0"
   style="clip-rule:evenodd;fill:#211c55;fill-rule:evenodd" />
	<path
   class="st13"
   d="m 8.6,59.4 c 0,-6.3 2.2,-11.7 6.4,-16.4 0.6,-0.6 0.9,-0.7 1.5,-0.1 1.7,1.8 1.8,1.8 0.2,3.7 -4.1,5.3 -5.4,11.1 -3.8,17.6 0.3,1.1 0.1,1.4 -1,1.7 C 9.6,66.6 9.6,66.6 9,64.2 8.7,62.7 8.6,61.1 8.6,59.4 Z"
   id="path14"
   inkscape:connector-curvature="0"
   style="clip-rule:evenodd;fill:#211c55;fill-rule:evenodd" />
	<path
   class="st13"
   d="m 18.6,59.1 c 0.1,-3.5 1.2,-6.7 3.5,-9.5 0.5,-0.7 1,-0.9 1.6,-0.1 0.5,0.6 1.4,1.1 1.6,1.7 0.2,0.7 -0.8,1.3 -1.2,1.9 -2.6,4.1 -2.3,9.4 0.9,13.2 0.6,0.7 0.5,1 -0.1,1.6 -2,2 -2,2 -3.6,-0.3 -1.8,-2.5 -2.7,-5.4 -2.7,-8.5 z"
   id="path16"
   inkscape:connector-curvature="0"
   style="clip-rule:evenodd;fill:#211c55;fill-rule:evenodd" />
	<path
   class="st13"
   d="m 109.5,59.1 c -0.1,3.8 -1.2,7.1 -3.6,9.9 -0.5,0.6 -0.9,0.8 -1.4,0.1 0,0 -0.1,-0.1 -0.1,-0.1 -0.6,-0.6 -1.4,-1.1 -1.6,-1.7 -0.2,-0.6 0.8,-1.2 1.2,-1.8 2.7,-4.1 2.4,-9.4 -0.8,-13.3 -0.5,-0.6 -0.5,-0.9 0,-1.5 2.1,-2.1 2.1,-2.1 3.8,0.4 1.6,2.4 2.4,5.2 2.5,8 z"
   id="path18"
   inkscape:connector-curvature="0"
   style="clip-rule:evenodd;fill:#211c55;fill-rule:evenodd" />
	<path
   class="st15"
   d="M 15.6,76.3 C 14,74.8 12.9,73.2 11.8,71.5 11.5,71 11.5,70.7 12.1,70.4 14.5,69 14.5,69 16,71.2 c 0.1,0.1 0.1,0.1 0.1,0.2 0.5,0.9 1.9,1.6 1.7,2.4 -0.2,0.9 -1.4,1.7 -2.2,2.5 z"
   id="path20"
   inkscape:connector-curvature="0"
   style="clip-rule:evenodd;fill:#221d55;fill-rule:evenodd" />
	<path
   class="st13"
   d="m 63.4,102.2 c 3.6,0 6.8,3.2 6.7,6.7 0,3.7 -3.3,6.9 -7,6.9 -3.7,-0.1 -6.7,-3.2 -6.7,-7 0.1,-3.7 3.1,-6.6 7,-6.6 z"
   id="path22"
   inkscape:connector-curvature="0"
   style="clip-rule:evenodd;fill:#211c55;fill-rule:evenodd" />
	<path
   class="st13"
   d="m 78.3,61 c 0,1.6 -0.1,3.3 0,4.9 0,1 -0.2,1.3 -1.2,1.3 -1.9,-0.1 -3.8,0 -5.8,0 -0.8,0 -1.1,0.2 -1,1.1 0.1,2 0,4 0,6 0,0.8 -0.3,1 -1,1 -3.5,0 -7,0 -10.4,0 -0.9,0 -1.1,-0.3 -1.1,-1.2 0,-1.9 0,-3.8 0,-5.8 0,-0.8 -0.2,-1.2 -1.1,-1.1 -2,0.1 -4,0 -6,0 -0.7,0 -0.9,-0.2 -0.9,-0.9 0,-3.6 0,-7.1 0,-10.7 0,-0.8 0.3,-1 1,-1 2,0 4,0 6,0 0.8,0 1,-0.2 1,-1 0,-2 0,-4 0,-6 0,-0.7 0.2,-1 1,-1 3.5,0 7,0 10.6,0 0.8,0 1,0.3 1,1 0,1.9 0.1,3.7 0,5.6 -0.1,1.2 0.4,1.4 1.4,1.4 1.8,-0.1 3.7,0 5.5,0 0.9,0 1.1,0.3 1.1,1.1 -0.2,1.8 -0.1,3.6 -0.1,5.3 z"
   id="path24"
   inkscape:connector-curvature="0"
   style="clip-rule:evenodd;fill:#211c55;fill-rule:evenodd" />
	<path
   class="st13"
   d="m 59.7,13.4 c 1.6,0 3.3,0 4.9,0 0.8,0 1.2,0.2 1.2,1.1 -0.1,3.1 0.3,2.4 -2.4,2.5 -2.9,0 -5.9,0 -8.8,0 -1,0 -1.3,-0.2 -1.3,-1.2 0.1,-2.8 -0.4,-2.3 2.3,-2.4 1.4,-0.1 2.8,0 4.1,0 z"
   id="path26"
   inkscape:connector-curvature="0"
   style="clip-rule:evenodd;fill:#211c55;fill-rule:evenodd" />
	<path
   class="st13"
   d="m 71.7,16.9 c -0.5,-0.1 -1.5,0.4 -1.7,-0.3 -0.3,-0.9 -0.1,-1.9 -0.1,-2.9 0,-0.4 0.4,-0.4 0.7,-0.4 0.6,0 1.3,0.1 1.9,0 1.2,-0.2 1.5,0.3 1.5,1.5 -0.1,2.1 -0.1,2.1 -2.3,2.1 z"
   id="path28"
   inkscape:connector-curvature="0"
   style="clip-rule:evenodd;fill:#211c55;fill-rule:evenodd" />
	<path
   class="st26"
   d="m 63.2,105.9 c 1.7,0 3.2,1.4 3.2,3.1 0,1.7 -1.5,3.1 -3.1,3.1 -1.6,0 -3,-1.4 -3.1,-3 0,-1.8 1.3,-3.2 3,-3.2 z"
   id="path30"
   inkscape:connector-curvature="0"
   style="clip-rule:evenodd;fill:#fdfdfd;fill-rule:evenodd" />
	<path
   class="st26"
   d="m 70.5,63.5 c -0.9,0 -1.9,0 -2.8,0 -0.8,-0.1 -1.1,0.2 -1.1,1 0.1,2 0,4 0,6 0,0.7 -0.2,1 -1,1 -1.1,-0.1 -2.2,-0.1 -3.3,0 -0.7,0 -0.9,-0.2 -0.9,-0.9 0,-2 0,-4.1 0,-6.1 0,-0.8 -0.2,-1 -1,-1 -2,0 -4,0 -6,0 -0.7,0 -1,-0.2 -1,-1 0.1,-1.1 0.1,-2.1 0,-3.2 -0.1,-0.9 0.3,-1 1.1,-1 2,0 3.9,0 5.9,0 0.8,0 1.1,-0.2 1,-1 -0.1,-2 0,-4 0,-6 0,-0.7 0.2,-1 1,-1 1.1,0.1 2.2,0.1 3.3,0 0.7,0 0.9,0.2 0.9,0.9 0,2 0,4.1 0,6.1 0,0.8 0.2,1 1,1 2,0 3.9,0 5.9,0 1,0 1.2,0.3 1.1,1.2 -0.1,1 -0.1,2 0,3.1 0,0.7 -0.2,0.9 -0.9,0.9 -1.1,0 -2.2,0 -3.2,0 z"
   id="path32"
   inkscape:connector-curvature="0"
   style="clip-rule:evenodd;fill:#fdfdfd;fill-rule:evenodd" />
</g>
</svg>