<?xml version="1.0" encoding="UTF-8" standalone="no"?>
<!-- Generator: Adobe Illustrator 22.0.0, SVG Export Plug-In . SVG Version: 6.00 Build 0)  -->

<svg
   xmlns:dc="http://purl.org/dc/elements/1.1/"
   xmlns:cc="http://creativecommons.org/ns#"
   xmlns:rdf="http://www.w3.org/1999/02/22-rdf-syntax-ns#"
   xmlns:svg="http://www.w3.org/2000/svg"
   xmlns="http://www.w3.org/2000/svg"
   xmlns:sodipodi="http://sodipodi.sourceforge.net/DTD/sodipodi-0.dtd"
   xmlns:inkscape="http://www.inkscape.org/namespaces/inkscape"
   version="1.1"
   id="Capa_1"
   inkscape:version="0.92.3 (2405546, 2018-03-11)"
   sodipodi:docname="iconos-04-symbolic.svg"
   x="0px"
   y="0px"
   viewBox="0 0 64 64"
   style="enable-background:new 0 0 64 64;"
   xml:space="preserve"><metadata
   id="metadata38"><rdf:RDF><cc:Work
       rdf:about=""><dc:format>image/svg+xml</dc:format><dc:type
         rdf:resource="http://purl.org/dc/dcmitype/StillImage" /></cc:Work></rdf:RDF></metadata><defs
   id="defs36" />
<style
   type="text/css"
   id="style2">
	.st0{fill:#95979A;stroke:#000000;stroke-miterlimit:10;}
	.st1{fill:#FFFFFF;}
	.st2{opacity:0.5;fill:#FFFFFF;}
</style>

<sodipodi:namedview
   bordercolor="#666666"
   borderopacity="1"
   gridtolerance="10"
   guidetolerance="10"
   id="namedview29"
   inkscape:current-layer="Capa_1"
   inkscape:cx="-0.3616933"
   inkscape:cy="-40.566843"
   inkscape:pageopacity="0"
   inkscape:pageshadow="2"
   inkscape:window-height="705"
   inkscape:window-maximized="1"
   inkscape:window-width="1366"
   inkscape:window-x="0"
   inkscape:window-y="30"
   inkscape:zoom="0.72091746"
   objecttolerance="10"
   pagecolor="#ffffff"
   showgrid="false">
	</sodipodi:namedview>
<g
   id="g33">
	<path
   class="st1"
   d="M34,29.9C34,29.9,33.9,29.8,34,29.9c-0.1-0.1-0.2-0.1-0.3-0.2C33.8,29.8,33.9,29.8,34,29.9z"
   id="path7" />
	<path
   class="st1"
   d="M25,27c-0.8-1.3-1.6-2.7-2.3-4C23.4,24.4,24.2,25.7,25,27c0,0.2,0.1,0.3,0.2,0.4C25.1,27.3,25.1,27.2,25,27   C25,27,25,27,25,27z"
   id="path9" />
	<path
   class="st1"
   d="M29.5,27.5c0-0.1-0.1-0.1-0.1-0.2c0,0.1,0,0.1,0,0.2c0.1,0,0.2,0.1,0.3,0.1C29.7,27.6,29.6,27.6,29.5,27.5z"
   id="path11" />
	<path
   class="st1"
   d="M50,58.6c-1.7-2.9-3.4-5.9-5.1-8.9c-0.2-0.3-0.2-0.5,0.2-0.7c0.4-0.2,0.7-0.4,1.1-0.6c0.3-0.1,0.4-0.3,0.3-0.6   c-0.1-0.7-0.3-1.4-0.4-2.1c-0.1-0.5-0.4-1.1-0.2-1.6c0.2-0.5,0.9-0.6,1.3-0.9c0.4-0.3,0.5-0.4,0.2-0.8c-4.2-7.4-8.5-14.7-12.7-22.1   c-0.5-0.9-0.5-0.9-1.4-0.4c-0.5,0.2-0.5,0.4-0.2,0.8c1.7,2.9,3.4,5.9,5.1,8.9c1.5,2.6,3,5.1,4.4,7.7c0.2,0.3,0.1,0.4-0.2,0.5   c-2.7,1.6-5.4,3.1-8.1,4.7c-0.3,0.2-0.4,0.1-0.6-0.2c-1.6-2.9-3.3-5.8-5-8.7c-1.2-2.1-2.3-4.1-3.5-6.2c0,0,0-0.1-0.1-0.1   c-0.1-0.1-0.1-0.2-0.2-0.3c-0.8-1.4-1.6-2.7-2.3-4.1c0-0.1-0.1-0.1-0.1-0.2c0-0.1-0.1-0.2-0.1-0.2c-0.1-0.2-0.2-0.3-0.3-0.5   c-0.1-0.2-0.1-0.3,0.1-0.4c0.4-0.3,0.9-0.5,1.3-0.7c0.3-0.2,0.4-0.1,0.5,0.2c1.1,1.9,2.2,3.8,3.3,5.8c0,0,0,0,0,0   c0.7,0.3,1.4,0.4,2.1,0.6c0-0.1,0-0.2,0-0.2c-1.3-2.3-2.7-4.6-4-6.9c-0.2-0.3-0.2-0.4,0.2-0.6c0.6-0.3,1.1-0.6,1.6-0.9   c0.4-0.3,0.5-0.2,0.8,0.2c1.3,2.3,2.5,4.5,3.8,6.7c0.8,1.4,1.5,2.8,2.3,4.2c-0.1,0-0.1,0-0.2-0.1c0,0,0,0.1,0.1,0.1c0,0,0,0,0,0   c0.7,0.3,1.3,0.4,2,0.3c0,0,0,0,0,0c-2.2-3.8-4.4-7.6-6.6-11.4c-0.6-1-0.6-1,0.4-1.5c0.9-0.5,0.9-0.5,1.3,0.4   c0.6,1.1,0.6,1.1,1.7,0.4c0.2-0.2,0.3-0.3,0.1-0.5c-0.3-0.4-0.4-0.8-0.7-1.1c-0.3-0.3-0.3-0.5,0.2-0.7c0.5-0.2,1-0.5,1.5-0.8   c0.9-0.5,0.9-0.5,0.4-1.4c-0.2-0.4-0.4-0.5-0.8-0.2c-1.6,1-3.4,2-5,3c-0.3,0.2-0.4,0.3-0.6-0.1c-1.2-2.1-2.3-4.1-3.5-6.2   c-0.2-0.3-0.2-0.4,0.2-0.6c1-0.5,1.9-1.1,2.8-1.6c0.3-0.2,0.3-0.3,0.2-0.5c-0.6-1.1-1.3-2.2-1.9-3.3c-0.2-0.2-0.2-0.3-0.5-0.2   c-3.8,2.2-7.6,4.4-11.4,6.6c-0.3,0.2-0.3,0.3-0.2,0.5c0.7,1.1,1.3,2.2,1.9,3.3c0.2,0.3,0.3,0.3,0.6,0.2c0.9-0.6,1.8-1,2.7-1.6   c0.3-0.2,0.5-0.2,0.7,0.2c1.1,2,2.2,4,3.4,6c0.3,0.4,0.2,0.5-0.2,0.7c-1.5,0.9-3,1.7-4.5,2.6C17,23,17,23,17.7,24   c0.2,0.3,0.3,0.3,0.5,0.1c0.6-0.4,1.3-0.7,1.9-1.1c0.4-0.3,0.6-0.2,0.8,0.2c4.9,8.7,9.9,17.3,14.9,25.9c0.2,0.4,0.4,0.6,0.8,0.3   c0.3-0.3,0.7-0.4,1-0.6c0.3-0.2,0.4-0.2,0.7,0.1c0.8,0.7,1.6,1.4,2.4,2.2c0.3,0.3,0.5,0.3,0.8,0.1c0.5-0.3,1-0.5,1.4-0.8   c0.3-0.2,0.4-0.2,0.6,0.2c1.6,2.9,3.3,5.7,4.9,8.5c0.5,0.9,0.5,0.9,1.4,0.4C50.2,59.1,50.2,58.9,50,58.6z M17.2,11.9   c-0.2,0.1-0.3,0.2-0.4,0.2c-0.6,0.4-0.6,0.4-1-0.3c-0.3-0.4-0.3-0.7,0.2-0.9c2.8-1.6,5.6-3.2,8.4-4.9c0.4-0.2,0.6-0.2,0.8,0.2   c0.2,0.3,0.3,0.5,0.4,0.7c-0.1,0.2-0.3,0.2-0.4,0.3C22.5,8.8,19.9,10.3,17.2,11.9z M20.6,12.1c-0.1-0.2-0.1-0.3,0.1-0.4   c0.7-0.4,1.3-0.7,1.9-1.1c0.2-0.1,0.3-0.2,0.4,0.1c1.2,2.2,2.4,4.3,3.7,6.4c0.1,0.1,0.1,0.2,0.1,0.2c0,0.2-0.2,0.2-0.3,0.2   c-0.6,0.4-1.3,0.7-1.9,1.1c-0.2,0.1-0.3,0.1-0.4-0.1C23.1,16.3,21.8,14.2,20.6,12.1z M37.1,47.2c-0.4,0.3-0.5,0.1-0.7-0.3   c-0.2-0.3-0.4-0.5,0.1-0.8c0.5-0.2,1-0.6,1.4-0.8c0.2-0.1,0.2-0.2,0.1-0.5c-0.6-1.1-0.6-1.1-1.6-0.5c-0.2,0.1-0.5,0.2-0.6,0.4   c-0.4,0.3-0.5,0.2-0.8-0.2c-0.3-0.4-0.2-0.6,0.2-0.8c2.6-1.5,5.2-3,7.7-4.5c0.5-0.2,1,0.1,1.1,0.5c0.1,0.3-0.1,0.3-0.2,0.4   c-0.5,0.3-0.9,0.6-1.4,0.8c-0.3,0.2-0.3,0.3-0.1,0.5c0.6,1.1,0.6,1.1,1.6,0.5c0.2-0.1,0.3-0.2,0.4-0.2c0.6-0.4,0.8-0.3,1.1,0.5   c0.1,0.3-0.2,0.3-0.3,0.4c-1.6,0.9-3.2,1.9-4.8,2.8C39.3,46,38.2,46.6,37.1,47.2z M44.5,47.5c-1,0.6-1.9,1.1-2.8,1.6   c-0.2,0.1-0.4,0.2-0.6-0.1c-0.4-0.4-0.9-0.8-1.3-1.2c-0.2-0.2-0.3-0.3,0-0.5c1.4-0.8,2.8-1.6,4.1-2.4c0.3-0.2,0.4-0.2,0.5,0.2   c0.1,0.6,0.2,1.2,0.4,1.9C44.8,47.3,44.6,47.4,44.5,47.5z"
   id="path13" />
	<path
   class="st2"
   d="M34.1,30c0,0-0.1-0.1-0.1-0.1c-0.1-0.1-0.2-0.1-0.3-0.2c-0.5-0.2-1-0.5-1.4-0.7c-0.8-0.5-1.7-0.9-2.5-1.4   c-0.1,0-0.2-0.1-0.3-0.1c-0.1,0.1-0.1,0.1-0.2,0.1c-0.7-0.2-1.5-0.2-2.1-0.6c0,0,0,0,0-0.1c-0.5,0.1-1,0-1.4,0.1   c-0.2,0.1-0.5,0-0.7,0.1c0,0,0,0,0-0.1c0,0,0,0,0,0c0.1,0.1,0.1,0.2,0.2,0.4c1.5,2.6,3,5.3,4.6,7.9c1.2,2.2,2.5,4.3,3.7,6.5   c0.1,0.1,0.1,0.2,0.2,0.3c0.4,0.6,0.4,0.6,1,0.3c2.5-1.4,4.9-2.9,7.4-4.3c0.5-0.3,0.5-0.3,0.2-0.9c-1.3-2.2-2.5-4.4-3.8-6.6   c-0.1-0.4-0.2-0.6-0.2-0.9c-0.6,0.4-1.3,0.5-2.1,0.6c0,0,0,0,0,0C35.3,30.5,34.7,30.2,34.1,30z M31.6,35.4c-0.1,0-0.8-1-0.8-1.1   c0-0.1,1.1-0.8,1.1-0.8c0.4,0.3,0.5,0.7,0.7,1.1C32.7,34.8,31.8,35.4,31.6,35.4z M35.5,39.9c-0.1,0-0.7-0.9-0.7-1.1   c0-0.1,0.9-0.8,1.1-0.8c0.1-0.1,0.7,0.9,0.7,1.1C36.6,39.2,35.7,39.9,35.5,39.9z M37.4,35.2c0,0.1-1,0.8-1.1,0.8   c-0.4-0.2-0.5-0.7-0.8-1.1c-0.1-0.1,0.8-0.8,1.1-0.8C36.8,34.2,37.4,35,37.4,35.2z"
   id="path15" />
	<path
   class="st1"
   d="M42.2,37.1c0.3,0.6,0.3,0.6-0.2,0.9c-2.5,1.4-4.9,2.9-7.4,4.3c-0.6,0.3-0.6,0.3-1-0.3   c-0.1-0.1-0.1-0.2-0.2-0.3c-1.2-2.2-2.5-4.3-3.7-6.5c-1.5-2.6-3-5.3-4.6-7.9c0,0,0,0.1,0.1,0.1c1.2,2.1,2.3,4.1,3.5,6.2   c1.7,2.9,3.4,5.8,5,8.7c0.2,0.3,0.3,0.4,0.6,0.2c2.7-1.6,5.4-3.1,8.1-4.7c0.2-0.2,0.3-0.2,0.2-0.5c-1.5-2.6-3-5.1-4.4-7.7   c0,0.3,0.2,0.5,0.2,0.9C39.7,32.7,41,34.9,42.2,37.1z"
   id="path17" />
	<path
   class="st1"
   d="M27.2,27c0.6,0.4,1.4,0.5,2.1,0.6c0.1,0,0.1-0.1,0.2-0.1c-0.7-0.2-1.5-0.3-2.1-0.6C27.3,27,27.2,27,27.2,27   C27.2,27,27.2,27,27.2,27z"
   id="path19" />
	<path
   class="st1"
   d="M34,29.9C34,29.9,34,29.9,34,29.9c0,0,0,0.1,0.1,0.1c0.7,0.2,1.3,0.5,2,0.2c0,0,0,0,0,0c0,0,0,0,0,0   C35.3,30.3,34.7,30.2,34,29.9z"
   id="path21" />
	<path
   class="st1"
   d="M28.3,25.2c-0.9-1.6-1.8-3.1-2.7-4.7c-0.2-0.3-0.2-0.5,0.2-0.7c0.5-0.3,0.9-0.5,1.3-0.8   c0.4-0.3,0.6-0.2,0.8,0.2c1.6,2.8,3.2,5.5,4.7,8.3c0.5,0.8,0.8,1.6,1.4,2.3c0.1,0,0.1,0,0.2,0.1c-0.8-1.4-1.6-2.8-2.3-4.2   c-1.3-2.2-2.5-4.4-3.8-6.7c-0.3-0.4-0.4-0.5-0.8-0.2c-0.6,0.3-1.1,0.6-1.6,0.9c-0.3,0.2-0.3,0.3-0.2,0.6c1.3,2.3,2.7,4.6,4,6.9   c0-0.2-0.1-0.4-0.3-0.5C28.9,26.2,28.6,25.7,28.3,25.2z"
   id="path23" />
	<path
   class="st2"
   d="M29.8,27.6c0.8,0.5,1.7,0.8,2.5,1.4c0.4,0.3,0.9,0.6,1.4,0.7c-0.9-0.5-1.8-1-2.7-1.5"
   id="path25" />
	<path
   class="st1"
   d="M23.1,21.4c0.6-0.4,0.6-0.4,0.9,0.2c1.1,1.8,2.1,3.6,3.1,5.4c0.1,0,0.1,0,0.2,0c0,0,0,0,0,0c0,0,0,0,0,0   C26.3,25,25.1,23,24,21.1c-0.2-0.3-0.3-0.3-0.5-0.2c-0.4,0.3-0.9,0.5-1.3,0.7c-0.2,0.1-0.2,0.2-0.1,0.4c0.1,0.2,0.2,0.3,0.3,0.5   C22.1,22,22.2,21.9,23.1,21.4z"
   id="path27" />
	<path
   class="st1"
   d="M22.6,22.9c0,0.1,0.1,0.1,0.1,0.2c0,0,0,0,0,0C22.6,22.9,22.6,22.9,22.6,22.9z"
   id="path29" />
	<path
   class="st2"
   d="M25,27C25,27.1,25,27.1,25,27c0.2,0,0.5,0.1,0.7,0c0.5-0.1,0.9,0.1,1.4-0.1c0,0,0,0,0-0.1   C26.4,26.9,25.7,26.7,25,27z"
   id="path31" />
</g>
</svg>