<?xml version="1.0" encoding="utf-8"?>
<!-- Generator: Adobe Illustrator 22.0.0, SVG Export Plug-In . SVG Version: 6.00 Build 0)  -->
<svg version="1.1"
	 id="Capa_1" inkscape:version="0.92.3 (2405546, 2018-03-11)" sodipodi:docname="iconos-08.svg" xmlns:cc="http://creativecommons.org/ns#" xmlns:dc="http://purl.org/dc/elements/1.1/" xmlns:inkscape="http://www.inkscape.org/namespaces/inkscape" xmlns:rdf="http://www.w3.org/1999/02/22-rdf-syntax-ns#" xmlns:sodipodi="http://sodipodi.sourceforge.net/DTD/sodipodi-0.dtd" xmlns:svg="http://www.w3.org/2000/svg"
	 xmlns="http://www.w3.org/2000/svg" xmlns:xlink="http://www.w3.org/1999/xlink" x="0px" y="0px" viewBox="0 0 64 64"
	 style="enable-background:new 0 0 64 64;" xml:space="preserve">
<style type="text/css">
	.st0{fill:#95979A;stroke:#000000;stroke-miterlimit:10;}
	.st1{fill:#FFFFFF;}
</style>
<rect x="-1154.6" y="-399.3" class="st0" width="886" height="824"/>
<sodipodi:namedview  bordercolor="#666666" borderopacity="1" gridtolerance="10" guidetolerance="10" id="namedview37" inkscape:current-layer="Capa_1" inkscape:cx="64" inkscape:cy="64" inkscape:pageopacity="0" inkscape:pageshadow="2" inkscape:window-height="705" inkscape:window-maximized="1" inkscape:window-width="1366" inkscape:window-x="0" inkscape:window-y="30" inkscape:zoom="1.84375" objecttolerance="10" pagecolor="#ffffff" showgrid="false">
	</sodipodi:namedview>
<g>
	<path class="st1" d="M51.7,12.7c-10.6,0-21.3,0-31.9,0c-0.5,0-0.7,0.1-0.7,0.7c0,3.5,0,7,0,10.4c0,9.7,0,19.4,0,29.1
		c0,0.6,0,1.2,0,1.7c0,0,0,0-0.1,0c0,1.6,0.1,3.3,0,4.9c0,0.7,0.2,0.8,0.8,0.8c10.5,0,21.1,0,31.7,0c0.6,0,0.8-0.2,0.8-0.8
		c0-15.4,0-30.8,0-46.2C52.3,12.9,52.2,12.7,51.7,12.7z M25.4,33.2c0-0.9,0-1.8,0-2.6c0-0.4,0.1-0.5,0.5-0.5c1.8,0,3.5,0,5.2,0
		c0.4,0,0.5,0.1,0.5,0.5c0,1.8,0,3.6,0,5.4c0,0.3-0.1,0.4-0.4,0.4c-1.8,0-3.6,0-5.4,0c-0.3,0-0.5-0.1-0.5-0.4
		C25.4,35,25.4,34.1,25.4,33.2z M31.7,52.3c0,0.4-0.2,0.5-0.5,0.5c-1.8,0-3.5,0-5.3,0c-0.4,0-0.5-0.1-0.5-0.5c0-1,0-1.9,0-2.8
		c0-0.9,0-1.7,0-2.6c0-0.4,0.1-0.5,0.5-0.5c1.8,0,3.6,0,5.3,0c0.4,0,0.5,0.1,0.5,0.5C31.7,48.8,31.7,50.6,31.7,52.3z M31.7,44.1
		c0,0.4-0.2,0.5-0.5,0.5c-1.8,0-3.5,0-5.3,0c-0.4,0-0.5-0.1-0.5-0.5c0-0.9,0-1.8,0-2.7c0-0.9,0-1.8,0-2.6c0-0.3,0.1-0.5,0.5-0.5
		c1.8,0,3.6,0,5.3,0c0.3,0,0.5,0.1,0.5,0.5C31.7,40.5,31.7,42.4,31.7,44.1z M35.6,32.3c1.5,0.1,2.9,0.1,4.3,0.1c1.6,0,3.2,0,4.7,0
		c0.5,0,0.6,0.2,0.6,0.6c0,1.2,0,1.2-1.2,1.2c-2.9,0-5.8,0-8.8,0c-0.6,0-0.7-0.2-0.7-0.7C34.6,32.1,34.4,32.3,35.6,32.3z M45.3,41.1
		c-0.1,1.1,0,1.1-1.1,1.1c-1.4,0-2.9,0-4.3,0c-1.6,0-3.1,0-4.7,0c-0.5,0-0.6-0.1-0.6-0.6c0-1.2,0-1.2,1.2-1.2c2.9,0,5.8,0,8.8,0
		C45.1,40.5,45.3,40.6,45.3,41.1z M44.3,50.5c-1.5,0-2.9,0-4.4,0c-1.6,0-3.1,0-4.6,0c-0.5,0-0.6-0.1-0.6-0.6c0.1-1.2,0-1.2,1.1-1.2
		c3,0,5.9,0,8.9,0c0.5,0,0.7,0.1,0.7,0.7C45.3,50.5,45.3,50.5,44.3,50.5z M49.3,21.4c0,0.6-0.1,1.1,0,1.7c0.1,0.5-0.1,0.7-0.6,0.7
		s-1.1,0-1.6,0c-0.4-0.1-0.6,0.1-0.6,0.6c0.1,0.6,0,1.1,0,1.7c0,0.3-0.1,0.5-0.4,0.5c-1.3,0-2.6,0-3.9,0c-0.4,0-0.4-0.2-0.4-0.5
		c0-0.6-0.1-1.1,0-1.6s-0.2-0.7-0.7-0.6c-0.6,0.1-1.1,0-1.6,0c-0.4,0-0.5-0.1-0.5-0.5c0-1.3,0-2.6,0-3.9c0-0.4,0.1-0.5,0.5-0.4
		c0.6,0,1.2,0,1.8,0c0.4,0,0.5-0.1,0.5-0.5c-0.1-0.6,0-1.2,0-1.8c0-0.3,0.1-0.5,0.5-0.5c1.3,0,2.6,0,3.9,0c0.3,0,0.4,0.1,0.4,0.4
		c0,0.6,0,1.3,0,1.9c0,0.3,0.1,0.5,0.4,0.5c0.6,0,1.3,0,1.9,0c0.3,0,0.5,0.1,0.5,0.5C49.3,20.1,49.3,20.8,49.3,21.4z"/>
	<path class="st1" d="M12.3,42.7c1-0.1,1,0,1-1c0-11.1,0-22.1,0-33.2c0-0.5,0.2-0.6,0.6-0.6C15.4,8,17,8,18.7,7.9
		c0.6-0.1,0.9,0.1,0.8,0.8c-0.2,0.6,0.1,0.7,0.7,0.7c5.4,0,10.9,0,16.4,0c0.8,0,0.9,0,0.8-0.8c0-0.5,0.1-0.6,0.6-0.6
		C39.6,8,41.4,8,43.2,8C43.8,7.9,44,8.1,44,8.7C43.9,10,43.9,10,45.2,10c0.4,0,0.5-0.2,0.5-0.5c-0.1-0.9-0.1-1.8,0-2.7
		c0.1-0.5-0.2-0.6-0.6-0.6c-2.2,0-4.4,0-6.6,0c-1.3,0-1.4,0-1.3-1.3c0-0.6-0.2-0.7-0.7-0.7c-5.3,0-10.6,0-15.9,0
		c-1.4,0-1.4,0-1.4,1.4c0,0.5-0.2,0.6-0.6,0.6c-2.2,0-4.5,0.1-6.7,0c-0.5,0-0.6,0.1-0.6,0.6c0,5.8,0,11.7,0,17.6s0,11.7,0.1,17.5
		C11.4,42.6,11.6,42.7,12.3,42.7z M22.1,6.1c2.1-0.1,4.1-0.1,6.2-0.1c2.2,0,4.3,0,6.6,0c0.5,0,0.7,0.2,0.7,0.7c0,0.2,0,0.3,0,0.5
		c0.1,0.4-0.1,0.6-0.5,0.6c-4.5,0-9,0-13.5,0c-0.4,0-0.5-0.1-0.5-0.5C21.1,5.8,20.9,6.1,22.1,6.1z"/>
	<path class="st1" d="M19.1,52.9c-1.8,0-3.7,0-5.4,0c-0.4,0-0.5-0.1-0.5-0.5c0-1.7,0-3.4,0-5c0-1.3,0-1.3-1.3-1.2
		c-0.4,0-0.5,0.1-0.5,0.4c0,2.6,0,5.1,0,7.6c0,0.4,0.1,0.5,0.5,0.5c2.4,0,4.8,0,7.2,0C18.9,54.1,18.9,53.5,19.1,52.9z"/>
	<path class="st1" d="M19.1,52.9c-0.3,0.6-0.3,1.2-0.1,1.7c0,0,0,0,0.1,0C19.1,54.1,19.1,53.5,19.1,52.9z"/>
	<path class="st1" d="M47.2,20.7c-0.6,0-1.3-0.1-1.9,0c-0.4,0-0.5-0.2-0.5-0.5c0-0.6,0-1.2,0-1.8c0-0.6-0.4-0.4-0.7-0.4
		c-0.3,0-0.6-0.1-0.6,0.4c0,0.6-0.1,1.3,0,1.9c0.1,0.4-0.1,0.5-0.5,0.5c-0.6,0-1.3,0.1-1.9,0c-0.5,0-0.4,0.4-0.4,0.6
		c0.1,0.3-0.3,0.8,0.4,0.8c0.6,0,1.2,0.1,1.8,0c0.4,0,0.6,0.1,0.6,0.5c-0.1,0.6,0,1.2,0,1.8c0,0.3,0.1,0.4,0.4,0.4
		c0.9,0.1,0.9,0.1,0.9-0.8c0-0.2,0-0.4,0-0.6c0-1.4,0-1.4,1.4-1.4c0.4,0,0.7,0,1,0c0.7,0,0.3-0.5,0.4-0.8
		C47.6,21,47.7,20.7,47.2,20.7z"/>
	<path class="st1" d="M28.5,34.6c1.4,0,1.4,0,1.4-1.5c0-1.3,0-1.3-1.3-1.3c-1.4,0-1.4,0-1.4,1.4C27.1,34.6,27.1,34.6,28.5,34.6z"/>
	<path class="st1" d="M28.5,40c-1.4,0-1.4,0-1.4,1.3c0,1.4,0,1.4,1.4,1.4c1.4,0,1.4,0,1.4-1.3C29.9,40,29.9,40,28.5,40z"/>
	<path class="st1" d="M28.5,48.2c-1.4,0-1.4,0-1.4,1.4c0.1,1.4,0.1,1.4,1.4,1.4c1.4,0,1.4,0,1.4-1.4C29.9,48.2,29.9,48.2,28.5,48.2z
		"/>
</g>
</svg>
