<?xml version="1.0" encoding="utf-8"?>
<!-- Generator: Adobe Illustrator 22.0.0, SVG Export Plug-In . SVG Version: 6.00 Build 0)  -->
<svg version="1.1" id="Layer_1" xmlns="http://www.w3.org/2000/svg" xmlns:xlink="http://www.w3.org/1999/xlink" x="0px" y="0px"
	 viewBox="0 0 443.9 443.9" style="enable-background:new 0 0 443.9 443.9;" xml:space="preserve">
<style type="text/css">
	.st0{fill:#FFFFFF;}
	.st1{opacity:0.48;fill:#FFFFFF;}
</style>
<title>Artboard 10 copy</title>
<g>
	<path class="st0" d="M396.7,236.3c-3.6-3.5-160.9-161.2-163.9-164.3c-1.2-2.5-2.9-4.2-6-3.5c-4.5,0-7.6,2.4-10.5,5.4
		C162.1,128.1,108,182.2,53.9,236.3c-6,6-7.2,10.8-3.7,13.9c2.4,2.1,10.4-8.2,16.9-14.5c7.7-7.5,15.3-14.9,23-22.3
		c1.8,8.2,0.6,29.8,0.5,38C90.2,268.1,91.4,365,91.4,365c1.8,6,6.1,7.5,11.1,7.7v-15.4c0-0.5,0-0.9,0-1.5c0.1-48.6,0.1-97.2,0-145.8
		c0-3.1,0.6-5.7,3-8c39.2-39.1,78.4-78.2,117.6-117.4c0.6-0.5,1.3-0.8,2.1-1.1c2.4,0.4,3.5,2.4,5,3.9
		c37.3,37.2,74.5,74.4,111.8,111.6c4,3.6,6.1,8.9,5.9,14.2c-0.2,42-0.2,83.9-0.1,126h0.1v33.5h2.9c6,1.2,9-2.6,8.9-7.5
		c-0.2-9.9,1.5-128,0.9-148.4l22.7,23.7c2.5,1.5,14.1,13.2,17.6,7.5C404.3,242.6,400.5,240.1,396.7,236.3z"/>
	<path class="st0" d="M131.3,294.7c-21.5-30.8-4.6-74,32.2-81.6c18.1-3.7,34.4,0.7,47.9,13.8c0,0,0,0,0,0c0,0,0,0,0,0
		c5.6,4.6,8.9,10.9,12.4,17.2c2.9-4.3,4.9-8.8,8.2-12.7c9.6-11.6,21.8-18.2,36.9-19.4c17.5-1.3,32.1,4.7,43.7,17.6
		c7.1,7.6,11.5,17.3,12.5,27.6l0,0c1.5,4.8,1.1,9.7,0.4,14.5c-1.8,13.1-8.3,23.6-17.6,33c-1.1,1.2-2.3,2.3-3.4,3.5h3.6
		c1.1,0,2.2,0.2,3.2,0.6c1.4-1.4,2.8-2.9,4.1-4.3c10.5-11.1,15.6-24.3,15.9-39.5c-0.1-3.1-0.3-6.3-0.7-9.4
		c-4.6-29-31.1-51.4-61.4-49.1c-18.2,1.4-32.4,9.5-43.2,23.8c-1.8,2.3-2.3,2.7-4.3,0.1c-14.9-19.8-38.2-28.2-61.4-22.4
		c-37.2,9.4-55.1,51.9-36.2,85.3c3.2,5.6,7.4,10.3,11.8,14.9h7.4C139,304.1,134.8,299.7,131.3,294.7z"/>
	<path class="st0" d="M161.7,326.6h-7.9c4.2,4.3,8.5,8.5,12.8,12.7h8C170.3,335.1,166,330.8,161.7,326.6z"/>
	<path class="st0" d="M280.8,332.3c-2.3,2.3-4.7,4.7-7,7h7.5c4.3-4.3,8.6-8.5,12.8-12.8h-7.5C284.6,328.5,282.7,330.4,280.8,332.3z"
		/>
	<path class="st0" d="M191.8,356.4C191.8,356.3,191.8,356.3,191.8,356.4c-5.8-5.7-11.5-11.4-17.2-17h-8c3.6,3.5,7.2,7,10.8,10.5
		c4.3,4.2,8.6,8.3,12.9,12.5c2.4,0,4.8,0,7.2,0C195.6,360.4,193.7,358.4,191.8,356.4z"/>
	<path class="st0" d="M234.4,378.1c-3.3,3.2-6.8,6.2-10.2,9.2c-0.4,0.5-0.8,0.2-1.1-0.1c-4.8-4.9-9.9-9.6-14.8-14.4H201
		c6.7,6.6,13.4,13.3,20,20c2.5,2.6,3.8,2.1,6-0.1c6.7-6.7,13.5-13.3,20.3-19.9h-7.6C237.9,374.6,236.1,376.3,234.4,378.1z"/>
	<path class="st0" d="M281.2,339.3h-7.5c-7.7,7.7-15.5,15.3-23.3,23c2.5,0,5,0,7.5,0c1-1,2.1-2,3.1-3.1
		C267.8,352.6,274.5,346,281.2,339.3z"/>
	<path class="st0" d="M239.7,372.8h7.6c3.6-3.5,7.1-7,10.7-10.5c-2.5,0-5,0-7.5,0C246.9,365.8,243.3,369.3,239.7,372.8z"/>
	<path class="st0" d="M197.5,362.3c-2.4,0-4.8,0-7.2,0c3.6,3.5,7.1,7,10.7,10.5h7.2C204.6,369.4,201,365.9,197.5,362.3z"/>
	<g>
		<path class="st1" d="M172.4,326.6h-10.7c4.3,4.3,8.6,8.5,12.9,12.7h6.2C178,335.1,175.2,330.8,172.4,326.6z"/>
		<path class="st1" d="M156.2,300.7c-5.6-9.4-9.6-19.5-10.8-30.5c-0.6-6.3,0.3-12.6,2.8-18.4c4.3-10.5,11.1-19.1,21.4-24.6
			c10.9-5.8,22.2-6.2,33.9-2.9c2.7,0.8,5.3,1.7,7.9,2.7c0,0,0,0,0,0c-13.5-13.1-29.8-17.6-47.9-13.8c-36.8,7.6-53.7,50.8-32.2,81.6
			c3.5,5,7.7,9.4,12,13.7h17.5C159.3,305.8,157.7,303.2,156.2,300.7z"/>
		<path class="st1" d="M180.8,339.3h-6.2c5.7,5.6,11.5,11.3,17.2,17c-2.7-4.6-5.7-9-8.6-13.5C182.4,341.7,181.6,340.5,180.8,339.3z"
			/>
	</g>
	<path class="st0" d="M184.8,254c-3.2,0-6.5-0.1-9.8,0c-1.8,0-2.7-0.8-2.6-2.6c0.1-3.2-0.1-6.5,0.5-9.7c0.3-1.7-0.2-3-2.4-3.1
		c-2.1-0.1-3.2,0.5-3,2.8c0.2,3.1-0.7,6.2,0,9.3c0.5,2.4-0.6,3.5-3.1,3.4c-3.2-0.2-6.5,0.1-9.7-0.1c-2.3-0.1-2.5,1.1-2.5,2.9
		c0,1.9,0.6,2.6,2.5,2.5c3.4-0.1,6.7,0,10.1-0.1c1.5-0.1,2.1,0.5,2.4,2c0.6,3.4,0.7,6.9,0.2,10.4c-0.3,2.1,0.1,2.5,2.1,2.6
		c2.1,0,3.1-0.4,3.1-2.7c0.2-1.9,0.2-3.7,0-5.6c-1-6.4-0.8-6.6,5.7-6.6h2c1.5,0,2.9-0.1,4.4,0.1c2.1,0.2,3.3-0.3,3.3-2.8
		C187.9,254,186.7,254,184.8,254z"/>
	<path class="st0" d="M160.5,262.5c-0.4-0.2-4.9,4.2-4.7,4.6c0.7,1.5,2,2.7,3.5,3.4c0.5,0.2,4.6-4.2,4.5-4.8
		C163,264.4,161.9,263.3,160.5,262.5z"/>
	<path class="st0" d="M160.5,250.3c0.6,0,3.4-3,3.4-3.5s-4.4-4.7-4.8-4.5c-1.4,0.8-2.5,1.9-3.2,3.3
		C155.7,246.1,160,250.3,160.5,250.3z"/>
	<path class="st0" d="M179.2,262.6c-1.2,1-3.1,1.9-2.7,3.5c0.6,2,2.6,3.2,4.3,4.6c1.2-1.4,2.9-2,3.2-3.8
		C184.1,266.2,179.6,262.3,179.2,262.6z"/>
	<path class="st0" d="M179.4,250.3c0.4,0.2,4.6-4,4.7-5c-0.9-0.8-1.7-2.3-3.3-2.7c-0.8-0.2-5,3.8-4.6,4.4
		C176.9,248.4,178,249.6,179.4,250.3z"/>
	<path class="st0" d="M304.1,270.2c1.8-0.1,2.3-0.9,2.2-2.5s0.2-3.4-2.3-3c-2.1-0.3-2.4,0.8-2.4,2.6S301.8,270.3,304.1,270.2z"/>
	<path class="st0" d="M294.9,260.7c1.4,0.1,2.8,0.2,2.7-2.1c0-1.9-1.1-2-2.6-2c-1.5,0-2.9-0.2-2.9,2.1
		C292.2,260.7,293.3,260.8,294.9,260.7z"/>
	<path class="st0" d="M286.3,270.2c2.1,0,1.9-1.3,1.9-2.7c0-1.6-0.1-2.8-2.2-2.8c-2.1,0.1-1.9,1.4-1.9,2.9
		C284,269,284.2,270.2,286.3,270.2z"/>
	<path class="st0" d="M294.9,274.2c-1.3,0.1-2.7-0.2-2.7,1.9s1.1,2.3,2.6,2.2c1.5,0,2.8,0.3,2.8-1.9
		C297.7,274.2,296.5,274.1,294.9,274.2z"/>
	<path class="st0" d="M308.1,319.9c1.2-0.1,2.2-1,2.3-2.3c0.1-1.3-0.9-2.5-2.3-2.6h-2.8c-1.6,1.6-3.2,3.2-4.8,4.8H308.1z"/>
	<path class="st0" d="M134.4,315.1c-1.2,0.1-2.2,1-2.3,2.3c-0.1,1.3,0.9,2.5,2.3,2.6h12.8c-1.6-1.6-3.2-3.2-4.7-4.9H134.4z"/>
	<path class="st0" d="M300.6,319.9c1.6-1.6,3.2-3.2,4.8-4.8h-7.5c-1.6,1.6-3.2,3.2-4.8,4.8H300.6z"/>
	<path class="st0" d="M150.3,315.1h-7.7c1.6,1.6,3.2,3.2,4.7,4.9h7.8c-1-1-1.9-1.9-2.9-2.9C151.6,316.4,150.9,315.8,150.3,315.1z"/>
	<path class="st0" d="M276.1,315.1h-7c-0.6,0-1.1,0.2-1.5,0.6l-15.7,13.1l-5.5-35.5c-0.1-0.9-0.8-1.6-1.6-1.9
		c-1.3-0.4-2.7,0.2-3.1,1.5L228.1,332l-6.2-58c-0.1-0.9-0.7-1.7-1.6-2.1c-1.3-0.4-2.6,0.2-3.1,1.5l-15.2,43.6l-4.9-18.5
		c-0.2-0.6-0.5-1.1-1-1.4c-1.1-0.7-2.6-0.4-3.4,0.8l-10.7,17.2h-15.8c1.1,1.6,2.1,3.2,3.2,4.9h14c0.8,0,1.6-0.4,2.1-1.1l8.5-13.6
		l5.5,20.7c0.3,1,1.2,1.8,2.2,1.8c1.1,0.1,2-0.6,2.4-1.6l14.3-40.9l5.8,54.1h6.6l12.3-35.7l4.7,30.1c0.1,0.5,0.3,0.9,0.6,1.3
		c0.9,1,2.4,1.1,3.4,0.2l18.3-15.3h0.5c1.8-1.6,3.6-3.2,5.4-4.7C275.9,315.2,276,315.1,276.1,315.1z"/>
	<path class="st0" d="M224.4,343.2c0.1,1.1,1,2,2.1,2.1h0.3c1,0,1.9-0.7,2.3-1.6l1.5-4.4H224L224.4,343.2z"/>
	<path class="st0" d="M165.1,315.1h-14.8c0.7,0.6,1.3,1.3,1.9,1.9c1,1,1.9,1.9,2.9,2.9h13C167.1,318.3,166.1,316.7,165.1,315.1z"/>
	<path class="st0" d="M166.1,315.1h-1c1,1.6,2.1,3.2,3.1,4.9h1.1C168.2,318.3,167.1,316.7,166.1,315.1z"/>
	<path class="st0" d="M271.8,319.9h21.3c1.6-1.6,3.2-3.2,4.8-4.8h-20.5C275.5,316.7,273.7,318.3,271.8,319.9z"/>
	<path class="st0" d="M275.9,315.2c-1.8,1.5-3.6,3.1-5.4,4.7h1.4c1.8-1.6,3.6-3.3,5.5-4.8h-1.3C276,315.1,275.9,315.2,275.9,315.2z"
		/>
</g>
</svg>
