<?xml version="1.0" encoding="UTF-8" standalone="no"?>
<!-- Generator: Adobe Illustrator 16.0.0, SVG Export Plug-In . SVG Version: 6.00 Build 0)  -->

<svg
   xmlns:dc="http://purl.org/dc/elements/1.1/"
   xmlns:cc="http://creativecommons.org/ns#"
   xmlns:rdf="http://www.w3.org/1999/02/22-rdf-syntax-ns#"
   xmlns:svg="http://www.w3.org/2000/svg"
   xmlns="http://www.w3.org/2000/svg"
   xmlns:sodipodi="http://sodipodi.sourceforge.net/DTD/sodipodi-0.dtd"
   xmlns:inkscape="http://www.inkscape.org/namespaces/inkscape"
   version="1.1"
   id="Capa_1"
   x="0px"
   y="0px"
   width="64"
   height="64"
   viewBox="0 0 64 64"
   xml:space="preserve"
   sodipodi:docname="iconos-01.svg"
   inkscape:version="0.92.3 (2405546, 2018-03-11)"><metadata
   id="metadata41"><rdf:RDF><cc:Work
       rdf:about=""><dc:format>image/svg+xml</dc:format><dc:type
         rdf:resource="http://purl.org/dc/dcmitype/StillImage" /><dc:title></dc:title></cc:Work></rdf:RDF></metadata><defs
   id="defs39">
	
	
	
	
	
	
	
	
	
	
	
	
	
	
	
</defs><sodipodi:namedview
   pagecolor="#ffffff"
   bordercolor="#666666"
   borderopacity="1"
   objecttolerance="10"
   gridtolerance="10"
   guidetolerance="10"
   inkscape:pageopacity="0"
   inkscape:pageshadow="2"
   inkscape:window-width="1366"
   inkscape:window-height="705"
   id="namedview37"
   showgrid="false"
   inkscape:zoom="1.84375"
   inkscape:cx="64"
   inkscape:cy="54.638243"
   inkscape:window-x="0"
   inkscape:window-y="30"
   inkscape:window-maximized="1"
   inkscape:current-layer="Capa_1" />
<style
   type="text/css"
   id="style2">
<![CDATA[
	.st0{fill-rule:evenodd;clip-rule:evenodd;fill:#DFD9F4;}
	.st1{fill-rule:evenodd;clip-rule:evenodd;fill:#7DC9EC;}
	.st2{fill-rule:evenodd;clip-rule:evenodd;fill:#7DCAEC;}
	.st3{fill-rule:evenodd;clip-rule:evenodd;fill:#7E77C9;}
	.st4{fill-rule:evenodd;clip-rule:evenodd;fill:#7E77CA;}
	.st5{fill-rule:evenodd;clip-rule:evenodd;fill:#7E77CB;}
	.st6{fill-rule:evenodd;clip-rule:evenodd;fill:#7E78CA;}
	.st7{fill-rule:evenodd;clip-rule:evenodd;fill:#7F78CB;}
	.st8{fill-rule:evenodd;clip-rule:evenodd;fill:#E0DAF4;}
	.st9{fill-rule:evenodd;clip-rule:evenodd;fill:#E0DAF5;}
	.st10{fill-rule:evenodd;clip-rule:evenodd;fill:#80D3F3;}
	.st11{fill-rule:evenodd;clip-rule:evenodd;fill:#80D3F4;}
	.st12{fill-rule:evenodd;clip-rule:evenodd;fill:#80D4F4;}
	.st13{fill-rule:evenodd;clip-rule:evenodd;fill:#211C55;}
	.st14{fill-rule:evenodd;clip-rule:evenodd;fill:#211D55;}
	.st15{fill-rule:evenodd;clip-rule:evenodd;fill:#221D55;}
	.st16{fill-rule:evenodd;clip-rule:evenodd;fill:#231E56;}
	.st17{fill-rule:evenodd;clip-rule:evenodd;fill:#242155;}
	.st18{fill-rule:evenodd;clip-rule:evenodd;fill:#F9F9FA;}
	.st19{fill-rule:evenodd;clip-rule:evenodd;fill:#FAFAFB;}
	.st20{fill-rule:evenodd;clip-rule:evenodd;fill:#FBFBFB;}
	.st21{fill-rule:evenodd;clip-rule:evenodd;fill:#FBFBFC;}
	.st22{fill-rule:evenodd;clip-rule:evenodd;fill:#9997AF;}
	.st23{fill-rule:evenodd;clip-rule:evenodd;fill:#FCFBFC;}
	.st24{fill-rule:evenodd;clip-rule:evenodd;fill:#FCFCFC;}
	.st25{fill-rule:evenodd;clip-rule:evenodd;fill:#FCFCFD;}
	.st26{fill-rule:evenodd;clip-rule:evenodd;fill:#FDFDFD;}
	.st27{fill-rule:evenodd;clip-rule:evenodd;fill:#FDFDFE;}
	.st28{fill-rule:evenodd;clip-rule:evenodd;fill:#FEFDFE;}
	.st29{fill-rule:evenodd;clip-rule:evenodd;fill:#FEFEFE;}
	.st30{fill-rule:evenodd;clip-rule:evenodd;fill:#CFD3E3;}
]]>
</style>
<g
   id="g878"
   transform="matrix(0.48355916,0,0,0.48355916,1.239018,16.488718)"><path
     class="st13"
     d="m 73.1,62.8 c 5.3,2.7 10.4,5.3 15.6,7.8 3.6,1.8 7.3,3.7 10.9,5.5 0.6,0.3 1.1,0.4 1.8,0.3 2.9,-0.4 5.4,0.9 6.8,3.3 1.3,2.3 1.1,5.2 -0.5,7.2 -1.8,2.3 -4.4,3.2 -7.2,2.4 -2.5,-0.8 -4.1,-2.5 -4.7,-5 -0.1,-0.6 -0.4,-1 -1,-1.3 C 84.7,77.9 74.6,72.9 64.6,67.8 63.9,67.5 63.4,67.5 62.7,67.8 52.6,72.9 42.6,78 32.5,83 c -0.7,0.3 -0.9,0.8 -1,1.5 -0.9,3.8 -4.8,6 -8.6,4.8 -3.7,-1.2 -5.6,-5.4 -4,-9 1.2,-2.8 4,-4.4 7.3,-3.9 0.4,0.1 0.8,0.1 1.2,-0.1 8.9,-4.5 17.9,-9 26.8,-13.5 0,-0.5 -0.4,-0.5 -0.7,-0.6 C 44.1,57.5 34.7,52.7 25.3,48 c -0.6,-0.3 -1.1,-0.3 -1.7,-0.3 -5.3,0 -10.5,0 -15.8,0 -0.9,0 -1.2,-0.1 -1.2,-1.1 0.1,-3.8 0.1,-7.7 0,-11.5 0,-0.9 0.2,-1.1 1.1,-1 1.2,0.1 2.3,0 3.5,0 0.7,0 0.9,-0.2 1,-0.8 1.2,-6.5 5.9,-11.3 12.3,-12.5 2.5,-0.5 5,-0.3 7.4,-0.2 0.9,0 1.2,-0.2 1.1,-1.1 -0.1,-1.4 0,-2.9 0,-4.3 0,-0.9 0.2,-1.1 1.1,-1.1 7,0 14,0 20.9,0 14,0 27.9,0 41.9,0 1,0 1.4,0.2 1.3,1.3 -0.1,1.3 0.1,2.7 0,4 -0.1,1.2 0.4,1.3 1.4,1.3 4.1,-0.1 7.8,1 10.9,3.7 2.7,2.3 4.4,5.2 5,8.8 0.1,0.8 0.4,1.2 1.3,1.1 1.2,-0.1 2.4,0 3.6,0 0.6,0 0.8,0.1 0.8,0.8 0,4 0,8 0,12 0,0.9 -0.4,0.9 -1,0.9 -5.5,0 -10.9,0 -16.4,0 -0.6,0 -1.2,0 -1.7,0.3 -9.5,4.8 -19.1,9.6 -28.6,14.4 0,-0.1 -0.1,0 -0.4,0.1 z"
     id="path4"
     inkscape:connector-curvature="0"
     style="clip-rule:evenodd;fill:#211c55;fill-rule:evenodd" /><path
     class="st2"
     d="m 64.9,-25.8 c 8.9,-0.2 17,7.3 16.9,16.9 C 81.7,0.3 74.6,7.6 65.4,7.8 55.6,8 48.5,0.4 48.1,-8.3 c -0.4,-9.8 7.7,-17.6 16.8,-17.5 z"
     id="path6"
     inkscape:connector-curvature="0"
     style="clip-rule:evenodd;fill:#7dcaec;fill-rule:evenodd" /><path
     class="st4"
     d="m 64,37.5 c 17.5,0 35,0 52.4,0 1.2,0 1.7,0.2 1.5,1.5 -0.1,1.4 -0.1,2.9 0,4.3 0.1,1 -0.3,1.2 -1.2,1.2 -7.7,0 -15.4,0 -23.1,0 -27.3,0 -54.6,0 -81.9,0 -1.9,0 -1.7,0.2 -1.7,-1.6 0,-1.4 0.1,-2.7 0,-4.1 -0.1,-1 0.3,-1.3 1.3,-1.3 11.1,0 22.2,0 33.3,0 6.5,0 12.9,0 19.4,0 z"
     id="path8"
     inkscape:connector-curvature="0"
     style="clip-rule:evenodd;fill:#7e77ca;fill-rule:evenodd" /><path
     class="st26"
     d="m 65.6,34.1 c -9.3,0 -18.7,0 -28,0 -1,0 -1.2,-0.3 -1.2,-1.2 0.1,-2.6 0.1,-5.3 0,-7.9 0,-0.9 0.2,-1.2 1.2,-1.2 13.5,0 27,0 40.5,0 5.2,0 10.4,0 15.6,0 1.1,0 1.3,0.3 1.3,1.3 -0.1,2.6 -0.1,5.2 0,7.8 0,0.9 -0.2,1.2 -1.2,1.2 -9.4,0 -18.8,0 -28.2,0 z"
     id="path10"
     inkscape:connector-curvature="0"
     style="clip-rule:evenodd;fill:#fdfdfd;fill-rule:evenodd" /><path
     class="st26"
     d="m 84,47.9 c -3.4,1.7 -6.6,3.3 -9.8,4.9 -3.2,1.6 -6.5,3.3 -9.7,4.9 -0.5,0.3 -1,0.3 -1.6,0 -6.4,-3.3 -12.8,-6.5 -19.5,-9.9 13.7,0.1 27,0.1 40.6,0.1 z"
     id="path12"
     inkscape:connector-curvature="0"
     style="clip-rule:evenodd;fill:#fdfdfd;fill-rule:evenodd" /><path
     class="st25"
     d="m 65.6,20.5 c -9.3,0 -18.5,0 -27.8,0 -1.1,0 -1.6,-0.3 -1.4,-1.4 0,-0.3 0,-0.6 0,-0.8 -0.1,-0.8 0.2,-1 1,-1 5.9,0 11.7,0 17.6,0 12.8,0 25.6,0 38.5,0 0.5,0 1.3,-0.3 1.4,0.2 0.3,0.9 0.2,1.8 0,2.7 -0.1,0.4 -0.7,0.2 -1.1,0.2 -8.4,0 -16.8,0 -25.1,0 -1.1,0.1 -2.1,0.1 -3.1,0.1 z"
     id="path14"
     inkscape:connector-curvature="0"
     style="clip-rule:evenodd;fill:#fcfcfd;fill-rule:evenodd" /><path
     class="st26"
     d="m 24.2,34.1 c -2.6,0 -5.2,0 -7.8,0 -0.9,0 -0.9,-0.2 -0.8,-1 1.1,-5.3 5.9,-9.2 11.6,-9.3 1.6,0 3.3,0 4.9,0 0.7,0 1,0.2 1,0.9 0,2.8 0,5.7 0,8.5 0,0.7 -0.2,0.9 -0.9,0.9 -2.6,0 -5.3,0 -8,0 0,0 0,0 0,0 z"
     id="path16"
     inkscape:connector-curvature="0"
     style="clip-rule:evenodd;fill:#fdfdfd;fill-rule:evenodd" /><path
     class="st20"
     d="m 95.2,47.9 c -4.1,2.1 -8,4 -11.8,6 -17,8.6 -34,17.1 -51,25.7 -1.4,0.7 -1.4,0.7 -2.2,-0.8 2.9,-1.5 5.8,-2.9 8.7,-4.4 16.8,-8.5 33.7,-17 50.5,-25.5 1.8,-0.9 3.6,-1.3 5.8,-1 z"
     id="path18"
     inkscape:connector-curvature="0"
     style="clip-rule:evenodd;fill:#fbfbfb;fill-rule:evenodd" /><path
     class="st26"
     d="m 105.4,34.1 c -2,0 -4.1,0 -6.1,0 -0.7,0 -1,-0.1 -1,-0.9 0,-2.8 0,-5.7 0,-8.5 0,-0.4 -0.1,-0.8 0.6,-0.9 6,-0.7 12,3.4 13.3,9.2 0.2,1 0,1.1 -0.9,1.1 -2,0 -3.9,0 -5.9,0 z"
     id="path20"
     inkscape:connector-curvature="0"
     style="clip-rule:evenodd;fill:#fdfdfd;fill-rule:evenodd" /><path
     class="st20"
     d="m 67.6,65.6 c 1,-1.1 2,-0.8 3.2,-0.2 8.5,4.3 17,8.6 25.5,12.9 0.3,0.1 1.1,0.1 0.6,0.8 -0.3,0.4 -0.4,1.2 -1.4,0.7 -9.2,-4.7 -18.5,-9.3 -27.7,-14 0.1,0 0,-0.1 -0.2,-0.2 z"
     id="path22"
     inkscape:connector-curvature="0"
     style="clip-rule:evenodd;fill:#fbfbfb;fill-rule:evenodd" /><path
     class="st20"
     d="m 59.9,59.9 c -1.1,1.1 -2,0.9 -3.3,0.2 -7.8,-4 -15.5,-7.9 -23.3,-11.8 -0.2,-0.1 -0.5,-0.2 -0.7,-0.5 1.5,0 2.9,-0.3 4.3,0.4 7.3,3.7 14.7,7.4 22.1,11.1 0.3,0.3 0.6,0.5 0.9,0.6 z"
     id="path24"
     inkscape:connector-curvature="0"
     style="clip-rule:evenodd;fill:#fbfbfb;fill-rule:evenodd" /><path
     class="st4"
     d="m 25.1,86.4 c -1.9,0 -3.3,-1.4 -3.3,-3.2 0,-2 1.3,-3.4 3.3,-3.3 1.9,0 3.3,1.4 3.3,3.2 0,1.9 -1.4,3.3 -3.3,3.3 z"
     id="path26"
     inkscape:connector-curvature="0"
     style="clip-rule:evenodd;fill:#7e77ca;fill-rule:evenodd" /><path
     class="st4"
     d="m 105.7,83.1 c 0,1.9 -1.4,3.3 -3.4,3.3 -1.8,0 -3.2,-1.4 -3.2,-3.3 0,-1.9 1.4,-3.3 3.4,-3.2 1.9,-0.1 3.2,1.3 3.2,3.2 z"
     id="path28"
     inkscape:connector-curvature="0"
     style="clip-rule:evenodd;fill:#7e77ca;fill-rule:evenodd" /><path
     class="st13"
     d="m 75.1,-9 c 0,1.3 0,2.6 0,3.8 0,0.6 -0.2,0.9 -0.8,0.8 -1.2,0 -2.5,0 -3.7,0 -0.7,0 -1,0.2 -1,0.9 0.1,1.2 0,2.4 0,3.6 0,0.7 -0.1,1 -0.9,1 -2.5,0 -5,0 -7.6,0 -0.7,0 -0.9,-0.2 -0.9,-0.9 0,-1.2 0,-2.4 0,-3.6 0,-0.8 -0.2,-1.1 -1,-1 -1.2,0.1 -2.4,0 -3.6,0 -0.6,0 -0.8,-0.2 -0.8,-0.8 0,-2.6 0,-5.1 0,-7.7 0,-0.7 0.2,-0.9 0.9,-0.9 1.1,0 2.2,0 3.4,0 0.9,0.1 1.2,-0.2 1.2,-1.1 -0.1,-1.2 0,-2.3 0,-3.5 0,-0.6 0.2,-0.8 0.8,-0.8 2.6,0 5.1,0 7.7,0 0.7,0 0.9,0.3 0.9,0.9 0,1.1 0,2.2 0,3.4 -0.1,0.9 0.2,1.2 1.1,1.2 1.1,-0.1 2.2,0 3.2,0 0.9,-0.1 1.2,0.2 1.2,1.1 -0.2,1.2 -0.1,2.4 -0.1,3.6 z"
     id="path30"
     inkscape:connector-curvature="0"
     style="clip-rule:evenodd;fill:#211c55;fill-rule:evenodd" /><path
     class="st24"
     d="m 63.6,-4.9 c 0,-2.8 0,-2.8 -2.8,-2.8 -0.4,0 -0.8,-0.1 -1.2,0 -1.2,0.2 -1.5,-0.3 -1.5,-1.4 0,-1.2 0.4,-1.4 1.4,-1.3 1,0.1 2,0 3,0 0.8,0.1 1.1,-0.1 1.1,-1 -0.1,-1.1 0.1,-2.2 0,-3.2 -0.1,-1 0.3,-1.2 1.3,-1.2 1.2,0 1.7,0.2 1.5,1.5 -0.1,1 0,2.1 0,3.1 0,0.7 0.2,0.9 0.9,0.9 1.2,-0.1 2.5,0 3.7,0 0.7,0 1,0.2 0.9,0.9 0,0.3 0,0.6 0,1 0.1,0.8 -0.2,1 -0.9,0.9 -1,-0.1 -1.9,0 -2.9,0 -1.9,0 -1.6,-0.2 -1.6,1.6 0,1 0,2 0,3 0,0.6 -0.1,1 -0.9,0.9 -0.4,0 -0.7,0 -1.1,0 -0.7,0.1 -0.9,-0.3 -0.8,-0.9 -0.1,-0.8 -0.1,-1.4 -0.1,-2 z"
     id="path32"
     inkscape:connector-curvature="0"
     style="clip-rule:evenodd;fill:#fcfcfc;fill-rule:evenodd" /></g>
</svg>