<?xml version="1.0" encoding="utf-8"?>
<!-- Generator: Adobe Illustrator 22.0.0, SVG Export Plug-In . SVG Version: 6.00 Build 0)  -->
<svg version="1.1"
	 id="Capa_1" inkscape:version="0.92.3 (2405546, 2018-03-11)" sodipodi:docname="iconos-01.svg" xmlns:cc="http://creativecommons.org/ns#" xmlns:dc="http://purl.org/dc/elements/1.1/" xmlns:inkscape="http://www.inkscape.org/namespaces/inkscape" xmlns:rdf="http://www.w3.org/1999/02/22-rdf-syntax-ns#" xmlns:sodipodi="http://sodipodi.sourceforge.net/DTD/sodipodi-0.dtd" xmlns:svg="http://www.w3.org/2000/svg"
	 xmlns="http://www.w3.org/2000/svg" xmlns:xlink="http://www.w3.org/1999/xlink" x="0px" y="0px" viewBox="0 0 64 64"
	 style="enable-background:new 0 0 64 64;" xml:space="preserve">
<style type="text/css">
	.st0{fill:#FFFFFF;}
</style>
<sodipodi:namedview  bordercolor="#666666" borderopacity="1" gridtolerance="10" guidetolerance="10" id="namedview37" inkscape:current-layer="Capa_1" inkscape:cx="64" inkscape:cy="54.638243" inkscape:pageopacity="0" inkscape:pageshadow="2" inkscape:window-height="705" inkscape:window-maximized="1" inkscape:window-width="1366" inkscape:window-x="0" inkscape:window-y="30" inkscape:zoom="1.84375" objecttolerance="10" pagecolor="#ffffff" showgrid="false">
	</sodipodi:namedview>
<g>
	<path class="st0" d="M59.5,33.1c-0.6,0-1.2,0-1.7,0c-0.4,0-0.6-0.1-0.6-0.5c-0.3-1.7-1.1-3.1-2.4-4.3c-1.5-1.3-3.3-1.8-5.3-1.8
		c-0.5,0-0.7,0-0.7-0.6c0-0.6,0-1.3,0-1.9c0-0.5-0.1-0.6-0.6-0.6c-6.8,0-13.5,0-20.3,0c-3.3,0-6.7,0-10.1,0c-0.4,0-0.5,0.1-0.5,0.5
		c0,0.7,0,1.4,0,2.1c0,0.4-0.1,0.5-0.5,0.5c-1.2,0-2.4-0.1-3.6,0.1c-3.1,0.6-5.4,2.9-5.9,6C7.1,32.9,7,33,6.7,33c-0.6,0-1.1,0-1.7,0
		c-0.4,0-0.5,0-0.5,0.5c0,1.8,0,3.7,0,5.6c0,0.5,0.1,0.5,0.6,0.5c2.6,0,5.1,0,7.6,0c0.3,0,0.5,0,0.8,0.1c4.5,2.3,9.1,4.6,13.6,6.9
		c0.1,0,0.3,0,0.3,0.3c-4.3,2.2-8.7,4.4-13,6.5c-0.2,0.1-0.4,0.1-0.6,0c-1.6-0.2-2.9,0.5-3.5,1.9c-0.8,1.7,0.1,3.8,1.9,4.4
		c1.8,0.6,3.7-0.5,4.2-2.3c0-0.3,0.1-0.6,0.5-0.7c4.9-2.4,9.7-4.9,14.6-7.4c0.3-0.1,0.6-0.1,0.9,0c4.8,2.5,9.7,4.9,14.6,7.4
		c0.3,0.1,0.4,0.3,0.5,0.6c0.3,1.2,1.1,2,2.3,2.4c1.4,0.4,2.6,0,3.5-1.2c0.8-1,0.9-2.4,0.2-3.5c-0.7-1.2-1.9-1.8-3.3-1.6
		c-0.3,0-0.6,0-0.9-0.1c-1.7-0.9-3.5-1.8-5.3-2.7c-2.5-1.2-5-2.5-7.5-3.8c0.1,0,0.2-0.1,0.2,0c4.6-2.3,9.2-4.6,13.8-7
		c0.2-0.1,0.5-0.1,0.8-0.1c2.7,0,5.3,0,7.9,0c0.3,0,0.5,0,0.5-0.4c0-1.9,0-3.9,0-5.8C59.8,33.1,59.7,33.1,59.5,33.1z M13.4,58.3
		c-0.9,0-1.6-0.7-1.6-1.5c0-1,0.6-1.6,1.6-1.6c0.9,0,1.6,0.7,1.6,1.5C15,57.6,14.3,58.3,13.4,58.3z M50.8,55.1
		c0.9,0,1.5,0.6,1.5,1.5s-0.7,1.6-1.6,1.6c-0.9,0-1.5-0.7-1.5-1.6S49.8,55.1,50.8,55.1z M49.1,28c2.9-0.3,5.8,1.6,6.4,4.4
		c0.1,0.5,0,0.5-0.4,0.5c-1,0-1.9,0-2.9,0c-1,0-2,0-2.9,0c-0.3,0-0.5,0-0.5-0.4c0-1.4,0-2.8,0-4.1C48.8,28.2,48.7,28,49.1,28z
		 M18.8,25.7c0-0.1,0-0.3,0-0.4c0-0.4,0.1-0.5,0.5-0.5c2.9,0,5.7,0,8.5,0c6.2,0,12.4,0,18.6,0c0.2,0,0.6-0.1,0.7,0.1
		c0.1,0.4,0.1,0.9,0,1.3c0,0.2-0.3,0.1-0.5,0.1c-4.1,0-8.1,0-12.1,0c-0.5,0-1,0-1.5,0c-4.5,0-8.9,0-13.4,0
		C19,26.4,18.7,26.3,18.8,25.7z M47.2,32.4c0,0.4-0.1,0.6-0.6,0.6c-4.5,0-9.1,0-13.6,0c-4.5,0-9,0-13.5,0c-0.5,0-0.6-0.1-0.6-0.6
		c0-1.3,0-2.6,0-3.8c0-0.4,0.1-0.6,0.6-0.6c6.5,0,13.1,0,19.6,0c2.5,0,5,0,7.5,0c0.5,0,0.6,0.1,0.6,0.6
		C47.1,29.9,47.1,31.1,47.2,32.4z M8.8,32.5c0.5-2.6,2.9-4.4,5.6-4.5c0.8,0,1.6,0,2.4,0c0.3,0,0.5,0.1,0.5,0.4c0,1.4,0,2.8,0,4.1
		c0,0.3-0.1,0.4-0.4,0.4c-1.3,0-2.6,0-3.9,0c-1.3,0-2.5,0-3.8,0C8.7,33,8.7,32.9,8.8,32.5z M17.3,39.8c-0.1,0-0.2-0.1-0.3-0.2
		c0.7,0,1.4-0.1,2.1,0.2c3.5,1.8,7.1,3.6,10.7,5.4c0.1,0.1,0.3,0.2,0.4,0.3c-0.5,0.5-1,0.4-1.6,0.1C24.8,43.6,21.1,41.7,17.3,39.8z
		 M22.2,39.6c6.6,0,13.1,0,19.6,0c-1.6,0.8-3.2,1.6-4.7,2.4c-1.5,0.8-3.1,1.6-4.7,2.4c-0.2,0.1-0.5,0.1-0.8,0
		C28.6,42.8,25.5,41.2,22.2,39.6z M47.8,54.4c0.1,0,0.5,0,0.3,0.4c-0.1,0.2-0.2,0.6-0.7,0.3c-4.4-2.3-8.9-4.5-13.4-6.8
		c0,0,0,0-0.1-0.1c0.5-0.5,1-0.4,1.5-0.1C39.6,50.2,43.7,52.3,47.8,54.4z M41.6,42.6c-8.2,4.2-16.4,8.3-24.7,12.4
		c-0.7,0.3-0.7,0.3-1.1-0.4c1.4-0.7,2.8-1.4,4.2-2.1c8.1-4.1,16.3-8.2,24.4-12.3c0.9-0.4,1.7-0.6,2.8-0.5
		C45.3,40.7,43.4,41.6,41.6,42.6z M58.3,35.3c0,0.7,0,1.4,0,2.1c0,0.5-0.1,0.6-0.6,0.6c-3.7,0-7.4,0-11.2,0c-13.2,0-26.4,0-39.6,0
		c-0.9,0-0.8,0.1-0.8-0.8c0-0.7,0-1.3,0-2c0-0.5,0.1-0.6,0.6-0.6c5.4,0,10.7,0,16.1,0c3.1,0,6.2,0,9.4,0c8.5,0,16.9,0,25.3,0
		C58.1,34.6,58.3,34.7,58.3,35.3z"/>
	<path class="st0" d="M32.9,20.3c4.4-0.1,7.9-3.6,7.9-8.1c0-4.6-3.9-8.3-8.2-8.2c-4.4,0-8.3,3.7-8.1,8.5
		C24.7,16.7,28.1,20.4,32.9,20.3z M27.7,10.3c0-0.3,0.1-0.4,0.4-0.4c0.5,0,1.1,0,1.6,0c0.4,0,0.6-0.1,0.6-0.5c0-0.6,0-1.1,0-1.7
		c0-0.3,0.1-0.4,0.4-0.4c1.3,0,2.5,0,3.7,0c0.3,0,0.4,0.1,0.4,0.4c0,0.5,0,1.1,0,1.6c0,0.4,0.1,0.6,0.5,0.6c0.5,0,1.1,0,1.5,0
		c0.4,0,0.6,0.1,0.6,0.5c-0.1,0.6,0,1.2,0,1.7c0,0.6,0,1.3,0,1.8c0,0.3-0.1,0.4-0.4,0.4c-0.6,0-1.2,0-1.8,0c-0.3,0-0.5,0.1-0.5,0.4
		c0,0.6,0,1.2,0,1.7c0,0.3,0,0.5-0.4,0.5c-1.2,0-2.4,0-3.7,0c-0.3,0-0.4-0.1-0.4-0.4c0-0.6,0-1.2,0-1.7c0-0.4-0.1-0.5-0.5-0.5
		c-0.6,0-1.2,0-1.7,0c-0.3,0-0.4-0.1-0.4-0.4C27.7,12.7,27.7,11.5,27.7,10.3z"/>
	<path class="st0" d="M30.1,12.8c0.2,0,0.4,0,0.6,0c1.4,0,1.4,0,1.4,1.4c0,0.3,0,0.6,0,1c0,0.3,0,0.5,0.4,0.4c0.2,0,0.3,0,0.5,0
		c0.4,0,0.4-0.1,0.4-0.4c0-0.5,0-1,0-1.5c0-0.9-0.1-0.8,0.8-0.8c0.5,0,0.9,0,1.4,0c0.3,0,0.5,0,0.4-0.4c0-0.2,0-0.3,0-0.5
		c0-0.3-0.1-0.4-0.4-0.4c-0.6,0-1.2,0-1.8,0c-0.3,0-0.4-0.1-0.4-0.4c0-0.5,0-1,0-1.5c0.1-0.6-0.1-0.7-0.7-0.7
		c-0.5,0-0.7,0.1-0.6,0.6c0,0.5,0,1,0,1.5c0,0.4-0.1,0.5-0.5,0.5c-0.5,0-1,0-1.5,0c-0.5,0-0.7,0-0.7,0.6
		C29.3,12.6,29.5,12.9,30.1,12.8z"/>
</g>
</svg>
