<?xml version="1.0" encoding="utf-8"?>
<!-- Generator: Adobe Illustrator 22.0.0, SVG Export Plug-In . SVG Version: 6.00 Build 0)  -->
<svg version="1.1"
	 id="Capa_1" inkscape:version="0.92.3 (2405546, 2018-03-11)" sodipodi:docname="iconos-07.svg" xmlns:cc="http://creativecommons.org/ns#" xmlns:dc="http://purl.org/dc/elements/1.1/" xmlns:inkscape="http://www.inkscape.org/namespaces/inkscape" xmlns:rdf="http://www.w3.org/1999/02/22-rdf-syntax-ns#" xmlns:sodipodi="http://sodipodi.sourceforge.net/DTD/sodipodi-0.dtd" xmlns:svg="http://www.w3.org/2000/svg"
	 xmlns="http://www.w3.org/2000/svg" xmlns:xlink="http://www.w3.org/1999/xlink" x="0px" y="0px" viewBox="0 0 64 64"
	 style="enable-background:new 0 0 64 64;" xml:space="preserve">
<style type="text/css">
	.st0{fill:#FFFFFF;}
</style>
<sodipodi:namedview  bordercolor="#666666" borderopacity="1" gridtolerance="10" guidetolerance="10" id="namedview41" inkscape:current-layer="Capa_1" inkscape:cx="64" inkscape:cy="64" inkscape:pageopacity="0" inkscape:pageshadow="2" inkscape:window-height="705" inkscape:window-maximized="1" inkscape:window-width="1366" inkscape:window-x="0" inkscape:window-y="30" inkscape:zoom="1.84375" objecttolerance="10" pagecolor="#ffffff" showgrid="false">
	</sodipodi:namedview>
<g>
	<path class="st0" d="M56,4.2c0.2-0.6-0.4-0.8-2.1-0.8c-7,0-14,0-21,0c-6.6,0-13.2-0.1-19.7,0c-4.1,0-3.5-0.3-3.6,1.3
		c0,0.5,0.4,0.6,1.6,0.6c14.4,0,28.8,0,43.2,0c1.3,0,1.8-0.2,1.6-0.6C56,4.5,56,4.4,56,4.2z"/>
	<path class="st0" d="M54.8,6.3c-14.5,0-29.1,0-43.6,0c-0.7,0-0.9,0.2-0.9,0.8c0,4,0,7.9,0,11.9c0,11.1,0,22.2,0,33.4
		c-0.3,0.6-0.3,1.3-0.1,1.9c0,1.9,0.1,3.7,0,5.6c0,0.7,0.2,0.9,1.1,0.9c14.5,0,28.9,0,43.3,0c0.9,0,1-0.2,1-0.9
		c0-17.6,0-35.2,0-52.9C55.6,6.5,55.5,6.3,54.8,6.3z M16,17.3c0-1.6,0.1-3.1-0.1-4.6c-0.1-0.6,0.5-0.9,2.7-0.9
		c9.7,0.1,19.4,0.1,29,0c1.9,0,2.6,0.2,2.6,0.8c-0.1,3.2-0.1,6.4,0,9.5c0,0.5-0.5,0.7-2.2,0.7c-9.9,0-19.8,0-29.7,0
		c-1.8,0-2.4-0.2-2.4-0.8C16,20.5,16,18.8,16,17.3z M26.9,39.7c3.2,0,6.4,0,9.7,0c0.6,0,0.8,0.2,0.8,0.8c-0.1,1.2,0,1.2-1.2,1.2
		c-1.6,0-3.1,0-4.7,0c-1.7,0-3.5,0-5.2,0c-0.5,0-0.6-0.1-0.6-0.6C25.6,39.7,25.6,39.7,26.9,39.7z M15.9,39.2c0-1,0-2,0-3
		c0-0.4,0.1-0.5,0.5-0.5c2.1,0,4,0,6.1,0c0.4,0,0.5,0.1,0.5,0.5c0,2.1,0,4,0,6.1c0,0.4-0.2,0.5-0.5,0.5c-2,0-4,0-6,0
		c-0.4,0-0.5-0.1-0.5-0.5C15.9,41.2,15.9,40.2,15.9,39.2z M23,51.5c0,0.4-0.2,0.5-0.5,0.5c-2,0-4,0-6,0c-0.4,0-0.5-0.1-0.5-0.5
		c0-1,0-2,0-3c0-1,0-1.9,0-3c0-0.4,0.1-0.5,0.5-0.5c2.1,0,4,0,6.1,0c0.4,0,0.5,0.2,0.5,0.5C23,47.5,23,49.5,23,51.5z M23,32.9
		c0,0.3-0.1,0.4-0.4,0.4c-2.1,0-4.1,0-6.2,0c-0.4,0-0.5-0.1-0.5-0.5c-0.1-1-0.1-2-0.1-3s0-2,0-3c0-0.4,0.1-0.6,0.5-0.6c2,0,4,0,6,0
		c0.4,0,0.5,0.1,0.5,0.5C23,28.8,23,30.8,23,32.9z M36.2,51.1c-1.6-0.1-3.2-0.1-4.7-0.1c-1.7,0-3.4,0-5.1,0c-0.5,0-0.7-0.1-0.7-0.6
		c0.1-1.3,0-1.3,1.2-1.3c3.2,0,6.5,0,9.7,0c0.5,0,0.8,0.1,0.8,0.8C37.3,51.1,37.3,51.1,36.2,51.1z M48.4,47
		c-3.4-0.1-6.9-0.1-10.3-0.1c-3.7,0-7.3,0-11,0c-1,0-1.5-0.1-1.5-0.6c0.1-1.3,0-1.3,2.6-1.3c7,0,13.9,0,20.9,0
		c1.2,0,1.7,0.1,1.6,0.8C50.7,47,50.8,47,48.4,47z M48.3,37.6c-3.4,0-6.7,0-10.1,0c-3.7,0-7.4,0-11.1,0c-1,0-1.3-0.1-1.3-0.6
		c0.1-1.3,0-1.3,2.8-1.3c6.9,0,13.9,0,20.8,0c1.2,0,1.6,0.2,1.6,0.8C50.8,37.6,50.8,37.6,48.3,37.6z M25.6,31.6
		c0.1-1.4-0.2-1.2,1.2-1.2c1.6,0,3.1,0.1,4.7,0.1c1.7,0,3.5,0,5.2,0c0.5,0,0.6,0.2,0.6,0.6c0,1.3,0,1.3-1.3,1.3c-3.2,0-6.4,0-9.7,0
		C25.8,32.4,25.6,32.2,25.6,31.6z M48,28.2c-6.9,0-13.8,0-20.7,0c-1.3,0-1.7-0.2-1.6-0.8c0.2-1.4-0.4-1.2,2.5-1.2
		c3.3,0,6.7,0.1,10,0.1c3.7,0,7.5,0,11.2,0c1,0,1.3,0.2,1.3,0.6C50.8,28.2,50.8,28.2,48,28.2z"/>
	<path class="st0" d="M19.5,28.2c-1.6,0-1.6,0-1.6,1.6c-0.1,1.6-0.1,1.6,1.5,1.6c1.6,0,1.6,0,1.6-1.7C21.1,28.2,21.1,28.2,19.5,28.2
		z"/>
	<path class="st0" d="M32.4,20.5c15.4,0,15.4,0,15.3-3.4c-0.1-3.2-0.1-3.2-14.3-3.2c-15.4,0-15.4,0-15.5,3.3
		C17.8,20.5,17.8,20.5,32.4,20.5z"/>
	<path class="st0" d="M19.5,40.7c1.5,0,1.5,0,1.5-1.5c0-1.7,0-1.7-1.6-1.7c-1.5,0-1.5,0-1.5,1.5C17.9,40.7,17.9,40.7,19.5,40.7z"/>
	<path class="st0" d="M19.5,46.9c-1.6,0-1.6,0-1.6,1.6c0,1.6,0,1.6,1.6,1.6c1.6,0,1.6,0,1.6-1.6S21.1,46.9,19.5,46.9z"/>
</g>
</svg>
