<svg id="Layer_1" data-name="Layer 1" xmlns="http://www.w3.org/2000/svg" viewBox="0 0 443.94 443.94"><defs><style>.cls-1{fill:#3c4353;}.cls-2{fill:#3178ba;}.cls-3{fill:none;}</style></defs><title>Artboard 10 copy 10</title><path class="cls-1" d="M363.37,150.81c-.12-9.36-5.3-15.56-14.08-17.65a27.12,27.12,0,0,0-6.36-.76c-10.14,0-20.29,0-30.43,0q-94.09,0-188.2.06c-9.1,0-18.23-.59-27.32.5-8.87,1.07-14,6-15.7,14.82a47.38,47.38,0,0,0-.57,8.89q0,43.14,0,86.28c0,27.93,0,55.85.19,83.77.1,12.24,7.3,19,19.61,19q60.87.06,121.74,0h65.34c18.8,0,37.6.05,56.4,0,11.05,0,17.47-5.47,19.24-16.22a42.49,42.49,0,0,0,.31-7q0-59.9,0-119.79C363.53,185.44,363.59,168.12,363.37,150.81ZM338.26,323.73l-214.06-.15c-7.23,0-14.47.08-21.7-.07-5.38-.1-6.14-1-6.16-7.13-.07-23.71,0-47.43-.06-71.15q0-42.91,0-85.82c0-10.49.27-10.84,9.43-10.84q58.2,0,116.39,0v.1H341.47a19.56,19.56,0,0,1,3.24.25,3.22,3.22,0,0,1,2.8,3.25c.17,2,.37,3.94.37,5.91q.11,77.23.14,154.48C348,322.24,346.73,323.73,338.26,323.73Z"/><path class="cls-2" d="M257.6,228.68v20.67H231.76v28.42H208.28V249.35H182.2V228.68h26.08V200.26h23.48v28.42Z"/><path class="cls-3" d="M266.06,108.77a1.14,1.14,0,0,0-1-1.14,7.28,7.28,0,0,0-1.14-.08H222.1v0q-20.4,0-40.79,0c-3.21,0-3.31.12-3.31,3.8v14.45h88.2q0-7.47,0-14.92C266.19,110.15,266.11,109.46,266.06,108.77Z"/><path class="cls-1" d="M178,111.31c0-3.68.1-3.8,3.31-3.8q20.4,0,40.79,0v0h41.84a7.28,7.28,0,0,1,1.14.08,1.14,1.14,0,0,1,1,1.14c.05.69.13,1.38.13,2.07q0,7.45,0,14.92h10.4v-.42c0-6.67,0-13.35-.06-20a6.62,6.62,0,0,0-5.43-6.8,10.59,10.59,0,0,0-2.45-.29H256.93q-36.26,0-72.51,0a90.23,90.23,0,0,0-10.53.2,6.42,6.42,0,0,0-6,5.71,17.87,17.87,0,0,0-.22,3.42q0,9.09,0,18.19H178Z"/></svg>