<svg id="Layer_1" data-name="Layer 1" xmlns="http://www.w3.org/2000/svg" viewBox="0 0 443.94 443.94"><defs><style>.cls-1{fill:#3c4353;}.cls-2{fill:#2977bc;}.cls-3{fill:#2877bc;}</style></defs><title>Artboard 10 copy 8</title><g id="C9PZgr.tif"><path class="cls-1" d="M224,248.68c3.28-3.67,5.4-7.8,7.85-11.72,1.35-2.18,2.65-4.38,4.09-6.49,3.88-5.67,8.89-7.53,15.44-5.51,12.75,3.94,25.46,8,38.18,12,6.66,2.11,9.81,6.8,10.5,13.66q3.1,30.74,6.52,61.43c1.27,11.25-1.94,16.61-12.84,19.69-21.79,6.14-43.62,12.11-65.43,18.2a14.24,14.24,0,0,1-7.9.05c-22.37-6.22-44.77-12.33-67.1-18.66-8.91-2.52-12.41-7.76-11.53-16.88,2.11-21.66,4.34-43.3,6.53-64.95.61-6,3.61-10.31,9.44-12.16,14.17-4.47,28.33-9,42.62-13,4.71-1.35,8.7,1.2,11.34,5.14,3.3,4.92,6.25,10.07,9.39,15.1C221.93,246,222.94,247.22,224,248.68Z"/><path class="cls-1" d="M161.85,223.65,153,226.73c-10.12,3.52-15.37,11-16.56,21.3-1.64,14.22-2.86,28.49-4.27,42.74-.3,3-.74,6-.91,9a3,3,0,0,1-2.89,3.2,11.88,11.88,0,0,0-2.35.66c-11.61,4.82-23,4.27-34.86.16-11.28-3.93-23-6.6-34.49-9.9C47.7,291.35,45.39,288.2,46.25,279c1.48-15.88,3.18-31.74,4.85-47.6.48-4.58,2.84-7.87,7.32-9.27,10.63-3.33,21.26-6.7,32-9.76,3.78-1.08,6.83,1,8.9,4.11,2.62,4,5.1,8,7.55,12.15,1.23,2.05,2.14,2,3.33,0q3.3-5.55,6.82-11c3.3-5.05,6.84-6.44,12.5-4.71,9.55,2.91,19.06,6,28.57,9C159.14,222.29,160.15,222.88,161.85,223.65Z"/><path class="cls-1" d="M284.59,223.82c2.17-1.8,4.52-2.14,6.71-2.83,8.51-2.72,17-5.49,25.57-8.07,5.48-1.65,8.65-.38,12,4.38,3,4.27,5.08,9.15,8.63,13.28,2.52-2.26,3.8-5.28,5.52-8,1.36-2.16,2.55-4.44,4-6.51,2.56-3.53,5.91-4.52,10.1-3.24,9.88,3,19.75,6.09,29.65,9,5.42,1.6,7.8,5.24,8.32,10.71,1.46,15.17,3.08,30.33,4.7,45.48,1.05,9.78-1.28,13.31-10.76,16-15.54,4.35-31.09,8.66-46.61,13.09a17,17,0,0,1-9.93,0c-4.55-1.38-9.11-2.84-13.76-3.77-3-.59-3.81-2.05-4.06-4.87-1.48-16.1-3.25-32.18-4.69-48.29-1.18-13.19-8-21.39-20.78-24.79C287.78,225,286.37,224.41,284.59,223.82Z"/><path class="cls-1" d="M226.19,126.8a42.13,42.13,0,0,1,31,17.36c5.31,7.16,5.51,15.35,2.94,23.66-.64,2-.85,3.36,1.38,4.84,3.67,2.46,4.24,7.12.67,9.85-8.26,6.32-13.17,15.26-19.53,23.07-10.86,13.33-25.76,13.38-36.9.3-2.71-3.18-5-6.68-7.46-10.11-2.68-3.82-5.53-7.4-9.45-10.15-5-3.49-7.29-9.67-.92-14,1.31-.89.87-1.86.52-3-4.34-14.34-.66-24.81,11.64-33.34A44.17,44.17,0,0,1,226.19,126.8Z"/><path class="cls-1" d="M106.08,139.36a30.44,30.44,0,0,1,23.36,12c4,5.15,4.31,11.16,2.48,17.25-.51,1.68-.46,2.57,1,3.78,2.69,2.15,2.92,5,.17,7.13-5.62,4.41-9.16,10.44-13.47,15.9-8.09,10.25-19.06,10.23-27.36.08-1.91-2.33-3.55-4.89-5.32-7.34a28.54,28.54,0,0,0-6.21-6.54c-4.29-3.2-4.52-6-.88-10a2.08,2.08,0,0,0,.43-2.47c-4.15-11.22,1.61-20.17,11.19-25.53C96,141.08,100.73,139.2,106.08,139.36Z"/><path class="cls-1" d="M363.2,162.44a17,17,0,0,1-.49,4.14c-1,2.66-1.08,4.63,1.4,6.85,2.16,1.92,1.2,4.83-.93,6.4-5.3,3.91-8.72,9.29-12.36,14.54a24.47,24.47,0,0,1-2,2.42c-7.59,8.41-18,8.37-25.39-.22a95.27,95.27,0,0,1-5.81-7.85,29.32,29.32,0,0,0-6.61-7.1c-4.29-3.15-4.45-6.13-.82-10.05a1.82,1.82,0,0,0,.49-2c-3.18-14.45,2.34-23.67,17.05-28.68,11.3-3.84,25.75,1.09,32.4,11A17.47,17.47,0,0,1,363.2,162.44Z"/><path class="cls-2" d="M157.53,170.52a3.78,3.78,0,0,1-.88-.86,2.52,2.52,0,0,1-.31-1.34c.58-5.87-2-9.59-7.49-11.63-1.92-.71-2-2.14,0-3.19a9.17,9.17,0,0,1,1.92-.8c4.31-1,6.31-3.84,6.52-8.18.07-1.33,0-3.09,1.56-3.55s2.32,1.1,2.9,2.08c2.51,4.29,6.15,5.08,10.62,3.92,1.22-.32,2.75-.78,3.5.57.62,1.12-.64,2.1-1.1,3.12a7.52,7.52,0,0,1-1.07,1.79c-2.09,2.43-2.33,4.91-.45,7.58a10.55,10.55,0,0,1,1,2.21c.42,1,1.55,2.1.72,3.19-1,1.26-2.39.51-3.53.06-4.42-1.74-8.06-.88-11.05,2.89A5.41,5.41,0,0,1,157.53,170.52Z"/><path class="cls-2" d="M274.14,152.64a12,12,0,0,1,2.52.17c3.87,1.31,6.43-.37,8.48-3.49a13.5,13.5,0,0,1,2.1-2.31c1.22-1.17,2.05-.76,2.5.75a1,1,0,0,1,.1.33c0,6,3,9.51,8.81,11,2.2.58,1.81,2.07.08,3.18a10.53,10.53,0,0,1-1.83,1c-4,1.49-5.86,4.21-5.36,8.57.16,1.32.22,3.11-1.13,3.79-1.58.81-2.58-.85-3.36-1.84-2.94-3.79-6.53-4.21-10.75-2.61-1.13.43-2.64,1-3.52-.2-.73-1,.05-2.34.68-3.24,2.89-4.15,2.19-7.93-.81-11.66-.69-.85-1.75-1.95-1-3.1C272.25,152.08,273.57,152.67,274.14,152.64Z"/><path class="cls-2" d="M260.08,196.67c4.38,2,6.62-1.22,9-4.35.72-.93,1.38-2.5,2.89-2,1.22.37,1.35,1.84,1.4,3,.21,5,2.95,7.69,7.68,8.76,1.06.24,2.54.58,2.65,1.91s-1.3,1.91-2.3,2.31c-4.72,1.88-6.78,5.19-6,10.28.17,1.11.11,2.58-1.06,3.1s-2.16-.73-2.83-1.56c-3.22-4.05-7.13-4.64-11.73-2.74-1,.42-2.37,1-3.23-.1-.72-.91.13-2,.48-2.92a9.91,9.91,0,0,1,.82-1.92c2-3.18,1.48-6-.86-8.82-1-1.16-2.67-2.67-1.79-4.21S258.17,197,260.08,196.67Z"/><path class="cls-2" d="M207.54,97.52c-3.51,5.35-1.74,10.09,2.66,14.47,1,1,.61,2.23-1.15,2.35a6.49,6.49,0,0,1-1.39,0c-5.19-.88-8.64,1.23-10.68,6-.41,1-1,2.38-2.44,2.09-1.17-.23-1.19-1.58-1.58-2.51a10.88,10.88,0,0,1-.79-2.31c-.57-3.3-2.57-5-5.83-5.46-1.79-.28-4.5-.29-4.91-1.91-.54-2.11,2.16-3.08,3.72-4,3.56-2.12,3.9-5.08,3.19-8.68-.25-1.28-.82-3,.55-3.91s2.72.51,3.57,1.38c3.69,3.77,7.57,3,11.69,1C205.41,95.42,207.09,94.45,207.54,97.52Z"/><path class="cls-2" d="M52.23,187.37a3.78,3.78,0,0,1-1-.74,2.5,2.5,0,0,1-.49-1.29c-.18-5.9-3.21-9.25-8.92-10.56-2-.46-2.29-1.86-.41-3.17a9.3,9.3,0,0,1,1.8-1.05c4.15-1.58,5.77-4.62,5.42-8.94-.11-1.34-.37-3.07,1.08-3.73s2.44.79,3.14,1.69c3.05,3.93,6.76,4.24,11,2.51,1.17-.47,2.63-1.12,3.55.12.75,1-.36,2.16-.69,3.23a7.49,7.49,0,0,1-.83,1.92c-1.76,2.68-1.68,5.17.53,7.57A10.91,10.91,0,0,1,67.76,177c.54,1,1.8,1.88,1.12,3.06-.8,1.38-2.3.82-3.49.52-4.6-1.16-8.1.17-10.58,4.29A5.45,5.45,0,0,1,52.23,187.37Z"/><path class="cls-2" d="M92.39,108.52c-2.79,5.76-.42,10.23,4.51,14,1.07.82.89,2.13-.83,2.47a5.59,5.59,0,0,1-1.38.22c-5.27-.19-8.41,2.34-9.82,7.35-.28,1-.66,2.49-2.14,2.39-1.19-.08-1.39-1.42-1.9-2.29a10.79,10.79,0,0,1-1.08-2.18c-1-3.21-3.18-4.58-6.48-4.66-1.81,0-4.5.29-5.12-1.27-.81-2,1.74-3.33,3.18-4.46,3.25-2.57,3.2-5.54,2-9-.42-1.24-1.21-2.87,0-4s2.76.16,3.71.91c4.15,3.26,7.89,2,11.71-.56C90,106.71,91.55,105.53,92.39,108.52Z"/><path class="cls-2" d="M359.25,106.47a3.86,3.86,0,0,1,1.21-.22,2.5,2.5,0,0,1,1.28.52c4.45,3.87,9,3.92,13.81.62,1.69-1.16,2.92-.42,2.6,1.85a8.56,8.56,0,0,1-.46,2c-1.65,4.12-.52,7.37,2.9,10,1.05.83,2.5,1.82,2,3.33s-2.25,1.25-3.38,1.16c-5-.43-7.7,2.08-9.34,6.4-.45,1.17-1,2.69-2.49,2.52-1.27-.15-1.35-1.73-1.91-2.7a7.22,7.22,0,0,1-.84-1.91c-.77-3.11-2.66-4.74-5.93-4.75a11.2,11.2,0,0,1-2.39-.46c-1.08-.26-2.6,0-3-1.26-.47-1.52,1-2.24,2-2.91,4-2.6,5.37-6.07,4-10.68A5.41,5.41,0,0,1,359.25,106.47Z"/><path class="cls-2" d="M389.86,189.49c-2.33-6-7.22-7.25-13.34-6.2-1.33.23-2.17-.8-1.26-2.3a6.64,6.64,0,0,1,.78-1.15c3.72-3.74,4-7.76,1.27-12.2-.55-.89-1.38-2.18-.3-3.2.87-.82,2-.06,3,.16a10.82,10.82,0,0,1,2.33.7c3,1.44,5.53.76,7.83-1.6,1.26-1.3,2.84-3.5,4.41-2.9,2,.78,1.26,3.54,1.11,5.36-.32,4.13,1.9,6.12,5.24,7.63,1.19.53,2.93,1.06,2.87,2.71-.06,1.8-2,1.92-3.19,2.11-5.21.83-6.8,4.45-7.54,9C392.81,189,392.62,190.9,389.86,189.49Z"/><path class="cls-3" d="M187.81,217.05c-.61-.17-1-.23-1.28-.36-4.75-1.9-8.78-1.22-12,3.08-.64.86-1.54,2.09-2.87,1.49-1.06-.48-1.08-1.78-1-2.8.33-5-1.45-8.5-6.39-10.17-1-.35-2.48-.89-2.47-2.17s1.44-1.83,2.53-2.07c5.05-1.1,7.3-4.33,7.54-9.31.05-1.11,0-2.52,1.5-2.82,1.23-.25,1.9.85,2.41,1.71,2.62,4.35,6.37,5.59,11.16,4.32,1.09-.29,2.41-.7,3.17.54.66,1.06-.13,2.13-.78,2.84-3.81,4.11-3.06,8.24-.41,12.56C189.83,215.35,190.42,217.05,187.81,217.05Z"/><path class="cls-3" d="M263.75,101.88c-1.6,4.31,2,6,4.88,8.12.92.69,2.32,1.27,2.2,2.51-.14,1.56-1.83,1.48-3,1.87a16.26,16.26,0,0,1-3,.87c-2.57.3-3.71,1.74-4.34,4.19-.54,2.06-.78,5.27-2.85,5.59-2.23.34-3-2.85-4.06-4.65-1.35-2.25-3-3.37-5.63-3.11a28.37,28.37,0,0,1-4.87-.13c-1.58-.11-2.35-1.13-1.1-2.23,4.87-4.29,5.41-9.19,2.84-14.89-.7-1.53.47-2,1.92-1.71a1.12,1.12,0,0,1,.32.12c5.1,3.09,9.68,2.58,14-1.6,1.7-1.63,2.67-.56,2.65,1.54C263.73,99.41,263.75,100.46,263.75,101.88Z"/></g></svg>