<svg id="Layer_1" data-name="Layer 1" xmlns="http://www.w3.org/2000/svg" viewBox="0 0 443.94 443.94"><defs><style>.cls-1{fill:#3c4353;}.cls-2{fill:#fff;}.cls-3{fill:#3178ba;}</style></defs><title>Artboard 10 copy 11</title><g id="C9PZgr.tif"><path class="cls-1" d="M223.88,206.25c3.56-4,5.87-8.48,8.52-12.74,1.47-2.36,2.89-4.76,4.45-7,4.22-6.15,9.66-8.18,16.77-6,13.85,4.28,27.66,8.71,41.48,13.09,7.24,2.29,10.66,7.39,11.41,14.84q3.36,33.39,7.08,66.74c1.37,12.21-2.11,18-13.95,21.38-23.67,6.68-47.39,13.16-71.08,19.78a15.64,15.64,0,0,1-8.58.05c-24.3-6.76-48.63-13.4-72.9-20.27-9.68-2.74-13.47-8.44-12.51-18.35,2.28-23.52,4.71-47,7.09-70.55.66-6.54,3.92-11.2,10.26-13.2,15.39-4.86,30.77-9.75,46.29-14.18,5.12-1.47,9.45,1.29,12.32,5.58,3.58,5.35,6.78,10.94,10.2,16.4C221.66,203.28,222.75,204.66,223.88,206.25Z"/><path class="cls-1" d="M156.38,179.06l-9.64,3.35c-11,3.82-16.7,12-18,23.13-1.78,15.45-3.11,31-4.64,46.43-.32,3.28-.8,6.54-1,9.82a3.32,3.32,0,0,1-3.15,3.48,11.79,11.79,0,0,0-2.55.72c-12.61,5.23-25,4.64-37.87.16-12.25-4.26-25-7.16-37.46-10.75-9.71-2.8-12.22-6.22-11.29-16.21,1.6-17.25,3.46-34.48,5.26-51.71.52-5,3.09-8.54,8-10.06,11.56-3.62,23.1-7.28,34.74-10.61,4.11-1.17,7.42,1,9.67,4.46,2.84,4.33,5.54,8.76,8.19,13.2,1.34,2.24,2.33,2.13,3.62,0,2.4-4,4.86-8,7.41-11.9,3.58-5.49,7.43-7,13.59-5.12,10.37,3.17,20.7,6.49,31,9.78C153.45,177.58,154.54,178.22,156.38,179.06Z"/><path class="cls-1" d="M289.72,179.24c2.36-2,4.91-2.32,7.29-3.08,9.25-2.95,18.48-6,27.78-8.76,5.95-1.8,9.39-.41,13,4.75,3.26,4.65,5.53,9.94,9.38,14.43,2.73-2.45,4.12-5.74,6-8.68,1.49-2.35,2.77-4.83,4.4-7.08,2.78-3.84,6.41-4.91,11-3.52,10.73,3.28,21.45,6.62,32.21,9.8,5.89,1.74,8.46,5.69,9,11.64,1.59,16.48,3.35,32.94,5.11,49.41,1.14,10.61-1.39,14.45-11.69,17.34-16.88,4.73-33.77,9.41-50.63,14.22a18.45,18.45,0,0,1-10.79,0,153,153,0,0,0-15-4.09c-3.28-.65-4.13-2.24-4.41-5.3-1.6-17.49-3.53-35-5.1-52.46-1.28-14.33-8.73-23.23-22.57-26.93C293.19,180.48,291.66,179.88,289.72,179.24Z"/><path class="cls-1" d="M226.28,73.85a45.7,45.7,0,0,1,33.65,18.86c5.78,7.77,6,16.67,3.2,25.69-.69,2.22-.93,3.65,1.49,5.27,4,2.66,4.61,7.73.74,10.7-9,6.86-14.31,16.57-21.22,25.06-11.79,14.48-28,14.53-40.09.32-2.94-3.45-5.49-7.25-8.1-11-2.91-4.16-6-8-10.26-11-5.41-3.8-7.93-10.51-1-15.24,1.42-1,.94-2,.56-3.29-4.71-15.58-.71-26.95,12.64-36.22A48,48,0,0,1,226.28,73.85Z"/><path class="cls-1" d="M95.8,87.49a33.1,33.1,0,0,1,25.38,13.05c4.39,5.59,4.68,12.12,2.69,18.73-.55,1.83-.49,2.8,1.14,4.11,2.92,2.34,3.17,5.41.18,7.75-6.11,4.79-10,11.34-14.63,17.27-8.79,11.13-20.71,11.11-29.73.09-2.08-2.54-3.86-5.31-5.77-8a31.35,31.35,0,0,0-6.75-7.1c-4.67-3.48-4.92-6.55-1-10.87a2.25,2.25,0,0,0,.47-2.69C63.31,107.67,69.57,97.94,80,92.11,84.88,89.36,90,87.32,95.8,87.49Z"/><path class="cls-1" d="M375.12,112.56a18.87,18.87,0,0,1-.53,4.5c-1.07,2.89-1.18,5,1.51,7.44,2.35,2.09,1.3,5.25-1,6.95-5.75,4.25-9.46,10.1-13.42,15.8a27.29,27.29,0,0,1-2.17,2.63c-8.25,9.14-19.54,9.09-27.59-.24-2.3-2.67-4.28-5.63-6.31-8.53a31.67,31.67,0,0,0-7.18-7.71c-4.66-3.42-4.83-6.66-.89-10.92a2,2,0,0,0,.54-2.23c-3.46-15.69,2.54-25.71,18.51-31.15,12.28-4.17,28,1.18,35.21,12A19.07,19.07,0,0,1,375.12,112.56Z"/></g><path class="cls-2" d="M290.39,256c-11,2.09-25.08,7.65-33.47,11.22a58.32,58.32,0,1,0,14.43,18.36c7-5.84,15.43-12.46,21-15.18C303.39,265.07,294.23,255.86,290.39,256Z"/><g id="a9Vcu4.tif"><path class="cls-3" d="M260.36,290.62a44,44,0,0,1,4,9.92,48.11,48.11,0,1,1-54.76-34.48c13.44-2.33,25.74.61,36.85,8.55.81.58.9,1,.31,1.75-.89,1.17-1.72,2.4-2.5,3.64-.45.73-.79.71-1.45.21a40.75,40.75,0,0,0-18.72-7.85A41.47,41.47,0,1,0,259,319.69a40.44,40.44,0,0,0-3.13-23.19,1.38,1.38,0,0,1,.32-1.85C257.6,293.35,258.94,292,260.36,290.62Z"/><path class="cls-3" d="M221.1,340l-9.31-10.46c-6.21-7-12.41-14-18.66-21-.63-.71-.54-1,.19-1.49,3.06-2.14,6.11-4.32,9.11-6.55.72-.53,1-.44,1.6.2q7.59,8.75,15.25,17.44c.9,1,.88,1,1.6-.11,9.88-15.32,21.72-28.85,36.42-39.75a87.51,87.51,0,0,1,23.55-12.65c1.23-.43,1.12-.41,1.27.92s-.43,1.9-1.57,2.48a101.9,101.9,0,0,0-24.14,17.76c-14.7,14.18-25.58,31-33.77,49.6C222.15,337.58,221.67,338.72,221.1,340Z"/></g><path class="cls-2" d="M387.55,247.41a77.7,77.7,0,0,0-13.87,4.65,24.22,24.22,0,1,0,6,7.61,53.81,53.81,0,0,1,8.72-6.29C392.94,251.17,389.14,247.35,387.55,247.41Z"/><g id="a9Vcu4.tif-2" data-name="a9Vcu4.tif"><path class="cls-3" d="M375.11,261.76a18.09,18.09,0,0,1,1.67,4.11,19.94,19.94,0,1,1-22.69-14.29,19.61,19.61,0,0,1,15.27,3.54c.33.24.37.41.13.73-.37.48-.71,1-1,1.51-.19.3-.33.29-.6.08a16.87,16.87,0,0,0-7.76-3.25,17.18,17.18,0,1,0,14.46,19.62,16.79,16.79,0,0,0-1.3-9.61.57.57,0,0,1,.14-.77C374,262.89,374.52,262.33,375.11,261.76Z"/><path class="cls-3" d="M358.84,282.24,355,277.9q-3.87-4.35-7.73-8.69c-.27-.29-.23-.4.07-.61,1.27-.89,2.53-1.79,3.78-2.72.3-.22.43-.18.66.09q3.15,3.61,6.32,7.22c.37.43.37.42.67,0a61.9,61.9,0,0,1,15.09-16.48,36.21,36.21,0,0,1,9.76-5.24c.51-.18.47-.17.53.38s-.18.79-.65,1a42.06,42.06,0,0,0-10,7.36,63.7,63.7,0,0,0-14,20.56C359.27,281.22,359.07,281.69,358.84,282.24Z"/></g><path class="cls-2" d="M118.87,241.41A77.55,77.55,0,0,0,105,246.06a24.13,24.13,0,1,0,6,7.61,53,53,0,0,1,8.72-6.29C124.25,245.17,120.46,241.35,118.87,241.41Z"/><g id="a9Vcu4.tif-3" data-name="a9Vcu4.tif"><path class="cls-3" d="M106.42,255.76a18.09,18.09,0,0,1,1.67,4.11A19.94,19.94,0,1,1,85.4,245.58a19.61,19.61,0,0,1,15.27,3.54c.34.24.37.41.13.73-.37.48-.71,1-1,1.51-.18.3-.32.29-.6.08a16.87,16.87,0,0,0-7.76-3.25,17.18,17.18,0,1,0,14.46,19.62,16.79,16.79,0,0,0-1.3-9.61.57.57,0,0,1,.14-.77C105.27,256.89,105.83,256.33,106.42,255.76Z"/><path class="cls-3" d="M90.15,276.24l-3.86-4.34q-3.87-4.35-7.73-8.69c-.27-.29-.23-.4.07-.61,1.27-.89,2.53-1.79,3.78-2.72.3-.22.43-.18.66.09q3.15,3.61,6.32,7.22c.37.43.37.42.67,0a61.9,61.9,0,0,1,15.09-16.48,36.36,36.36,0,0,1,9.76-5.24c.51-.18.47-.17.53.38s-.18.79-.65,1a42.27,42.27,0,0,0-10,7.36,63.7,63.7,0,0,0-14,20.56C90.58,275.22,90.38,275.69,90.15,276.24Z"/></g></svg>