<svg id="Layer_1" data-name="Layer 1" xmlns="http://www.w3.org/2000/svg" viewBox="0 0 443.94 443.94"><defs><style>.cls-1{fill:#fdfdfc;}.cls-2{fill:#3c4353;}.cls-3{fill:#2877bc;}</style></defs><title>Artboard 10 copy 7</title><g id="YB1iQ3.tif"><path class="cls-1" d="M207.66,415.19q-93.27,0-186.55.06c-2.42,0-3.09-.33-3.09-3q.14-186.55,0-373.11c0-2.77.7-3.17,3.26-3.17q186.38.12,372.74,0c2.52,0,3.28.33,3.28,3.15q-.15,186.56,0,373.1c0,2.62-.63,3-3.08,3Q300.94,415.13,207.66,415.19Z"/><path class="cls-2" d="M182.69,225.54h29.8c22.45,0,44.9.08,67.36,0,3.15,0,3.52.7,2.78,3.68q-21.5,86.67-42.77,173.39c-.38,1.55-.78,3.1-1.1,4.67-.26,1.27-.55,2.43-2.13,2.59-2,.2-1.7-1.55-2-2.53q-8.56-29.6-17-59.22-17.16-59.91-34.35-119.83C183.06,227.45,182.93,226.63,182.69,225.54Z"/><path class="cls-2" d="M73.32,224.93c7.5,0,14.85,0,22.2,0q29.06.06,58.12.14a30.33,30.33,0,0,1,6.26.38c3.39.75,5.28,3,6.38,6.43Q183.5,285,200.94,338.13q11.1,34,22.09,68.06c.29.93,1.73,2.28-.12,3.17s-2-1-2.66-1.8Q148,318.27,75.79,228.91C74.9,227.81,73.69,226.86,73.32,224.93Z"/><path class="cls-2" d="M393.31,225.8c-13.09,16.85-25.84,33.31-38.62,49.75q-51.33,66-102.7,132c-.8,1-1.37,3.36-3.07,2.42s-.06-2.72.32-4q26.42-88.76,52.91-177.48c.54-1.82.93-3,3.3-3,28.75.08,57.5,0,86.25.05A12.66,12.66,0,0,1,393.31,225.8Z"/><path class="cls-2" d="M291.62,208.69,248,131.78h87.17Z"/><path class="cls-2" d="M174.46,208.71c-14.63-25.79-29-51.09-43.57-76.84h87C203.47,157.4,189.12,182.79,174.46,208.71Z"/><path class="cls-2" d="M394.45,210.72H376.14c-21.72,0-43.44-.07-65.15,0-3.1,0-3.92-.25-2.06-3.4,13.38-22.56,26.58-45.22,39.86-67.83.54-.92.8-2.09,2.19-2.7Z"/><path class="cls-2" d="M232.64,136.06c14.6,24.86,28.9,49.18,43.41,73.88H189.33Z"/><path class="cls-2" d="M158.59,210H72c14.46-24.7,28.71-49.05,43.23-73.84Z"/><path class="cls-3" d="M106.7,106.39c-2.17-4.7-4.27-9-6.09-13.32A23.56,23.56,0,0,0,87.48,79.82c-4.39-1.84-8.69-3.91-13.65-6.15,5.83-2.8,11-5.36,16.32-7.81a17.18,17.18,0,0,0,9-9.31c2.2-5.29,4.54-10.52,7-16.26A50.47,50.47,0,0,1,112,52.19a25.52,25.52,0,0,0,16.37,16.22c3.69,1.3,7.17,3.2,11.12,5-7.21,4.26-15.6,5.78-21.4,11.62S110.8,99.08,106.7,106.39Z"/><path class="cls-3" d="M201.61,54.23c2.51,5.32,4.87,10,7,14.82a20.48,20.48,0,0,0,11.15,11.2c4.82,2.06,9.53,4.35,14.78,6.76-7.34,4.16-15.56,5.74-21.34,11.47s-7.41,14-11.56,21.58c-1.81-3.91-3.67-7.27-5-10.85a27.14,27.14,0,0,0-16.79-17c-3.53-1.34-6.89-3.13-11-5,5-2.38,9.22-4.71,13.69-6.51a21.7,21.7,0,0,0,12.83-12.92C197,63.35,199.3,59.15,201.61,54.23Z"/><path class="cls-3" d="M19.52,141.42c5.45-2.57,9.92-4.88,14.55-6.81a21.15,21.15,0,0,0,11.85-12c1.95-4.63,4.22-9.13,6.49-14,2.27,3.72,4.39,7.17,5.41,11C60,128,65.54,132.91,73.2,135.81a124.13,124.13,0,0,1,12.07,5.5c-3.48,1.63-6.3,3.23-9.31,4.3a29.84,29.84,0,0,0-19.09,19.1c-1.1,3.1-2.7,6-4.35,9.63-2.92-6.21-5.66-11.82-8.18-17.53A13.89,13.89,0,0,0,37,149.43C31.41,146.91,25.85,144.33,19.52,141.42Z"/></g></svg>