<svg id="Layer_1" data-name="Layer 1" xmlns="http://www.w3.org/2000/svg" viewBox="0 0 443.94 443.94"><defs><style>.cls-1{fill:#b12424;}.cls-2{fill:#26387a;}.cls-3{fill:#9a999f;}.cls-4{fill:#9c9ba0;}.cls-5{fill:#5b5c92;}.cls-6{fill:#64335d;}.cls-10,.cls-12,.cls-7{fill:#ac2424;}.cls-8{fill:#144c94;}.cls-9{fill:none;stroke:#c9322a;stroke-miterlimit:10;stroke-width:7px;}.cls-10{font-size:51.99px;font-family:HelveticaNeueLTStd-BdEx, Helvetica Neue LT Std;}.cls-10,.cls-12{font-weight:700;}.cls-11{letter-spacing:-0.28em;}.cls-12{font-size:26.3px;font-family:HelveticaNeueLTStd-Bd, Helvetica Neue LT Std;}</style></defs><title>Artboard 10 copy 5</title><path class="cls-1" d="M163.18,271.8a7.13,7.13,0,0,0-1.75-2q-12.17-12.21-24.36-24.38c-.72-.73-1.43-1.48-2.11-2.17.29-.65.74-.47,1.1-.47h57.11c.4,0,.81,0,1.21,0a.69.69,0,0,1,.72.76c0,.72,0,1.45,0,2.17v55c0,.69,0,1.39,0,2.28a4.06,4.06,0,0,1-1.83-1.36q-7.44-7.39-14.84-14.82c-2.1-2.1-4.2-4.21-6.31-6.3-.57-.56-1.18-1.08-1.78-1.61A17.69,17.69,0,0,1,163.18,271.8Z"/><path class="cls-1" d="M236.74,302.92a2.73,2.73,0,0,1-.29-1.76V245c0-.56.05-1.12.07-1.68a.51.51,0,0,1,.47-.46c.72-.05,1.45-.05,2.17-.05h56.4c.3,0,.64-.1.87.2,0,.15,0,.36,0,.44Z"/><path class="cls-1" d="M134.55,201.46c1-1,1.51-1.59,2.06-2.14l56.4-56.4c.45-.46.91-.91,1.38-1.34a.78.78,0,0,1,.44-.11c.2,0,.26.13.26.33,0,.64,0,1.28,0,1.93v55.18c0,.48,0,1,0,1.44,0,.92-.18,1.06-1.16,1.1-.56,0-1.13,0-1.69,0H134.55Z"/><path class="cls-1" d="M273.7,178.11l21.48,21.48a16.57,16.57,0,0,1,1.14,1.24.32.32,0,0,1-.19.53c-.72.07-1.44.09-2.16.09H239c-.65,0-1.29,0-1.93,0a.6.6,0,0,1-.58-.63c0-.56,0-1.12,0-1.68V143.63c0-.56,0-1.12.05-1.68a.68.68,0,0,1,.23-.36c.15-.14.28-.1.43,0,.57.56,1.17,1.1,1.73,1.67l22,22c.63.63,1.29,1.21,1.94,1.81a25.9,25.9,0,0,1,6.48,6.56c.82,1,2,1.78,2.69,3-.47.74-1.32.7-2,1a12.94,12.94,0,0,1-1.87.08,6.55,6.55,0,0,0-2.2.22,7.5,7.5,0,0,1-1.49.26c-3.47.28-6.9.88-10.34,1.41-.62.49-1.27.19-1.69.25a2.25,2.25,0,0,0,2-.42c3.78-.31,7.5-1.08,11.27-1.42a9.37,9.37,0,0,1,2.94-.29C270.3,177.82,272.09,176.87,273.7,178.11Z"/><path class="cls-2" d="M203.65,236.33c.37-.61.8-1.26,1.17-1.94,1.24-2.31,1-3.75-.79-5.65-.61-.64-1.27-1.23-1.86-1.88a14.87,14.87,0,0,1-4.2-10c-.06-6.37,2.9-11,8.57-13.61,5.9-2.73,11.73-2.07,17.16,1.54a23.84,23.84,0,0,1,5.21,5,8.92,8.92,0,0,1,2,4.83c.13,1.27.24,2.55.3,3.83a7.05,7.05,0,0,0,1.65,4.66,3,3,0,0,1,.42.59,1.68,1.68,0,0,1-.36,2.37,9.68,9.68,0,0,1-1,.74,2.88,2.88,0,0,0-1,3.22c.13.54.36,1.06.45,1.61a2.24,2.24,0,0,1-1.62,2.83,12.47,12.47,0,0,1-2.58.55,17.52,17.52,0,0,1-1.92.05,9.55,9.55,0,0,0-1.2.06,3,3,0,0,0-2.66,4,11.51,11.51,0,0,0,.64,1.55,1.12,1.12,0,0,1-.54,1.61,2.91,2.91,0,0,1-2.77.18,11.9,11.9,0,0,1-1.68-.92,26.46,26.46,0,0,0-12.47-4.71A1,1,0,0,1,203.65,236.33Z"/><path class="cls-2" d="M163.18,271.8a96.06,96.06,0,0,1,7.16,7.11,13.7,13.7,0,0,1-1.61.43,151.07,151.07,0,0,1-27.39,1,60.83,60.83,0,0,1-15.81-2.85,27.12,27.12,0,0,1-8.11-4.12,13.77,13.77,0,0,1-5.52-8.48,16,16,0,0,1,.59-7.84,33,33,0,0,1,4.7-9.17,68.71,68.71,0,0,1,9.41-10.61,125.91,125.91,0,0,1,17.77-13.93c.54-.1.76.12.68.66-2.1,1.74-4.23,3.45-6.28,5.24a72.45,72.45,0,0,0-10,10.42,37.23,37.23,0,0,0-4.75,7.8,19.33,19.33,0,0,0-1.63,5.77,12.76,12.76,0,0,0,5.23,12,25.66,25.66,0,0,0,7.9,4,52.49,52.49,0,0,0,11.55,2.33,91.63,91.63,0,0,0,14,.41C161.75,272,162.46,271.87,163.18,271.8Z"/><path class="cls-2" d="M268,177.25l1.85-.15c.81-.38,1.73.07,2.54-.33a141.1,141.1,0,0,1,16.82-.85,79.61,79.61,0,0,1,19.33,2.23,39.49,39.49,0,0,1,6.57,2.33,24.42,24.42,0,0,1,3.75,2.15c5.63,4,7.65,9.61,5.82,16.24a28.72,28.72,0,0,1-3,6.81,48.85,48.85,0,0,1-4.59,6.47,84.42,84.42,0,0,1-9.28,9.44c-.24.2-.45.47-.82.31s-.25-.39-.25-.62a24.73,24.73,0,0,0-1.86-8.9,1.4,1.4,0,0,1,.3-1.53c.68-.89,1.37-1.78,2-2.7a30.34,30.34,0,0,0,3.93-7.42,15.9,15.9,0,0,0,1-7.32,13.13,13.13,0,0,0-5.27-8.87,25.4,25.4,0,0,0-7.68-3.93A54.9,54.9,0,0,0,287,178.16a108.34,108.34,0,0,0-13.24-.41c-1.74.42-3.54-.16-5.28.32l-2.83.15c-.47.12-1,.41-1-.51l1.34-.13C266.63,177.24,267.38,177.62,268,177.25Z"/><path class="cls-3" d="M269.31,173.65c-2.23-2.12-4.46-4.24-6.49-6.56l7.4-.85c.24,0,.48-.07.72-.09a136.26,136.26,0,0,1,19.48-.44,66.87,66.87,0,0,1,15.64,2.42,37.61,37.61,0,0,1,7.53,3.15,19.1,19.1,0,0,1,5.33,4.46,12,12,0,0,1,2.87,6.76c-.62.18-.79-.38-1.06-.67a22,22,0,0,0-8.29-5.63,53.09,53.09,0,0,0-10.89-2.93c-8-1.34-16-1.05-24-.8-2,.06-4,.33-6,.44A3.49,3.49,0,0,0,269.31,173.65Z"/><path class="cls-4" d="M115.28,244.45c.94-4.79,7-13.8,11.62-17.25.06,0,.14.08.16.14,1.2,3.55,1.15,3.68-1.58,6.08a67.42,67.42,0,0,0-8.9,9.75C116.22,243.64,116,244.28,115.28,244.45Z"/><path class="cls-5" d="M145.05,224l-.68-.66a10.21,10.21,0,0,1,1.08-.91q4.13-2.64,8.28-5.25a8.88,8.88,0,0,1,1.29-.58l.22.25c-.35.58-1,.8-1.5,1.16q-3.72,2.66-7.47,5.26C145.88,223.56,145.45,223.78,145.05,224Z"/><path class="cls-6" d="M268.46,178.07a2.53,2.53,0,0,1,.83-.37,21.45,21.45,0,0,1,4.46.05.55.55,0,0,1-.05.36Z"/><path class="cls-5" d="M155,216.62a3.88,3.88,0,0,1,2.53-1.32l0,0a4.05,4.05,0,0,1-2.27,1.6Z"/><path class="cls-6" d="M272.4,176.77a3.23,3.23,0,0,1-2.54.33c.63-.53,1.42-.33,2.14-.49A.37.37,0,0,1,272.4,176.77Z"/><path class="cls-5" d="M157.55,215.3c.24-.64.84-.79,1.39-1l0,0c-.14.79-.7,1-1.4,1Z"/><path class="cls-5" d="M158.94,214.28a1.91,1.91,0,0,1,.33-.25c.09,0,.22,0,.33.06a1,1,0,0,1-.27.17,1.48,1.48,0,0,1-.42,0Z"/><path class="cls-6" d="M264.66,177.71c.21.39.64.35,1,.51-.13.09-.26.23-.4.25q-4.77.57-9.54,1.1a15.86,15.86,0,0,1-1.69,0l0,0c.88-.83,2.08-.62,3.12-.87,2.15-.51,4.37-.74,6.56-1.07A6.09,6.09,0,0,1,264.66,177.71Z"/><path class="cls-6" d="M254,179.58a2.19,2.19,0,0,1-1.91.13l1.94-.1Z"/><path class="cls-6" d="M268,177.25a2,2,0,0,1-2,.33A2.31,2.31,0,0,1,268,177.25Z"/><path class="cls-7" d="M101.23,303.06c-16.54,5.18-30.11-2.95-40.71-15.68C35.19,257,42.21,216.8,77.41,189.93l-.52.54c21.41-2,28.74,7.74,26,28.7a109.91,109.91,0,0,0,4.43,49.29C107.7,269.23,120,297.16,101.23,303.06Z"/><path class="cls-8" d="M330.54,303.06c16.54,5.18,30.12-2.95,40.72-15.68,25.33-30.43,18.31-70.58-16.89-97.45l.52.54c-21.42-2-28.74,7.74-26,28.7a109.91,109.91,0,0,1-4.43,49.29C324.08,269.23,311.73,297.16,330.54,303.06Z"/><path class="cls-9" d="M77.31,184.37a138.56,138.56,0,0,1,276.66.85"/><text class="cls-10" transform="translate(49.81 375.73) scale(0.97 1)">Radio<tspan class="cls-11" x="179.12" y="0"> </tspan><tspan x="183.8" y="0">)</tspan><tspan class="cls-8" x="206.88" y="0">CPS</tspan></text><text class="cls-12" transform="translate(53.26 409.52) scale(0.97 1)">Rock de todos los tiempos</text></svg>