<svg id="Layer_1" data-name="Layer 1" xmlns="http://www.w3.org/2000/svg" viewBox="0 0 443.94 443.94"><defs><style>.cls-1{fill:none;}.cls-2{fill:#242056;}.cls-3{fill:#3c4353;}.cls-4{fill:#2778bd;}</style></defs><title>Artboard 10 copy 6</title><path class="cls-1" d="M100.06,189.8c.11,2.82.46,11.27,11.08,11.27h.6c7.58-.22,15.34-.17,22.85-.12,2.91,0,5.82,0,8.72,0h8.75c8.24,0,16.49,0,24.73-.06a6.78,6.78,0,0,1,.8,0c2,.1,8,.43,10.25-6.44,6.18-19-6.28-44.12-25.15-50.76a12.71,12.71,0,0,0-9.23,0,33.6,33.6,0,0,1-31.62,7c-4.91-.26-8,2-10.43,4.27C100.57,165.3,99.59,178.37,100.06,189.8Z"/><path class="cls-1" d="M102.83,302.07c2.46,2.46,5.7,2.75,8,2.71,25.85-.16,46.83-.15,66,0h.26c2.43,0,5.82-.34,8.36-2.91s2.86-6.15,2.8-8.9c-.17-7.53-.14-15.22-.11-22.66,0-3.28,0-6.57,0-9.86q0-4.6,0-9.23c0-7.36-.08-15,.12-22.41.09-3.35-.18-6.81-2.77-9.43s-6.37-2.94-8.86-2.91c-22.06.33-44,.2-65.14.07-2.06,0-5.88,0-8.65,2.74s-2.73,6.71-2.71,8c.19,19.23.19,39.84,0,66.84C100.12,296.39,100.39,299.62,102.83,302.07Z"/><path class="cls-1" d="M177.85,320.42l-.76,0c-7.36,0-14.71,0-22.08,0l-35.56,0c-16.88.06-19.22,2.4-19.2,19.23A43.4,43.4,0,0,0,116,373.55a42.46,42.46,0,0,0,27,9.55,44.33,44.33,0,0,0,8.92-.9c26.7-5.41,38.89-23.27,36.22-53.1C187.66,323.2,184.13,320.17,177.85,320.42Z"/><path class="cls-2" d="M292.05,192.62a31.57,31.57,0,0,0,3.54,18.78A33.66,33.66,0,0,1,291.88,196C291.88,194.88,291.94,193.74,292.05,192.62Z"/><path class="cls-3" d="M154,93.15c-1.84-2.69-1.84-6.15-1.82-11.43,0-1.29,0-2.74,0-4.37-.14-13.73,2.3-16.18,16.28-16.4,3.69-.05,9.87-1.13,9.77-7.67-.08-5.82-5.2-7.93-10-8-16.78-.15-33.06-.12-48.42.08-6,.08-10.06,3.24-10.11,7.88A6.35,6.35,0,0,0,112,58.57c1.84,1.5,4.83,2.35,8.41,2.38,1.36,0,2.72,0,4.07,0l.82,0c2.42-.07,6.09-.17,8.77,2.67,1.79,1.9,2.56,4.55,2.27,7.89-.05.56-.05,1.12-.06,1.66-.05,2.8-.17,8.95-7.3,11.33.76,0,1.52-.11,2.3-.11A33.72,33.72,0,0,1,154,93.15Z"/><path class="cls-2" d="M325.55,162.16h-.18a32,32,0,0,0-6.36.67,34.92,34.92,0,0,1,6.67-.67Z"/><path class="cls-2" d="M101.78,101.3a31.55,31.55,0,0,0-3.88,11.19A33.76,33.76,0,0,1,107,94.65,31.48,31.48,0,0,0,101.78,101.3Z"/><path class="cls-2" d="M316.29,163.53c.8-.24,1.61-.46,2.44-.63C317.9,163.08,317.09,163.28,316.29,163.53Z"/><path class="cls-2" d="M314.15,164.24l.82-.3Z"/><path class="cls-2" d="M292.1,192.25c.07-.6.17-1.18.27-1.76C292.25,191.08,292.18,191.66,292.1,192.25Z"/><path class="cls-4" d="M312.28,227.1c4.19,3.42,6.05,7.78,6,14-.14,23-.14,46.36-.13,69q0,19.06,0,38.12a51.22,51.22,0,0,1-1,10.17,30.69,30.69,0,0,1-32.46,24.57c-16.13-1.39-28.2-13.91-28.7-29.79-.12-3.91-.11-7.84-.09-11.64v-3.59l0-57.48c0-44,.07-89.41,0-134.11-.07-28.58-20.26-48.76-49.11-49.06-6.76-.07-13.53,0-20.3,0-4.66,0-9.32,0-14,0h-4.1c-5.83,0-9.41,0-12.15-1.81a33.7,33.7,0,0,1,8.9,22.83c0,.29,0,.57-.05.85,0-.06,0-.13.05-.19,1.34-4.68,4.85-6.73,10.53-6.08.31,0,.57.07.9.09,12.52-.17,22.12-.18,31.12,0,19.54.32,32.21,13.15,32.27,32.69q.1,36.52,0,73.05v24.56H240v5.32q0,15,0,30.1c0,23.86-.05,48.53.08,72.79.08,15.75,6.39,28.36,18.76,37.48,15.5,11.43,31.91,12.93,48.79,4.48,17.07-8.55,25.79-22.85,25.9-42.52.21-37,.22-74.16,0-110.39,0-6,1.66-10.07,5.58-13.31a33.77,33.77,0,0,1-26.86,0Z"/><path class="cls-3" d="M153.46,143.77a12.71,12.71,0,0,1,9.23,0c18.87,6.64,31.33,31.79,25.15,50.76-2.24,6.87-8.28,6.54-10.25,6.44a6.78,6.78,0,0,0-.8,0c-8.24.08-16.49.07-24.73.06h-8.75c-2.9,0-5.81,0-8.72,0-7.51-.05-15.27-.1-22.85.12h-.6c-10.62,0-11-8.45-11.08-11.27-.47-11.43.51-24.5,11.35-34.78,2.42-2.3,5.52-4.53,10.43-4.27a33.91,33.91,0,0,1-21.22-18.13c1.45,5.76-.72,9.5-3.39,12.66a54,54,0,0,0-12.87,35.78q0,28.65,0,57.31c0,33.32,0,67.77.06,101.65.11,32.75,26.19,58.5,59.38,58.63H144c16.31,0,31.4-5.94,42.52-16.75A58,58,0,0,0,204,340.12q.11-31.71,0-63.41c0-30-.1-60.93.18-91.41.23-25.2-10.3-43.26-32.2-55.2-.28-.15-.58-.28-.89-.41-4.37-1.87-6-4.49-6.28-7A33.78,33.78,0,0,1,153.46,143.77Zm-53.35,83.55c0-1.3-.06-5.23,2.71-8s6.59-2.76,8.65-2.74c21.18.13,43.08.26,65.14-.07,2.49,0,6.2.22,8.86,2.91s2.86,6.08,2.77,9.43c-.2,7.44-.16,15-.12,22.41q0,4.62,0,9.23c0,3.29,0,6.58,0,9.86,0,7.44-.06,15.13.11,22.66.06,2.75-.2,6.26-2.8,8.9s-5.93,2.91-8.36,2.91h-.26c-19.18-.18-40.16-.19-66,0-2.28,0-5.52-.25-8-2.71s-2.71-5.68-2.69-7.91C100.3,267.16,100.3,246.55,100.11,227.32ZM152,382.2a44.33,44.33,0,0,1-8.92.9,42.46,42.46,0,0,1-27-9.55,43.4,43.4,0,0,1-15.77-33.86c0-16.83,2.32-19.17,19.2-19.23l35.56,0c7.37,0,14.72,0,22.08,0l.76,0c6.28-.25,9.81,2.78,10.33,8.68C190.85,358.93,178.66,376.79,152,382.2Z"/><path class="cls-2" d="M164.79,122.68a32.59,32.59,0,0,0,.28-3.59A9.47,9.47,0,0,0,164.79,122.68Z"/><path class="cls-2" d="M156.22,95.41c-.72-.79-1.48-1.54-2.27-2.26a8.24,8.24,0,0,0,1,1.23A8.61,8.61,0,0,0,156.22,95.41Z"/><path class="cls-2" d="M129,84.48a33.71,33.71,0,0,0-22,10.17,35.21,35.21,0,0,1,19.3-9.5A16.65,16.65,0,0,0,129,84.48Z"/><path class="cls-2" d="M97.9,112.49a34,34,0,0,0-.52,5.75,33.61,33.61,0,0,0,3.24,14.38,20.1,20.1,0,0,0-.63-2.08A35.88,35.88,0,0,1,97.9,112.49Z"/><path class="cls-2" d="M153.46,143.77a15.26,15.26,0,0,0-3.41,1.9c-7.34,5.42-16.09,7.22-26,5.36a16.84,16.84,0,0,0-2.22-.28,33.6,33.6,0,0,0,31.62-7Z"/><path class="cls-3" d="M156.22,95.41a8.61,8.61,0,0,1-1.26-1,8.24,8.24,0,0,1-1-1.23,33.72,33.72,0,0,0-22.7-8.78c-.78,0-1.54.06-2.3.11a16.65,16.65,0,0,1-2.68.67,35.21,35.21,0,0,0-19.3,9.5,33.76,33.76,0,0,0-9.07,17.84,35.88,35.88,0,0,0,2.09,18,20.1,20.1,0,0,1,.63,2.08,33.91,33.91,0,0,0,21.22,18.13,16.84,16.84,0,0,1,2.22.28c9.9,1.86,18.65.06,26-5.36a15.26,15.26,0,0,1,3.41-1.9,33.78,33.78,0,0,0,11.33-21.09,9.47,9.47,0,0,1,.28-3.59c0-.28.05-.56.05-.85A33.7,33.7,0,0,0,156.22,95.41Zm-11.71,34.53a19.09,19.09,0,0,1-13.36,6.45h-.55c-8.93,0-16.84-7.74-17.39-17.17A17.81,17.81,0,0,1,130,100.1a18.52,18.52,0,0,1,19.3,16.9A17.8,17.8,0,0,1,144.51,129.94Z"/><path class="cls-2" d="M315,163.94c.44-.15.88-.28,1.32-.41C315.85,163.65,315.41,163.79,315,163.94Z"/><path class="cls-2" d="M292.05,192.62c0-.13,0-.25.05-.37C292.09,192.37,292.06,192.49,292.05,192.62Z"/><path class="cls-2" d="M359.61,196a33.86,33.86,0,0,0-33.87-33.87h-.06c14.58.15,28.48,10.55,32.38,24.24,4.37,15.37-1.83,30.79-15.42,38.35a22.76,22.76,0,0,0-3.5,2.38A33.86,33.86,0,0,0,359.61,196Z"/><path class="cls-2" d="M318.73,162.9l.28-.07Z"/><path class="cls-2" d="M295.59,211.4a34,34,0,0,0,16.69,15.7,23.53,23.53,0,0,0-3.5-2.38A33.19,33.19,0,0,1,295.59,211.4Z"/><path class="cls-2" d="M314.15,164.24a33.84,33.84,0,0,0-21.78,26.25c.15-.8.33-1.6.55-2.4A35.33,35.33,0,0,1,314.15,164.24Z"/><path class="cls-3" d="M358.06,186.4c-3.9-13.69-17.8-24.09-32.38-24.24a34.92,34.92,0,0,0-6.67.67l-.28.07c-.83.17-1.64.39-2.44.63-.44.13-.88.26-1.32.41l-.82.3a35.33,35.33,0,0,0-21.23,23.85c-.22.8-.4,1.6-.55,2.4-.1.58-.2,1.16-.27,1.76,0,.12,0,.24-.05.37-.11,1.12-.17,2.26-.17,3.41a33.66,33.66,0,0,0,3.71,15.37,33.19,33.19,0,0,0,13.19,13.32,23.53,23.53,0,0,1,3.5,2.38,33.77,33.77,0,0,0,26.86,0,22.76,22.76,0,0,1,3.5-2.38C356.23,217.19,362.43,201.77,358.06,186.4ZM325.65,214h0c-10.18,0-17.86-7.76-17.87-18a18,18,0,1,1,17.9,18Z"/></svg>