<svg id="Layer_1" data-name="Layer 1" xmlns="http://www.w3.org/2000/svg" viewBox="0 0 443.94 443.94"><defs><style>.cls-1{fill:#3d4454;}.cls-2{fill:#2b77bb;}.cls-3{fill:#eae9e8;}.cls-4{fill:#fcfcfd;}.cls-5{fill:#e9e7e7;}</style></defs><title>Artboard 10 copy 7</title><g id="GQeckV.tif"><path class="cls-1" d="M388.85,259.75l-2.64.09-3.31-.17a31.4,31.4,0,0,0-8.6-.63,8.48,8.48,0,0,0-4-.5l-8.58-.67-3.25-.28-8.66-1-3.32-.22c-2.79-.81-5.68-.68-8.54-.88a6.19,6.19,0,0,0-3.38-.36,36.32,36.32,0,0,0-8.58-.78,5.63,5.63,0,0,0-3.33-.5c-3.08-.32-6.13-1-9.26-.78a4.17,4.17,0,0,0-2.66-.5c-3.09-.19-6.12-1.06-9.25-.77a6.43,6.43,0,0,0-3.32-.56c-2.87-.19-5.68-1.05-8.59-.75a6.9,6.9,0,0,0-3.32-.58c-2.87-.21-5.68-1.05-8.59-.77a4.41,4.41,0,0,0-2.66-.54l-8.59-1.37-2-.77-5.19-3.34-2-2.83a34.72,34.72,0,0,0-3.19-7c-.22-.48-.45-1-.67-1.45-1-2.18-2-4.35-2.93-6.53a4.93,4.93,0,0,0-1.26-2.66,33.64,33.64,0,0,0-2.8-6.6l-1-2-3.12-7.41c-.29-.63-.25-1.42-1-1.83a28.91,28.91,0,0,0-2.76-6.59,4.6,4.6,0,0,0-1.26-2.66,35.18,35.18,0,0,0-3.08-7.39c-.18-.69-.23-1.43-.91-1.87a33.22,33.22,0,0,0-3.09-7.39c-.14-.7-.21-1.43-.89-1.87a29.32,29.32,0,0,0-2.72-6.61,4.89,4.89,0,0,0-1.26-2.66,30.47,30.47,0,0,0-2.72-6.61,5.42,5.42,0,0,0-1.27-2.65l.69-.81,3.33.68c2.64.49,5.21,1.38,7.93,1.4a4.08,4.08,0,0,0,2.66.65,37.84,37.84,0,0,0,7.9,1.48c1,.77,2.15.61,3.27.73l8,1.7,2.67.62c2.85.55,5.63,1.52,8.58,1.55a3.3,3.3,0,0,0,2.65.61,40.65,40.65,0,0,0,7.87,1.65l2.67.43a44.73,44.73,0,0,0,8.64,1.75l3.33.68,7.93,1.33,3.32.67,7.92,1.26,2.6.28a36.12,36.12,0,0,0,9.31,1.29,3.45,3.45,0,0,0,2.67.53l6.93,1.54c.67.65,1.57.56,2.39.74l7.86,3.12c.31.62.94.66,1.5.81l7.09,4.54,1.36,1.19,4.68,4.62,1.83,2.2,3.94,6.08.54,1.08,3.53,7.23a5.26,5.26,0,0,0,1.25,2.81,30.45,30.45,0,0,0,3.18,7.08l.68,1.41c1,2.18,2,4.35,3,6.53a3.54,3.54,0,0,0,1.13,2A36.6,36.6,0,0,0,380,237.8c.15.55.13,1.18.76,1.48a112.29,112.29,0,0,0,8.06,15.84Z"/><path class="cls-2" d="M266,102.29a59.4,59.4,0,0,1-3.09,12.59q-1.86,3.62-3.71,7.23h0l-.85,1.27c-4.22,5.85-8.69,11.54-12.54,17.63-2.57,4.07-5.42,6.6-10.44,5.7h-29.8c-2.61.06-5.19.06-6.62-2.74l-1-1.41a33.55,33.55,0,0,0-4.81-6.73,3.09,3.09,0,0,0-1.32-1.93l-3.55-5.15-1.57-2.09-4-6-1.47-2.62-2.73-6.52a5,5,0,0,0-.73-2.65c-.42-2.87-.83-5.73-1.25-8.6,0-1.11.05-2.21.07-3.32.79-3.95,1.07-8,2.29-11.86.52-1.56,1-3.13,1.57-4.69,5-10.17,12.09-18.18,22.48-23.1,3.85-1.82,8.14-2.22,12-4h11.92c2,1.21,4.34,1.09,6.51,1.69,6.11,1.7,11.45,4.84,16.57,8.45l2,1.82,4.56,4.81a3.24,3.24,0,0,0,1.36,1.86q1.75,2.91,3.49,5.82c.36.69.72,1.38,1.07,2.07l2.21,6.57.78,3.38c.26,3,.53,6.11.79,9.16ZM244,112.9l.74-1.36a10.1,10.1,0,0,0,2-5.27,17,17,0,0,0,.63-10.68,4.36,4.36,0,0,0-.5-2.67,16.18,16.18,0,0,0-3-7.18l-1-1.41A14.72,14.72,0,0,0,238,79.06a5.71,5.71,0,0,0-2.71-1.92A15.82,15.82,0,0,0,228.07,74l-2.68-.64c-3.33-.34-6.66-.7-9.91.51a9.32,9.32,0,0,0-4.67,1.44l-.73.49.07-.08a22,22,0,0,0-12,11.3l.06,0c-.59.28-.65.85-.77,1.39a10.52,10.52,0,0,0-1.78,5.32c-1.16,3.33-.92,6.72-.39,10.12l.55,2.48a16.88,16.88,0,0,0,3.2,7.22,2,2,0,0,0,1,1.41,14.22,14.22,0,0,0,4.91,5.22,6.31,6.31,0,0,0,2.62,1.85,15.29,15.29,0,0,0,7.2,2.91c.78.73,1.74.58,2.68.56a16.71,16.71,0,0,0,10.61-.6,10,10,0,0,0,5.28-2l1.36-.72,0,0a21,21,0,0,0,9.3-9.28Z"/><path class="cls-1" d="M167.83,382.22a33.92,33.92,0,0,0-7.93-1.4,5.18,5.18,0,0,0-3.31-.68,43.37,43.37,0,0,0-7.87-1.65l-2.66-.43a39.29,39.29,0,0,0-8.66-1.77,4.88,4.88,0,0,0-2.66-.66,42.38,42.38,0,0,0-7.89-1.56,3.78,3.78,0,0,0-2.66-.57,35,35,0,0,0-8.63-1.9,3.44,3.44,0,0,0-2.65-.67A40,40,0,0,0,105,369l-1.49-.32-7.74-3.93-1.37-1.16-4-4.62-.77-2.66a44.16,44.16,0,0,0-.47-9.26L89,343.78l0-9.91,0-3.33,0-9.89,0-3.35.07-9.89,0-3.34.07-9.9,0-3.33.05-9.91c-.26-2.08.82-2.83,2.73-2.75L103,276.84a7.74,7.74,0,0,0,4-.52,56.1,56.1,0,0,0,11.25-1.38l3.33-.2,11.21-1.26,4-.5,10.57-.8a8.62,8.62,0,0,0,4-.37l9.93-.35a7.83,7.83,0,0,0,4-.39,35.65,35.65,0,0,0,11.91-2.14,13.45,13.45,0,0,0,5.29-1.82"/><path class="cls-1" d="M203.91,245.92a23.59,23.59,0,0,0,2.26-6c2.86-6.92,5.89-13.75,10.25-19.9l2.34-2.53.22,7.86c0,1.12,0,2.24.05,3.35,0,3.3,0,6.59-.05,9.89,0,1.11,0,2.23.05,3.35l0,9.88c0,.9,0,1.79,0,2.69,0,3.52,0,7,0,10.55l0,2.68c0,3.52,0,7,0,10.55,0,.9,0,1.79,0,2.69,0,3.51,0,7,0,10.55,0,.89,0,1.79,0,2.68l0,10.55,0,2.69c0,3.51,0,7,0,10.54,0,.9,0,1.8,0,2.69,0,3.52,0,7,0,10.55l0,2.69c0,3.51,0,7,0,10.54,0,.9,0,1.79,0,2.69,0,3.52,0,7,0,10.55,0,.89,0,1.79,0,2.69v5a43.9,43.9,0,0,0,9-1.76,7.16,7.16,0,0,0,4-.66l11.9-2.11,4.52-.77c4-.75,8.11-1.14,12-2.41a6.89,6.89,0,0,0,4-.65,90.38,90.38,0,0,0,11.9-2.11l4.47-.74c4-.8,8.16-1.12,12.09-2.43a6.84,6.84,0,0,0,4-.65A85.88,85.88,0,0,0,308.77,349l4.42-.71c.75-.13,1.51-.28,2.27-.4,9.67-1.57,9.67-1.57,9.15-11.34,0-1.11,0-2.22,0-3.33,0-3.3,0-6.61,0-9.91,0-1.11,0-2.21,0-3.32q0-5,0-9.91c0-1.11,0-2.22,0-3.33q0-5,0-9.91c0-1.11,0-2.21,0-3.32,0-3.3,0-6.61,0-9.91,0-1.11,0-2.22,0-3.32.12-2.19-.2-4.75,3.39-3.94a8.91,8.91,0,0,0,4,.52l8.58.64,3.32.16c2.1.85,4.55,0,6.55,1.31l.08,3.3a59.86,59.86,0,0,0,0,9.93l.06,3.31,0,9.92.06,3.31,0,9.92c0,1.11,0,2.21,0,3.32l-.08,9.92,0,3.31-.35,10.55c0,1.12-.05,2.24-.08,3.37l-.3,9.9c-1.63,3.61-4.83,5.62-7.87,7.8-4.2,2-8.83,2.37-13.23,3.63-1.56.34-3.21.31-4.65,1.13a87.21,87.21,0,0,0-12.57,2.74l-4.55.88c-4.24.89-8.55,1.49-12.67,2.9a7.63,7.63,0,0,0-4,.77,79.42,79.42,0,0,0-12.57,2.67,8,8,0,0,0-4,.69l-11.87,2.29c-1.56.26-3.21.11-4.66.93-8.47,1.33-17,2.42-25.41,4.07-11.87,2.34-23.46.71-35.06-1.68-8.71-1.8-17.36-4-26.22-5"/><path class="cls-1" d="M69.92,258.73l-4,.42c-4.58.43-9.17.78-13.74,1.31-1.84.21-2.22-.46-2.18-2.13a8.55,8.55,0,0,1,1.09-3.72q7.52-15,15-30a26.58,26.58,0,0,0,3.25-6.56c3.84-6.69,7.28-13.58,10.55-20.56A25.79,25.79,0,0,0,83.21,191c2.1-3.59,3.77-7.62,8.53-8.58a7.26,7.26,0,0,0,4-.72,74.84,74.84,0,0,0,12.57-2.61,7.34,7.34,0,0,0,4-.71,76.88,76.88,0,0,0,12.57-2.61,7.54,7.54,0,0,0,4-.7,76.88,76.88,0,0,0,12.57-2.61,7.33,7.33,0,0,0,4-.7,75.94,75.94,0,0,0,12.58-2.6,7.27,7.27,0,0,0,4-.71,73.81,73.81,0,0,0,12.57-2.59,7.18,7.18,0,0,0,4-.71A75.09,75.09,0,0,0,191,162.53a7.23,7.23,0,0,0,4-.71,73.7,73.7,0,0,0,12.58-2.58,7.22,7.22,0,0,0,4-.72c2.08.28,4-1.25,6.28-.51l-1,3.14a22.36,22.36,0,0,0-2.55,6,185.63,185.63,0,0,0-7.46,17.2,20.19,20.19,0,0,0-2.53,6l-7.68,17.29a26,26,0,0,0-2.37,5.83c-3,5.83-5.56,11.86-8,17.93a22.09,22.09,0,0,0-2.57,5.89c-2.07,4.95-5.29,8.78-10.48,10.66a7.62,7.62,0,0,0-3.95.47l-10.59,1.1-4,.45a72.92,72.92,0,0,0-11.23,1.32,7.31,7.31,0,0,0-3.35.22l-11.21,1.2-4,.51a57.64,57.64,0,0,0-11.26,1.27l-3.31.14"/><path class="cls-2" d="M130.11,142.42l-11.24,1.48-3.33-.41-7.9-1.61L105,140.74l-5.64-2.93-2-1.29-5-4.5-1.8-2c-1.29-2-2.59-4-3.88-6-.53-1.07-1-2.15-1.58-3.22q-1-3.27-2-6.55a4.22,4.22,0,0,0-.47-2.7l0-9.87.69-4c3-9.78,8.39-17.79,17.32-23.18,3.42-2.06,7.21-3.16,10.9-4.53l3.3-.42a51.56,51.56,0,0,1,9.86,0l2.7.41,6.5,2,3.46,1.74,5.84,3.74,2,1.81,4.48,5,.69.94q1.78,3.29,3.56,6.57l1.14,2.68q.81,3.95,1.64,7.89l.39,3.33-1.5,11.24a10.24,10.24,0,0,0-1.22,3.88h0c-.57.29-.61.85-.69,1.39-1.24,1.33-1,2.41.48,3.39,1.23.83,2.41,1.74,3.6,2.61l2.61,2.06a26.64,26.64,0,0,0,5.27,4.12l2.07,1.7A27.61,27.61,0,0,0,173.1,140l1.85,1.54a8.61,8.61,0,0,1,2.44,6.32,7.16,7.16,0,0,1-5.6,5.54c-2.49.17-4.5-1-6.47-2.29l-1.78-1.39a31.65,31.65,0,0,0-5.64-4.48l-2.6-2.06a26.51,26.51,0,0,0-5.25-4.12L148,137.38c-1.54-.72-2.19-3.85-4.66-1.94s-5.3,3.38-7.94,5.08c-.53.08-1.09.13-1.39.69l0,0Zm19.17-28.25a6.61,6.61,0,0,0,.72-4c1.12-3.11.3-6.18-.16-9.26l-.68-2.67A17.41,17.41,0,0,0,146,91a3.58,3.58,0,0,0-1.31-2,14.92,14.92,0,0,0-4.66-5.29,2.73,2.73,0,0,0-1.78-1.42,15.51,15.51,0,0,0-6.8-4l-2.69-1.1a19.6,19.6,0,0,0-7.94-1.31L116.9,76C101.25,78.21,91,88.47,89.23,103.58l0,4a20.46,20.46,0,0,0,1.31,7.94,4.65,4.65,0,0,0,1.07,2.71,16.23,16.23,0,0,0,4,6.91A3,3,0,0,0,97,126.85a14.77,14.77,0,0,0,5.33,4.63,3.42,3.42,0,0,0,2,1.29,13.09,13.09,0,0,0,5.84,2.66c1,.8,2.33.76,3.52,1.08,3.28.62,6.56,1.34,9.87.21a6.62,6.62,0,0,0,4-.72C137.55,134.16,147.35,124.36,149.28,114.17Z"/><path class="cls-3" d="M146.06,378.06l2.66.43"/><path class="cls-2" d="M301.51,159.91l-2.66-.67c-1.81-1.28-4.74-.62-5.72-3.33a53.16,53.16,0,0,0,5.3-7.9l1-1.55.8-1.16c1.34-1.87,2.76-3.69,4-5.62a3.13,3.13,0,0,1,3.2-1.78l3.32,0c7.42-.57,12.88-6,13.75-13.78,0-.91,0-1.81,0-2.71a11.46,11.46,0,0,0-2.55-7.24,3.89,3.89,0,0,0-1.75-2.08,10.5,10.5,0,0,0-6.75-4,3.46,3.46,0,0,0-2.69-.52c-1-.48-2.13-.18-3.22-.17-3.83,0-6.5,2.74-9.79,4l-2.27-1.68-5.12-3.55a7.27,7.27,0,0,0-2.75-1.93,27.72,27.72,0,0,0-5.9-4.11L280.28,99c1.86-3.89,5.69-5.74,8.7-8.45l1.29-.81h0l5.3-2.47a55.74,55.74,0,0,1,12.53-2.47l3.35.11L320,86.26l2,.69,6,2.73a4.83,4.83,0,0,0,2.42,1.42l5.46,4.56,2,2,3.89,5.29,1.43,2.6,2.62,6.61a4.22,4.22,0,0,0,.68,2.63c.25,3.08.49,6.16.74,9.24-.08,1.11-.15,2.22-.23,3.33a55,55,0,0,1-4.68,13.92A43.55,43.55,0,0,1,328,155.72a58.5,58.5,0,0,1-13.92,4.73l-3.32.15Z"/><path class="cls-1" d="M283.73,150.9l-1.18-1.07-4.33-5.21-1.83-2.74c-.91-1.95-1.83-3.91-2.75-5.86l-.88-2.75-1.53-8.54-.12-2.61c.69-4,.93-8.14,2.35-12l2.43-5.77.46-.75,1.53.14a24.68,24.68,0,0,0,5.52,3.94,7.07,7.07,0,0,0,2.82,2,26.67,26.67,0,0,0,5.41,3.84l2.61,1.88c.95.81.57,1.69.31,2.69-.5,2-1.24,4-.46,6.11l.39,2.67a11.63,11.63,0,0,0,3.79,6.5,2.57,2.57,0,0,0,1.71,1.44c.58,1.29-.49,2-1.06,2.87-3,4.54-6.3,8.93-9.09,13.61-1.61,2.68-2.88,2.62-4.77.59A7.56,7.56,0,0,0,283.73,150.9Z"/><path class="cls-3" d="M290.27,89.7l-1.29.81C289.15,89.83,289.66,89.69,290.27,89.7Z"/><path class="cls-4" d="M210.15,75.67c-3.7,4.09-7,8.62-12,11.3A22,22,0,0,1,210.15,75.67Z"/><path class="cls-4" d="M234.68,122.15a24,24,0,0,1,9.3-9.28A21,21,0,0,1,234.68,122.15Z"/><path class="cls-5" d="M259.15,122.11c0,.61-.16,1.12-.85,1.27C258.58,123,258.87,122.53,259.15,122.11Z"/><path class="cls-4" d="M233.35,122.85a1.33,1.33,0,0,1,1.36-.72Z"/><path class="cls-4" d="M198.21,87c0,.62-.07,1.17-.77,1.39C197.56,87.8,197.62,87.23,198.21,87Z"/><path class="cls-4" d="M244,112.9c0-.58.09-1.12.74-1.36Z"/><path class="cls-4" d="M210.81,75.26l-.73.49Z"/><path class="cls-4" d="M213.17,222c.92-.92,1.72-2.08,3.25-2-4.36,6.15-7.39,13-10.25,19.9-1.13,0-1.75.82-2.44,1.51"/><path class="cls-4" d="M105,274c-.83.83-2,1.49-2,2.87l-11.23,1.34c0-1.4,1.18-2.06,2-2.89"/><path class="cls-4" d="M113.56,254.41a57.64,57.64,0,0,1,11.26-1.27"/><path class="cls-4" d="M120.17,272c-.83.83-2,1.51-2,2.91A56.1,56.1,0,0,1,107,276.32c0-1.53,1.25-2.24,2.15-3.15"/><path class="cls-4" d="M201.56,246.86a2.7,2.7,0,0,1,2.35-.94"/><path class="cls-4" d="M182.38,267.11a2.49,2.49,0,0,1,.73-1.78"/><path class="cls-5" d="M203.73,241.4c.69-.69,1.31-1.52,2.44-1.51a23.59,23.59,0,0,1-2.26,6,2.7,2.7,0,0,0-2.35.94"/><path class="cls-5" d="M135.37,140.52c-.24.68-.76.78-1.39.69C134.28,140.65,134.84,140.6,135.37,140.52Z"/><path class="cls-5" d="M154.5,120.69c.1.62,0,1.15-.69,1.39C153.89,121.54,153.93,121,154.5,120.69Z"/><path class="cls-5" d="M300.26,145.3l-.8,1.16A1.19,1.19,0,0,1,300.26,145.3Z"/></g></svg>