<svg id="Layer_1" data-name="Layer 1" xmlns="http://www.w3.org/2000/svg" viewBox="0 0 443.94 443.94"><defs><style>.cls-1{fill:#3c4353;}.cls-2{fill:#2778bd;}.cls-3{fill:#fdfdfd;}</style></defs><title>Artboard 10 copy 9</title><g id="N3AfhI.tif"><path class="cls-1" d="M190.89,199.38l-29.45-4.95c-18-3-36-6-54-9.09-1.89-.32-2.29.08-2.6,1.93q-8.11,48.67-16.41,97.33c-3.89,22.89-7.85,45.77-11.65,68.67-.84,5.12-1.63,4,3.63,4.85,21.28,3.51,42.58,6.89,63.88,10.33,4.67.75,9.34,1.53,14,2.29,5.57.91,10.6-1.5,15.77-2.76,22.65-5.48,45.24-11.21,67.84-16.88a14.09,14.09,0,0,1,5.89,0q38.91,6.54,77.81,13.07c2.22.37,5,2,6.53.63,1.29-1.12,1-4.1,1.33-6.26q8.22-48.66,16.43-97.32,5.49-32.39,11.09-64.75c.46-2.67.15-3.95-2.92-4.16-3.61-.25-7.17-1.1-10.77-1.61-1.57-.23-1.88-.7-.92-2.09q5.09-7.32,10-14.77a2.18,2.18,0,0,1,2.52-1c7.6,1.23,15.2,2.5,22.82,3.62,2.13.32,2,1.5,1.72,3q-4.36,25.71-8.7,51.42-5.88,34.83-11.73,69.66-5.09,30.1-10.24,60.21c-1.35,7.92-2.87,15.81-4,23.77-.38,2.8-1.49,3.08-3.79,2.68-10.85-1.9-21.7-3.71-32.56-5.55q-32.37-5.47-64.76-10.95c-4.93-.85-9.3,1.29-13.82,2.38q-34.47,8.34-68.83,17.07c-5.08,1.27-9.83-.44-14.66-1.19-25.44-4-50.85-8.16-76.27-12.27-5.87-1-11.73-1.91-17.61-2.77-2-.28-2.8-.93-2.42-3.15q7.84-45.71,15.57-91.44,7.09-42,14.14-84c1.7-10.1,3.52-20.17,5.09-30.28.33-2.14,1.1-2.46,3-2.14q20.34,3.51,40.68,6.93c19.32,3.26,38.64,6.45,57.94,9.75,3.67.63,6.88-1.05,10.3-1.64s7.23-3.18,10.07-1.93c2.67,1.17,4.08,5.22,6.05,8,1.53,2.15,3,4.33,4.62,6.44.78,1,.94,1.76-.54,2.11q-14.1,3.39-28.23,6.74A10.22,10.22,0,0,1,190.89,199.38Z"/><path class="cls-2" d="M283.2,64.83c32.82.33,59.45,22.83,65,55.15,2.85,16.56-.11,32.22-9.62,46-16.49,24-33.48,47.57-50.32,71.28-3.15,4.43-7,4.37-10.17-.08-16.35-23-32.51-46.09-49-69-26.27-36.53-5.72-88.91,35.19-100.75,2.53-.73,5.12-1.28,7.71-1.78A55,55,0,0,1,283.2,64.83Z"/><path class="cls-2" d="M196.38,215.81c-1.46,7.45-3,15.21-4.5,23q-8.74,45.52-17.49,91.05-2.61,13.61-5.31,27.21c-.65,3.3-2.88,5-5.81,4.46s-4.26-2.93-3.62-6.27q10.23-53,20.45-105.95c2.11-10.91,4.18-21.82,6.28-32.73.16-.86.33-1.73.56-2.58.75-2.73,2.56-4.14,5.37-3.68S196.43,212.63,196.38,215.81Z"/><path class="cls-2" d="M258,242.41c2.44,3.22,4.65,6.23,6.95,9.16.86,1.09.31,2.14.11,3.15q-6.68,34.82-13.44,69.63c-.92,4.75-1.79,9.51-2.82,14.24-.76,3.49-2.84,5-5.79,4.38-2.77-.55-4.25-3-3.59-6.4q9-46.47,18-92.94A7.54,7.54,0,0,1,258,242.41Z"/><path class="cls-3" d="M283.06,88.08c23.47-.63,45.1,19,44.88,45.16a44.8,44.8,0,0,1-45.38,44.13c-26.11-.52-44.86-22.24-44.06-46.78C239.24,107.6,259.46,87.88,283.06,88.08Z"/></g></svg>