<?xml version="1.0" encoding="UTF-8" standalone="no"?>
<svg
   xmlns:dc="http://purl.org/dc/elements/1.1/"
   xmlns:cc="http://creativecommons.org/ns#"
   xmlns:rdf="http://www.w3.org/1999/02/22-rdf-syntax-ns#"
   xmlns:svg="http://www.w3.org/2000/svg"
   xmlns="http://www.w3.org/2000/svg"
   xmlns:sodipodi="http://sodipodi.sourceforge.net/DTD/sodipodi-0.dtd"
   xmlns:inkscape="http://www.inkscape.org/namespaces/inkscape"
   id="Layer_1"
   data-name="Layer 1"
   viewBox="0 0 32 32"
   version="1.1"
   sodipodi:docname="icono.svg"
   width="32"
   height="32"
   inkscape:version="0.92.3 (2405546, 2018-03-11)">
  <metadata
     id="metadata46">
    <rdf:RDF>
      <cc:Work
         rdf:about="">
        <dc:format>image/svg+xml</dc:format>
        <dc:type
           rdf:resource="http://purl.org/dc/dcmitype/StillImage" />
        <dc:title>Artboard 10 copy</dc:title>
      </cc:Work>
    </rdf:RDF>
  </metadata>
  <sodipodi:namedview
     pagecolor="#ffffff"
     bordercolor="#666666"
     borderopacity="1"
     objecttolerance="10"
     gridtolerance="10"
     guidetolerance="10"
     inkscape:pageopacity="0"
     inkscape:pageshadow="2"
     inkscape:window-width="1366"
     inkscape:window-height="705"
     id="namedview44"
     showgrid="false"
     inkscape:zoom="6.0144055"
     inkscape:cx="40.769809"
     inkscape:cy="9.327401"
     inkscape:window-x="0"
     inkscape:window-y="30"
     inkscape:window-maximized="1"
     inkscape:current-layer="Layer_1" />
  <defs
     id="defs4">
    <style
       id="style2">.cls-1{fill:#242056;}.cls-2{fill:#fff;}.cls-3{fill:#d0d5e4;}.cls-4{fill:#fefefe;}.cls-5{fill:#7cc9ed;}.cls-6{fill:#232155;}</style>
  </defs>
  <title
     id="title6">Artboard 10 copy</title>
  <path
     class="cls-1"
     d="M 30.750459,16.369877 C 30.446139,16.068114 17.038986,2.6268629 16.779845,2.3677218 16.675848,2.1546123 16.532638,2.0079932 16.268382,2.0685164 c -0.379335,0 -0.644444,0.2037319 -0.89847,0.4586114 Q 8.4532255,9.4514857 1.5331304,16.369877 c -0.5114635,0.511463 -0.61119865,0.921486 -0.3119923,1.182332 0.2079946,0.180717 0.8882406,-0.700705 1.4423255,-1.239446 q 0.9794516,-0.953026 1.9606087,-1.900085 c 0.1500293,0.699 0.055411,2.541972 0.040061,3.239266 -0.032396,1.423573 0.064783,9.685407 0.064783,9.685407 0.1807171,0.612902 0.6708686,0.670016 1.1934134,0.664901 H 26.845433 c 0.511463,0.09973 0.767195,-0.219929 0.756966,-0.638476 -0.02131,-0.843914 0.130423,-10.911212 0.07587,-12.64763 l 1.934182,2.022837 c 0.215668,0.130423 1.2062,1.126923 1.501144,0.635919 0.288124,-0.473103 -0.03921,-0.682804 -0.363139,-1.005025 z m -4.898963,10.772265 c -3.285298,-0.04347 -6.571449,-0.0324 -9.857599,-0.04006 v 0 c -3.263135,0.0076 -6.527122,0.0085 -9.7902567,0.0324 -0.4500871,0 -0.5310691,-0.17475 -0.5302167,-0.572839 q 0.016198,-6.215981 0,-12.430258 c 0,-0.267665 0.052856,-0.48248 0.2557317,-0.681951 Q 10.946609,8.4498704 15.954685,3.4400898 a 0.65723007,0.65723007 0 0 1 0.179012,-0.092059 c 0.202027,0.0358 0.299206,0.2079945 0.426219,0.3350081 q 4.765984,4.7583114 9.531967,9.5140661 a 1.5497332,1.5497332 0 0 1 0.503792,1.213872 q -0.02983,5.96707 0,11.941811 c 0.0076,0.578805 -0.09888,0.797882 -0.744179,0.789358 z"
     id="path8"
     inkscape:connector-curvature="0"
     style="fill:#242056;stroke-width:0.08524385" />
  <rect
     class="cls-2"
     x="5.6768351"
     y="25.148287"
     width="20.923103"
     height="5.8715963"
     id="rect10"
     style="fill:#ffffff;stroke-width:0.08524385" />
  <g
     id="GIjQvQ.tif"
     transform="matrix(0.08524384,0,0,0.08524384,-3.0615134,-3.777507)">
    <path
       class="cls-1"
       d="m 331.35,265.16 c -0.37,15.14 -5.41,28.35 -15.94,39.45 -17.69,18.63 -36.12,36.51 -54.31,54.62 -11.29,11.24 -22.76,22.27 -34.07,33.48 -2.17,2.15 -3.46,2.63 -6,0.06 q -21.57,-21.7 -43.61,-42.95 -18.19,-17.47 -35.74,-35.59 c -6.29,-6.48 -13,-12.64 -17.55,-20.69 -18.93,-33.4 -1,-75.86 36.21,-85.26 23.26,-5.87 46.55,2.52 61.42,22.37 1.95,2.59 2.51,2.17 4.27,-0.14 10.87,-14.27 25.07,-22.43 43.23,-23.81 30.22,-2.31 56.8,20.05 61.36,49.07 a 92.08,92.08 0 0 1 0.73,9.39 z"
       id="path12"
       inkscape:connector-curvature="0"
       style="fill:#242056" />
    <path
       class="cls-3"
       d="m 224.2,387.29 c -0.43,0.48 -0.81,0.21 -1.13,-0.11 -10.3,-10.4 -21.35,-20 -31.25,-30.82 -2.76,-4.59 -5.72,-9.06 -8.68,-13.53 -9.23,-13.9 -18.45,-27.81 -26.94,-42.18 -5.58,-9.44 -9.62,-19.47 -10.8,-30.49 a 38.05,38.05 0 0 1 2.79,-18.44 c 4.28,-10.54 11.1,-19.14 21.39,-24.56 10.89,-5.75 22.25,-6.22 33.91,-2.85 2.68,0.77 5.32,1.7 7.92,2.72 5.57,4.6 8.85,10.86 12.4,17.23 2.87,-4.27 4.94,-8.84 8.16,-12.69 9.64,-11.56 21.76,-18.23 36.89,-19.36 17.48,-1.3 32.06,4.71 43.7,17.57 a 47.26,47.26 0 0 1 12.54,27.57 c -0.66,5.26 -3.46,9.67 -5.87,14.18 -5.94,11.15 -14.68,20 -24,28.3 -9.51,8.51 -19.73,16.21 -28.82,25.18 -14.51,14.31 -25.36,31.23 -34.88,49.09 -2.35,4.44 -4.38,9.08 -7.33,13.19 z"
       id="path14"
       inkscape:connector-curvature="0"
       style="fill:#d0d5e4" />
    <path
       class="cls-4"
       d="m 211.41,227 c -1.23,1.22 -2.33,0 -3.33,-0.34 -6.46,-2.32 -13.08,-4 -19.94,-3.61 -15.63,0.89 -27.31,8.33 -35.5,21.7 a 42.37,42.37 0 0 0 -6.47,23.52 55.2,55.2 0 0 0 5.47,21.59 c 5.83,12.72 13.79,24.22 21.43,35.89 q 9.44,14.43 18.84,28.89 c 0.42,0.64 0.66,1.16 -0.09,1.69 -13.22,-13.09 -26.52,-26.09 -39.62,-39.29 -7.16,-7.23 -15,-13.89 -20.86,-22.31 -21.46,-30.77 -4.59,-74 32.19,-81.58 18.08,-3.72 34.4,0.71 47.88,13.85 z"
       id="path16"
       inkscape:connector-curvature="0"
       style="fill:#fefefe" />
    <path
       class="cls-5"
       d="m 224.2,387.29 c 3.35,-8.43 8,-16.22 12.42,-24.07 a 202.65,202.65 0 0 1 22.55,-32 152.36,152.36 0 0 1 16.7,-16 C 290,303.12 305.19,292 315.53,276.08 a 74.24,74.24 0 0 0 8.29,-16.42 4.57,4.57 0 0 1 1.28,-2.31 c 1.45,4.8 1.06,9.74 0.4,14.51 -1.79,13.1 -8.34,23.58 -17.61,33 -9,9.17 -18,18.37 -27.13,27.47 -15.37,15.35 -30.89,30.54 -46.41,45.74 -3.26,3.19 -6.76,6.15 -10.15,9.22 z"
       id="path18"
       inkscape:connector-curvature="0"
       style="fill:#7cc9ed" />
    <path
       class="cls-3"
       d="m 180.27,259.32 h -2 c -6.47,0 -6.71,0.14 -5.7,6.56 a 34,34 0 0 1 0,5.62 c 0,2.35 -1,2.78 -3.06,2.74 -2.06,-0.04 -2.42,-0.48 -2.14,-2.56 a 32.4,32.4 0 0 0 -0.17,-10.35 c -0.3,-1.55 -0.94,-2.06 -2.43,-2 -3.36,0.07 -6.72,-0.05 -10.08,0.07 -1.93,0.06 -2.53,-0.69 -2.51,-2.55 0.02,-1.86 0.19,-3 2.49,-2.92 3.24,0.15 6.5,-0.09 9.74,0.08 2.58,0.13 3.68,-1 3.14,-3.35 -0.73,-3.15 0.23,-6.22 0,-9.31 -0.16,-2.34 0.89,-2.85 3,-2.79 2.24,0.07 2.75,1.36 2.41,3.1 -0.63,3.22 -0.4,6.46 -0.49,9.7 -0.06,1.85 0.76,2.63 2.6,2.61 3.25,-0.06 6.5,0.05 9.75,0 1.89,0 3.12,0.07 3.14,2.59 0.02,2.52 -1.16,3 -3.26,2.83 -1.51,-0.15 -2.97,-0.07 -4.43,-0.07 z"
       id="path20"
       inkscape:connector-curvature="0"
       style="fill:#d0d5e4" />
    <path
       class="cls-3"
       d="m 163.85,265.62 c 0.06,0.65 -4,5 -4.49,4.84 a 7.23,7.23 0 0 1 -3.48,-3.38 c -0.22,-0.35 4.3,-4.78 4.67,-4.57 a 11.16,11.16 0 0 1 3.3,3.11 z"
       id="path22"
       inkscape:connector-curvature="0"
       style="fill:#d0d5e4" />
    <path
       class="cls-3"
       d="m 160.54,250.33 c -0.52,0 -4.82,-4.27 -4.61,-4.7 a 8.55,8.55 0 0 1 3.21,-3.3 c 0.37,-0.24 4.71,3.9 4.77,4.47 0.06,0.57 -2.81,3.53 -3.37,3.53 z"
       id="path24"
       inkscape:connector-curvature="0"
       style="fill:#d0d5e4" />
    <path
       class="cls-3"
       d="m 180.84,270.72 c -1.71,-1.45 -3.74,-2.63 -4.3,-4.64 -0.45,-1.63 1.5,-2.54 2.68,-3.5 0.36,-0.3 4.91,3.67 4.8,4.31 -0.31,1.8 -2.02,2.45 -3.18,3.83 z"
       id="path26"
       inkscape:connector-curvature="0"
       style="fill:#d0d5e4" />
    <path
       class="cls-3"
       d="m 184.06,245.32 c -0.05,1 -4.25,5.21 -4.69,5 a 8.16,8.16 0 0 1 -3.23,-3.28 c -0.32,-0.62 3.89,-4.6 4.65,-4.39 1.6,0.4 2.34,1.85 3.27,2.67 z"
       id="path28"
       inkscape:connector-curvature="0"
       style="fill:#d0d5e4" />
    <path
       class="cls-3"
       d="m 304,264.79 c 2.53,-0.37 2.24,1.39 2.32,3 0.08,1.61 -0.38,2.4 -2.21,2.46 -2.27,0.08 -2.5,-1.07 -2.49,-2.88 0.01,-1.81 0.3,-2.92 2.38,-2.58 z"
       id="path30"
       inkscape:connector-curvature="0"
       style="fill:#d0d5e4" />
    <path
       class="cls-3"
       d="m 294.89,260.7 c -1.59,0.13 -2.68,0 -2.71,-2 0,-2.27 1.4,-2.06 2.86,-2.08 1.46,-0.02 2.57,0.06 2.58,2 0.02,2.29 -1.36,2.18 -2.73,2.08 z"
       id="path32"
       inkscape:connector-curvature="0"
       style="fill:#d0d5e4" />
    <path
       class="cls-3"
       d="m 284.09,267.57 c 0,-1.5 -0.2,-2.8 1.89,-2.85 2.09,-0.05 2.26,1.19 2.22,2.77 0,1.35 0.14,2.64 -1.93,2.69 -2.07,0.05 -2.27,-1.18 -2.18,-2.61 z"
       id="path34"
       inkscape:connector-curvature="0"
       style="fill:#d0d5e4" />
    <path
       class="cls-3"
       d="m 294.79,278.28 c -1.47,0.13 -2.65,-0.09 -2.6,-2.21 0.05,-2.12 1.38,-1.84 2.71,-1.9 1.6,-0.07 2.8,0.08 2.73,2.22 -0.07,2.14 -1.35,1.92 -2.84,1.89 z"
       id="path36"
       inkscape:connector-curvature="0"
       style="fill:#d0d5e4" />
  </g>
  <path
     class="cls-2"
     d="m 16.275201,26.235147 a 0.7774239,0.7774239 0 0 1 -0.771457,-0.693032 l -0.261698,-2.436269 -0.38445,1.100498 a 0.77571903,0.77571903 0 0 1 -1.481538,-0.05626 l -0.131275,-0.49612 -0.02814,0.04432 a 0.77401415,0.77401415 0 0 1 -0.657229,0.363991 H 8.3986658 a 0.77571903,0.77571903 0 0 1 0,-1.550585 h 3.7302712 l 0.750146,-1.198529 a 0.77571903,0.77571903 0 0 1 1.335771,0.0341 l 0.699852,-2.003231 a 0.77486659,0.77486659 0 0 1 1.502849,0.170488 l 0.255732,2.409844 0.322221,-0.932568 a 0.77486659,0.77486659 0 0 1 1.498587,0.133834 l 0.31796,2.033917 0.566019,-0.473103 a 0.77316171,0.77316171 0 0 1 0.496972,-0.180717 h 3.329624 a 0.77571911,0.77571911 0 0 1 0,1.551438 h -3.048319 l -1.403115,1.173807 a 0.77571903,0.77571903 0 0 1 -1.263309,-0.475661 l -0.04689,-0.302616 -0.435596,1.264166 a 0.77486659,0.77486659 0 0 1 -0.732244,0.518282 z"
     id="path39"
     inkscape:connector-curvature="0"
     style="fill:#ffffff;stroke-width:0.08524385" />
  <path
     class="cls-6"
     d="m 16.275201,25.665719 h -0.02387 a 0.20629012,0.20629012 0 0 1 -0.181569,-0.183274 l -0.532774,-4.944144 -1.21643,3.484769 a 0.20288037,0.20288037 0 0 1 -0.20288,0.138094 0.20543767,0.20543767 0 0 1 -0.191799,-0.153438 l -0.467989,-1.766253 -0.722867,1.158464 a 0.20714255,0.20714255 0 0 1 -0.175602,0.09718 H 8.3986649 a 0.20714255,0.20714255 0 0 1 0,-0.413433 h 4.0456731 l 0.915519,-1.466193 a 0.20714255,0.20714255 0 0 1 0.375073,0.05626 l 0.417695,1.576159 1.296559,-3.714927 a 0.20629012,0.20629012 0 0 1 0.400646,0.04603 l 0.531921,4.939881 1.152497,-3.338149 a 0.20714255,0.20714255 0 0 1 0.399794,0.0358 l 0.470546,3.027861 1.338329,-1.118399 a 0.20202792,0.20202792 0 0 1 0.132128,-0.04858 h 3.329624 a 0.20714255,0.20714255 0 0 1 0,0.413433 h -3.250348 l -1.560814,1.305083 A 0.20714255,0.20714255 0 0 1 18.052531,24.67093 l -0.399794,-2.569249 -1.183184,3.425097 a 0.20629012,0.20629012 0 0 1 -0.194356,0.138948 z"
     id="path41"
     inkscape:connector-curvature="0"
     style="fill:#232155;stroke-width:0.08524385" />
</svg>
